<?xml version="1.0" encoding="UTF-8" standalone="no"?>
<!DOCTYPE svg PUBLIC "-//W3C//DTD SVG 1.1//EN" 
  "http://www.w3.org/Graphics/SVG/1.1/DTD/svg11.dtd">
<svg width="45" height="100"
     xmlns="http://www.w3.org/2000/svg" version="1.1">
 <path d="  M 7,51  L 7,48  L 6,48  L 6,47  L 7,47  L 7,46  L 8,46  L 8,45  L 9,45  L 9,37  L 8,37  L 8,36  L 7,36  L 7,35  L 6,35  L 6,31  L 7,31  L 7,29  L 8,29  L 8,28  L 9,28  L 9,25  L 10,25  L 10,20  L 11,20  L 11,16  L 9,16  L 9,15  L 7,15  L 7,14  L 4,14  L 4,13  L 3,13  L 3,12  L 4,12  L 4,11  L 5,11  L 5,10  L 6,10  L 6,9  L 7,9  L 7,8  L 9,8  L 9,7  L 10,7  L 10,6  L 12,6  L 12,5  L 14,5  L 14,4  L 15,4  L 15,3  L 19,3  L 19,2  L 27,2  L 27,3  L 30,3  L 30,4  L 34,4  L 34,5  L 35,5  L 35,6  L 37,6  L 37,7  L 38,7  L 38,8  L 40,8  L 40,9  L 41,9  L 41,10  L 42,10  L 42,11  L 43,11  L 43,12  L 44,12  L 44,13  L 43,13  L 43,14  L 42,14  L 42,15  L 40,15  L 40,16  L 38,16  L 38,17  L 37,17  L 37,29  L 38,29  L 38,30  L 39,30  L 39,36  L 38,36  L 38,37  L 37,37  L 37,38  L 38,38  L 38,39  L 39,39  L 39,43  L 38,43  L 38,47  L 39,47  L 39,51  L 38,51  L 38,52  L 37,52  L 37,56  L 38,56  L 38,55  L 40,55  L 40,56  L 41,56  L 41,57  L 42,57  L 42,59  L 41,59  L 41,60  L 40,60  L 40,61  L 36,61  L 36,65  L 37,65  L 37,67  L 36,67  L 36,68  L 32,68  L 32,75  L 34,75  L 34,74  L 35,74  L 35,73  L 36,73  L 36,74  L 37,74  L 37,76  L 36,76  L 36,77  L 35,77  L 35,78  L 34,78  L 34,79  L 33,79  L 33,80  L 34,80  L 34,84  L 35,84  L 35,89  L 36,89  L 36,98  L 35,98  L 35,99  L 34,99  L 34,100  L 45,100  L 45,0  L 0,0  L 0,100  L 13,100  L 13,99  L 12,99  L 12,98  L 11,98  L 11,97  L 10,97  L 10,85  L 11,85  L 11,80  L 12,80  L 12,75  L 13,75  L 13,66  L 9,66  L 9,65  L 8,65  L 8,63  L 9,63  L 9,60  L 10,60  L 10,59  L 9,59  L 9,58  L 8,58  L 8,59  L 6,59  L 6,58  L 5,58  L 5,57  L 4,57  L 4,55  L 5,55  L 5,54  L 6,54  L 6,53  L 8,53  L 8,51  Z  " style="fill:rgb(255, 255, 255); fill-opacity:0.000; stroke:none;" />
 <path d="  M 30,100  L 30,99  L 29,99  L 29,98  L 28,98  L 28,96  L 27,96  L 27,81  L 26,81  L 26,77  L 25,77  L 25,76  L 24,76  L 24,75  L 23,75  L 23,74  L 22,74  L 22,71  L 21,71  L 21,73  L 20,73  L 20,77  L 19,77  L 19,98  L 18,98  L 18,99  L 17,99  L 17,100  Z  " style="fill:rgb(255, 255, 255); fill-opacity:0.000; stroke:none;" />
 <path d="  M 36,61  L 36,60  L 35,60  L 35,61  Z  " style="fill:rgb(255, 255, 255); fill-opacity:0.000; stroke:none;" />
 <path d="  M 4,12  L 3,12  L 3,13  L 4,13  Z  " style="fill:rgb(0, 0, 0); fill-opacity:1.000; stroke:none;" />
 <path d="  M 5,12  L 5,11  L 4,11  L 4,12  Z  " style="fill:rgb(0, 0, 0); fill-opacity:1.000; stroke:none;" />
 <path d="  M 7,14  L 7,13  L 4,13  L 4,14  Z  " style="fill:rgb(0, 0, 0); fill-opacity:1.000; stroke:none;" />
 <path d="  M 4,57  L 5,57  L 5,55  L 4,55  Z  " style="fill:rgb(0, 0, 0); fill-opacity:1.000; stroke:none;" />
 <path d="  M 5,10  L 5,11  L 6,11  L 6,10  Z  " style="fill:rgb(0, 0, 0); fill-opacity:1.000; stroke:none;" />
 <path d="  M 5,55  L 6,55  L 6,54  L 5,54  Z  " style="fill:rgb(0, 0, 0); fill-opacity:1.000; stroke:none;" />
 <path d="  M 5,57  L 5,58  L 6,58  L 6,57  Z  " style="fill:rgb(0, 0, 0); fill-opacity:1.000; stroke:none;" />
 <path d="  M 7,9  L 6,9  L 6,10  L 7,10  Z  " style="fill:rgb(0, 0, 0); fill-opacity:1.000; stroke:none;" />
 <path d="  M 6,35  L 7,35  L 7,31  L 6,31  Z  " style="fill:rgb(0, 0, 0); fill-opacity:1.000; stroke:none;" />
 <path d="  M 6,48  L 7,48  L 7,47  L 6,47  Z  " style="fill:rgb(0, 0, 0); fill-opacity:1.000; stroke:none;" />
 <path d="  M 9,54  L 9,51  L 8,51  L 8,53  L 6,53  L 6,54  Z  " style="fill:rgb(0, 0, 0); fill-opacity:1.000; stroke:none;" />
 <path d="  M 8,59  L 8,58  L 6,58  L 6,59  Z  " style="fill:rgb(0, 0, 0); fill-opacity:1.000; stroke:none;" />
 <path d="  M 7,8  L 7,9  L 9,9  L 9,8  Z  " style="fill:rgb(0, 0, 0); fill-opacity:1.000; stroke:none;" />
 <path d="  M 7,14  L 7,15  L 9,15  L 9,14  Z  " style="fill:rgb(0, 0, 0); fill-opacity:1.000; stroke:none;" />
 <path d="  M 7,31  L 8,31  L 8,29  L 7,29  Z  " style="fill:rgb(0, 0, 0); fill-opacity:1.000; stroke:none;" />
 <path d="  M 7,35  L 7,36  L 8,36  L 8,35  Z  " style="fill:rgb(0, 0, 0); fill-opacity:1.000; stroke:none;" />
 <path d="  M 7,46  L 7,47  L 8,47  L 8,46  Z  " style="fill:rgb(0, 0, 0); fill-opacity:1.000; stroke:none;" />
 <path d="  M 8,48  L 7,48  L 7,51  L 8,51  Z  " style="fill:rgb(0, 0, 0); fill-opacity:1.000; stroke:none;" />
 <path d="  M 9,29  L 9,28  L 8,28  L 8,29  Z  " style="fill:rgb(0, 0, 0); fill-opacity:1.000; stroke:none;" />
 <path d="  M 10,51  L 10,36  L 8,36  L 8,37  L 9,37  L 9,45  L 8,45  L 8,46  L 9,46  L 9,51  Z  " style="fill:rgb(0, 0, 0); fill-opacity:1.000; stroke:none;" />
 <path d="  M 9,58  L 9,57  L 8,57  L 8,58  Z  " style="fill:rgb(0, 0, 0); fill-opacity:1.000; stroke:none;" />
 <path d="  M 9,65  L 9,63  L 8,63  L 8,65  Z  " style="fill:rgb(0, 0, 0); fill-opacity:1.000; stroke:none;" />
 <path d="  M 9,7  L 9,8  L 10,8  L 10,7  Z  " style="fill:rgb(0, 0, 0); fill-opacity:1.000; stroke:none;" />
 <path d="  M 11,16  L 11,15  L 9,15  L 9,16  Z  " style="fill:rgb(0, 0, 0); fill-opacity:1.000; stroke:none;" />
 <path d="  M 10,25  L 9,25  L 9,28  L 10,28  L 10,26  L 12,26  L 12,25  L 11,25  L 11,20  L 10,20  Z  " style="fill:rgb(0, 0, 0); fill-opacity:1.000; stroke:none;" />
 <path d="  M 11,58  L 9,58  L 9,59  L 10,59  L 10,60  L 11,60  Z  " style="fill:rgb(0, 0, 0); fill-opacity:1.000; stroke:none;" />
 <path d="  M 10,60  L 9,60  L 9,63  L 10,63  Z  " style="fill:rgb(0, 0, 0); fill-opacity:1.000; stroke:none;" />
 <path d="  M 9,65  L 9,66  L 13,66  L 13,65  Z  " style="fill:rgb(0, 0, 0); fill-opacity:1.000; stroke:none;" />
 <path d="  M 12,7  L 12,6  L 10,6  L 10,7  Z  " style="fill:rgb(0, 0, 0); fill-opacity:1.000; stroke:none;" />
 <path d="  M 36,52  L 36,51  L 10,51  L 10,52  Z  " style="fill:rgb(0, 0, 0); fill-opacity:1.000; stroke:none;" />
 <path d="  M 11,85  L 10,85  L 10,97  L 11,97  Z  " style="fill:rgb(0, 0, 0); fill-opacity:1.000; stroke:none;" />
 <path d="  M 11,20  L 12,20  L 12,16  L 11,16  Z  " style="fill:rgb(0, 0, 0); fill-opacity:1.000; stroke:none;" />
 <path d="  M 12,80  L 11,80  L 11,85  L 12,85  Z  " style="fill:rgb(0, 0, 0); fill-opacity:1.000; stroke:none;" />
 <path d="  M 12,97  L 11,97  L 11,98  L 12,98  Z  " style="fill:rgb(0, 0, 0); fill-opacity:1.000; stroke:none;" />
 <path d="  M 12,5  L 12,6  L 14,6  L 14,5  Z  " style="fill:rgb(0, 0, 0); fill-opacity:1.000; stroke:none;" />
 <path d="  M 13,75  L 12,75  L 12,80  L 13,80  Z  " style="fill:rgb(0, 0, 0); fill-opacity:1.000; stroke:none;" />
 <path d="  M 12,99  L 13,99  L 13,98  L 12,98  Z  " style="fill:rgb(0, 0, 0); fill-opacity:1.000; stroke:none;" />
 <path d="  M 13,75  L 14,75  L 14,67  L 13,67  Z  " style="fill:rgb(0, 0, 0); fill-opacity:1.000; stroke:none;" />
 <path d="  M 17,99  L 13,99  L 13,100  L 17,100  Z  " style="fill:rgb(0, 0, 0); fill-opacity:1.000; stroke:none;" />
 <path d="  M 15,5  L 15,4  L 14,4  L 14,5  Z  " style="fill:rgb(0, 0, 0); fill-opacity:1.000; stroke:none;" />
 <path d="  M 19,4  L 19,3  L 15,3  L 15,4  Z  " style="fill:rgb(0, 0, 0); fill-opacity:1.000; stroke:none;" />
 <path d="  M 16,25  L 16,26  L 31,26  L 31,25  Z  " style="fill:rgb(0, 0, 0); fill-opacity:1.000; stroke:none;" />
 <path d="  M 18,42  L 18,44  L 20,44  L 20,35  L 22,35  L 22,33  L 25,33  L 25,31  L 20,31  L 20,33  L 18,33  L 18,35  L 16,35  L 16,42  Z  " style="fill:rgb(0, 0, 0); fill-opacity:1.000; stroke:none;" />
 <path d="  M 18,98  L 17,98  L 17,99  L 18,99  Z  " style="fill:rgb(0, 0, 0); fill-opacity:1.000; stroke:none;" />
 <path d="  M 18,98  L 19,98  L 19,77  L 18,77  Z  " style="fill:rgb(0, 0, 0); fill-opacity:1.000; stroke:none;" />
 <path d="  M 19,2  L 19,3  L 27,3  L 27,2  Z  " style="fill:rgb(0, 0, 0); fill-opacity:1.000; stroke:none;" />
 <path d="  M 19,73  L 19,77  L 20,77  L 20,73  Z  " style="fill:rgb(0, 0, 0); fill-opacity:1.000; stroke:none;" />
 <path d="  M 25,46  L 25,44  L 27,44  L 27,42  L 29,42  L 29,35  L 27,35  L 27,33  L 25,33  L 25,42  L 23,42  L 23,44  L 20,44  L 20,46  Z  " style="fill:rgb(0, 0, 0); fill-opacity:1.000; stroke:none;" />
 <path d="  M 21,70  L 21,63  L 20,63  L 20,73  L 21,73  L 21,71  L 22,71  L 22,70  Z  " style="fill:rgb(0, 0, 0); fill-opacity:1.000; stroke:none;" />
 <path d="  M 22,74  L 23,74  L 23,71  L 22,71  Z  " style="fill:rgb(0, 0, 0); fill-opacity:1.000; stroke:none;" />
 <path d="  M 24,74  L 23,74  L 23,75  L 24,75  Z  " style="fill:rgb(0, 0, 0); fill-opacity:1.000; stroke:none;" />
 <path d="  M 25,64  L 24,64  L 24,73  L 25,73  Z  " style="fill:rgb(0, 0, 0); fill-opacity:1.000; stroke:none;" />
 <path d="  M 25,76  L 25,75  L 24,75  L 24,76  Z  " style="fill:rgb(0, 0, 0); fill-opacity:1.000; stroke:none;" />
 <path d="  M 25,73  L 25,74  L 26,74  L 26,73  Z  " style="fill:rgb(0, 0, 0); fill-opacity:1.000; stroke:none;" />
 <path d="  M 26,76  L 25,76  L 25,77  L 26,77  Z  " style="fill:rgb(0, 0, 0); fill-opacity:1.000; stroke:none;" />
 <path d="  M 27,81  L 27,77  L 26,77  L 26,81  Z  " style="fill:rgb(0, 0, 0); fill-opacity:1.000; stroke:none;" />
 <path d="  M 27,3  L 27,4  L 30,4  L 30,3  Z  " style="fill:rgb(0, 0, 0); fill-opacity:1.000; stroke:none;" />
 <path d="  M 28,81  L 27,81  L 27,96  L 28,96  Z  " style="fill:rgb(0, 0, 0); fill-opacity:1.000; stroke:none;" />
 <path d="  M 29,96  L 28,96  L 28,98  L 29,98  Z  " style="fill:rgb(0, 0, 0); fill-opacity:1.000; stroke:none;" />
 <path d="  M 30,98  L 29,98  L 29,99  L 30,99  Z  " style="fill:rgb(0, 0, 0); fill-opacity:1.000; stroke:none;" />
 <path d="  M 30,4  L 30,5  L 34,5  L 34,4  Z  " style="fill:rgb(0, 0, 0); fill-opacity:1.000; stroke:none;" />
 <path d="  M 34,100  L 34,99  L 30,99  L 30,100  Z  " style="fill:rgb(0, 0, 0); fill-opacity:1.000; stroke:none;" />
 <path d="  M 32,68  L 36,68  L 36,67  L 31,67  L 31,75  L 32,75  Z  " style="fill:rgb(0, 0, 0); fill-opacity:1.000; stroke:none;" />
 <path d="  M 32,76  L 34,76  L 34,75  L 32,75  Z  " style="fill:rgb(0, 0, 0); fill-opacity:1.000; stroke:none;" />
 <path d="  M 32,80  L 33,80  L 33,79  L 32,79  Z  " style="fill:rgb(0, 0, 0); fill-opacity:1.000; stroke:none;" />
 <path d="  M 33,78  L 33,79  L 34,79  L 34,78  Z  " style="fill:rgb(0, 0, 0); fill-opacity:1.000; stroke:none;" />
 <path d="  M 33,84  L 34,84  L 34,80  L 33,80  Z  " style="fill:rgb(0, 0, 0); fill-opacity:1.000; stroke:none;" />
 <path d="  M 34,6  L 35,6  L 35,5  L 34,5  Z  " style="fill:rgb(0, 0, 0); fill-opacity:1.000; stroke:none;" />
 <path d="  M 34,60  L 34,61  L 35,61  L 35,60  Z  " style="fill:rgb(0, 0, 0); fill-opacity:1.000; stroke:none;" />
 <path d="  M 34,74  L 34,75  L 35,75  L 35,74  Z  " style="fill:rgb(0, 0, 0); fill-opacity:1.000; stroke:none;" />
 <path d="  M 34,77  L 34,78  L 35,78  L 35,77  Z  " style="fill:rgb(0, 0, 0); fill-opacity:1.000; stroke:none;" />
 <path d="  M 35,84  L 34,84  L 34,89  L 35,89  Z  " style="fill:rgb(0, 0, 0); fill-opacity:1.000; stroke:none;" />
 <path d="  M 34,98  L 34,99  L 35,99  L 35,98  Z  " style="fill:rgb(0, 0, 0); fill-opacity:1.000; stroke:none;" />
 <path d="  M 37,7  L 37,6  L 35,6  L 35,7  Z  " style="fill:rgb(0, 0, 0); fill-opacity:1.000; stroke:none;" />
 <path d="  M 36,25  L 35,25  L 35,26  L 36,26  L 36,29  L 37,29  L 37,17  L 36,17  Z  " style="fill:rgb(0, 0, 0); fill-opacity:1.000; stroke:none;" />
 <path d="  M 36,59  L 35,59  L 35,60  L 36,60  Z  " style="fill:rgb(0, 0, 0); fill-opacity:1.000; stroke:none;" />
 <path d="  M 36,61  L 35,61  L 35,65  L 36,65  Z  " style="fill:rgb(0, 0, 0); fill-opacity:1.000; stroke:none;" />
 <path d="  M 35,74  L 36,74  L 36,73  L 35,73  Z  " style="fill:rgb(0, 0, 0); fill-opacity:1.000; stroke:none;" />
 <path d="  M 36,77  L 36,76  L 35,76  L 35,77  Z  " style="fill:rgb(0, 0, 0); fill-opacity:1.000; stroke:none;" />
 <path d="  M 36,89  L 35,89  L 35,98  L 36,98  Z  " style="fill:rgb(0, 0, 0); fill-opacity:1.000; stroke:none;" />
 <path d="  M 36,50  L 37,50  L 37,47  L 38,47  L 38,43  L 37,43  L 37,39  L 38,39  L 38,38  L 37,38  L 37,37  L 36,37  Z  " style="fill:rgb(0, 0, 0); fill-opacity:1.000; stroke:none;" />
 <path d="  M 37,52  L 36,52  L 36,56  L 37,56  Z  " style="fill:rgb(0, 0, 0); fill-opacity:1.000; stroke:none;" />
 <path d="  M 40,61  L 40,60  L 36,60  L 36,61  Z  " style="fill:rgb(0, 0, 0); fill-opacity:1.000; stroke:none;" />
 <path d="  M 37,67  L 37,65  L 36,65  L 36,67  Z  " style="fill:rgb(0, 0, 0); fill-opacity:1.000; stroke:none;" />
 <path d="  M 37,74  L 36,74  L 36,76  L 37,76  Z  " style="fill:rgb(0, 0, 0); fill-opacity:1.000; stroke:none;" />
 <path d="  M 37,7  L 37,8  L 38,8  L 38,7  Z  " style="fill:rgb(0, 0, 0); fill-opacity:1.000; stroke:none;" />
 <path d="  M 38,16  L 37,16  L 37,17  L 38,17  Z  " style="fill:rgb(0, 0, 0); fill-opacity:1.000; stroke:none;" />
 <path d="  M 37,29  L 37,30  L 38,30  L 38,29  Z  " style="fill:rgb(0, 0, 0); fill-opacity:1.000; stroke:none;" />
 <path d="  M 38,37  L 38,36  L 37,36  L 37,37  Z  " style="fill:rgb(0, 0, 0); fill-opacity:1.000; stroke:none;" />
 <path d="  M 38,51  L 37,51  L 37,52  L 38,52  Z  " style="fill:rgb(0, 0, 0); fill-opacity:1.000; stroke:none;" />
 <path d="  M 38,56  L 37,56  L 37,57  L 38,57  Z  " style="fill:rgb(0, 0, 0); fill-opacity:1.000; stroke:none;" />
 <path d="  M 40,9  L 40,8  L 38,8  L 38,9  Z  " style="fill:rgb(0, 0, 0); fill-opacity:1.000; stroke:none;" />
 <path d="  M 38,16  L 40,16  L 40,15  L 38,15  Z  " style="fill:rgb(0, 0, 0); fill-opacity:1.000; stroke:none;" />
 <path d="  M 38,30  L 38,36  L 39,36  L 39,30  Z  " style="fill:rgb(0, 0, 0); fill-opacity:1.000; stroke:none;" />
 <path d="  M 39,43  L 39,39  L 38,39  L 38,43  Z  " style="fill:rgb(0, 0, 0); fill-opacity:1.000; stroke:none;" />
 <path d="  M 39,47  L 38,47  L 38,51  L 39,51  Z  " style="fill:rgb(0, 0, 0); fill-opacity:1.000; stroke:none;" />
 <path d="  M 40,56  L 40,55  L 38,55  L 38,56  Z  " style="fill:rgb(0, 0, 0); fill-opacity:1.000; stroke:none;" />
 <path d="  M 40,9  L 40,10  L 41,10  L 41,9  Z  " style="fill:rgb(0, 0, 0); fill-opacity:1.000; stroke:none;" />
 <path d="  M 42,15  L 42,14  L 40,14  L 40,15  Z  " style="fill:rgb(0, 0, 0); fill-opacity:1.000; stroke:none;" />
 <path d="  M 40,57  L 41,57  L 41,56  L 40,56  Z  " style="fill:rgb(0, 0, 0); fill-opacity:1.000; stroke:none;" />
 <path d="  M 41,59  L 40,59  L 40,60  L 41,60  Z  " style="fill:rgb(0, 0, 0); fill-opacity:1.000; stroke:none;" />
 <path d="  M 41,10  L 41,11  L 42,11  L 42,10  Z  " style="fill:rgb(0, 0, 0); fill-opacity:1.000; stroke:none;" />
 <path d="  M 42,57  L 41,57  L 41,59  L 42,59  Z  " style="fill:rgb(0, 0, 0); fill-opacity:1.000; stroke:none;" />
 <path d="  M 43,11  L 42,11  L 42,12  L 43,12  Z  " style="fill:rgb(0, 0, 0); fill-opacity:1.000; stroke:none;" />
 <path d="  M 43,14  L 43,13  L 42,13  L 42,14  Z  " style="fill:rgb(0, 0, 0); fill-opacity:1.000; stroke:none;" />
 <path d="  M 44,13  L 44,12  L 43,12  L 43,13  Z  " style="fill:rgb(0, 0, 0); fill-opacity:1.000; stroke:none;" />
 <path d="  M 4,13  L 5,13  L 5,12  L 4,12  Z  " style="fill:rgb(161, 164, 186); fill-opacity:1.000; stroke:none;" />
 <path d="  M 5,56  L 5,57  L 6,57  L 6,56  Z  " style="fill:rgb(161, 164, 186); fill-opacity:1.000; stroke:none;" />
 <path d="  M 8,55  L 8,57  L 9,57  L 9,55  Z  " style="fill:rgb(161, 164, 186); fill-opacity:1.000; stroke:none;" />
 <path d="  M 9,14  L 9,15  L 11,15  L 11,14  Z  " style="fill:rgb(161, 164, 186); fill-opacity:1.000; stroke:none;" />
 <path d="  M 10,54  L 12,54  L 12,53  L 10,53  Z  " style="fill:rgb(161, 164, 186); fill-opacity:1.000; stroke:none;" />
 <path d="  M 11,9  L 11,10  L 12,10  L 12,9  Z  " style="fill:rgb(161, 164, 186); fill-opacity:1.000; stroke:none;" />
 <path d="  M 12,87  L 12,86  L 11,86  L 11,87  Z  " style="fill:rgb(161, 164, 186); fill-opacity:1.000; stroke:none;" />
 <path d="  M 12,96  L 11,96  L 11,97  L 12,97  Z  " style="fill:rgb(161, 164, 186); fill-opacity:1.000; stroke:none;" />
 <path d="  M 12,9  L 13,9  L 13,8  L 12,8  Z  " style="fill:rgb(161, 164, 186); fill-opacity:1.000; stroke:none;" />
 <path d="  M 13,17  L 13,20  L 14,20  L 14,12  L 12,12  L 12,17  Z  " style="fill:rgb(161, 164, 186); fill-opacity:1.000; stroke:none;" />
 <path d="  M 12,54  L 12,55  L 14,55  L 14,56  L 15,56  L 15,55  L 16,55  L 16,57  L 17,57  L 17,56  L 18,56  L 18,54  Z  " style="fill:rgb(161, 164, 186); fill-opacity:1.000; stroke:none;" />
 <path d="  M 12,97  L 12,98  L 13,98  L 13,97  Z  " style="fill:rgb(161, 164, 186); fill-opacity:1.000; stroke:none;" />
 <path d="  M 13,7  L 13,8  L 14,8  L 14,7  Z  " style="fill:rgb(161, 164, 186); fill-opacity:1.000; stroke:none;" />
 <path d="  M 13,37  L 15,37  L 15,35  L 14,35  L 14,22  L 13,22  Z  " style="fill:rgb(161, 164, 186); fill-opacity:1.000; stroke:none;" />
 <path d="  M 16,53  L 16,52  L 13,52  L 13,53  Z  " style="fill:rgb(161, 164, 186); fill-opacity:1.000; stroke:none;" />
 <path d="  M 15,6  L 14,6  L 14,7  L 15,7  Z  " style="fill:rgb(161, 164, 186); fill-opacity:1.000; stroke:none;" />
 <path d="  M 14,65  L 15,65  L 15,64  L 14,64  Z  " style="fill:rgb(161, 164, 186); fill-opacity:1.000; stroke:none;" />
 <path d="  M 16,16  L 16,14  L 15,14  L 15,16  Z  " style="fill:rgb(161, 164, 186); fill-opacity:1.000; stroke:none;" />
 <path d="  M 16,23  L 15,23  L 15,35  L 16,35  Z  " style="fill:rgb(161, 164, 186); fill-opacity:1.000; stroke:none;" />
 <path d="  M 18,63  L 15,63  L 15,64  L 18,64  Z  " style="fill:rgb(161, 164, 186); fill-opacity:1.000; stroke:none;" />
 <path d="  M 16,14  L 17,14  L 17,12  L 18,12  L 18,10  L 17,10  L 17,11  L 16,11  Z  " style="fill:rgb(161, 164, 186); fill-opacity:1.000; stroke:none;" />
 <path d="  M 18,9  L 18,10  L 19,10  L 19,9  Z  " style="fill:rgb(161, 164, 186); fill-opacity:1.000; stroke:none;" />
 <path d="  M 20,53  L 18,53  L 18,54  L 20,54  Z  " style="fill:rgb(161, 164, 186); fill-opacity:1.000; stroke:none;" />
 <path d="  M 18,56  L 18,57  L 19,57  L 19,56  Z  " style="fill:rgb(161, 164, 186); fill-opacity:1.000; stroke:none;" />
 <path d="  M 18,77  L 19,77  L 19,76  L 18,76  Z  " style="fill:rgb(161, 164, 186); fill-opacity:1.000; stroke:none;" />
 <path d="  M 19,8  L 19,9  L 20,9  L 20,8  Z  " style="fill:rgb(161, 164, 186); fill-opacity:1.000; stroke:none;" />
 <path d="  M 20,57  L 21,57  L 21,56  L 23,56  L 23,55  L 19,55  L 19,56  L 20,56  Z  " style="fill:rgb(161, 164, 186); fill-opacity:1.000; stroke:none;" />
 <path d="  M 19,57  L 19,58  L 20,58  L 20,57  Z  " style="fill:rgb(161, 164, 186); fill-opacity:1.000; stroke:none;" />
 <path d="  M 20,65  L 20,64  L 19,64  L 19,65  Z  " style="fill:rgb(161, 164, 186); fill-opacity:1.000; stroke:none;" />
 <path d="  M 20,71  L 20,69  L 19,69  L 19,71  Z  " style="fill:rgb(161, 164, 186); fill-opacity:1.000; stroke:none;" />
 <path d="  M 22,17  L 22,15  L 21,15  L 21,17  Z  " style="fill:rgb(161, 164, 186); fill-opacity:1.000; stroke:none;" />
 <path d="  M 23,11  L 24,11  L 24,8  L 23,8  L 23,10  L 22,10  L 22,15  L 23,15  Z  " style="fill:rgb(161, 164, 186); fill-opacity:1.000; stroke:none;" />
 <path d="  M 24,18  L 25,18  L 25,17  L 24,17  Z  " style="fill:rgb(161, 164, 186); fill-opacity:1.000; stroke:none;" />
 <path d="  M 25,55  L 24,55  L 24,56  L 25,56  Z  " style="fill:rgb(161, 164, 186); fill-opacity:1.000; stroke:none;" />
 <path d="  M 26,56  L 25,56  L 25,57  L 26,57  Z  " style="fill:rgb(161, 164, 186); fill-opacity:1.000; stroke:none;" />
 <path d="  M 26,65  L 26,64  L 25,64  L 25,65  Z  " style="fill:rgb(161, 164, 186); fill-opacity:1.000; stroke:none;" />
 <path d="  M 25,70  L 26,70  L 26,68  L 25,68  Z  " style="fill:rgb(161, 164, 186); fill-opacity:1.000; stroke:none;" />
 <path d="  M 27,55  L 27,54  L 26,54  L 26,55  Z  " style="fill:rgb(161, 164, 186); fill-opacity:1.000; stroke:none;" />
 <path d="  M 26,64  L 29,64  L 29,63  L 26,63  Z  " style="fill:rgb(161, 164, 186); fill-opacity:1.000; stroke:none;" />
 <path d="  M 27,76  L 26,76  L 26,77  L 27,77  Z  " style="fill:rgb(161, 164, 186); fill-opacity:1.000; stroke:none;" />
 <path d="  M 27,17  L 28,17  L 28,12  L 27,12  Z  " style="fill:rgb(161, 164, 186); fill-opacity:1.000; stroke:none;" />
 <path d="  M 27,80  L 27,81  L 28,81  L 28,80  Z  " style="fill:rgb(161, 164, 186); fill-opacity:1.000; stroke:none;" />
 <path d="  M 29,11  L 29,9  L 28,9  L 28,11  Z  " style="fill:rgb(161, 164, 186); fill-opacity:1.000; stroke:none;" />
 <path d="  M 30,12  L 29,12  L 29,13  L 30,13  Z  " style="fill:rgb(161, 164, 186); fill-opacity:1.000; stroke:none;" />
 <path d="  M 29,97  L 29,98  L 30,98  L 30,97  Z  " style="fill:rgb(161, 164, 186); fill-opacity:1.000; stroke:none;" />
 <path d="  M 31,17  L 31,15  L 30,15  L 30,17  Z  " style="fill:rgb(161, 164, 186); fill-opacity:1.000; stroke:none;" />
 <path d="  M 31,57  L 32,57  L 32,56  L 30,56  L 30,58  L 31,58  Z  " style="fill:rgb(161, 164, 186); fill-opacity:1.000; stroke:none;" />
 <path d="  M 30,64  L 30,65  L 31,65  L 31,64  Z  " style="fill:rgb(161, 164, 186); fill-opacity:1.000; stroke:none;" />
 <path d="  M 30,68  L 30,69  L 31,69  L 31,68  Z  " style="fill:rgb(161, 164, 186); fill-opacity:1.000; stroke:none;" />
 <path d="  M 32,35  L 32,30  L 31,30  L 31,35  Z  " style="fill:rgb(161, 164, 186); fill-opacity:1.000; stroke:none;" />
 <path d="  M 31,54  L 31,55  L 32,55  L 32,54  Z  " style="fill:rgb(161, 164, 186); fill-opacity:1.000; stroke:none;" />
 <path d="  M 32,76  L 31,76  L 31,77  L 32,77  Z  " style="fill:rgb(161, 164, 186); fill-opacity:1.000; stroke:none;" />
 <path d="  M 33,27  L 32,27  L 32,29  L 33,29  Z  " style="fill:rgb(161, 164, 186); fill-opacity:1.000; stroke:none;" />
 <path d="  M 34,30  L 33,30  L 33,35  L 32,35  L 32,37  L 34,37  Z  " style="fill:rgb(161, 164, 186); fill-opacity:1.000; stroke:none;" />
 <path d="  M 32,57  L 32,58  L 34,58  L 34,57  Z  " style="fill:rgb(161, 164, 186); fill-opacity:1.000; stroke:none;" />
 <path d="  M 34,5  L 33,5  L 33,6  L 34,6  Z  " style="fill:rgb(161, 164, 186); fill-opacity:1.000; stroke:none;" />
 <path d="  M 35,6  L 34,6  L 34,7  L 35,7  Z  " style="fill:rgb(161, 164, 186); fill-opacity:1.000; stroke:none;" />
 <path d="  M 35,98  L 35,97  L 34,97  L 34,98  Z  " style="fill:rgb(161, 164, 186); fill-opacity:1.000; stroke:none;" />
 <path d="  M 35,59  L 36,59  L 36,58  L 35,58  Z  " style="fill:rgb(161, 164, 186); fill-opacity:1.000; stroke:none;" />
 <path d="  M 40,59  L 39,59  L 39,60  L 40,60  Z  " style="fill:rgb(161, 164, 186); fill-opacity:1.000; stroke:none;" />
 <path d="  M 40,59  L 41,59  L 41,57  L 40,57  Z  " style="fill:rgb(161, 164, 186); fill-opacity:1.000; stroke:none;" />
 <path d="  M 42,11  L 41,11  L 41,12  L 42,12  Z  " style="fill:rgb(161, 164, 186); fill-opacity:1.000; stroke:none;" />
 <path d="  M 12,6  L 12,7  L 10,7  L 10,8  L 9,8  L 9,9  L 7,9  L 7,10  L 6,10  L 6,11  L 5,11  L 5,12  L 11,12  L 11,9  L 12,9  L 12,8  L 13,8  L 13,7  L 14,7  L 14,6  Z  " style="fill:rgb(254, 254, 254); fill-opacity:1.000; stroke:none;" />
 <path d="  M 12,26  L 10,26  L 10,28  L 12,28  Z  " style="fill:rgb(254, 254, 254); fill-opacity:1.000; stroke:none;" />
 <path d="  M 10,51  L 36,51  L 36,36  L 35,36  L 35,35  L 34,35  L 34,37  L 32,37  L 32,35  L 31,35  L 31,26  L 16,26  L 16,35  L 15,35  L 15,37  L 13,37  L 13,28  L 12,28  L 12,34  L 11,34  L 11,35  L 10,35  Z  M 27,44  L 25,44  L 25,46  L 20,46  L 20,44  L 18,44  L 18,42  L 16,42  L 16,35  L 18,35  L 18,33  L 20,33  L 20,31  L 25,31  L 25,33  L 27,33  L 27,35  L 29,35  L 29,42  L 27,42  Z  " style="fill:rgb(254, 254, 254); fill-opacity:1.000; stroke:none;" />
 <path d="  M 15,4  L 15,5  L 14,5  L 14,6  L 15,6  L 15,7  L 14,7  L 14,8  L 13,8  L 13,9  L 12,9  L 12,12  L 14,12  L 14,21  L 15,21  L 15,14  L 16,14  L 16,11  L 17,11  L 17,10  L 18,10  L 18,17  L 21,17  L 21,15  L 22,15  L 22,10  L 23,10  L 23,8  L 24,8  L 24,17  L 27,17  L 27,12  L 28,12  L 28,9  L 29,9  L 29,12  L 30,12  L 30,15  L 31,15  L 31,10  L 30,10  L 30,7  L 29,7  L 29,6  L 27,6  L 27,5  L 19,5  L 19,4  Z  M 20,9  L 19,9  L 19,8  L 20,8  Z  M 17,7  L 16,7  L 16,6  L 17,6  Z  M 17,5  L 19,5  L 19,6  L 17,6  Z  M 18,9  L 19,9  L 19,10  L 18,10  Z  " style="fill:rgb(254, 254, 254); fill-opacity:1.000; stroke:none;" />
 <path d="  M 15,23  L 14,23  L 14,35  L 15,35  Z  " style="fill:rgb(254, 254, 254); fill-opacity:1.000; stroke:none;" />
 <path d="  M 17,22  L 17,21  L 16,21  L 16,22  Z  " style="fill:rgb(254, 254, 254); fill-opacity:1.000; stroke:none;" />
 <path d="  M 20,23  L 20,22  L 17,22  L 17,23  Z  " style="fill:rgb(254, 254, 254); fill-opacity:1.000; stroke:none;" />
 <path d="  M 19,3  L 19,4  L 25,4  L 25,3  Z  " style="fill:rgb(254, 254, 254); fill-opacity:1.000; stroke:none;" />
 <path d="  M 20,21  L 20,22  L 21,22  L 21,21  Z  " style="fill:rgb(254, 254, 254); fill-opacity:1.000; stroke:none;" />
 <path d="  M 25,33  L 22,33  L 22,35  L 20,35  L 20,44  L 23,44  L 23,42  L 25,42  Z  " style="fill:rgb(254, 254, 254); fill-opacity:1.000; stroke:none;" />
 <path d="  M 27,22  L 27,21  L 26,21  L 26,22  Z  " style="fill:rgb(254, 254, 254); fill-opacity:1.000; stroke:none;" />
 <path d="  M 30,23  L 30,22  L 27,22  L 27,23  Z  " style="fill:rgb(254, 254, 254); fill-opacity:1.000; stroke:none;" />
 <path d="  M 30,22  L 31,22  L 31,21  L 30,21  Z  " style="fill:rgb(254, 254, 254); fill-opacity:1.000; stroke:none;" />
 <path d="  M 33,29  L 32,29  L 32,35  L 33,35  Z  " style="fill:rgb(254, 254, 254); fill-opacity:1.000; stroke:none;" />
 <path d="  M 38,8  L 37,8  L 37,7  L 35,7  L 35,8  L 36,8  L 36,9  L 37,9  L 37,10  L 38,10  L 38,11  L 39,11  L 39,12  L 41,12  L 41,10  L 40,10  L 40,9  L 38,9  Z  " style="fill:rgb(254, 254, 254); fill-opacity:1.000; stroke:none;" />
 <path d="  M 35,28  L 36,28  L 36,26  L 35,26  Z  " style="fill:rgb(254, 254, 254); fill-opacity:1.000; stroke:none;" />
 <path d="  M 11,16  L 12,16  L 12,10  L 11,10  L 11,12  L 5,12  L 5,13  L 7,13  L 7,14  L 11,14  Z  " style="fill:rgb(115, 124, 158); fill-opacity:1.000; stroke:none;" />
 <path d="  M 6,55  L 6,57  L 8,57  L 8,55  Z  " style="fill:rgb(115, 124, 158); fill-opacity:1.000; stroke:none;" />
 <path d="  M 7,47  L 7,48  L 8,48  L 8,47  Z  " style="fill:rgb(115, 124, 158); fill-opacity:1.000; stroke:none;" />
 <path d="  M 9,48  L 8,48  L 8,51  L 9,51  Z  " style="fill:rgb(115, 124, 158); fill-opacity:1.000; stroke:none;" />
 <path d="  M 9,36  L 10,36  L 10,35  L 9,35  Z  " style="fill:rgb(115, 124, 158); fill-opacity:1.000; stroke:none;" />
 <path d="  M 13,56  L 12,56  L 12,55  L 11,55  L 11,56  L 10,56  L 10,58  L 12,58  L 12,59  L 11,59  L 11,60  L 10,60  L 10,62  L 12,62  L 12,61  L 13,61  Z  " style="fill:rgb(115, 124, 158); fill-opacity:1.000; stroke:none;" />
 <path d="  M 11,25  L 12,25  L 12,20  L 11,20  Z  " style="fill:rgb(115, 124, 158); fill-opacity:1.000; stroke:none;" />
 <path d="  M 11,86  L 12,86  L 12,85  L 11,85  Z  " style="fill:rgb(115, 124, 158); fill-opacity:1.000; stroke:none;" />
 <path d="  M 13,17  L 12,17  L 12,18  L 13,18  Z  " style="fill:rgb(115, 124, 158); fill-opacity:1.000; stroke:none;" />
 <path d="  M 13,25  L 12,25  L 12,28  L 13,28  Z  " style="fill:rgb(115, 124, 158); fill-opacity:1.000; stroke:none;" />
 <path d="  M 12,81  L 13,81  L 13,80  L 12,80  Z  " style="fill:rgb(115, 124, 158); fill-opacity:1.000; stroke:none;" />
 <path d="  M 13,20  L 13,22  L 14,22  L 14,23  L 15,23  L 15,21  L 14,21  L 14,20  Z  " style="fill:rgb(115, 124, 158); fill-opacity:1.000; stroke:none;" />
 <path d="  M 14,75  L 13,75  L 13,76  L 14,76  Z  " style="fill:rgb(115, 124, 158); fill-opacity:1.000; stroke:none;" />
 <path d="  M 19,60  L 14,60  L 14,64  L 15,64  L 15,63  L 18,63  L 18,64  L 20,64  L 20,61  L 19,61  Z  " style="fill:rgb(115, 124, 158); fill-opacity:1.000; stroke:none;" />
 <path d="  M 15,20  L 16,20  L 16,16  L 15,16  Z  " style="fill:rgb(115, 124, 158); fill-opacity:1.000; stroke:none;" />
 <path d="  M 19,55  L 18,55  L 18,56  L 19,56  Z  " style="fill:rgb(115, 124, 158); fill-opacity:1.000; stroke:none;" />
 <path d="  M 20,71  L 19,71  L 19,73  L 20,73  Z  " style="fill:rgb(115, 124, 158); fill-opacity:1.000; stroke:none;" />
 <path d="  M 24,55  L 23,55  L 23,56  L 24,56  Z  " style="fill:rgb(115, 124, 158); fill-opacity:1.000; stroke:none;" />
 <path d="  M 27,4  L 27,3  L 25,3  L 25,4  Z  " style="fill:rgb(115, 124, 158); fill-opacity:1.000; stroke:none;" />
 <path d="  M 26,64  L 26,63  L 29,63  L 29,64  L 31,64  L 31,61  L 30,61  L 30,60  L 25,60  L 25,64  Z  " style="fill:rgb(115, 124, 158); fill-opacity:1.000; stroke:none;" />
 <path d="  M 25,73  L 26,73  L 26,70  L 25,70  Z  " style="fill:rgb(115, 124, 158); fill-opacity:1.000; stroke:none;" />
 <path d="  M 36,11  L 36,12  L 39,12  L 39,11  L 38,11  L 38,10  L 37,10  L 37,9  L 36,9  L 36,8  L 35,8  L 35,7  L 34,7  L 34,6  L 33,6  L 33,5  L 30,5  L 30,4  L 27,4  L 27,5  L 29,5  L 29,6  L 30,6  L 30,10  L 31,10  L 31,17  L 32,17  L 32,25  L 31,25  L 31,30  L 32,30  L 32,27  L 33,27  L 33,30  L 34,30  L 34,17  L 35,17  L 35,11  Z  M 34,9  L 35,9  L 35,11  L 34,11  Z  M 33,7  L 33,8  L 32,8  L 32,7  Z  M 33,9  L 33,8  L 34,8  L 34,9  Z  " style="fill:rgb(115, 124, 158); fill-opacity:1.000; stroke:none;" />
 <path d="  M 30,72  L 31,72  L 31,69  L 30,69  Z  " style="fill:rgb(115, 124, 158); fill-opacity:1.000; stroke:none;" />
 <path d="  M 31,76  L 32,76  L 32,75  L 31,75  Z  " style="fill:rgb(115, 124, 158); fill-opacity:1.000; stroke:none;" />
 <path d="  M 32,56  L 33,56  L 33,55  L 32,55  Z  " style="fill:rgb(115, 124, 158); fill-opacity:1.000; stroke:none;" />
 <path d="  M 35,61  L 34,61  L 34,58  L 32,58  L 32,62  L 33,62  L 33,63  L 35,63  Z  " style="fill:rgb(115, 124, 158); fill-opacity:1.000; stroke:none;" />
 <path d="  M 32,80  L 32,81  L 33,81  L 33,80  Z  " style="fill:rgb(115, 124, 158); fill-opacity:1.000; stroke:none;" />
 <path d="  M 34,85  L 34,84  L 33,84  L 33,85  Z  " style="fill:rgb(115, 124, 158); fill-opacity:1.000; stroke:none;" />
 <path d="  M 34,89  L 34,90  L 35,90  L 35,89  Z  " style="fill:rgb(115, 124, 158); fill-opacity:1.000; stroke:none;" />
 <path d="  M 36,17  L 35,17  L 35,25  L 36,25  Z  " style="fill:rgb(115, 124, 158); fill-opacity:1.000; stroke:none;" />
 <path d="  M 36,55  L 35,55  L 35,56  L 36,56  Z  " style="fill:rgb(115, 124, 158); fill-opacity:1.000; stroke:none;" />
 <path d="  M 40,57  L 38,57  L 38,59  L 40,59  Z  " style="fill:rgb(115, 124, 158); fill-opacity:1.000; stroke:none;" />
 <path d="  M 6,56  L 6,55  L 5,55  L 5,56  Z  " style="fill:rgb(213, 218, 232); fill-opacity:1.000; stroke:none;" />
 <path d="  M 8,55  L 8,54  L 6,54  L 6,55  Z  " style="fill:rgb(213, 218, 232); fill-opacity:1.000; stroke:none;" />
 <path d="  M 8,57  L 6,57  L 6,58  L 8,58  Z  " style="fill:rgb(213, 218, 232); fill-opacity:1.000; stroke:none;" />
 <path d="  M 11,87  L 11,93  L 12,93  L 12,94  L 17,94  L 17,93  L 18,93  L 18,76  L 19,76  L 19,69  L 20,69  L 20,65  L 19,65  L 19,64  L 15,64  L 15,65  L 14,65  L 14,76  L 13,76  L 13,81  L 12,81  L 12,87  Z  " style="fill:rgb(213, 218, 232); fill-opacity:1.000; stroke:none;" />
 <path d="  M 12,56  L 13,56  L 13,55  L 12,55  Z  " style="fill:rgb(213, 218, 232); fill-opacity:1.000; stroke:none;" />
 <path d="  M 13,98  L 13,99  L 17,99  L 17,98  Z  " style="fill:rgb(213, 218, 232); fill-opacity:1.000; stroke:none;" />
 <path d="  M 15,58  L 17,58  L 17,57  L 16,57  L 16,55  L 15,55  Z  " style="fill:rgb(213, 218, 232); fill-opacity:1.000; stroke:none;" />
 <path d="  M 16,20  L 16,21  L 17,21  L 17,20  Z  " style="fill:rgb(213, 218, 232); fill-opacity:1.000; stroke:none;" />
 <path d="  M 16,52  L 16,53  L 18,53  L 18,52  Z  " style="fill:rgb(213, 218, 232); fill-opacity:1.000; stroke:none;" />
 <path d="  M 18,56  L 17,56  L 17,57  L 18,57  Z  " style="fill:rgb(213, 218, 232); fill-opacity:1.000; stroke:none;" />
 <path d="  M 20,57  L 20,56  L 19,56  L 19,57  Z  " style="fill:rgb(213, 218, 232); fill-opacity:1.000; stroke:none;" />
 <path d="  M 21,20  L 20,20  L 20,21  L 21,21  Z  " style="fill:rgb(213, 218, 232); fill-opacity:1.000; stroke:none;" />
 <path d="  M 25,54  L 25,53  L 20,53  L 20,54  Z  " style="fill:rgb(213, 218, 232); fill-opacity:1.000; stroke:none;" />
 <path d="  M 20,58  L 21,58  L 21,57  L 20,57  Z  " style="fill:rgb(213, 218, 232); fill-opacity:1.000; stroke:none;" />
 <path d="  M 21,56  L 21,57  L 25,57  L 25,56  Z  " style="fill:rgb(213, 218, 232); fill-opacity:1.000; stroke:none;" />
 <path d="  M 30,58  L 30,56  L 26,56  L 26,57  L 25,57  L 25,58  L 27,58  L 27,57  L 29,57  L 29,58  Z  " style="fill:rgb(213, 218, 232); fill-opacity:1.000; stroke:none;" />
 <path d="  M 26,64  L 26,65  L 25,65  L 25,68  L 26,68  L 26,76  L 27,76  L 27,80  L 28,80  L 28,93  L 29,93  L 29,94  L 34,94  L 34,93  L 35,93  L 35,90  L 34,90  L 34,85  L 33,85  L 33,81  L 32,81  L 32,77  L 31,77  L 31,72  L 30,72  L 30,68  L 31,68  L 31,65  L 30,65  L 30,64  Z  " style="fill:rgb(213, 218, 232); fill-opacity:1.000; stroke:none;" />
 <path d="  M 26,20  L 26,21  L 27,21  L 27,20  Z  " style="fill:rgb(213, 218, 232); fill-opacity:1.000; stroke:none;" />
 <path d="  M 31,54  L 27,54  L 27,55  L 31,55  Z  " style="fill:rgb(213, 218, 232); fill-opacity:1.000; stroke:none;" />
 <path d="  M 30,21  L 31,21  L 31,20  L 30,20  Z  " style="fill:rgb(213, 218, 232); fill-opacity:1.000; stroke:none;" />
 <path d="  M 30,59  L 31,59  L 31,58  L 30,58  Z  " style="fill:rgb(213, 218, 232); fill-opacity:1.000; stroke:none;" />
 <path d="  M 34,99  L 34,98  L 30,98  L 30,99  Z  " style="fill:rgb(213, 218, 232); fill-opacity:1.000; stroke:none;" />
 <path d="  M 31,58  L 32,58  L 32,57  L 31,57  Z  " style="fill:rgb(213, 218, 232); fill-opacity:1.000; stroke:none;" />
 <path d="  M 33,55  L 33,56  L 35,56  L 35,55  Z  " style="fill:rgb(213, 218, 232); fill-opacity:1.000; stroke:none;" />
 <path d="  M 38,59  L 38,57  L 37,57  L 37,59  Z  " style="fill:rgb(213, 218, 232); fill-opacity:1.000; stroke:none;" />
 <path d="  M 40,57  L 40,56  L 38,56  L 38,57  Z  " style="fill:rgb(213, 218, 232); fill-opacity:1.000; stroke:none;" />
 <path d="  M 39,59  L 38,59  L 38,60  L 39,60  Z  " style="fill:rgb(213, 218, 232); fill-opacity:1.000; stroke:none;" />
 <path d="  M 8,31  L 7,31  L 7,35  L 10,35  L 10,34  L 9,34  L 9,33  L 8,33  Z  " style="fill:rgb(225, 163, 162); fill-opacity:1.000; stroke:none;" />
 <path d="  M 9,31  L 11,31  L 11,30  L 9,30  Z  " style="fill:rgb(225, 163, 162); fill-opacity:1.000; stroke:none;" />
 <path d="  M 11,30  L 12,30  L 12,28  L 11,28  Z  " style="fill:rgb(225, 163, 162); fill-opacity:1.000; stroke:none;" />
 <path d="  M 11,32  L 12,32  L 12,31  L 11,31  Z  " style="fill:rgb(225, 163, 162); fill-opacity:1.000; stroke:none;" />
 <path d="  M 31,19  L 31,18  L 16,18  L 16,19  Z  " style="fill:rgb(225, 163, 162); fill-opacity:1.000; stroke:none;" />
 <path d="  M 17,24  L 17,23  L 16,23  L 16,24  Z  " style="fill:rgb(225, 163, 162); fill-opacity:1.000; stroke:none;" />
 <path d="  M 17,17  L 18,17  L 18,14  L 17,14  Z  " style="fill:rgb(225, 163, 162); fill-opacity:1.000; stroke:none;" />
 <path d="  M 31,24  L 31,23  L 30,23  L 30,24  Z  " style="fill:rgb(225, 163, 162); fill-opacity:1.000; stroke:none;" />
 <path d="  M 34,30  L 34,34  L 35,34  L 35,31  L 37,31  L 37,32  L 38,32  L 38,30  Z  " style="fill:rgb(225, 163, 162); fill-opacity:1.000; stroke:none;" />
 <path d="  M 35,34  L 35,35  L 36,35  L 36,34  Z  " style="fill:rgb(225, 163, 162); fill-opacity:1.000; stroke:none;" />
 <path d="  M 9,30  L 11,30  L 11,29  L 8,29  L 8,33  L 9,33  L 9,34  L 11,34  L 11,31  L 9,31  Z  " style="fill:rgb(254, 227, 210); fill-opacity:1.000; stroke:none;" />
 <path d="  M 20,25  L 27,25  L 27,22  L 26,22  L 26,21  L 21,21  L 21,22  L 20,22  Z  " style="fill:rgb(254, 227, 210); fill-opacity:1.000; stroke:none;" />
 <path d="  M 34,30  L 36,30  L 36,29  L 34,29  Z  " style="fill:rgb(254, 227, 210); fill-opacity:1.000; stroke:none;" />
 <path d="  M 37,31  L 35,31  L 35,34  L 36,34  L 36,35  L 37,35  Z  " style="fill:rgb(254, 227, 210); fill-opacity:1.000; stroke:none;" />
 <path d="  M 9,36  L 9,35  L 8,35  L 8,36  Z  " style="fill:rgb(55, 111, 195); fill-opacity:1.000; stroke:none;" />
 <path d="  M 9,54  L 8,54  L 8,55  L 10,55  L 10,56  L 11,56  L 11,55  L 12,55  L 12,54  L 10,54  L 10,53  L 9,53  Z  " style="fill:rgb(55, 111, 195); fill-opacity:1.000; stroke:none;" />
 <path d="  M 9,29  L 10,29  L 10,28  L 9,28  Z  " style="fill:rgb(55, 111, 195); fill-opacity:1.000; stroke:none;" />
 <path d="  M 9,56  L 9,58  L 10,58  L 10,56  Z  " style="fill:rgb(55, 111, 195); fill-opacity:1.000; stroke:none;" />
 <path d="  M 11,59  L 12,59  L 12,58  L 11,58  Z  " style="fill:rgb(55, 111, 195); fill-opacity:1.000; stroke:none;" />
 <path d="  M 12,94  L 12,93  L 11,93  L 11,94  Z  " style="fill:rgb(55, 111, 195); fill-opacity:1.000; stroke:none;" />
 <path d="  M 13,54  L 18,54  L 18,53  L 13,53  Z  " style="fill:rgb(55, 111, 195); fill-opacity:1.000; stroke:none;" />
 <path d="  M 18,93  L 17,93  L 17,94  L 18,94  Z  " style="fill:rgb(55, 111, 195); fill-opacity:1.000; stroke:none;" />
 <path d="  M 20,4  L 20,5  L 26,5  L 26,4  Z  " style="fill:rgb(55, 111, 195); fill-opacity:1.000; stroke:none;" />
 <path d="  M 24,67  L 22,67  L 22,68  L 24,68  Z  " style="fill:rgb(55, 111, 195); fill-opacity:1.000; stroke:none;" />
 <path d="  M 26,52  L 26,54  L 27,54  L 27,52  Z  " style="fill:rgb(55, 111, 195); fill-opacity:1.000; stroke:none;" />
 <path d="  M 26,55  L 26,56  L 27,56  L 27,55  Z  " style="fill:rgb(55, 111, 195); fill-opacity:1.000; stroke:none;" />
 <path d="  M 28,96  L 29,96  L 29,93  L 28,93  Z  " style="fill:rgb(55, 111, 195); fill-opacity:1.000; stroke:none;" />
 <path d="  M 32,54  L 32,53  L 31,53  L 31,54  Z  " style="fill:rgb(55, 111, 195); fill-opacity:1.000; stroke:none;" />
 <path d="  M 33,56  L 33,57  L 36,57  L 36,56  Z  " style="fill:rgb(55, 111, 195); fill-opacity:1.000; stroke:none;" />
 <path d="  M 34,59  L 34,60  L 35,60  L 35,59  Z  " style="fill:rgb(55, 111, 195); fill-opacity:1.000; stroke:none;" />
 <path d="  M 36,57  L 36,58  L 37,58  L 37,57  Z  " style="fill:rgb(55, 111, 195); fill-opacity:1.000; stroke:none;" />
 <path d="  M 8,46  L 8,48  L 9,48  L 9,46  Z  " style="fill:rgb(12, 74, 165); fill-opacity:1.000; stroke:none;" />
 <path d="  M 9,52  L 9,53  L 12,53  L 12,54  L 13,54  L 13,52  Z  " style="fill:rgb(12, 74, 165); fill-opacity:1.000; stroke:none;" />
 <path d="  M 9,55  L 9,56  L 10,56  L 10,55  Z  " style="fill:rgb(12, 74, 165); fill-opacity:1.000; stroke:none;" />
 <path d="  M 13,65  L 13,61  L 12,61  L 12,62  L 10,62  L 10,63  L 9,63  L 9,65  Z  " style="fill:rgb(12, 74, 165); fill-opacity:1.000; stroke:none;" />
 <path d="  M 13,60  L 14,60  L 14,55  L 13,55  Z  " style="fill:rgb(12, 74, 165); fill-opacity:1.000; stroke:none;" />
 <path d="  M 16,6  L 16,7  L 17,7  L 17,6  Z  " style="fill:rgb(12, 74, 165); fill-opacity:1.000; stroke:none;" />
 <path d="  M 16,17  L 16,18  L 22,18  L 22,17  Z  " style="fill:rgb(12, 74, 165); fill-opacity:1.000; stroke:none;" />
 <path d="  M 17,6  L 19,6  L 19,5  L 17,5  Z  " style="fill:rgb(12, 74, 165); fill-opacity:1.000; stroke:none;" />
 <path d="  M 17,20  L 17,21  L 20,21  L 20,20  Z  " style="fill:rgb(12, 74, 165); fill-opacity:1.000; stroke:none;" />
 <path d="  M 18,54  L 18,55  L 20,55  L 20,54  Z  " style="fill:rgb(12, 74, 165); fill-opacity:1.000; stroke:none;" />
 <path d="  M 20,5  L 20,4  L 19,4  L 19,5  Z  " style="fill:rgb(12, 74, 165); fill-opacity:1.000; stroke:none;" />
 <path d="  M 22,52  L 20,52  L 20,53  L 22,53  Z  " style="fill:rgb(12, 74, 165); fill-opacity:1.000; stroke:none;" />
 <path d="  M 22,67  L 24,67  L 24,57  L 22,57  Z  " style="fill:rgb(12, 74, 165); fill-opacity:1.000; stroke:none;" />
 <path d="  M 30,18  L 30,17  L 25,17  L 25,18  Z  " style="fill:rgb(12, 74, 165); fill-opacity:1.000; stroke:none;" />
 <path d="  M 26,56  L 26,52  L 25,52  L 25,56  Z  " style="fill:rgb(12, 74, 165); fill-opacity:1.000; stroke:none;" />
 <path d="  M 25,75  L 26,75  L 26,74  L 25,74  Z  " style="fill:rgb(12, 74, 165); fill-opacity:1.000; stroke:none;" />
 <path d="  M 27,5  L 27,4  L 26,4  L 26,5  Z  " style="fill:rgb(12, 74, 165); fill-opacity:1.000; stroke:none;" />
 <path d="  M 29,6  L 29,5  L 27,5  L 27,6  Z  " style="fill:rgb(12, 74, 165); fill-opacity:1.000; stroke:none;" />
 <path d="  M 30,20  L 27,20  L 27,21  L 30,21  Z  " style="fill:rgb(12, 74, 165); fill-opacity:1.000; stroke:none;" />
 <path d="  M 30,6  L 29,6  L 29,7  L 30,7  Z  " style="fill:rgb(12, 74, 165); fill-opacity:1.000; stroke:none;" />
 <path d="  M 31,53  L 32,53  L 32,52  L 31,52  Z  " style="fill:rgb(12, 74, 165); fill-opacity:1.000; stroke:none;" />
 <path d="  M 31,55  L 31,56  L 32,56  L 32,55  Z  " style="fill:rgb(12, 74, 165); fill-opacity:1.000; stroke:none;" />
 <path d="  M 32,58  L 31,58  L 31,62  L 32,62  Z  " style="fill:rgb(12, 74, 165); fill-opacity:1.000; stroke:none;" />
 <path d="  M 33,54  L 32,54  L 32,55  L 33,55  Z  " style="fill:rgb(12, 74, 165); fill-opacity:1.000; stroke:none;" />
 <path d="  M 35,65  L 35,63  L 33,63  L 33,62  L 32,62  L 32,67  L 36,67  L 36,65  Z  " style="fill:rgb(12, 74, 165); fill-opacity:1.000; stroke:none;" />
 <path d="  M 32,76  L 32,78  L 33,78  L 33,76  Z  " style="fill:rgb(12, 74, 165); fill-opacity:1.000; stroke:none;" />
 <path d="  M 33,52  L 33,54  L 36,54  L 36,52  Z  " style="fill:rgb(12, 74, 165); fill-opacity:1.000; stroke:none;" />
 <path d="  M 36,57  L 34,57  L 34,59  L 35,59  L 35,58  L 36,58  Z  " style="fill:rgb(12, 74, 165); fill-opacity:1.000; stroke:none;" />
 <path d="  M 36,60  L 38,60  L 38,59  L 37,59  L 37,58  L 36,58  Z  " style="fill:rgb(12, 74, 165); fill-opacity:1.000; stroke:none;" />
 <path d="  M 37,43  L 38,43  L 38,39  L 37,39  Z  " style="fill:rgb(12, 74, 165); fill-opacity:1.000; stroke:none;" />
 <path d="  M 10,52  L 10,51  L 9,51  L 9,52  Z  " style="fill:rgb(73, 170, 234); fill-opacity:1.000; stroke:none;" />
 <path d="  M 13,98  L 18,98  L 18,94  L 11,94  L 11,96  L 12,96  L 12,97  L 13,97  Z  " style="fill:rgb(73, 170, 234); fill-opacity:1.000; stroke:none;" />
 <path d="  M 25,55  L 25,54  L 20,54  L 20,55  Z  " style="fill:rgb(73, 170, 234); fill-opacity:1.000; stroke:none;" />
 <path d="  M 25,53  L 25,52  L 22,52  L 22,53  Z  " style="fill:rgb(73, 170, 234); fill-opacity:1.000; stroke:none;" />
 <path d="  M 22,71  L 23,71  L 23,74  L 24,74  L 24,75  L 25,75  L 25,73  L 24,73  L 24,68  L 22,68  Z  " style="fill:rgb(73, 170, 234); fill-opacity:1.000; stroke:none;" />
 <path d="  M 26,76  L 26,75  L 25,75  L 25,76  Z  " style="fill:rgb(73, 170, 234); fill-opacity:1.000; stroke:none;" />
 <path d="  M 27,52  L 27,54  L 31,54  L 31,52  Z  " style="fill:rgb(73, 170, 234); fill-opacity:1.000; stroke:none;" />
 <path d="  M 27,55  L 27,56  L 31,56  L 31,55  Z  " style="fill:rgb(73, 170, 234); fill-opacity:1.000; stroke:none;" />
 <path d="  M 29,94  L 29,97  L 30,97  L 30,98  L 34,98  L 34,97  L 35,97  L 35,93  L 34,93  L 34,94  Z  " style="fill:rgb(73, 170, 234); fill-opacity:1.000; stroke:none;" />
 <path d="  M 33,54  L 33,55  L 35,55  L 35,54  Z  " style="fill:rgb(73, 170, 234); fill-opacity:1.000; stroke:none;" />
 <path d="  M 34,76  L 33,76  L 33,78  L 34,78  L 34,77  L 35,77  L 35,76  L 36,76  L 36,74  L 35,74  L 35,75  L 34,75  Z  " style="fill:rgb(73, 170, 234); fill-opacity:1.000; stroke:none;" />
 <path d="  M 36,52  L 37,52  L 37,51  L 36,51  Z  " style="fill:rgb(73, 170, 234); fill-opacity:1.000; stroke:none;" />
 <path d="  M 36,56  L 36,57  L 37,57  L 37,56  Z  " style="fill:rgb(73, 170, 234); fill-opacity:1.000; stroke:none;" />
 <path d="  M 37,49  L 37,51  L 38,51  L 38,49  Z  " style="fill:rgb(73, 170, 234); fill-opacity:1.000; stroke:none;" />
 <path d="  M 11,29  L 11,28  L 10,28  L 10,29  Z  " style="fill:rgb(225, 133, 128); fill-opacity:1.000; stroke:none;" />
 <path d="  M 12,31  L 12,30  L 11,30  L 11,31  Z  " style="fill:rgb(225, 133, 128); fill-opacity:1.000; stroke:none;" />
 <path d="  M 12,34  L 12,32  L 11,32  L 11,34  Z  " style="fill:rgb(225, 133, 128); fill-opacity:1.000; stroke:none;" />
 <path d="  M 16,17  L 17,17  L 17,15  L 16,15  Z  " style="fill:rgb(225, 133, 128); fill-opacity:1.000; stroke:none;" />
 <path d="  M 17,22  L 16,22  L 16,23  L 17,23  Z  " style="fill:rgb(225, 133, 128); fill-opacity:1.000; stroke:none;" />
 <path d="  M 18,13  L 17,13  L 17,14  L 18,14  Z  " style="fill:rgb(225, 133, 128); fill-opacity:1.000; stroke:none;" />
 <path d="  M 20,24  L 20,23  L 17,23  L 17,24  Z  " style="fill:rgb(225, 133, 128); fill-opacity:1.000; stroke:none;" />
 <path d="  M 24,14  L 23,14  L 23,18  L 24,18  Z  " style="fill:rgb(225, 133, 128); fill-opacity:1.000; stroke:none;" />
 <path d="  M 27,24  L 30,24  L 30,23  L 27,23  Z  " style="fill:rgb(225, 133, 128); fill-opacity:1.000; stroke:none;" />
 <path d="  M 29,17  L 30,17  L 30,13  L 29,13  Z  " style="fill:rgb(225, 133, 128); fill-opacity:1.000; stroke:none;" />
 <path d="  M 31,23  L 31,22  L 30,22  L 30,23  Z  " style="fill:rgb(225, 133, 128); fill-opacity:1.000; stroke:none;" />
 <path d="  M 36,28  L 34,28  L 34,29  L 36,29  Z  " style="fill:rgb(225, 133, 128); fill-opacity:1.000; stroke:none;" />
 <path d="  M 35,34  L 34,34  L 34,35  L 35,35  Z  " style="fill:rgb(225, 133, 128); fill-opacity:1.000; stroke:none;" />
 <path d="  M 37,30  L 37,29  L 36,29  L 36,30  Z  " style="fill:rgb(225, 133, 128); fill-opacity:1.000; stroke:none;" />
 <path d="  M 38,36  L 38,35  L 36,35  L 36,36  Z  " style="fill:rgb(225, 133, 128); fill-opacity:1.000; stroke:none;" />
 <path d="  M 37,33  L 38,33  L 38,32  L 37,32  Z  " style="fill:rgb(225, 133, 128); fill-opacity:1.000; stroke:none;" />
 <path d="  M 11,35  L 11,34  L 10,34  L 10,35  Z  " style="fill:rgb(182, 109, 106); fill-opacity:1.000; stroke:none;" />
 <path d="  M 19,60  L 19,61  L 20,61  L 20,58  L 19,58  L 19,57  L 17,57  L 17,58  L 15,58  L 15,56  L 14,56  L 14,60  Z  " style="fill:rgb(182, 109, 106); fill-opacity:1.000; stroke:none;" />
 <path d="  M 16,15  L 17,15  L 17,14  L 16,14  Z  " style="fill:rgb(182, 109, 106); fill-opacity:1.000; stroke:none;" />
 <path d="  M 16,25  L 17,25  L 17,24  L 16,24  Z  " style="fill:rgb(182, 109, 106); fill-opacity:1.000; stroke:none;" />
 <path d="  M 18,12  L 17,12  L 17,13  L 18,13  Z  " style="fill:rgb(182, 109, 106); fill-opacity:1.000; stroke:none;" />
 <path d="  M 23,15  L 22,15  L 22,18  L 23,18  Z  " style="fill:rgb(182, 109, 106); fill-opacity:1.000; stroke:none;" />
 <path d="  M 24,14  L 24,11  L 23,11  L 23,14  Z  " style="fill:rgb(182, 109, 106); fill-opacity:1.000; stroke:none;" />
 <path d="  M 24,57  L 24,58  L 25,58  L 25,57  Z  " style="fill:rgb(182, 109, 106); fill-opacity:1.000; stroke:none;" />
 <path d="  M 27,57  L 27,58  L 25,58  L 25,60  L 30,60  L 30,61  L 31,61  L 31,59  L 30,59  L 30,58  L 29,58  L 29,57  Z  " style="fill:rgb(182, 109, 106); fill-opacity:1.000; stroke:none;" />
 <path d="  M 28,17  L 29,17  L 29,11  L 28,11  Z  " style="fill:rgb(182, 109, 106); fill-opacity:1.000; stroke:none;" />
 <path d="  M 31,24  L 30,24  L 30,25  L 31,25  Z  " style="fill:rgb(182, 109, 106); fill-opacity:1.000; stroke:none;" />
 <path d="  M 36,35  L 35,35  L 35,36  L 36,36  Z  " style="fill:rgb(182, 109, 106); fill-opacity:1.000; stroke:none;" />
 <path d="  M 37,36  L 36,36  L 36,37  L 37,37  Z  " style="fill:rgb(182, 109, 106); fill-opacity:1.000; stroke:none;" />
 <path d="  M 13,18  L 12,18  L 12,25  L 13,25  Z  " style="fill:rgb(42, 28, 36); fill-opacity:1.000; stroke:none;" />
 <path d="  M 14,60  L 13,60  L 13,67  L 14,67  Z  " style="fill:rgb(42, 28, 36); fill-opacity:1.000; stroke:none;" />
 <path d="  M 15,20  L 15,23  L 16,23  L 16,20  Z  " style="fill:rgb(42, 28, 36); fill-opacity:1.000; stroke:none;" />
 <path d="  M 16,19  L 16,20  L 21,20  L 21,19  Z  " style="fill:rgb(42, 28, 36); fill-opacity:1.000; stroke:none;" />
 <path d="  M 31,25  L 32,25  L 32,17  L 30,17  L 30,18  L 31,18  L 31,19  L 26,19  L 26,20  L 31,20  Z  " style="fill:rgb(42, 28, 36); fill-opacity:1.000; stroke:none;" />
 <path d="  M 31,62  L 31,67  L 32,67  L 32,62  Z  " style="fill:rgb(42, 28, 36); fill-opacity:1.000; stroke:none;" />
 <path d="  M 33,7  L 32,7  L 32,8  L 33,8  Z  " style="fill:rgb(42, 28, 36); fill-opacity:1.000; stroke:none;" />
 <path d="  M 32,78  L 32,79  L 33,79  L 33,78  Z  " style="fill:rgb(42, 28, 36); fill-opacity:1.000; stroke:none;" />
 <path d="  M 34,8  L 33,8  L 33,9  L 34,9  Z  " style="fill:rgb(42, 28, 36); fill-opacity:1.000; stroke:none;" />
 <path d="  M 35,9  L 34,9  L 34,11  L 35,11  Z  " style="fill:rgb(42, 28, 36); fill-opacity:1.000; stroke:none;" />
 <path d="  M 34,28  L 35,28  L 35,17  L 34,17  Z  " style="fill:rgb(42, 28, 36); fill-opacity:1.000; stroke:none;" />
 <path d="  M 43,13  L 43,12  L 36,12  L 36,11  L 35,11  L 35,17  L 37,17  L 37,16  L 38,16  L 38,15  L 40,15  L 40,14  L 42,14  L 42,13  Z  " style="fill:rgb(42, 28, 36); fill-opacity:1.000; stroke:none;" />
 <path d="  M 35,55  L 36,55  L 36,54  L 35,54  Z  " style="fill:rgb(42, 28, 36); fill-opacity:1.000; stroke:none;" />
 <path d="  M 37,50  L 36,50  L 36,51  L 37,51  Z  " style="fill:rgb(42, 28, 36); fill-opacity:1.000; stroke:none;" />
 <path d="  M 37,49  L 38,49  L 38,47  L 37,47  Z  " style="fill:rgb(42, 28, 36); fill-opacity:1.000; stroke:none;" />
 <path d="  M 20,22  L 20,21  L 17,21  L 17,22  Z  " style="fill:rgb(17, 53, 119); fill-opacity:1.000; stroke:none;" />
 <path d="  M 20,52  L 18,52  L 18,53  L 20,53  Z  " style="fill:rgb(17, 53, 119); fill-opacity:1.000; stroke:none;" />
 <path d="  M 20,63  L 21,63  L 21,70  L 22,70  L 22,57  L 21,57  L 21,58  L 20,58  Z  " style="fill:rgb(17, 53, 119); fill-opacity:1.000; stroke:none;" />
 <path d="  M 25,58  L 24,58  L 24,64  L 25,64  Z  " style="fill:rgb(17, 53, 119); fill-opacity:1.000; stroke:none;" />
 <path d="  M 27,21  L 27,22  L 30,22  L 30,21  Z  " style="fill:rgb(17, 53, 119); fill-opacity:1.000; stroke:none;" />
 <path d="  M 33,54  L 33,52  L 32,52  L 32,54  Z  " style="fill:rgb(17, 53, 119); fill-opacity:1.000; stroke:none;" />
 <path d="  M 32,56  L 32,57  L 33,57  L 33,56  Z  " style="fill:rgb(17, 53, 119); fill-opacity:1.000; stroke:none;" />
 <path d="  M 20,25  L 20,24  L 17,24  L 17,25  Z  " style="fill:rgb(240, 214, 204); fill-opacity:1.000; stroke:none;" />
 <path d="  M 26,21  L 26,19  L 21,19  L 21,21  Z  " style="fill:rgb(240, 214, 204); fill-opacity:1.000; stroke:none;" />
 <path d="  M 27,24  L 27,25  L 30,25  L 30,24  Z  " style="fill:rgb(240, 214, 204); fill-opacity:1.000; stroke:none;" />
 <path d="  M 37,35  L 38,35  L 38,33  L 37,33  Z  " style="fill:rgb(240, 214, 204); fill-opacity:1.000; stroke:none;" />
</svg>
