<?xml version="1.0" encoding="UTF-8" standalone="no"?>
<!DOCTYPE svg PUBLIC "-//W3C//DTD SVG 1.1//EN" 
  "http://www.w3.org/Graphics/SVG/1.1/DTD/svg11.dtd">
<svg width="45" height="100"
     xmlns="http://www.w3.org/2000/svg" version="1.1">
 <path d="  M 0,0  L 0,100  L 12,100  L 12,99  L 11,99  L 11,98  L 10,98  L 10,96  L 9,96  L 9,94  L 8,94  L 8,88  L 9,88  L 9,84  L 10,84  L 10,82  L 11,82  L 11,79  L 12,79  L 12,76  L 13,76  L 13,72  L 14,72  L 14,69  L 15,69  L 15,63  L 14,63  L 14,64  L 13,64  L 13,65  L 12,65  L 12,66  L 11,66  L 11,67  L 10,67  L 10,68  L 9,68  L 9,69  L 8,69  L 8,70  L 6,70  L 6,71  L 3,71  L 3,70  L 2,70  L 2,68  L 3,68  L 3,67  L 5,67  L 5,66  L 7,66  L 7,65  L 8,65  L 8,64  L 9,64  L 9,63  L 10,63  L 10,62  L 11,62  L 11,61  L 12,61  L 12,60  L 13,60  L 13,46  L 11,46  L 11,45  L 10,45  L 10,44  L 9,44  L 9,42  L 8,42  L 8,37  L 9,37  L 9,36  L 10,36  L 10,35  L 11,35  L 11,34  L 12,34  L 12,33  L 13,33  L 13,32  L 15,32  L 15,31  L 16,31  L 16,30  L 17,30  L 17,29  L 14,29  L 14,28  L 12,28  L 12,27  L 8,27  L 8,23  L 9,23  L 9,20  L 10,20  L 10,16  L 9,16  L 9,14  L 8,14  L 8,13  L 7,13  L 7,11  L 6,11  L 6,10  L 5,10  L 5,7  L 4,7  L 4,6  L 3,6  L 3,4  L 2,4  L 2,3  L 3,3  L 3,2  L 27,2  L 27,1  L 42,1  L 42,3  L 41,3  L 41,7  L 40,7  L 40,10  L 39,10  L 39,13  L 38,13  L 38,15  L 37,15  L 37,20  L 36,20  L 36,22  L 37,22  L 37,26  L 36,26  L 36,27  L 35,27  L 35,28  L 34,28  L 34,29  L 31,29  L 31,30  L 32,30  L 32,31  L 40,31  L 40,32  L 41,32  L 41,33  L 42,33  L 42,36  L 43,36  L 43,40  L 42,40  L 42,43  L 41,43  L 41,44  L 40,44  L 40,51  L 41,51  L 41,57  L 40,57  L 40,58  L 38,58  L 38,59  L 37,59  L 37,61  L 36,61  L 36,62  L 34,62  L 34,69  L 35,69  L 35,77  L 36,77  L 36,79  L 37,79  L 37,82  L 38,82  L 38,97  L 37,97  L 37,98  L 36,98  L 36,99  L 32,99  L 32,98  L 31,98  L 31,97  L 30,97  L 30,95  L 29,95  L 29,92  L 28,92  L 28,68  L 27,68  L 27,64  L 23,64  L 23,66  L 22,66  L 22,69  L 21,69  L 21,73  L 20,73  L 20,77  L 19,77  L 19,93  L 18,93  L 18,94  L 17,94  L 17,99  L 16,99  L 16,100  L 45,100  L 45,0  Z  " style="fill:rgb(255, 255, 255); fill-opacity:0.000; stroke:none;" />
 <path d="  M 31,29  L 31,28  L 29,28  L 29,29  Z  " style="fill:rgb(255, 255, 255); fill-opacity:0.000; stroke:none;" />
 <path d="  M 2,3  L 2,4  L 3,4  L 3,3  Z  " style="fill:rgb(0, 0, 0); fill-opacity:1.000; stroke:none;" />
 <path d="  M 2,68  L 2,70  L 3,70  L 3,68  Z  " style="fill:rgb(0, 0, 0); fill-opacity:1.000; stroke:none;" />
 <path d="  M 3,2  L 3,3  L 27,3  L 27,2  Z  " style="fill:rgb(0, 0, 0); fill-opacity:1.000; stroke:none;" />
 <path d="  M 3,6  L 4,6  L 4,4  L 3,4  Z  " style="fill:rgb(0, 0, 0); fill-opacity:1.000; stroke:none;" />
 <path d="  M 5,68  L 5,67  L 3,67  L 3,68  Z  " style="fill:rgb(0, 0, 0); fill-opacity:1.000; stroke:none;" />
 <path d="  M 6,70  L 3,70  L 3,71  L 6,71  Z  " style="fill:rgb(0, 0, 0); fill-opacity:1.000; stroke:none;" />
 <path d="  M 5,7  L 5,6  L 4,6  L 4,7  Z  " style="fill:rgb(0, 0, 0); fill-opacity:1.000; stroke:none;" />
 <path d="  M 5,10  L 6,10  L 6,7  L 5,7  Z  " style="fill:rgb(0, 0, 0); fill-opacity:1.000; stroke:none;" />
 <path d="  M 5,66  L 5,67  L 7,67  L 7,66  Z  " style="fill:rgb(0, 0, 0); fill-opacity:1.000; stroke:none;" />
 <path d="  M 6,11  L 7,11  L 7,10  L 6,10  Z  " style="fill:rgb(0, 0, 0); fill-opacity:1.000; stroke:none;" />
 <path d="  M 8,70  L 8,69  L 6,69  L 6,70  Z  " style="fill:rgb(0, 0, 0); fill-opacity:1.000; stroke:none;" />
 <path d="  M 7,11  L 7,13  L 8,13  L 8,11  Z  " style="fill:rgb(0, 0, 0); fill-opacity:1.000; stroke:none;" />
 <path d="  M 7,65  L 7,66  L 8,66  L 8,65  Z  " style="fill:rgb(0, 0, 0); fill-opacity:1.000; stroke:none;" />
 <path d="  M 8,14  L 9,14  L 9,13  L 8,13  Z  " style="fill:rgb(0, 0, 0); fill-opacity:1.000; stroke:none;" />
 <path d="  M 12,27  L 12,26  L 9,26  L 9,23  L 8,23  L 8,27  Z  " style="fill:rgb(0, 0, 0); fill-opacity:1.000; stroke:none;" />
 <path d="  M 8,42  L 9,42  L 9,37  L 8,37  Z  " style="fill:rgb(0, 0, 0); fill-opacity:1.000; stroke:none;" />
 <path d="  M 9,64  L 8,64  L 8,65  L 9,65  Z  " style="fill:rgb(0, 0, 0); fill-opacity:1.000; stroke:none;" />
 <path d="  M 8,68  L 8,69  L 9,69  L 9,68  Z  " style="fill:rgb(0, 0, 0); fill-opacity:1.000; stroke:none;" />
 <path d="  M 9,88  L 8,88  L 8,94  L 9,94  Z  " style="fill:rgb(0, 0, 0); fill-opacity:1.000; stroke:none;" />
 <path d="  M 10,14  L 9,14  L 9,16  L 10,16  Z  " style="fill:rgb(0, 0, 0); fill-opacity:1.000; stroke:none;" />
 <path d="  M 10,20  L 9,20  L 9,23  L 10,23  Z  " style="fill:rgb(0, 0, 0); fill-opacity:1.000; stroke:none;" />
 <path d="  M 10,36  L 9,36  L 9,37  L 10,37  Z  " style="fill:rgb(0, 0, 0); fill-opacity:1.000; stroke:none;" />
 <path d="  M 9,44  L 10,44  L 10,42  L 9,42  Z  " style="fill:rgb(0, 0, 0); fill-opacity:1.000; stroke:none;" />
 <path d="  M 10,64  L 10,63  L 9,63  L 9,64  Z  " style="fill:rgb(0, 0, 0); fill-opacity:1.000; stroke:none;" />
 <path d="  M 10,67  L 9,67  L 9,68  L 10,68  Z  " style="fill:rgb(0, 0, 0); fill-opacity:1.000; stroke:none;" />
 <path d="  M 10,84  L 9,84  L 9,88  L 10,88  Z  " style="fill:rgb(0, 0, 0); fill-opacity:1.000; stroke:none;" />
 <path d="  M 9,96  L 10,96  L 10,94  L 9,94  Z  " style="fill:rgb(0, 0, 0); fill-opacity:1.000; stroke:none;" />
 <path d="  M 11,16  L 10,16  L 10,20  L 11,20  Z  " style="fill:rgb(0, 0, 0); fill-opacity:1.000; stroke:none;" />
 <path d="  M 10,35  L 10,36  L 11,36  L 11,35  Z  " style="fill:rgb(0, 0, 0); fill-opacity:1.000; stroke:none;" />
 <path d="  M 10,44  L 10,45  L 11,45  L 11,44  Z  " style="fill:rgb(0, 0, 0); fill-opacity:1.000; stroke:none;" />
 <path d="  M 10,62  L 10,63  L 11,63  L 11,62  Z  " style="fill:rgb(0, 0, 0); fill-opacity:1.000; stroke:none;" />
 <path d="  M 11,66  L 10,66  L 10,67  L 11,67  Z  " style="fill:rgb(0, 0, 0); fill-opacity:1.000; stroke:none;" />
 <path d="  M 11,84  L 11,82  L 10,82  L 10,84  Z  " style="fill:rgb(0, 0, 0); fill-opacity:1.000; stroke:none;" />
 <path d="  M 11,96  L 10,96  L 10,98  L 11,98  Z  " style="fill:rgb(0, 0, 0); fill-opacity:1.000; stroke:none;" />
 <path d="  M 11,34  L 11,35  L 12,35  L 12,34  Z  " style="fill:rgb(0, 0, 0); fill-opacity:1.000; stroke:none;" />
 <path d="  M 27,59  L 27,58  L 14,58  L 14,41  L 13,41  L 13,45  L 11,45  L 11,46  L 13,46  L 13,60  L 14,60  L 14,59  Z  " style="fill:rgb(0, 0, 0); fill-opacity:1.000; stroke:none;" />
 <path d="  M 11,61  L 11,62  L 12,62  L 12,61  Z  " style="fill:rgb(0, 0, 0); fill-opacity:1.000; stroke:none;" />
 <path d="  M 12,65  L 11,65  L 11,66  L 12,66  Z  " style="fill:rgb(0, 0, 0); fill-opacity:1.000; stroke:none;" />
 <path d="  M 11,82  L 12,82  L 12,79  L 11,79  Z  " style="fill:rgb(0, 0, 0); fill-opacity:1.000; stroke:none;" />
 <path d="  M 12,99  L 12,98  L 11,98  L 11,99  Z  " style="fill:rgb(0, 0, 0); fill-opacity:1.000; stroke:none;" />
 <path d="  M 14,28  L 14,27  L 12,27  L 12,28  Z  " style="fill:rgb(0, 0, 0); fill-opacity:1.000; stroke:none;" />
 <path d="  M 12,33  L 12,34  L 13,34  L 13,33  Z  " style="fill:rgb(0, 0, 0); fill-opacity:1.000; stroke:none;" />
 <path d="  M 12,60  L 12,61  L 13,61  L 13,60  Z  " style="fill:rgb(0, 0, 0); fill-opacity:1.000; stroke:none;" />
 <path d="  M 13,65  L 13,64  L 12,64  L 12,65  Z  " style="fill:rgb(0, 0, 0); fill-opacity:1.000; stroke:none;" />
 <path d="  M 13,76  L 12,76  L 12,79  L 13,79  Z  " style="fill:rgb(0, 0, 0); fill-opacity:1.000; stroke:none;" />
 <path d="  M 16,100  L 16,99  L 12,99  L 12,100  Z  " style="fill:rgb(0, 0, 0); fill-opacity:1.000; stroke:none;" />
 <path d="  M 18,32  L 16,32  L 16,31  L 15,31  L 15,32  L 13,32  L 13,33  L 18,33  Z  " style="fill:rgb(0, 0, 0); fill-opacity:1.000; stroke:none;" />
 <path d="  M 13,64  L 14,64  L 14,63  L 13,63  Z  " style="fill:rgb(0, 0, 0); fill-opacity:1.000; stroke:none;" />
 <path d="  M 14,72  L 13,72  L 13,76  L 14,76  Z  " style="fill:rgb(0, 0, 0); fill-opacity:1.000; stroke:none;" />
 <path d="  M 17,29  L 17,28  L 14,28  L 14,29  Z  " style="fill:rgb(0, 0, 0); fill-opacity:1.000; stroke:none;" />
 <path d="  M 14,62  L 14,63  L 15,63  L 15,62  Z  " style="fill:rgb(0, 0, 0); fill-opacity:1.000; stroke:none;" />
 <path d="  M 14,72  L 15,72  L 15,69  L 14,69  Z  " style="fill:rgb(0, 0, 0); fill-opacity:1.000; stroke:none;" />
 <path d="  M 16,63  L 15,63  L 15,69  L 16,69  Z  " style="fill:rgb(0, 0, 0); fill-opacity:1.000; stroke:none;" />
 <path d="  M 17,31  L 17,30  L 16,30  L 16,31  Z  " style="fill:rgb(0, 0, 0); fill-opacity:1.000; stroke:none;" />
 <path d="  M 17,94  L 16,94  L 16,99  L 17,99  Z  " style="fill:rgb(0, 0, 0); fill-opacity:1.000; stroke:none;" />
 <path d="  M 18,29  L 17,29  L 17,30  L 18,30  Z  " style="fill:rgb(0, 0, 0); fill-opacity:1.000; stroke:none;" />
 <path d="  M 18,93  L 17,93  L 17,94  L 18,94  Z  " style="fill:rgb(0, 0, 0); fill-opacity:1.000; stroke:none;" />
 <path d="  M 18,31  L 18,32  L 40,32  L 40,31  L 32,31  L 32,30  L 31,30  L 31,31  Z  " style="fill:rgb(0, 0, 0); fill-opacity:1.000; stroke:none;" />
 <path d="  M 18,93  L 19,93  L 19,77  L 18,77  Z  " style="fill:rgb(0, 0, 0); fill-opacity:1.000; stroke:none;" />
 <path d="  M 19,73  L 19,77  L 20,77  L 20,73  Z  " style="fill:rgb(0, 0, 0); fill-opacity:1.000; stroke:none;" />
 <path d="  M 21,69  L 20,69  L 20,73  L 21,73  Z  " style="fill:rgb(0, 0, 0); fill-opacity:1.000; stroke:none;" />
 <path d="  M 28,36  L 25,36  L 25,38  L 23,38  L 23,40  L 25,40  L 25,49  L 21,49  L 21,51  L 32,51  L 32,49  L 28,49  Z  " style="fill:rgb(0, 0, 0); fill-opacity:1.000; stroke:none;" />
 <path d="  M 22,69  L 22,66  L 21,66  L 21,69  Z  " style="fill:rgb(0, 0, 0); fill-opacity:1.000; stroke:none;" />
 <path d="  M 27,68  L 28,68  L 28,63  L 22,63  L 22,66  L 23,66  L 23,64  L 27,64  Z  " style="fill:rgb(0, 0, 0); fill-opacity:1.000; stroke:none;" />
 <path d="  M 41,2  L 41,3  L 42,3  L 42,1  L 27,1  L 27,2  Z  " style="fill:rgb(0, 0, 0); fill-opacity:1.000; stroke:none;" />
 <path d="  M 27,57  L 27,58  L 37,58  L 37,59  L 38,59  L 38,58  L 40,58  L 40,57  Z  " style="fill:rgb(0, 0, 0); fill-opacity:1.000; stroke:none;" />
 <path d="  M 28,28  L 28,30  L 31,30  L 31,29  L 29,29  L 29,28  Z  " style="fill:rgb(0, 0, 0); fill-opacity:1.000; stroke:none;" />
 <path d="  M 29,68  L 28,68  L 28,92  L 29,92  Z  " style="fill:rgb(0, 0, 0); fill-opacity:1.000; stroke:none;" />
 <path d="  M 29,27  L 29,28  L 31,28  L 31,27  Z  " style="fill:rgb(0, 0, 0); fill-opacity:1.000; stroke:none;" />
 <path d="  M 29,95  L 30,95  L 30,92  L 29,92  Z  " style="fill:rgb(0, 0, 0); fill-opacity:1.000; stroke:none;" />
 <path d="  M 31,97  L 31,95  L 30,95  L 30,97  Z  " style="fill:rgb(0, 0, 0); fill-opacity:1.000; stroke:none;" />
 <path d="  M 34,28  L 31,28  L 31,29  L 34,29  Z  " style="fill:rgb(0, 0, 0); fill-opacity:1.000; stroke:none;" />
 <path d="  M 32,97  L 31,97  L 31,98  L 32,98  Z  " style="fill:rgb(0, 0, 0); fill-opacity:1.000; stroke:none;" />
 <path d="  M 32,98  L 32,99  L 36,99  L 36,98  Z  " style="fill:rgb(0, 0, 0); fill-opacity:1.000; stroke:none;" />
 <path d="  M 34,62  L 33,62  L 33,69  L 34,69  Z  " style="fill:rgb(0, 0, 0); fill-opacity:1.000; stroke:none;" />
 <path d="  M 34,28  L 35,28  L 35,27  L 34,27  Z  " style="fill:rgb(0, 0, 0); fill-opacity:1.000; stroke:none;" />
 <path d="  M 34,61  L 34,62  L 36,62  L 36,61  Z  " style="fill:rgb(0, 0, 0); fill-opacity:1.000; stroke:none;" />
 <path d="  M 35,69  L 34,69  L 34,77  L 35,77  Z  " style="fill:rgb(0, 0, 0); fill-opacity:1.000; stroke:none;" />
 <path d="  M 36,20  L 35,20  L 35,22  L 36,22  Z  " style="fill:rgb(0, 0, 0); fill-opacity:1.000; stroke:none;" />
 <path d="  M 35,27  L 36,27  L 36,26  L 35,26  Z  " style="fill:rgb(0, 0, 0); fill-opacity:1.000; stroke:none;" />
 <path d="  M 36,79  L 36,77  L 35,77  L 35,79  Z  " style="fill:rgb(0, 0, 0); fill-opacity:1.000; stroke:none;" />
 <path d="  M 37,16  L 36,16  L 36,20  L 37,20  Z  " style="fill:rgb(0, 0, 0); fill-opacity:1.000; stroke:none;" />
 <path d="  M 36,26  L 37,26  L 37,22  L 36,22  Z  " style="fill:rgb(0, 0, 0); fill-opacity:1.000; stroke:none;" />
 <path d="  M 36,59  L 36,61  L 37,61  L 37,59  Z  " style="fill:rgb(0, 0, 0); fill-opacity:1.000; stroke:none;" />
 <path d="  M 36,82  L 37,82  L 37,79  L 36,79  Z  " style="fill:rgb(0, 0, 0); fill-opacity:1.000; stroke:none;" />
 <path d="  M 36,98  L 37,98  L 37,97  L 36,97  Z  " style="fill:rgb(0, 0, 0); fill-opacity:1.000; stroke:none;" />
 <path d="  M 37,15  L 38,15  L 38,13  L 37,13  Z  " style="fill:rgb(0, 0, 0); fill-opacity:1.000; stroke:none;" />
 <path d="  M 37,97  L 38,97  L 38,82  L 37,82  Z  " style="fill:rgb(0, 0, 0); fill-opacity:1.000; stroke:none;" />
 <path d="  M 39,13  L 39,10  L 38,10  L 38,13  Z  " style="fill:rgb(0, 0, 0); fill-opacity:1.000; stroke:none;" />
 <path d="  M 39,10  L 40,10  L 40,7  L 39,7  Z  " style="fill:rgb(0, 0, 0); fill-opacity:1.000; stroke:none;" />
 <path d="  M 40,44  L 41,44  L 41,43  L 40,43  L 40,40  L 39,40  L 39,51  L 40,51  Z  " style="fill:rgb(0, 0, 0); fill-opacity:1.000; stroke:none;" />
 <path d="  M 40,7  L 41,7  L 41,3  L 40,3  Z  " style="fill:rgb(0, 0, 0); fill-opacity:1.000; stroke:none;" />
 <path d="  M 41,32  L 40,32  L 40,33  L 41,33  Z  " style="fill:rgb(0, 0, 0); fill-opacity:1.000; stroke:none;" />
 <path d="  M 41,51  L 40,51  L 40,57  L 41,57  Z  " style="fill:rgb(0, 0, 0); fill-opacity:1.000; stroke:none;" />
 <path d="  M 42,33  L 41,33  L 41,36  L 42,36  Z  " style="fill:rgb(0, 0, 0); fill-opacity:1.000; stroke:none;" />
 <path d="  M 41,40  L 41,43  L 42,43  L 42,40  Z  " style="fill:rgb(0, 0, 0); fill-opacity:1.000; stroke:none;" />
 <path d="  M 42,40  L 43,40  L 43,36  L 42,36  Z  " style="fill:rgb(0, 0, 0); fill-opacity:1.000; stroke:none;" />
 <path d="  M 3,3  L 3,4  L 4,4  L 4,3  Z  " style="fill:rgb(12, 74, 165); fill-opacity:1.000; stroke:none;" />
 <path d="  M 11,63  L 10,63  L 10,64  L 9,64  L 9,65  L 8,65  L 8,66  L 7,66  L 7,67  L 5,67  L 5,68  L 3,68  L 3,70  L 6,70  L 6,69  L 8,69  L 8,68  L 9,68  L 9,67  L 10,67  L 10,66  L 11,66  L 11,65  L 12,65  L 12,64  L 13,64  L 13,63  L 14,63  L 14,62  L 15,62  L 15,61  L 14,61  L 14,60  L 13,60  L 13,61  L 12,61  L 12,62  L 11,62  Z  " style="fill:rgb(12, 74, 165); fill-opacity:1.000; stroke:none;" />
 <path d="  M 6,9  L 7,9  L 7,10  L 8,10  L 8,11  L 9,11  L 9,13  L 10,13  L 10,14  L 11,14  L 11,15  L 12,15  L 12,16  L 13,16  L 13,13  L 14,13  L 14,11  L 13,11  L 13,10  L 12,10  L 12,9  L 11,9  L 11,8  L 9,8  L 9,7  L 8,7  L 8,6  L 7,6  L 7,5  L 6,5  L 6,4  L 4,4  L 4,6  L 5,6  L 5,7  L 6,7  Z  " style="fill:rgb(12, 74, 165); fill-opacity:1.000; stroke:none;" />
 <path d="  M 10,23  L 9,23  L 9,24  L 10,24  Z  " style="fill:rgb(12, 74, 165); fill-opacity:1.000; stroke:none;" />
 <path d="  M 13,17  L 13,18  L 14,18  L 14,20  L 13,20  L 13,21  L 12,21  L 12,23  L 11,23  L 11,24  L 10,24  L 10,25  L 9,25  L 9,26  L 12,26  L 12,27  L 14,27  L 14,24  L 15,24  L 15,16  L 14,16  L 14,17  Z  " style="fill:rgb(12, 74, 165); fill-opacity:1.000; stroke:none;" />
 <path d="  M 11,20  L 10,20  L 10,21  L 11,21  Z  " style="fill:rgb(12, 74, 165); fill-opacity:1.000; stroke:none;" />
 <path d="  M 11,18  L 12,18  L 12,16  L 11,16  Z  " style="fill:rgb(12, 74, 165); fill-opacity:1.000; stroke:none;" />
 <path d="  M 11,95  L 11,96  L 16,96  L 16,95  Z  " style="fill:rgb(12, 74, 165); fill-opacity:1.000; stroke:none;" />
 <path d="  M 14,77  L 14,76  L 13,76  L 13,78  L 14,78  L 14,79  L 15,79  L 15,77  Z  " style="fill:rgb(12, 74, 165); fill-opacity:1.000; stroke:none;" />
 <path d="  M 15,59  L 14,59  L 14,60  L 15,60  Z  " style="fill:rgb(12, 74, 165); fill-opacity:1.000; stroke:none;" />
 <path d="  M 16,62  L 17,62  L 17,61  L 16,61  Z  " style="fill:rgb(12, 74, 165); fill-opacity:1.000; stroke:none;" />
 <path d="  M 17,20  L 17,21  L 18,21  L 18,20  Z  " style="fill:rgb(12, 74, 165); fill-opacity:1.000; stroke:none;" />
 <path d="  M 22,31  L 22,30  L 18,30  L 18,31  Z  " style="fill:rgb(12, 74, 165); fill-opacity:1.000; stroke:none;" />
 <path d="  M 24,63  L 24,62  L 18,62  L 18,63  Z  " style="fill:rgb(12, 74, 165); fill-opacity:1.000; stroke:none;" />
 <path d="  M 23,61  L 23,60  L 22,60  L 22,61  Z  " style="fill:rgb(12, 74, 165); fill-opacity:1.000; stroke:none;" />
 <path d="  M 24,59  L 23,59  L 23,60  L 24,60  Z  " style="fill:rgb(12, 74, 165); fill-opacity:1.000; stroke:none;" />
 <path d="  M 24,60  L 24,61  L 26,61  L 26,60  Z  " style="fill:rgb(12, 74, 165); fill-opacity:1.000; stroke:none;" />
 <path d="  M 34,16  L 35,16  L 35,19  L 36,19  L 36,12  L 35,12  L 35,10  L 34,10  L 34,8  L 33,8  L 33,7  L 32,7  L 32,6  L 33,6  L 33,5  L 32,5  L 32,4  L 29,4  L 29,3  L 28,3  L 28,2  L 27,2  L 27,4  L 28,4  L 28,5  L 29,5  L 29,6  L 30,6  L 30,7  L 31,7  L 31,8  L 32,8  L 32,10  L 33,10  L 33,14  L 34,14  Z  " style="fill:rgb(12, 74, 165); fill-opacity:1.000; stroke:none;" />
 <path d="  M 33,23  L 33,21  L 32,21  L 32,23  Z  " style="fill:rgb(12, 74, 165); fill-opacity:1.000; stroke:none;" />
 <path d="  M 33,6  L 33,7  L 34,7  L 34,8  L 35,8  L 35,10  L 37,10  L 37,7  L 35,7  L 35,6  Z  " style="fill:rgb(12, 74, 165); fill-opacity:1.000; stroke:none;" />
 <path d="  M 34,23  L 33,23  L 33,28  L 34,28  Z  " style="fill:rgb(12, 74, 165); fill-opacity:1.000; stroke:none;" />
 <path d="  M 35,97  L 35,96  L 36,96  L 36,95  L 34,95  L 34,96  L 33,96  L 33,97  Z  " style="fill:rgb(12, 74, 165); fill-opacity:1.000; stroke:none;" />
 <path d="  M 4,3  L 4,4  L 6,4  L 6,5  L 7,5  L 7,6  L 8,6  L 8,7  L 9,7  L 9,8  L 11,8  L 11,9  L 12,9  L 12,10  L 13,10  L 13,11  L 14,11  L 14,10  L 15,10  L 15,12  L 18,12  L 18,13  L 19,13  L 19,11  L 20,11  L 20,12  L 24,12  L 24,10  L 25,10  L 25,12  L 26,12  L 26,13  L 29,13  L 29,10  L 30,10  L 30,13  L 31,13  L 31,14  L 30,14  L 30,17  L 31,17  L 31,15  L 32,15  L 32,10  L 31,10  L 31,8  L 30,8  L 30,6  L 29,6  L 29,5  L 27,5  L 27,4  L 25,4  L 25,3  Z  M 16,9  L 16,10  L 15,10  L 15,9  Z  M 21,10  L 21,11  L 20,11  L 20,10  Z  " style="fill:rgb(73, 170, 234); fill-opacity:1.000; stroke:none;" />
 <path d="  M 17,19  L 18,19  L 18,14  L 14,14  L 14,13  L 13,13  L 13,17  L 14,17  L 14,16  L 15,16  L 15,20  L 17,20  Z  " style="fill:rgb(73, 170, 234); fill-opacity:1.000; stroke:none;" />
 <path d="  M 15,21  L 15,28  L 17,28  L 17,29  L 19,29  L 19,25  L 18,25  L 18,21  Z  " style="fill:rgb(73, 170, 234); fill-opacity:1.000; stroke:none;" />
 <path d="  M 20,17  L 23,17  L 23,18  L 24,18  L 24,14  L 20,14  Z  " style="fill:rgb(73, 170, 234); fill-opacity:1.000; stroke:none;" />
 <path d="  M 24,13  L 24,14  L 25,14  L 25,13  Z  " style="fill:rgb(73, 170, 234); fill-opacity:1.000; stroke:none;" />
 <path d="  M 26,18  L 28,18  L 28,17  L 29,17  L 29,14  L 26,14  Z  " style="fill:rgb(73, 170, 234); fill-opacity:1.000; stroke:none;" />
 <path d="  M 40,5  L 40,3  L 41,3  L 41,2  L 29,2  L 29,4  L 32,4  L 32,5  L 34,5  L 34,6  L 36,6  L 36,7  L 38,7  L 38,6  L 39,6  L 39,5  Z  " style="fill:rgb(73, 170, 234); fill-opacity:1.000; stroke:none;" />
 <path d="  M 7,9  L 6,9  L 6,10  L 7,10  Z  " style="fill:rgb(55, 111, 195); fill-opacity:1.000; stroke:none;" />
 <path d="  M 7,11  L 8,11  L 8,10  L 7,10  Z  " style="fill:rgb(55, 111, 195); fill-opacity:1.000; stroke:none;" />
 <path d="  M 9,13  L 9,11  L 8,11  L 8,13  Z  " style="fill:rgb(55, 111, 195); fill-opacity:1.000; stroke:none;" />
 <path d="  M 10,13  L 9,13  L 9,14  L 10,14  Z  " style="fill:rgb(55, 111, 195); fill-opacity:1.000; stroke:none;" />
 <path d="  M 10,25  L 10,24  L 9,24  L 9,25  Z  " style="fill:rgb(55, 111, 195); fill-opacity:1.000; stroke:none;" />
 <path d="  M 10,16  L 12,16  L 12,15  L 11,15  L 11,14  L 10,14  Z  " style="fill:rgb(55, 111, 195); fill-opacity:1.000; stroke:none;" />
 <path d="  M 10,21  L 10,24  L 11,24  L 11,23  L 12,23  L 12,21  L 13,21  L 13,20  L 14,20  L 14,18  L 13,18  L 13,16  L 12,16  L 12,18  L 11,18  L 11,21  Z  " style="fill:rgb(55, 111, 195); fill-opacity:1.000; stroke:none;" />
 <path d="  M 11,96  L 11,97  L 12,97  L 12,98  L 16,98  L 16,96  Z  " style="fill:rgb(55, 111, 195); fill-opacity:1.000; stroke:none;" />
 <path d="  M 14,12  L 15,12  L 15,10  L 14,10  Z  " style="fill:rgb(55, 111, 195); fill-opacity:1.000; stroke:none;" />
 <path d="  M 15,28  L 15,24  L 14,24  L 14,28  Z  " style="fill:rgb(55, 111, 195); fill-opacity:1.000; stroke:none;" />
 <path d="  M 16,10  L 16,9  L 15,9  L 15,10  Z  " style="fill:rgb(55, 111, 195); fill-opacity:1.000; stroke:none;" />
 <path d="  M 15,20  L 15,21  L 17,21  L 17,20  Z  " style="fill:rgb(55, 111, 195); fill-opacity:1.000; stroke:none;" />
 <path d="  M 22,61  L 22,60  L 23,60  L 23,59  L 15,59  L 15,61  L 17,61  L 17,62  L 24,62  L 24,61  Z  " style="fill:rgb(55, 111, 195); fill-opacity:1.000; stroke:none;" />
 <path d="  M 18,20  L 18,19  L 17,19  L 17,20  Z  " style="fill:rgb(55, 111, 195); fill-opacity:1.000; stroke:none;" />
 <path d="  M 17,31  L 18,31  L 18,30  L 17,30  Z  " style="fill:rgb(55, 111, 195); fill-opacity:1.000; stroke:none;" />
 <path d="  M 19,13  L 18,13  L 18,16  L 19,16  Z  " style="fill:rgb(55, 111, 195); fill-opacity:1.000; stroke:none;" />
 <path d="  M 18,25  L 19,25  L 19,22  L 18,22  Z  " style="fill:rgb(55, 111, 195); fill-opacity:1.000; stroke:none;" />
 <path d="  M 19,11  L 19,13  L 20,13  L 20,11  Z  " style="fill:rgb(55, 111, 195); fill-opacity:1.000; stroke:none;" />
 <path d="  M 21,10  L 20,10  L 20,11  L 21,11  Z  " style="fill:rgb(55, 111, 195); fill-opacity:1.000; stroke:none;" />
 <path d="  M 24,13  L 25,13  L 25,10  L 24,10  Z  " style="fill:rgb(55, 111, 195); fill-opacity:1.000; stroke:none;" />
 <path d="  M 24,18  L 25,18  L 25,14  L 24,14  Z  " style="fill:rgb(55, 111, 195); fill-opacity:1.000; stroke:none;" />
 <path d="  M 27,4  L 27,3  L 25,3  L 25,4  Z  " style="fill:rgb(55, 111, 195); fill-opacity:1.000; stroke:none;" />
 <path d="  M 28,5  L 28,4  L 27,4  L 27,5  Z  " style="fill:rgb(55, 111, 195); fill-opacity:1.000; stroke:none;" />
 <path d="  M 28,2  L 28,3  L 29,3  L 29,2  Z  " style="fill:rgb(55, 111, 195); fill-opacity:1.000; stroke:none;" />
 <path d="  M 30,10  L 29,10  L 29,17  L 30,17  Z  " style="fill:rgb(55, 111, 195); fill-opacity:1.000; stroke:none;" />
 <path d="  M 30,7  L 30,8  L 31,8  L 31,7  Z  " style="fill:rgb(55, 111, 195); fill-opacity:1.000; stroke:none;" />
 <path d="  M 32,10  L 32,8  L 31,8  L 31,10  Z  " style="fill:rgb(55, 111, 195); fill-opacity:1.000; stroke:none;" />
 <path d="  M 31,16  L 32,16  L 32,15  L 31,15  Z  " style="fill:rgb(55, 111, 195); fill-opacity:1.000; stroke:none;" />
 <path d="  M 33,10  L 32,10  L 32,15  L 33,15  Z  " style="fill:rgb(55, 111, 195); fill-opacity:1.000; stroke:none;" />
 <path d="  M 34,5  L 33,5  L 33,6  L 34,6  Z  " style="fill:rgb(55, 111, 195); fill-opacity:1.000; stroke:none;" />
 <path d="  M 36,7  L 36,6  L 35,6  L 35,7  Z  " style="fill:rgb(55, 111, 195); fill-opacity:1.000; stroke:none;" />
 <path d="  M 37,7  L 37,8  L 38,8  L 38,7  Z  " style="fill:rgb(55, 111, 195); fill-opacity:1.000; stroke:none;" />
 <path d="  M 38,6  L 38,7  L 39,7  L 39,6  Z  " style="fill:rgb(55, 111, 195); fill-opacity:1.000; stroke:none;" />
 <path d="  M 10,38  L 10,37  L 9,37  L 9,38  Z  " style="fill:rgb(213, 218, 232); fill-opacity:1.000; stroke:none;" />
 <path d="  M 9,94  L 10,94  L 10,93  L 9,93  Z  " style="fill:rgb(213, 218, 232); fill-opacity:1.000; stroke:none;" />
 <path d="  M 11,85  L 11,84  L 10,84  L 10,85  Z  " style="fill:rgb(213, 218, 232); fill-opacity:1.000; stroke:none;" />
 <path d="  M 12,44  L 12,42  L 11,42  L 11,44  Z  " style="fill:rgb(213, 218, 232); fill-opacity:1.000; stroke:none;" />
 <path d="  M 12,83  L 12,82  L 11,82  L 11,83  Z  " style="fill:rgb(213, 218, 232); fill-opacity:1.000; stroke:none;" />
 <path d="  M 11,94  L 11,95  L 16,95  L 16,94  Z  " style="fill:rgb(213, 218, 232); fill-opacity:1.000; stroke:none;" />
 <path d="  M 12,97  L 11,97  L 11,98  L 12,98  Z  " style="fill:rgb(213, 218, 232); fill-opacity:1.000; stroke:none;" />
 <path d="  M 12,80  L 13,80  L 13,79  L 12,79  Z  " style="fill:rgb(213, 218, 232); fill-opacity:1.000; stroke:none;" />
 <path d="  M 12,99  L 13,99  L 13,98  L 12,98  Z  " style="fill:rgb(213, 218, 232); fill-opacity:1.000; stroke:none;" />
 <path d="  M 14,12  L 14,14  L 15,14  L 15,12  Z  " style="fill:rgb(213, 218, 232); fill-opacity:1.000; stroke:none;" />
 <path d="  M 15,98  L 15,99  L 16,99  L 16,98  Z  " style="fill:rgb(213, 218, 232); fill-opacity:1.000; stroke:none;" />
 <path d="  M 16,32  L 17,32  L 17,31  L 16,31  Z  " style="fill:rgb(213, 218, 232); fill-opacity:1.000; stroke:none;" />
 <path d="  M 17,93  L 16,93  L 16,94  L 17,94  Z  " style="fill:rgb(213, 218, 232); fill-opacity:1.000; stroke:none;" />
 <path d="  M 18,12  L 17,12  L 17,14  L 18,14  Z  " style="fill:rgb(213, 218, 232); fill-opacity:1.000; stroke:none;" />
 <path d="  M 17,79  L 17,80  L 18,80  L 18,79  Z  " style="fill:rgb(213, 218, 232); fill-opacity:1.000; stroke:none;" />
 <path d="  M 20,14  L 21,14  L 21,12  L 20,12  Z  " style="fill:rgb(213, 218, 232); fill-opacity:1.000; stroke:none;" />
 <path d="  M 26,13  L 26,14  L 27,14  L 27,13  Z  " style="fill:rgb(213, 218, 232); fill-opacity:1.000; stroke:none;" />
 <path d="  M 28,14  L 29,14  L 29,13  L 28,13  Z  " style="fill:rgb(213, 218, 232); fill-opacity:1.000; stroke:none;" />
 <path d="  M 35,93  L 36,93  L 36,90  L 37,90  L 37,83  L 36,83  L 36,80  L 35,80  L 35,77  L 33,77  L 33,78  L 30,78  L 30,77  L 29,77  L 29,90  L 30,90  L 30,93  L 31,93  L 31,94  L 35,94  Z  " style="fill:rgb(213, 218, 232); fill-opacity:1.000; stroke:none;" />
 <path d="  M 31,14  L 31,13  L 30,13  L 30,14  Z  " style="fill:rgb(213, 218, 232); fill-opacity:1.000; stroke:none;" />
 <path d="  M 36,98  L 36,97  L 32,97  L 32,98  Z  " style="fill:rgb(213, 218, 232); fill-opacity:1.000; stroke:none;" />
 <path d="  M 11,41  L 10,41  L 10,38  L 9,38  L 9,42  L 10,42  L 10,43  L 11,43  Z  " style="fill:rgb(255, 255, 255); fill-opacity:1.000; stroke:none;" />
 <path d="  M 9,93  L 10,93  L 10,94  L 16,94  L 16,93  L 18,93  L 18,80  L 17,80  L 17,79  L 14,79  L 14,78  L 13,78  L 13,80  L 12,80  L 12,83  L 11,83  L 11,85  L 10,85  L 10,88  L 9,88  Z  " style="fill:rgb(255, 255, 255); fill-opacity:1.000; stroke:none;" />
 <path d="  M 15,99  L 15,98  L 13,98  L 13,99  Z  " style="fill:rgb(255, 255, 255); fill-opacity:1.000; stroke:none;" />
 <path d="  M 38,35  L 38,33  L 39,33  L 39,32  L 18,32  L 18,33  L 15,33  L 15,34  L 16,34  L 16,36  L 15,36  L 15,40  L 14,40  L 14,58  L 27,58  L 27,57  L 40,57  L 40,51  L 39,51  L 39,35  Z  M 28,49  L 32,49  L 32,51  L 21,51  L 21,49  L 25,49  L 25,40  L 23,40  L 23,38  L 25,38  L 25,36  L 28,36  Z  " style="fill:rgb(255, 255, 255); fill-opacity:1.000; stroke:none;" />
 <path d="  M 17,14  L 17,12  L 15,12  L 15,14  Z  " style="fill:rgb(255, 255, 255); fill-opacity:1.000; stroke:none;" />
 <path d="  M 18,32  L 18,31  L 17,31  L 17,32  Z  " style="fill:rgb(255, 255, 255); fill-opacity:1.000; stroke:none;" />
 <path d="  M 20,24  L 22,24  L 22,23  L 20,23  Z  " style="fill:rgb(255, 255, 255); fill-opacity:1.000; stroke:none;" />
 <path d="  M 21,12  L 21,14  L 24,14  L 24,12  Z  " style="fill:rgb(255, 255, 255); fill-opacity:1.000; stroke:none;" />
 <path d="  M 22,23  L 23,23  L 23,19  L 22,19  Z  " style="fill:rgb(255, 255, 255); fill-opacity:1.000; stroke:none;" />
 <path d="  M 27,14  L 28,14  L 28,13  L 27,13  Z  " style="fill:rgb(255, 255, 255); fill-opacity:1.000; stroke:none;" />
 <path d="  M 29,23  L 29,24  L 30,24  L 30,23  Z  " style="fill:rgb(255, 255, 255); fill-opacity:1.000; stroke:none;" />
 <path d="  M 31,19  L 30,19  L 30,23  L 31,23  Z  " style="fill:rgb(255, 255, 255); fill-opacity:1.000; stroke:none;" />
 <path d="  M 10,37  L 11,37  L 11,36  L 10,36  Z  " style="fill:rgb(246, 163, 155); fill-opacity:1.000; stroke:none;" />
 <path d="  M 11,40  L 11,41  L 13,41  L 13,40  Z  " style="fill:rgb(246, 163, 155); fill-opacity:1.000; stroke:none;" />
 <path d="  M 13,33  L 13,34  L 15,34  L 15,33  Z  " style="fill:rgb(246, 163, 155); fill-opacity:1.000; stroke:none;" />
 <path d="  M 15,37  L 15,36  L 13,36  L 13,37  Z  " style="fill:rgb(246, 163, 155); fill-opacity:1.000; stroke:none;" />
 <path d="  M 13,39  L 13,40  L 14,40  L 14,39  Z  " style="fill:rgb(246, 163, 155); fill-opacity:1.000; stroke:none;" />
 <path d="  M 15,72  L 14,72  L 14,73  L 15,73  Z  " style="fill:rgb(246, 163, 155); fill-opacity:1.000; stroke:none;" />
 <path d="  M 16,34  L 15,34  L 15,36  L 16,36  Z  " style="fill:rgb(246, 163, 155); fill-opacity:1.000; stroke:none;" />
 <path d="  M 16,70  L 16,69  L 15,69  L 15,70  Z  " style="fill:rgb(246, 163, 155); fill-opacity:1.000; stroke:none;" />
 <path d="  M 20,65  L 20,69  L 21,69  L 21,66  L 22,66  L 22,64  L 19,64  L 19,63  L 16,63  L 16,65  Z  " style="fill:rgb(246, 163, 155); fill-opacity:1.000; stroke:none;" />
 <path d="  M 18,77  L 19,77  L 19,75  L 18,75  Z  " style="fill:rgb(246, 163, 155); fill-opacity:1.000; stroke:none;" />
 <path d="  M 23,17  L 19,17  L 19,18  L 23,18  Z  " style="fill:rgb(246, 163, 155); fill-opacity:1.000; stroke:none;" />
 <path d="  M 21,26  L 22,26  L 22,24  L 19,24  L 19,25  L 21,25  Z  " style="fill:rgb(246, 163, 155); fill-opacity:1.000; stroke:none;" />
 <path d="  M 19,27  L 20,27  L 20,26  L 19,26  Z  " style="fill:rgb(246, 163, 155); fill-opacity:1.000; stroke:none;" />
 <path d="  M 19,72  L 19,73  L 20,73  L 20,72  Z  " style="fill:rgb(246, 163, 155); fill-opacity:1.000; stroke:none;" />
 <path d="  M 22,27  L 21,27  L 21,28  L 22,28  Z  " style="fill:rgb(246, 163, 155); fill-opacity:1.000; stroke:none;" />
 <path d="  M 23,20  L 24,20  L 24,19  L 23,19  Z  " style="fill:rgb(246, 163, 155); fill-opacity:1.000; stroke:none;" />
 <path d="  M 28,19  L 28,18  L 24,18  L 24,19  Z  " style="fill:rgb(246, 163, 155); fill-opacity:1.000; stroke:none;" />
 <path d="  M 27,27  L 27,26  L 24,26  L 24,27  Z  " style="fill:rgb(246, 163, 155); fill-opacity:1.000; stroke:none;" />
 <path d="  M 27,27  L 27,28  L 28,28  L 28,27  Z  " style="fill:rgb(246, 163, 155); fill-opacity:1.000; stroke:none;" />
 <path d="  M 29,18  L 30,18  L 30,17  L 29,17  Z  " style="fill:rgb(246, 163, 155); fill-opacity:1.000; stroke:none;" />
 <path d="  M 30,26  L 29,26  L 29,27  L 30,27  Z  " style="fill:rgb(246, 163, 155); fill-opacity:1.000; stroke:none;" />
 <path d="  M 30,24  L 30,26  L 32,26  L 32,25  L 31,25  L 31,24  Z  " style="fill:rgb(246, 163, 155); fill-opacity:1.000; stroke:none;" />
 <path d="  M 32,19  L 31,19  L 31,20  L 32,20  Z  " style="fill:rgb(246, 163, 155); fill-opacity:1.000; stroke:none;" />
 <path d="  M 31,23  L 31,24  L 32,24  L 32,23  Z  " style="fill:rgb(246, 163, 155); fill-opacity:1.000; stroke:none;" />
 <path d="  M 40,34  L 40,33  L 39,33  L 39,34  Z  " style="fill:rgb(246, 163, 155); fill-opacity:1.000; stroke:none;" />
 <path d="  M 41,39  L 41,37  L 40,37  L 40,36  L 39,36  L 39,38  L 40,38  L 40,39  Z  " style="fill:rgb(246, 163, 155); fill-opacity:1.000; stroke:none;" />
 <path d="  M 40,34  L 40,35  L 41,35  L 41,34  Z  " style="fill:rgb(246, 163, 155); fill-opacity:1.000; stroke:none;" />
 <path d="  M 10,37  L 10,39  L 11,39  L 11,37  Z  " style="fill:rgb(225, 129, 118); fill-opacity:1.000; stroke:none;" />
 <path d="  M 13,34  L 12,34  L 12,35  L 13,35  Z  " style="fill:rgb(225, 129, 118); fill-opacity:1.000; stroke:none;" />
 <path d="  M 14,41  L 14,40  L 13,40  L 13,41  Z  " style="fill:rgb(225, 129, 118); fill-opacity:1.000; stroke:none;" />
 <path d="  M 15,40  L 15,37  L 14,37  L 14,40  Z  " style="fill:rgb(225, 129, 118); fill-opacity:1.000; stroke:none;" />
 <path d="  M 17,62  L 16,62  L 16,63  L 17,63  Z  " style="fill:rgb(225, 129, 118); fill-opacity:1.000; stroke:none;" />
 <path d="  M 19,17  L 20,17  L 20,16  L 19,16  Z  " style="fill:rgb(225, 129, 118); fill-opacity:1.000; stroke:none;" />
 <path d="  M 22,23  L 22,21  L 21,21  L 21,22  L 19,22  L 19,23  Z  " style="fill:rgb(225, 129, 118); fill-opacity:1.000; stroke:none;" />
 <path d="  M 19,25  L 19,26  L 21,26  L 21,25  Z  " style="fill:rgb(225, 129, 118); fill-opacity:1.000; stroke:none;" />
 <path d="  M 19,63  L 19,64  L 22,64  L 22,63  Z  " style="fill:rgb(225, 129, 118); fill-opacity:1.000; stroke:none;" />
 <path d="  M 29,18  L 29,17  L 28,17  L 28,18  Z  " style="fill:rgb(225, 129, 118); fill-opacity:1.000; stroke:none;" />
 <path d="  M 28,23  L 30,23  L 30,21  L 29,21  L 29,22  L 28,22  Z  " style="fill:rgb(225, 129, 118); fill-opacity:1.000; stroke:none;" />
 <path d="  M 28,63  L 28,68  L 29,68  L 29,76  L 33,76  L 33,75  L 34,75  L 34,69  L 33,69  L 33,63  Z  " style="fill:rgb(225, 129, 118); fill-opacity:1.000; stroke:none;" />
 <path d="  M 30,17  L 30,18  L 32,18  L 32,17  Z  " style="fill:rgb(225, 129, 118); fill-opacity:1.000; stroke:none;" />
 <path d="  M 31,27  L 31,26  L 30,26  L 30,27  Z  " style="fill:rgb(225, 129, 118); fill-opacity:1.000; stroke:none;" />
 <path d="  M 31,23  L 32,23  L 32,22  L 31,22  Z  " style="fill:rgb(225, 129, 118); fill-opacity:1.000; stroke:none;" />
 <path d="  M 32,24  L 31,24  L 31,25  L 32,25  Z  " style="fill:rgb(225, 129, 118); fill-opacity:1.000; stroke:none;" />
 <path d="  M 40,35  L 40,34  L 39,34  L 39,33  L 38,33  L 38,35  Z  " style="fill:rgb(225, 129, 118); fill-opacity:1.000; stroke:none;" />
 <path d="  M 40,32  L 39,32  L 39,33  L 40,33  Z  " style="fill:rgb(225, 129, 118); fill-opacity:1.000; stroke:none;" />
 <path d="  M 39,40  L 40,40  L 40,38  L 39,38  Z  " style="fill:rgb(225, 129, 118); fill-opacity:1.000; stroke:none;" />
 <path d="  M 41,34  L 41,33  L 40,33  L 40,34  Z  " style="fill:rgb(225, 129, 118); fill-opacity:1.000; stroke:none;" />
 <path d="  M 41,37  L 41,36  L 40,36  L 40,37  Z  " style="fill:rgb(225, 129, 118); fill-opacity:1.000; stroke:none;" />
 <path d="  M 10,39  L 10,41  L 11,41  L 11,39  Z  " style="fill:rgb(180, 24, 23); fill-opacity:1.000; stroke:none;" />
 <path d="  M 13,42  L 13,41  L 11,41  L 11,42  Z  " style="fill:rgb(180, 24, 23); fill-opacity:1.000; stroke:none;" />
 <path d="  M 18,22  L 19,22  L 19,19  L 20,19  L 20,18  L 19,18  L 19,16  L 18,16  Z  " style="fill:rgb(180, 24, 23); fill-opacity:1.000; stroke:none;" />
 <path d="  M 19,16  L 20,16  L 20,13  L 19,13  Z  " style="fill:rgb(180, 24, 23); fill-opacity:1.000; stroke:none;" />
 <path d="  M 20,22  L 21,22  L 21,21  L 22,21  L 22,19  L 20,19  Z  " style="fill:rgb(180, 24, 23); fill-opacity:1.000; stroke:none;" />
 <path d="  M 21,27  L 20,27  L 20,28  L 21,28  Z  " style="fill:rgb(180, 24, 23); fill-opacity:1.000; stroke:none;" />
 <path d="  M 24,19  L 24,18  L 23,18  L 23,19  Z  " style="fill:rgb(180, 24, 23); fill-opacity:1.000; stroke:none;" />
 <path d="  M 25,29  L 26,29  L 26,28  L 23,28  L 23,29  L 24,29  L 24,30  L 25,30  Z  " style="fill:rgb(180, 24, 23); fill-opacity:1.000; stroke:none;" />
 <path d="  M 25,12  L 25,18  L 26,18  L 26,12  Z  " style="fill:rgb(180, 24, 23); fill-opacity:1.000; stroke:none;" />
 <path d="  M 29,22  L 29,21  L 30,21  L 30,19  L 28,19  L 28,22  Z  " style="fill:rgb(180, 24, 23); fill-opacity:1.000; stroke:none;" />
 <path d="  M 29,28  L 29,27  L 28,27  L 28,28  Z  " style="fill:rgb(180, 24, 23); fill-opacity:1.000; stroke:none;" />
 <path d="  M 31,17  L 32,17  L 32,16  L 31,16  Z  " style="fill:rgb(180, 24, 23); fill-opacity:1.000; stroke:none;" />
 <path d="  M 31,19  L 32,19  L 32,18  L 31,18  Z  " style="fill:rgb(180, 24, 23); fill-opacity:1.000; stroke:none;" />
 <path d="  M 33,23  L 32,23  L 32,26  L 33,26  Z  " style="fill:rgb(180, 24, 23); fill-opacity:1.000; stroke:none;" />
 <path d="  M 41,36  L 41,35  L 39,35  L 39,36  Z  " style="fill:rgb(180, 24, 23); fill-opacity:1.000; stroke:none;" />
 <path d="  M 42,36  L 41,36  L 41,39  L 40,39  L 40,40  L 42,40  Z  " style="fill:rgb(180, 24, 23); fill-opacity:1.000; stroke:none;" />
 <path d="  M 10,44  L 11,44  L 11,43  L 10,43  Z  " style="fill:rgb(161, 164, 186); fill-opacity:1.000; stroke:none;" />
 <path d="  M 11,44  L 11,45  L 13,45  L 13,42  L 12,42  L 12,44  Z  " style="fill:rgb(161, 164, 186); fill-opacity:1.000; stroke:none;" />
 <path d="  M 21,29  L 21,30  L 23,30  L 23,29  Z  " style="fill:rgb(161, 164, 186); fill-opacity:1.000; stroke:none;" />
 <path d="  M 26,31  L 26,29  L 25,29  L 25,30  L 23,30  L 23,31  Z  " style="fill:rgb(161, 164, 186); fill-opacity:1.000; stroke:none;" />
 <path d="  M 41,40  L 40,40  L 40,42  L 41,42  Z  " style="fill:rgb(161, 164, 186); fill-opacity:1.000; stroke:none;" />
 <path d="  M 11,94  L 10,94  L 10,96  L 11,96  Z  " style="fill:rgb(17, 53, 119); fill-opacity:1.000; stroke:none;" />
 <path d="  M 14,60  L 14,61  L 15,61  L 15,60  Z  " style="fill:rgb(17, 53, 119); fill-opacity:1.000; stroke:none;" />
 <path d="  M 16,61  L 15,61  L 15,63  L 16,63  Z  " style="fill:rgb(17, 53, 119); fill-opacity:1.000; stroke:none;" />
 <path d="  M 15,77  L 15,79  L 18,79  L 18,77  Z  " style="fill:rgb(17, 53, 119); fill-opacity:1.000; stroke:none;" />
 <path d="  M 17,62  L 17,63  L 18,63  L 18,62  Z  " style="fill:rgb(17, 53, 119); fill-opacity:1.000; stroke:none;" />
 <path d="  M 21,29  L 21,28  L 20,28  L 20,27  L 19,27  L 19,29  L 18,29  L 18,30  L 20,30  L 20,29  Z  " style="fill:rgb(17, 53, 119); fill-opacity:1.000; stroke:none;" />
 <path d="  M 20,19  L 19,19  L 19,22  L 20,22  Z  " style="fill:rgb(17, 53, 119); fill-opacity:1.000; stroke:none;" />
 <path d="  M 20,18  L 20,19  L 23,19  L 23,18  Z  " style="fill:rgb(17, 53, 119); fill-opacity:1.000; stroke:none;" />
 <path d="  M 23,61  L 24,61  L 24,60  L 23,60  Z  " style="fill:rgb(17, 53, 119); fill-opacity:1.000; stroke:none;" />
 <path d="  M 33,63  L 33,62  L 34,62  L 34,61  L 36,61  L 36,59  L 37,59  L 37,58  L 27,58  L 27,59  L 24,59  L 24,60  L 26,60  L 26,61  L 24,61  L 24,63  Z  " style="fill:rgb(17, 53, 119); fill-opacity:1.000; stroke:none;" />
 <path d="  M 27,29  L 28,29  L 28,28  L 27,28  Z  " style="fill:rgb(17, 53, 119); fill-opacity:1.000; stroke:none;" />
 <path d="  M 30,31  L 30,30  L 27,30  L 27,31  Z  " style="fill:rgb(17, 53, 119); fill-opacity:1.000; stroke:none;" />
 <path d="  M 31,19  L 31,18  L 28,18  L 28,19  Z  " style="fill:rgb(17, 53, 119); fill-opacity:1.000; stroke:none;" />
 <path d="  M 33,75  L 33,76  L 29,76  L 29,77  L 30,77  L 30,78  L 33,78  L 33,77  L 34,77  L 34,75  Z  " style="fill:rgb(17, 53, 119); fill-opacity:1.000; stroke:none;" />
 <path d="  M 30,94  L 30,95  L 31,95  L 31,97  L 33,97  L 33,96  L 34,96  L 34,95  L 36,95  L 36,96  L 35,96  L 35,97  L 37,97  L 37,93  L 36,93  L 36,94  Z  " style="fill:rgb(17, 53, 119); fill-opacity:1.000; stroke:none;" />
 <path d="  M 33,26  L 31,26  L 31,28  L 33,28  Z  " style="fill:rgb(17, 53, 119); fill-opacity:1.000; stroke:none;" />
 <path d="  M 33,7  L 33,6  L 32,6  L 32,7  Z  " style="fill:rgb(17, 53, 119); fill-opacity:1.000; stroke:none;" />
 <path d="  M 35,16  L 34,16  L 34,14  L 33,14  L 33,15  L 32,15  L 32,21  L 33,21  L 33,23  L 34,23  L 34,27  L 35,27  L 35,26  L 36,26  L 36,22  L 35,22  L 35,20  L 36,20  L 36,19  L 35,19  Z  " style="fill:rgb(17, 53, 119); fill-opacity:1.000; stroke:none;" />
 <path d="  M 33,7  L 33,8  L 34,8  L 34,7  Z  " style="fill:rgb(17, 53, 119); fill-opacity:1.000; stroke:none;" />
 <path d="  M 35,8  L 34,8  L 34,10  L 35,10  Z  " style="fill:rgb(17, 53, 119); fill-opacity:1.000; stroke:none;" />
 <path d="  M 38,10  L 39,10  L 39,7  L 38,7  L 38,8  L 37,8  L 37,10  L 35,10  L 35,12  L 36,12  L 36,16  L 37,16  L 37,13  L 38,13  Z  " style="fill:rgb(17, 53, 119); fill-opacity:1.000; stroke:none;" />
 <path d="  M 39,5  L 39,7  L 40,7  L 40,5  Z  " style="fill:rgb(17, 53, 119); fill-opacity:1.000; stroke:none;" />
 <path d="  M 13,40  L 13,39  L 14,39  L 14,37  L 13,37  L 13,36  L 15,36  L 15,34  L 13,34  L 13,35  L 11,35  L 11,40  Z  " style="fill:rgb(241, 230, 223); fill-opacity:1.000; stroke:none;" />
 <path d="  M 20,65  L 16,65  L 16,70  L 15,70  L 15,73  L 14,73  L 14,77  L 18,77  L 18,75  L 19,75  L 19,72  L 20,72  Z  " style="fill:rgb(241, 230, 223); fill-opacity:1.000; stroke:none;" />
 <path d="  M 19,24  L 20,24  L 20,23  L 19,23  Z  " style="fill:rgb(241, 230, 223); fill-opacity:1.000; stroke:none;" />
 <path d="  M 29,24  L 29,23  L 28,23  L 28,19  L 24,19  L 24,20  L 23,20  L 23,23  L 22,23  L 22,26  L 20,26  L 20,27  L 22,27  L 22,28  L 27,28  L 27,27  L 29,27  L 29,26  L 30,26  L 30,24  Z  M 27,26  L 27,27  L 24,27  L 24,26  Z  " style="fill:rgb(241, 230, 223); fill-opacity:1.000; stroke:none;" />
 <path d="  M 31,24  L 31,23  L 30,23  L 30,24  Z  " style="fill:rgb(241, 230, 223); fill-opacity:1.000; stroke:none;" />
 <path d="  M 31,22  L 32,22  L 32,20  L 31,20  Z  " style="fill:rgb(241, 230, 223); fill-opacity:1.000; stroke:none;" />
 <path d="  M 21,29  L 20,29  L 20,30  L 21,30  Z  " style="fill:rgb(115, 124, 158); fill-opacity:1.000; stroke:none;" />
 <path d="  M 21,28  L 21,29  L 23,29  L 23,28  Z  " style="fill:rgb(115, 124, 158); fill-opacity:1.000; stroke:none;" />
 <path d="  M 23,30  L 22,30  L 22,31  L 23,31  Z  " style="fill:rgb(115, 124, 158); fill-opacity:1.000; stroke:none;" />
 <path d="  M 23,29  L 23,30  L 24,30  L 24,29  Z  " style="fill:rgb(115, 124, 158); fill-opacity:1.000; stroke:none;" />
 <path d="  M 27,29  L 27,28  L 26,28  L 26,31  L 27,31  L 27,30  L 28,30  L 28,29  Z  " style="fill:rgb(115, 124, 158); fill-opacity:1.000; stroke:none;" />
 <path d="  M 30,90  L 29,90  L 29,92  L 30,92  Z  " style="fill:rgb(115, 124, 158); fill-opacity:1.000; stroke:none;" />
 <path d="  M 31,31  L 31,30  L 30,30  L 30,31  Z  " style="fill:rgb(115, 124, 158); fill-opacity:1.000; stroke:none;" />
 <path d="  M 30,93  L 30,94  L 31,94  L 31,93  Z  " style="fill:rgb(115, 124, 158); fill-opacity:1.000; stroke:none;" />
 <path d="  M 36,80  L 36,79  L 35,79  L 35,80  Z  " style="fill:rgb(115, 124, 158); fill-opacity:1.000; stroke:none;" />
 <path d="  M 36,94  L 36,93  L 35,93  L 35,94  Z  " style="fill:rgb(115, 124, 158); fill-opacity:1.000; stroke:none;" />
 <path d="  M 37,82  L 36,82  L 36,83  L 37,83  Z  " style="fill:rgb(115, 124, 158); fill-opacity:1.000; stroke:none;" />
 <path d="  M 37,90  L 36,90  L 36,93  L 37,93  Z  " style="fill:rgb(115, 124, 158); fill-opacity:1.000; stroke:none;" />
 <path d="  M 41,42  L 40,42  L 40,43  L 41,43  Z  " style="fill:rgb(115, 124, 158); fill-opacity:1.000; stroke:none;" />
</svg>
