<?xml version="1.0" encoding="UTF-8" standalone="no"?>
<!DOCTYPE svg PUBLIC "-//W3C//DTD SVG 1.1//EN" 
  "http://www.w3.org/Graphics/SVG/1.1/DTD/svg11.dtd">
<svg width="45" height="100"
     xmlns="http://www.w3.org/2000/svg" version="1.1">
 <path d="  M 14,93  L 15,93  L 15,72  L 14,72  L 14,67  L 13,67  L 13,62  L 12,62  L 12,61  L 10,61  L 10,60  L 7,60  L 7,59  L 6,59  L 6,58  L 5,58  L 5,49  L 6,49  L 6,37  L 7,37  L 7,31  L 8,31  L 8,28  L 9,28  L 9,25  L 10,25  L 10,22  L 9,22  L 9,21  L 8,21  L 8,20  L 7,20  L 7,17  L 6,17  L 6,14  L 7,14  L 7,13  L 8,13  L 8,12  L 7,12  L 7,10  L 6,10  L 6,9  L 5,9  L 5,7  L 4,7  L 4,4  L 5,4  L 5,3  L 11,3  L 11,2  L 20,2  L 20,1  L 25,1  L 25,2  L 31,2  L 31,3  L 34,3  L 34,4  L 37,4  L 37,5  L 40,5  L 40,6  L 42,6  L 42,7  L 44,7  L 44,8  L 45,8  L 45,0  L 0,0  L 0,100  L 32,100  L 32,99  L 31,99  L 31,98  L 30,98  L 30,92  L 29,92  L 29,87  L 28,87  L 28,82  L 27,82  L 27,77  L 26,77  L 26,72  L 25,72  L 25,67  L 24,67  L 24,63  L 22,63  L 22,75  L 23,75  L 23,87  L 24,87  L 24,95  L 23,95  L 23,97  L 22,97  L 22,98  L 19,98  L 19,99  L 15,99  L 15,98  L 14,98  Z  " style="fill:rgb(255, 255, 255); fill-opacity:0.000; stroke:none;" />
 <path d="  M 33,51  L 32,51  L 32,54  L 33,54  L 33,53  L 34,53  L 34,52  L 35,52  L 35,51  L 36,51  L 36,48  L 37,48  L 37,44  L 38,44  L 38,43  L 39,43  L 39,44  L 40,44  L 40,50  L 39,50  L 39,53  L 38,53  L 38,54  L 37,54  L 37,55  L 36,55  L 36,56  L 35,56  L 35,57  L 34,57  L 34,58  L 33,58  L 33,61  L 32,61  L 32,70  L 33,70  L 33,75  L 34,75  L 34,79  L 35,79  L 35,83  L 36,83  L 36,87  L 37,87  L 37,91  L 38,91  L 38,98  L 37,98  L 37,99  L 36,99  L 36,100  L 45,100  L 45,18  L 44,18  L 44,20  L 43,20  L 43,21  L 42,21  L 42,23  L 41,23  L 41,24  L 40,24  L 40,25  L 39,25  L 39,26  L 40,26  L 40,27  L 41,27  L 41,29  L 42,29  L 42,31  L 41,31  L 41,32  L 40,32  L 40,33  L 39,33  L 39,34  L 38,34  L 38,39  L 37,39  L 37,40  L 36,40  L 36,39  L 35,39  L 35,38  L 33,38  Z  " style="fill:rgb(255, 255, 255); fill-opacity:0.000; stroke:none;" />
 <path d="  M 45,10  L 44,10  L 44,11  L 43,11  L 43,12  L 42,12  L 42,13  L 43,13  L 43,14  L 44,14  L 44,15  L 45,15  Z  " style="fill:rgb(255, 255, 255); fill-opacity:0.000; stroke:none;" />
 <path d="  M 4,7  L 5,7  L 5,4  L 4,4  Z  " style="fill:rgb(1, 1, 1); fill-opacity:1.000; stroke:none;" />
 <path d="  M 11,3  L 5,3  L 5,4  L 11,4  Z  " style="fill:rgb(1, 1, 1); fill-opacity:1.000; stroke:none;" />
 <path d="  M 6,7  L 5,7  L 5,9  L 6,9  Z  " style="fill:rgb(1, 1, 1); fill-opacity:1.000; stroke:none;" />
 <path d="  M 5,58  L 6,58  L 6,49  L 5,49  Z  " style="fill:rgb(1, 1, 1); fill-opacity:1.000; stroke:none;" />
 <path d="  M 7,9  L 6,9  L 6,10  L 7,10  Z  " style="fill:rgb(1, 1, 1); fill-opacity:1.000; stroke:none;" />
 <path d="  M 6,14  L 6,17  L 7,17  L 7,14  Z  " style="fill:rgb(1, 1, 1); fill-opacity:1.000; stroke:none;" />
 <path d="  M 6,37  L 6,49  L 7,49  L 7,37  Z  " style="fill:rgb(1, 1, 1); fill-opacity:1.000; stroke:none;" />
 <path d="  M 6,58  L 6,59  L 7,59  L 7,58  Z  " style="fill:rgb(1, 1, 1); fill-opacity:1.000; stroke:none;" />
 <path d="  M 7,12  L 8,12  L 8,10  L 7,10  Z  " style="fill:rgb(1, 1, 1); fill-opacity:1.000; stroke:none;" />
 <path d="  M 7,13  L 7,14  L 8,14  L 8,13  Z  " style="fill:rgb(1, 1, 1); fill-opacity:1.000; stroke:none;" />
 <path d="  M 8,20  L 8,17  L 7,17  L 7,20  Z  " style="fill:rgb(1, 1, 1); fill-opacity:1.000; stroke:none;" />
 <path d="  M 33,32  L 33,38  L 35,38  L 35,37  L 34,37  L 34,31  L 9,31  L 9,28  L 8,28  L 8,31  L 7,31  L 7,37  L 8,37  L 8,32  Z  " style="fill:rgb(1, 1, 1); fill-opacity:1.000; stroke:none;" />
 <path d="  M 7,59  L 7,60  L 10,60  L 10,59  Z  " style="fill:rgb(1, 1, 1); fill-opacity:1.000; stroke:none;" />
 <path d="  M 8,13  L 9,13  L 9,12  L 8,12  Z  " style="fill:rgb(1, 1, 1); fill-opacity:1.000; stroke:none;" />
 <path d="  M 9,20  L 8,20  L 8,21  L 9,21  Z  " style="fill:rgb(1, 1, 1); fill-opacity:1.000; stroke:none;" />
 <path d="  M 10,21  L 9,21  L 9,22  L 10,22  Z  " style="fill:rgb(1, 1, 1); fill-opacity:1.000; stroke:none;" />
 <path d="  M 10,25  L 9,25  L 9,28  L 10,28  Z  " style="fill:rgb(1, 1, 1); fill-opacity:1.000; stroke:none;" />
 <path d="  M 11,25  L 11,22  L 10,22  L 10,25  Z  " style="fill:rgb(1, 1, 1); fill-opacity:1.000; stroke:none;" />
 <path d="  M 10,61  L 12,61  L 12,60  L 10,60  Z  " style="fill:rgb(1, 1, 1); fill-opacity:1.000; stroke:none;" />
 <path d="  M 11,3  L 20,3  L 20,2  L 11,2  Z  " style="fill:rgb(1, 1, 1); fill-opacity:1.000; stroke:none;" />
 <path d="  M 25,50  L 16,50  L 16,46  L 20,46  L 20,45  L 23,45  L 23,43  L 25,43  L 25,39  L 23,39  L 23,37  L 14,37  L 14,39  L 12,39  L 12,41  L 16,41  L 16,39  L 21,39  L 21,43  L 18,43  L 18,44  L 14,44  L 14,46  L 12,46  L 12,52  L 25,52  Z  " style="fill:rgb(1, 1, 1); fill-opacity:1.000; stroke:none;" />
 <path d="  M 12,57  L 12,58  L 22,58  L 22,57  Z  " style="fill:rgb(1, 1, 1); fill-opacity:1.000; stroke:none;" />
 <path d="  M 13,62  L 13,61  L 12,61  L 12,62  Z  " style="fill:rgb(1, 1, 1); fill-opacity:1.000; stroke:none;" />
 <path d="  M 14,62  L 13,62  L 13,67  L 14,67  Z  " style="fill:rgb(1, 1, 1); fill-opacity:1.000; stroke:none;" />
 <path d="  M 15,67  L 14,67  L 14,72  L 15,72  Z  " style="fill:rgb(1, 1, 1); fill-opacity:1.000; stroke:none;" />
 <path d="  M 15,93  L 14,93  L 14,98  L 15,98  Z  " style="fill:rgb(1, 1, 1); fill-opacity:1.000; stroke:none;" />
 <path d="  M 16,72  L 15,72  L 15,93  L 16,93  Z  " style="fill:rgb(1, 1, 1); fill-opacity:1.000; stroke:none;" />
 <path d="  M 19,99  L 19,98  L 15,98  L 15,99  Z  " style="fill:rgb(1, 1, 1); fill-opacity:1.000; stroke:none;" />
 <path d="  M 19,97  L 19,98  L 22,98  L 22,97  Z  " style="fill:rgb(1, 1, 1); fill-opacity:1.000; stroke:none;" />
 <path d="  M 25,2  L 25,1  L 20,1  L 20,2  Z  " style="fill:rgb(1, 1, 1); fill-opacity:1.000; stroke:none;" />
 <path d="  M 21,75  L 22,75  L 22,63  L 21,63  Z  " style="fill:rgb(1, 1, 1); fill-opacity:1.000; stroke:none;" />
 <path d="  M 24,63  L 24,62  L 22,62  L 22,63  Z  " style="fill:rgb(1, 1, 1); fill-opacity:1.000; stroke:none;" />
 <path d="  M 23,87  L 23,75  L 22,75  L 22,87  Z  " style="fill:rgb(1, 1, 1); fill-opacity:1.000; stroke:none;" />
 <path d="  M 22,95  L 22,97  L 23,97  L 23,95  Z  " style="fill:rgb(1, 1, 1); fill-opacity:1.000; stroke:none;" />
 <path d="  M 24,87  L 23,87  L 23,95  L 24,95  Z  " style="fill:rgb(1, 1, 1); fill-opacity:1.000; stroke:none;" />
 <path d="  M 25,63  L 24,63  L 24,67  L 25,67  Z  " style="fill:rgb(1, 1, 1); fill-opacity:1.000; stroke:none;" />
 <path d="  M 31,3  L 31,2  L 25,2  L 25,3  Z  " style="fill:rgb(1, 1, 1); fill-opacity:1.000; stroke:none;" />
 <path d="  M 26,67  L 25,67  L 25,72  L 26,72  Z  " style="fill:rgb(1, 1, 1); fill-opacity:1.000; stroke:none;" />
 <path d="  M 26,77  L 27,77  L 27,72  L 26,72  Z  " style="fill:rgb(1, 1, 1); fill-opacity:1.000; stroke:none;" />
 <path d="  M 27,82  L 28,82  L 28,77  L 27,77  Z  " style="fill:rgb(1, 1, 1); fill-opacity:1.000; stroke:none;" />
 <path d="  M 32,61  L 33,61  L 33,58  L 34,58  L 34,57  L 33,57  L 33,54  L 32,54  L 32,51  L 31,51  L 31,58  L 28,58  L 28,59  L 32,59  Z  " style="fill:rgb(1, 1, 1); fill-opacity:1.000; stroke:none;" />
 <path d="  M 29,82  L 28,82  L 28,87  L 29,87  Z  " style="fill:rgb(1, 1, 1); fill-opacity:1.000; stroke:none;" />
 <path d="  M 30,87  L 29,87  L 29,92  L 30,92  Z  " style="fill:rgb(1, 1, 1); fill-opacity:1.000; stroke:none;" />
 <path d="  M 31,92  L 30,92  L 30,98  L 31,98  Z  " style="fill:rgb(1, 1, 1); fill-opacity:1.000; stroke:none;" />
 <path d="  M 31,3  L 31,4  L 34,4  L 34,3  Z  " style="fill:rgb(1, 1, 1); fill-opacity:1.000; stroke:none;" />
 <path d="  M 31,70  L 32,70  L 32,61  L 31,61  Z  " style="fill:rgb(1, 1, 1); fill-opacity:1.000; stroke:none;" />
 <path d="  M 32,98  L 31,98  L 31,99  L 32,99  Z  " style="fill:rgb(1, 1, 1); fill-opacity:1.000; stroke:none;" />
 <path d="  M 32,51  L 33,51  L 33,38  L 32,38  Z  " style="fill:rgb(1, 1, 1); fill-opacity:1.000; stroke:none;" />
 <path d="  M 33,70  L 32,70  L 32,75  L 33,75  Z  " style="fill:rgb(1, 1, 1); fill-opacity:1.000; stroke:none;" />
 <path d="  M 36,100  L 36,99  L 32,99  L 32,100  Z  " style="fill:rgb(1, 1, 1); fill-opacity:1.000; stroke:none;" />
 <path d="  M 33,54  L 34,54  L 34,53  L 33,53  Z  " style="fill:rgb(1, 1, 1); fill-opacity:1.000; stroke:none;" />
 <path d="  M 33,79  L 34,79  L 34,75  L 33,75  Z  " style="fill:rgb(1, 1, 1); fill-opacity:1.000; stroke:none;" />
 <path d="  M 37,5  L 37,4  L 34,4  L 34,5  Z  " style="fill:rgb(1, 1, 1); fill-opacity:1.000; stroke:none;" />
 <path d="  M 34,52  L 34,53  L 35,53  L 35,52  Z  " style="fill:rgb(1, 1, 1); fill-opacity:1.000; stroke:none;" />
 <path d="  M 35,56  L 34,56  L 34,57  L 35,57  Z  " style="fill:rgb(1, 1, 1); fill-opacity:1.000; stroke:none;" />
 <path d="  M 34,83  L 35,83  L 35,79  L 34,79  Z  " style="fill:rgb(1, 1, 1); fill-opacity:1.000; stroke:none;" />
 <path d="  M 36,38  L 35,38  L 35,39  L 36,39  Z  " style="fill:rgb(1, 1, 1); fill-opacity:1.000; stroke:none;" />
 <path d="  M 36,51  L 35,51  L 35,52  L 36,52  Z  " style="fill:rgb(1, 1, 1); fill-opacity:1.000; stroke:none;" />
 <path d="  M 36,55  L 35,55  L 35,56  L 36,56  Z  " style="fill:rgb(1, 1, 1); fill-opacity:1.000; stroke:none;" />
 <path d="  M 36,83  L 35,83  L 35,87  L 36,87  Z  " style="fill:rgb(1, 1, 1); fill-opacity:1.000; stroke:none;" />
 <path d="  M 36,39  L 36,40  L 37,40  L 37,39  Z  " style="fill:rgb(1, 1, 1); fill-opacity:1.000; stroke:none;" />
 <path d="  M 37,48  L 36,48  L 36,51  L 37,51  Z  " style="fill:rgb(1, 1, 1); fill-opacity:1.000; stroke:none;" />
 <path d="  M 37,55  L 37,54  L 36,54  L 36,55  Z  " style="fill:rgb(1, 1, 1); fill-opacity:1.000; stroke:none;" />
 <path d="  M 36,91  L 37,91  L 37,87  L 36,87  Z  " style="fill:rgb(1, 1, 1); fill-opacity:1.000; stroke:none;" />
 <path d="  M 36,99  L 37,99  L 37,98  L 36,98  Z  " style="fill:rgb(1, 1, 1); fill-opacity:1.000; stroke:none;" />
 <path d="  M 37,5  L 37,6  L 40,6  L 40,5  Z  " style="fill:rgb(1, 1, 1); fill-opacity:1.000; stroke:none;" />
 <path d="  M 38,34  L 37,34  L 37,39  L 38,39  Z  " style="fill:rgb(1, 1, 1); fill-opacity:1.000; stroke:none;" />
 <path d="  M 37,48  L 38,48  L 38,44  L 37,44  Z  " style="fill:rgb(1, 1, 1); fill-opacity:1.000; stroke:none;" />
 <path d="  M 38,54  L 38,53  L 37,53  L 37,54  Z  " style="fill:rgb(1, 1, 1); fill-opacity:1.000; stroke:none;" />
 <path d="  M 38,91  L 37,91  L 37,98  L 38,98  Z  " style="fill:rgb(1, 1, 1); fill-opacity:1.000; stroke:none;" />
 <path d="  M 39,26  L 39,25  L 38,25  L 38,26  Z  " style="fill:rgb(1, 1, 1); fill-opacity:1.000; stroke:none;" />
 <path d="  M 39,33  L 38,33  L 38,34  L 39,34  Z  " style="fill:rgb(1, 1, 1); fill-opacity:1.000; stroke:none;" />
 <path d="  M 38,43  L 38,44  L 39,44  L 39,43  Z  " style="fill:rgb(1, 1, 1); fill-opacity:1.000; stroke:none;" />
 <path d="  M 39,50  L 38,50  L 38,53  L 39,53  Z  " style="fill:rgb(1, 1, 1); fill-opacity:1.000; stroke:none;" />
 <path d="  M 40,25  L 40,24  L 39,24  L 39,25  Z  " style="fill:rgb(1, 1, 1); fill-opacity:1.000; stroke:none;" />
 <path d="  M 39,26  L 39,27  L 40,27  L 40,26  Z  " style="fill:rgb(1, 1, 1); fill-opacity:1.000; stroke:none;" />
 <path d="  M 40,32  L 39,32  L 39,33  L 40,33  Z  " style="fill:rgb(1, 1, 1); fill-opacity:1.000; stroke:none;" />
 <path d="  M 40,44  L 39,44  L 39,50  L 40,50  Z  " style="fill:rgb(1, 1, 1); fill-opacity:1.000; stroke:none;" />
 <path d="  M 40,6  L 40,7  L 42,7  L 42,6  Z  " style="fill:rgb(1, 1, 1); fill-opacity:1.000; stroke:none;" />
 <path d="  M 41,23  L 40,23  L 40,24  L 41,24  Z  " style="fill:rgb(1, 1, 1); fill-opacity:1.000; stroke:none;" />
 <path d="  M 40,29  L 41,29  L 41,27  L 40,27  Z  " style="fill:rgb(1, 1, 1); fill-opacity:1.000; stroke:none;" />
 <path d="  M 40,31  L 40,32  L 41,32  L 41,31  Z  " style="fill:rgb(1, 1, 1); fill-opacity:1.000; stroke:none;" />
 <path d="  M 41,13  L 42,13  L 42,12  L 41,12  Z  " style="fill:rgb(1, 1, 1); fill-opacity:1.000; stroke:none;" />
 <path d="  M 42,21  L 41,21  L 41,23  L 42,23  Z  " style="fill:rgb(1, 1, 1); fill-opacity:1.000; stroke:none;" />
 <path d="  M 42,29  L 41,29  L 41,31  L 42,31  Z  " style="fill:rgb(1, 1, 1); fill-opacity:1.000; stroke:none;" />
 <path d="  M 44,8  L 44,7  L 42,7  L 42,8  Z  " style="fill:rgb(1, 1, 1); fill-opacity:1.000; stroke:none;" />
 <path d="  M 43,11  L 42,11  L 42,12  L 43,12  Z  " style="fill:rgb(1, 1, 1); fill-opacity:1.000; stroke:none;" />
 <path d="  M 43,14  L 43,13  L 42,13  L 42,14  Z  " style="fill:rgb(1, 1, 1); fill-opacity:1.000; stroke:none;" />
 <path d="  M 42,20  L 42,21  L 43,21  L 43,20  Z  " style="fill:rgb(1, 1, 1); fill-opacity:1.000; stroke:none;" />
 <path d="  M 43,10  L 43,11  L 44,11  L 44,10  Z  " style="fill:rgb(1, 1, 1); fill-opacity:1.000; stroke:none;" />
 <path d="  M 44,14  L 43,14  L 43,15  L 44,15  Z  " style="fill:rgb(1, 1, 1); fill-opacity:1.000; stroke:none;" />
 <path d="  M 44,18  L 43,18  L 43,20  L 44,20  Z  " style="fill:rgb(1, 1, 1); fill-opacity:1.000; stroke:none;" />
 <path d="  M 45,8  L 44,8  L 44,10  L 45,10  Z  " style="fill:rgb(1, 1, 1); fill-opacity:1.000; stroke:none;" />
 <path d="  M 44,15  L 44,18  L 45,18  L 45,15  Z  " style="fill:rgb(1, 1, 1); fill-opacity:1.000; stroke:none;" />
 <path d="  M 15,5  L 15,3  L 12,3  L 12,4  L 5,4  L 5,5  L 6,5  L 6,6  L 8,6  L 8,7  L 10,7  L 10,8  L 12,8  L 12,7  L 13,7  L 13,6  L 14,6  L 14,5  Z  " style="fill:rgb(115, 124, 158); fill-opacity:1.000; stroke:none;" />
 <path d="  M 12,10  L 11,10  L 11,11  L 12,11  Z  " style="fill:rgb(115, 124, 158); fill-opacity:1.000; stroke:none;" />
 <path d="  M 11,17  L 12,17  L 12,21  L 13,21  L 13,19  L 14,19  L 14,16  L 17,16  L 17,13  L 15,13  L 15,12  L 14,12  L 14,13  L 12,13  L 12,12  L 11,12  Z  " style="fill:rgb(115, 124, 158); fill-opacity:1.000; stroke:none;" />
 <path d="  M 12,29  L 11,29  L 11,31  L 12,31  Z  " style="fill:rgb(115, 124, 158); fill-opacity:1.000; stroke:none;" />
 <path d="  M 15,12  L 16,12  L 16,11  L 20,11  L 20,13  L 18,13  L 18,18  L 19,18  L 19,20  L 20,20  L 20,19  L 21,19  L 21,18  L 22,18  L 22,13  L 23,13  L 23,11  L 27,11  L 27,17  L 28,17  L 28,18  L 29,18  L 29,15  L 30,15  L 30,9  L 29,9  L 29,7  L 28,7  L 28,6  L 27,6  L 27,5  L 25,5  L 25,4  L 18,4  L 18,5  L 15,5  L 15,6  L 14,6  L 14,7  L 13,7  L 13,9  L 12,9  L 12,10  L 15,10  Z  " style="fill:rgb(115, 124, 158); fill-opacity:1.000; stroke:none;" />
 <path d="  M 13,26  L 12,26  L 12,29  L 13,29  Z  " style="fill:rgb(115, 124, 158); fill-opacity:1.000; stroke:none;" />
 <path d="  M 12,60  L 13,60  L 13,59  L 12,59  Z  " style="fill:rgb(115, 124, 158); fill-opacity:1.000; stroke:none;" />
 <path d="  M 13,61  L 14,61  L 14,60  L 13,60  Z  " style="fill:rgb(115, 124, 158); fill-opacity:1.000; stroke:none;" />
 <path d="  M 15,71  L 15,72  L 16,72  L 16,71  Z  " style="fill:rgb(115, 124, 158); fill-opacity:1.000; stroke:none;" />
 <path d="  M 19,30  L 19,29  L 20,29  L 20,28  L 18,28  L 18,29  L 17,29  L 17,30  L 16,30  L 16,31  L 18,31  L 18,30  Z  " style="fill:rgb(115, 124, 158); fill-opacity:1.000; stroke:none;" />
 <path d="  M 21,75  L 21,76  L 22,76  L 22,75  Z  " style="fill:rgb(115, 124, 158); fill-opacity:1.000; stroke:none;" />
 <path d="  M 22,88  L 23,88  L 23,87  L 22,87  Z  " style="fill:rgb(115, 124, 158); fill-opacity:1.000; stroke:none;" />
 <path d="  M 23,17  L 26,17  L 26,13  L 23,13  Z  " style="fill:rgb(115, 124, 158); fill-opacity:1.000; stroke:none;" />
 <path d="  M 25,61  L 26,61  L 26,60  L 25,60  Z  " style="fill:rgb(115, 124, 158); fill-opacity:1.000; stroke:none;" />
 <path d="  M 30,61  L 30,60  L 27,60  L 27,61  Z  " style="fill:rgb(115, 124, 158); fill-opacity:1.000; stroke:none;" />
 <path d="  M 28,31  L 29,31  L 29,19  L 28,19  Z  " style="fill:rgb(115, 124, 158); fill-opacity:1.000; stroke:none;" />
 <path d="  M 30,60  L 31,60  L 31,59  L 30,59  Z  " style="fill:rgb(115, 124, 158); fill-opacity:1.000; stroke:none;" />
 <path d="  M 31,4  L 31,5  L 32,5  L 32,6  L 34,6  L 34,7  L 35,7  L 35,8  L 42,8  L 42,7  L 40,7  L 40,6  L 37,6  L 37,5  L 34,5  L 34,4  Z  " style="fill:rgb(115, 124, 158); fill-opacity:1.000; stroke:none;" />
 <path d="  M 36,23  L 36,24  L 37,24  L 37,23  Z  " style="fill:rgb(115, 124, 158); fill-opacity:1.000; stroke:none;" />
 <path d="  M 37,21  L 37,23  L 38,23  L 38,21  Z  " style="fill:rgb(115, 124, 158); fill-opacity:1.000; stroke:none;" />
 <path d="  M 37,29  L 37,30  L 39,30  L 39,29  L 40,29  L 40,27  L 39,27  L 39,28  L 38,28  L 38,29  Z  " style="fill:rgb(115, 124, 158); fill-opacity:1.000; stroke:none;" />
 <path d="  M 39,21  L 39,20  L 38,20  L 38,21  Z  " style="fill:rgb(115, 124, 158); fill-opacity:1.000; stroke:none;" />
 <path d="  M 5,5  L 5,6  L 6,6  L 6,5  Z  " style="fill:rgb(80, 77, 96); fill-opacity:1.000; stroke:none;" />
 <path d="  M 9,12  L 10,12  L 10,13  L 11,13  L 11,10  L 12,10  L 12,8  L 10,8  L 10,7  L 8,7  L 8,6  L 6,6  L 6,7  L 7,7  L 7,9  L 8,9  L 8,10  L 9,10  Z  " style="fill:rgb(80, 77, 96); fill-opacity:1.000; stroke:none;" />
 <path d="  M 10,14  L 10,13  L 8,13  L 8,14  Z  " style="fill:rgb(80, 77, 96); fill-opacity:1.000; stroke:none;" />
 <path d="  M 9,31  L 10,31  L 10,28  L 9,28  Z  " style="fill:rgb(80, 77, 96); fill-opacity:1.000; stroke:none;" />
 <path d="  M 10,15  L 10,16  L 11,16  L 11,15  Z  " style="fill:rgb(80, 77, 96); fill-opacity:1.000; stroke:none;" />
 <path d="  M 11,28  L 11,26  L 10,26  L 10,28  Z  " style="fill:rgb(80, 77, 96); fill-opacity:1.000; stroke:none;" />
 <path d="  M 12,18  L 11,18  L 11,19  L 12,19  Z  " style="fill:rgb(80, 77, 96); fill-opacity:1.000; stroke:none;" />
 <path d="  M 12,21  L 12,20  L 11,20  L 11,21  Z  " style="fill:rgb(80, 77, 96); fill-opacity:1.000; stroke:none;" />
 <path d="  M 12,22  L 11,22  L 11,23  L 12,23  Z  " style="fill:rgb(80, 77, 96); fill-opacity:1.000; stroke:none;" />
 <path d="  M 12,29  L 12,28  L 11,28  L 11,29  Z  " style="fill:rgb(80, 77, 96); fill-opacity:1.000; stroke:none;" />
 <path d="  M 13,23  L 12,23  L 12,26  L 13,26  Z  " style="fill:rgb(80, 77, 96); fill-opacity:1.000; stroke:none;" />
 <path d="  M 12,31  L 13,31  L 13,29  L 12,29  Z  " style="fill:rgb(80, 77, 96); fill-opacity:1.000; stroke:none;" />
 <path d="  M 13,27  L 14,27  L 14,26  L 13,26  Z  " style="fill:rgb(80, 77, 96); fill-opacity:1.000; stroke:none;" />
 <path d="  M 15,19  L 14,19  L 14,20  L 15,20  Z  " style="fill:rgb(80, 77, 96); fill-opacity:1.000; stroke:none;" />
 <path d="  M 14,25  L 14,26  L 15,26  L 15,25  Z  " style="fill:rgb(80, 77, 96); fill-opacity:1.000; stroke:none;" />
 <path d="  M 16,19  L 16,20  L 18,20  L 18,18  L 15,18  L 15,19  Z  " style="fill:rgb(80, 77, 96); fill-opacity:1.000; stroke:none;" />
 <path d="  M 17,3  L 16,3  L 16,4  L 17,4  Z  " style="fill:rgb(80, 77, 96); fill-opacity:1.000; stroke:none;" />
 <path d="  M 22,19  L 22,20  L 23,20  L 23,19  Z  " style="fill:rgb(80, 77, 96); fill-opacity:1.000; stroke:none;" />
 <path d="  M 27,22  L 28,22  L 28,19  L 26,19  L 26,18  L 23,18  L 23,19  L 24,19  L 24,20  L 27,20  Z  " style="fill:rgb(80, 77, 96); fill-opacity:1.000; stroke:none;" />
 <path d="  M 29,5  L 28,5  L 28,6  L 29,6  Z  " style="fill:rgb(80, 77, 96); fill-opacity:1.000; stroke:none;" />
 <path d="  M 30,17  L 29,17  L 29,18  L 30,18  L 30,19  L 31,19  L 31,20  L 32,20  L 32,8  L 31,8  L 31,6  L 29,6  L 29,8  L 30,8  Z  " style="fill:rgb(80, 77, 96); fill-opacity:1.000; stroke:none;" />
 <path d="  M 29,31  L 31,31  L 31,30  L 32,30  L 32,24  L 31,24  L 31,20  L 30,20  L 30,19  L 29,19  Z  " style="fill:rgb(80, 77, 96); fill-opacity:1.000; stroke:none;" />
 <path d="  M 30,4  L 31,4  L 31,3  L 30,3  Z  " style="fill:rgb(80, 77, 96); fill-opacity:1.000; stroke:none;" />
 <path d="  M 30,62  L 31,62  L 31,61  L 30,61  Z  " style="fill:rgb(80, 77, 96); fill-opacity:1.000; stroke:none;" />
 <path d="  M 36,8  L 34,8  L 34,7  L 33,7  L 33,6  L 32,6  L 32,8  L 33,8  L 33,9  L 36,9  Z  " style="fill:rgb(80, 77, 96); fill-opacity:1.000; stroke:none;" />
 <path d="  M 33,55  L 34,55  L 34,54  L 33,54  Z  " style="fill:rgb(80, 77, 96); fill-opacity:1.000; stroke:none;" />
 <path d="  M 34,21  L 35,21  L 35,18  L 34,18  Z  " style="fill:rgb(80, 77, 96); fill-opacity:1.000; stroke:none;" />
 <path d="  M 35,54  L 35,53  L 34,53  L 34,54  Z  " style="fill:rgb(80, 77, 96); fill-opacity:1.000; stroke:none;" />
 <path d="  M 35,56  L 35,55  L 34,55  L 34,56  Z  " style="fill:rgb(80, 77, 96); fill-opacity:1.000; stroke:none;" />
 <path d="  M 36,17  L 35,17  L 35,18  L 36,18  Z  " style="fill:rgb(80, 77, 96); fill-opacity:1.000; stroke:none;" />
 <path d="  M 35,53  L 36,53  L 36,52  L 35,52  Z  " style="fill:rgb(80, 77, 96); fill-opacity:1.000; stroke:none;" />
 <path d="  M 35,55  L 36,55  L 36,54  L 35,54  Z  " style="fill:rgb(80, 77, 96); fill-opacity:1.000; stroke:none;" />
 <path d="  M 37,16  L 36,16  L 36,17  L 37,17  Z  " style="fill:rgb(80, 77, 96); fill-opacity:1.000; stroke:none;" />
 <path d="  M 36,53  L 36,54  L 37,54  L 37,53  Z  " style="fill:rgb(80, 77, 96); fill-opacity:1.000; stroke:none;" />
 <path d="  M 37,15  L 37,16  L 38,16  L 38,15  Z  " style="fill:rgb(80, 77, 96); fill-opacity:1.000; stroke:none;" />
 <path d="  M 38,48  L 37,48  L 37,49  L 38,49  Z  " style="fill:rgb(80, 77, 96); fill-opacity:1.000; stroke:none;" />
 <path d="  M 38,53  L 38,52  L 37,52  L 37,53  Z  " style="fill:rgb(80, 77, 96); fill-opacity:1.000; stroke:none;" />
 <path d="  M 39,9  L 39,8  L 38,8  L 38,9  Z  " style="fill:rgb(80, 77, 96); fill-opacity:1.000; stroke:none;" />
 <path d="  M 38,15  L 39,15  L 39,14  L 38,14  Z  " style="fill:rgb(80, 77, 96); fill-opacity:1.000; stroke:none;" />
 <path d="  M 39,44  L 38,44  L 38,45  L 39,45  Z  " style="fill:rgb(80, 77, 96); fill-opacity:1.000; stroke:none;" />
 <path d="  M 38,50  L 39,50  L 39,49  L 38,49  Z  " style="fill:rgb(80, 77, 96); fill-opacity:1.000; stroke:none;" />
 <path d="  M 39,14  L 40,14  L 40,13  L 39,13  Z  " style="fill:rgb(80, 77, 96); fill-opacity:1.000; stroke:none;" />
 <path d="  M 41,12  L 40,12  L 40,13  L 41,13  Z  " style="fill:rgb(80, 77, 96); fill-opacity:1.000; stroke:none;" />
 <path d="  M 42,11  L 41,11  L 41,12  L 42,12  Z  " style="fill:rgb(80, 77, 96); fill-opacity:1.000; stroke:none;" />
 <path d="  M 43,10  L 42,10  L 42,11  L 43,11  Z  " style="fill:rgb(80, 77, 96); fill-opacity:1.000; stroke:none;" />
 <path d="  M 6,7  L 6,6  L 5,6  L 5,7  Z  " style="fill:rgb(92, 98, 136); fill-opacity:1.000; stroke:none;" />
 <path d="  M 6,9  L 7,9  L 7,7  L 6,7  Z  " style="fill:rgb(92, 98, 136); fill-opacity:1.000; stroke:none;" />
 <path d="  M 8,10  L 8,9  L 7,9  L 7,10  Z  " style="fill:rgb(92, 98, 136); fill-opacity:1.000; stroke:none;" />
 <path d="  M 9,10  L 8,10  L 8,12  L 9,12  Z  " style="fill:rgb(92, 98, 136); fill-opacity:1.000; stroke:none;" />
 <path d="  M 10,12  L 9,12  L 9,13  L 10,13  Z  " style="fill:rgb(92, 98, 136); fill-opacity:1.000; stroke:none;" />
 <path d="  M 10,13  L 10,15  L 11,15  L 11,13  Z  " style="fill:rgb(92, 98, 136); fill-opacity:1.000; stroke:none;" />
 <path d="  M 11,28  L 10,28  L 10,31  L 11,31  Z  " style="fill:rgb(92, 98, 136); fill-opacity:1.000; stroke:none;" />
 <path d="  M 12,4  L 12,3  L 11,3  L 11,4  Z  " style="fill:rgb(92, 98, 136); fill-opacity:1.000; stroke:none;" />
 <path d="  M 12,17  L 11,17  L 11,18  L 12,18  Z  " style="fill:rgb(92, 98, 136); fill-opacity:1.000; stroke:none;" />
 <path d="  M 12,19  L 11,19  L 11,20  L 12,20  Z  " style="fill:rgb(92, 98, 136); fill-opacity:1.000; stroke:none;" />
 <path d="  M 11,28  L 12,28  L 12,23  L 11,23  Z  " style="fill:rgb(92, 98, 136); fill-opacity:1.000; stroke:none;" />
 <path d="  M 12,9  L 13,9  L 13,7  L 12,7  Z  " style="fill:rgb(92, 98, 136); fill-opacity:1.000; stroke:none;" />
 <path d="  M 12,23  L 13,23  L 13,21  L 12,21  Z  " style="fill:rgb(92, 98, 136); fill-opacity:1.000; stroke:none;" />
 <path d="  M 14,6  L 13,6  L 13,7  L 14,7  Z  " style="fill:rgb(92, 98, 136); fill-opacity:1.000; stroke:none;" />
 <path d="  M 13,19  L 13,20  L 14,20  L 14,19  Z  " style="fill:rgb(92, 98, 136); fill-opacity:1.000; stroke:none;" />
 <path d="  M 13,24  L 13,26  L 14,26  L 14,24  Z  " style="fill:rgb(92, 98, 136); fill-opacity:1.000; stroke:none;" />
 <path d="  M 14,6  L 15,6  L 15,5  L 14,5  Z  " style="fill:rgb(92, 98, 136); fill-opacity:1.000; stroke:none;" />
 <path d="  M 14,16  L 14,17  L 17,17  L 17,16  Z  " style="fill:rgb(92, 98, 136); fill-opacity:1.000; stroke:none;" />
 <path d="  M 15,5  L 16,5  L 16,3  L 15,3  Z  " style="fill:rgb(92, 98, 136); fill-opacity:1.000; stroke:none;" />
 <path d="  M 18,20  L 16,20  L 16,21  L 17,21  L 17,22  L 16,22  L 16,23  L 18,23  Z  " style="fill:rgb(92, 98, 136); fill-opacity:1.000; stroke:none;" />
 <path d="  M 18,4  L 17,4  L 17,5  L 18,5  Z  " style="fill:rgb(92, 98, 136); fill-opacity:1.000; stroke:none;" />
 <path d="  M 17,16  L 18,16  L 18,13  L 17,13  Z  " style="fill:rgb(92, 98, 136); fill-opacity:1.000; stroke:none;" />
 <path d="  M 21,20  L 21,19  L 20,19  L 20,20  Z  " style="fill:rgb(92, 98, 136); fill-opacity:1.000; stroke:none;" />
 <path d="  M 22,19  L 22,18  L 21,18  L 21,19  Z  " style="fill:rgb(92, 98, 136); fill-opacity:1.000; stroke:none;" />
 <path d="  M 23,13  L 22,13  L 22,18  L 23,18  Z  " style="fill:rgb(92, 98, 136); fill-opacity:1.000; stroke:none;" />
 <path d="  M 24,23  L 27,23  L 27,20  L 24,20  L 24,21  L 25,21  L 25,22  L 24,22  Z  " style="fill:rgb(92, 98, 136); fill-opacity:1.000; stroke:none;" />
 <path d="  M 27,5  L 27,4  L 25,4  L 25,5  Z  " style="fill:rgb(92, 98, 136); fill-opacity:1.000; stroke:none;" />
 <path d="  M 27,13  L 26,13  L 26,17  L 27,17  Z  " style="fill:rgb(92, 98, 136); fill-opacity:1.000; stroke:none;" />
 <path d="  M 28,5  L 27,5  L 27,6  L 28,6  Z  " style="fill:rgb(92, 98, 136); fill-opacity:1.000; stroke:none;" />
 <path d="  M 28,7  L 29,7  L 29,6  L 28,6  Z  " style="fill:rgb(92, 98, 136); fill-opacity:1.000; stroke:none;" />
 <path d="  M 28,19  L 29,19  L 29,18  L 28,18  Z  " style="fill:rgb(92, 98, 136); fill-opacity:1.000; stroke:none;" />
 <path d="  M 29,8  L 29,9  L 30,9  L 30,8  Z  " style="fill:rgb(92, 98, 136); fill-opacity:1.000; stroke:none;" />
 <path d="  M 30,15  L 29,15  L 29,17  L 30,17  Z  " style="fill:rgb(92, 98, 136); fill-opacity:1.000; stroke:none;" />
 <path d="  M 33,6  L 33,7  L 34,7  L 34,6  Z  " style="fill:rgb(92, 98, 136); fill-opacity:1.000; stroke:none;" />
 <path d="  M 33,55  L 33,56  L 34,56  L 34,55  Z  " style="fill:rgb(92, 98, 136); fill-opacity:1.000; stroke:none;" />
 <path d="  M 35,7  L 34,7  L 34,8  L 35,8  Z  " style="fill:rgb(92, 98, 136); fill-opacity:1.000; stroke:none;" />
 <path d="  M 34,55  L 35,55  L 35,54  L 34,54  Z  " style="fill:rgb(92, 98, 136); fill-opacity:1.000; stroke:none;" />
 <path d="  M 36,53  L 35,53  L 35,54  L 36,54  Z  " style="fill:rgb(92, 98, 136); fill-opacity:1.000; stroke:none;" />
 <path d="  M 36,8  L 36,9  L 38,9  L 38,8  Z  " style="fill:rgb(92, 98, 136); fill-opacity:1.000; stroke:none;" />
 <path d="  M 37,49  L 37,51  L 36,51  L 36,53  L 37,53  L 37,52  L 38,52  L 38,49  Z  " style="fill:rgb(92, 98, 136); fill-opacity:1.000; stroke:none;" />
 <path d="  M 39,45  L 38,45  L 38,49  L 39,49  Z  " style="fill:rgb(92, 98, 136); fill-opacity:1.000; stroke:none;" />
 <path d="  M 31,58  L 31,51  L 32,51  L 32,38  L 33,38  L 33,32  L 8,32  L 8,37  L 7,37  L 7,49  L 6,49  L 6,54  L 11,54  L 11,55  L 12,55  L 12,57  L 22,57  L 22,56  L 23,56  L 23,55  L 28,55  L 28,56  L 29,56  L 29,58  Z  M 12,52  L 12,46  L 14,46  L 14,44  L 18,44  L 18,43  L 21,43  L 21,39  L 16,39  L 16,41  L 12,41  L 12,39  L 14,39  L 14,37  L 23,37  L 23,39  L 25,39  L 25,43  L 23,43  L 23,45  L 20,45  L 20,46  L 16,46  L 16,50  L 25,50  L 25,52  Z  " style="fill:rgb(254, 254, 254); fill-opacity:1.000; stroke:none;" />
 <path d="  M 9,17  L 9,15  L 8,15  L 8,17  Z  " style="fill:rgb(254, 254, 254); fill-opacity:1.000; stroke:none;" />
 <path d="  M 10,17  L 9,17  L 9,19  L 10,19  Z  " style="fill:rgb(254, 254, 254); fill-opacity:1.000; stroke:none;" />
 <path d="  M 15,20  L 15,23  L 16,23  L 16,22  L 17,22  L 17,21  L 16,21  L 16,20  Z  " style="fill:rgb(254, 254, 254); fill-opacity:1.000; stroke:none;" />
 <path d="  M 15,60  L 15,61  L 23,61  L 23,60  Z  " style="fill:rgb(254, 254, 254); fill-opacity:1.000; stroke:none;" />
 <path d="  M 16,23  L 16,24  L 18,24  L 18,23  Z  " style="fill:rgb(254, 254, 254); fill-opacity:1.000; stroke:none;" />
 <path d="  M 24,23  L 24,22  L 25,22  L 25,21  L 24,21  L 24,20  L 23,20  L 23,23  Z  " style="fill:rgb(254, 254, 254); fill-opacity:1.000; stroke:none;" />
 <path d="  M 24,23  L 24,24  L 27,24  L 27,23  Z  " style="fill:rgb(254, 254, 254); fill-opacity:1.000; stroke:none;" />
 <path d="  M 25,31  L 28,31  L 28,28  L 26,28  L 26,29  L 25,29  Z  " style="fill:rgb(254, 254, 254); fill-opacity:1.000; stroke:none;" />
 <path d="  M 32,71  L 31,71  L 31,65  L 30,65  L 30,66  L 28,66  L 28,67  L 26,67  L 26,72  L 27,72  L 27,76  L 28,76  L 28,80  L 29,80  L 29,85  L 30,85  L 30,89  L 31,89  L 31,92  L 32,92  L 32,94  L 36,94  L 36,87  L 35,87  L 35,83  L 34,83  L 34,79  L 33,79  L 33,76  L 32,76  Z  " style="fill:rgb(254, 254, 254); fill-opacity:1.000; stroke:none;" />
 <path d="  M 42,14  L 42,15  L 43,15  L 43,14  Z  " style="fill:rgb(254, 254, 254); fill-opacity:1.000; stroke:none;" />
 <path d="  M 6,55  L 7,55  L 7,54  L 6,54  Z  " style="fill:rgb(241, 205, 204); fill-opacity:1.000; stroke:none;" />
 <path d="  M 6,58  L 7,58  L 7,57  L 6,57  Z  " style="fill:rgb(241, 205, 204); fill-opacity:1.000; stroke:none;" />
 <path d="  M 8,57  L 8,55  L 7,55  L 7,57  Z  " style="fill:rgb(241, 205, 204); fill-opacity:1.000; stroke:none;" />
 <path d="  M 8,54  L 8,55  L 11,55  L 11,54  Z  " style="fill:rgb(241, 205, 204); fill-opacity:1.000; stroke:none;" />
 <path d="  M 8,57  L 8,58  L 11,58  L 11,57  Z  " style="fill:rgb(241, 205, 204); fill-opacity:1.000; stroke:none;" />
 <path d="  M 12,55  L 11,55  L 11,56  L 12,56  Z  " style="fill:rgb(241, 205, 204); fill-opacity:1.000; stroke:none;" />
 <path d="  M 16,23  L 15,23  L 15,24  L 16,24  Z  " style="fill:rgb(241, 205, 204); fill-opacity:1.000; stroke:none;" />
 <path d="  M 16,26  L 16,25  L 15,25  L 15,26  Z  " style="fill:rgb(241, 205, 204); fill-opacity:1.000; stroke:none;" />
 <path d="  M 16,25  L 17,25  L 17,24  L 16,24  Z  " style="fill:rgb(241, 205, 204); fill-opacity:1.000; stroke:none;" />
 <path d="  M 18,27  L 18,26  L 17,26  L 17,27  Z  " style="fill:rgb(241, 205, 204); fill-opacity:1.000; stroke:none;" />
 <path d="  M 19,21  L 19,20  L 18,20  L 18,21  Z  " style="fill:rgb(241, 205, 204); fill-opacity:1.000; stroke:none;" />
 <path d="  M 21,27  L 20,27  L 20,28  L 21,28  Z  " style="fill:rgb(241, 205, 204); fill-opacity:1.000; stroke:none;" />
 <path d="  M 23,20  L 22,20  L 22,21  L 23,21  Z  " style="fill:rgb(241, 205, 204); fill-opacity:1.000; stroke:none;" />
 <path d="  M 22,58  L 22,59  L 25,59  L 25,58  Z  " style="fill:rgb(241, 205, 204); fill-opacity:1.000; stroke:none;" />
 <path d="  M 23,28  L 24,28  L 24,27  L 23,27  Z  " style="fill:rgb(241, 205, 204); fill-opacity:1.000; stroke:none;" />
 <path d="  M 25,56  L 25,55  L 23,55  L 23,56  Z  " style="fill:rgb(241, 205, 204); fill-opacity:1.000; stroke:none;" />
 <path d="  M 26,27  L 26,26  L 25,26  L 25,27  Z  " style="fill:rgb(241, 205, 204); fill-opacity:1.000; stroke:none;" />
 <path d="  M 28,59  L 28,58  L 27,58  L 27,56  L 25,56  L 25,58  L 26,58  L 26,59  Z  " style="fill:rgb(241, 205, 204); fill-opacity:1.000; stroke:none;" />
 <path d="  M 27,56  L 28,56  L 28,55  L 27,55  Z  " style="fill:rgb(241, 205, 204); fill-opacity:1.000; stroke:none;" />
 <path d="  M 7,55  L 6,55  L 6,57  L 7,57  Z  " style="fill:rgb(245, 234, 231); fill-opacity:1.000; stroke:none;" />
 <path d="  M 11,55  L 8,55  L 8,57  L 11,57  Z  " style="fill:rgb(245, 234, 231); fill-opacity:1.000; stroke:none;" />
 <path d="  M 18,27  L 21,27  L 21,26  L 23,26  L 23,27  L 25,27  L 25,26  L 27,26  L 27,25  L 25,25  L 25,24  L 24,24  L 24,23  L 23,23  L 23,21  L 22,21  L 22,20  L 19,20  L 19,21  L 18,21  L 18,24  L 17,24  L 17,25  L 16,25  L 16,26  L 18,26  Z  " style="fill:rgb(245, 234, 231); fill-opacity:1.000; stroke:none;" />
 <path d="  M 23,28  L 23,27  L 21,27  L 21,28  Z  " style="fill:rgb(245, 234, 231); fill-opacity:1.000; stroke:none;" />
 <path d="  M 25,56  L 23,56  L 23,57  L 22,57  L 22,58  L 25,58  Z  " style="fill:rgb(245, 234, 231); fill-opacity:1.000; stroke:none;" />
 <path d="  M 27,58  L 28,58  L 28,56  L 27,56  Z  " style="fill:rgb(245, 234, 231); fill-opacity:1.000; stroke:none;" />
 <path d="  M 8,15  L 8,14  L 7,14  L 7,15  Z  " style="fill:rgb(12, 74, 165); fill-opacity:1.000; stroke:none;" />
 <path d="  M 8,19  L 8,20  L 9,20  L 9,19  Z  " style="fill:rgb(12, 74, 165); fill-opacity:1.000; stroke:none;" />
 <path d="  M 11,16  L 10,16  L 10,18  L 11,18  Z  " style="fill:rgb(12, 74, 165); fill-opacity:1.000; stroke:none;" />
 <path d="  M 12,60  L 12,61  L 13,61  L 13,60  Z  " style="fill:rgb(12, 74, 165); fill-opacity:1.000; stroke:none;" />
 <path d="  M 13,60  L 15,60  L 15,59  L 13,59  Z  " style="fill:rgb(12, 74, 165); fill-opacity:1.000; stroke:none;" />
 <path d="  M 16,62  L 16,61  L 15,61  L 15,62  Z  " style="fill:rgb(12, 74, 165); fill-opacity:1.000; stroke:none;" />
 <path d="  M 16,4  L 16,5  L 17,5  L 17,4  Z  " style="fill:rgb(12, 74, 165); fill-opacity:1.000; stroke:none;" />
 <path d="  M 21,63  L 21,62  L 16,62  L 16,63  Z  " style="fill:rgb(12, 74, 165); fill-opacity:1.000; stroke:none;" />
 <path d="  M 17,3  L 17,4  L 18,4  L 18,3  Z  " style="fill:rgb(12, 74, 165); fill-opacity:1.000; stroke:none;" />
 <path d="  M 20,2  L 20,3  L 25,3  L 25,2  Z  " style="fill:rgb(12, 74, 165); fill-opacity:1.000; stroke:none;" />
 <path d="  M 27,4  L 27,3  L 25,3  L 25,4  Z  " style="fill:rgb(12, 74, 165); fill-opacity:1.000; stroke:none;" />
 <path d="  M 25,62  L 26,62  L 26,61  L 25,61  Z  " style="fill:rgb(12, 74, 165); fill-opacity:1.000; stroke:none;" />
 <path d="  M 28,5  L 28,4  L 27,4  L 27,5  Z  " style="fill:rgb(12, 74, 165); fill-opacity:1.000; stroke:none;" />
 <path d="  M 31,94  L 31,96  L 32,96  L 32,95  L 36,95  L 36,94  Z  " style="fill:rgb(12, 74, 165); fill-opacity:1.000; stroke:none;" />
 <path d="  M 37,94  L 37,93  L 36,93  L 36,94  Z  " style="fill:rgb(12, 74, 165); fill-opacity:1.000; stroke:none;" />
 <path d="  M 37,25  L 39,25  L 39,24  L 37,24  Z  " style="fill:rgb(12, 74, 165); fill-opacity:1.000; stroke:none;" />
 <path d="  M 40,22  L 40,21  L 39,21  L 39,22  Z  " style="fill:rgb(12, 74, 165); fill-opacity:1.000; stroke:none;" />
 <path d="  M 42,18  L 41,18  L 41,19  L 42,19  Z  " style="fill:rgb(12, 74, 165); fill-opacity:1.000; stroke:none;" />
 <path d="  M 7,17  L 8,17  L 8,15  L 7,15  Z  " style="fill:rgb(55, 111, 195); fill-opacity:1.000; stroke:none;" />
 <path d="  M 9,17  L 8,17  L 8,19  L 9,19  Z  " style="fill:rgb(55, 111, 195); fill-opacity:1.000; stroke:none;" />
 <path d="  M 10,15  L 9,15  L 9,17  L 10,17  Z  " style="fill:rgb(55, 111, 195); fill-opacity:1.000; stroke:none;" />
 <path d="  M 9,19  L 9,21  L 10,21  L 10,19  Z  " style="fill:rgb(55, 111, 195); fill-opacity:1.000; stroke:none;" />
 <path d="  M 15,59  L 15,60  L 22,60  L 22,59  Z  " style="fill:rgb(55, 111, 195); fill-opacity:1.000; stroke:none;" />
 <path d="  M 16,61  L 16,62  L 25,62  L 25,61  Z  " style="fill:rgb(55, 111, 195); fill-opacity:1.000; stroke:none;" />
 <path d="  M 18,3  L 18,4  L 25,4  L 25,3  Z  " style="fill:rgb(55, 111, 195); fill-opacity:1.000; stroke:none;" />
 <path d="  M 32,95  L 32,96  L 31,96  L 31,98  L 32,98  L 32,99  L 36,99  L 36,98  L 37,98  L 37,94  L 36,94  L 36,95  Z  " style="fill:rgb(55, 111, 195); fill-opacity:1.000; stroke:none;" />
 <path d="  M 43,15  L 43,17  L 42,17  L 42,19  L 41,19  L 41,20  L 40,20  L 40,22  L 39,22  L 39,23  L 38,23  L 38,24  L 40,24  L 40,23  L 41,23  L 41,21  L 42,21  L 42,20  L 43,20  L 43,18  L 44,18  L 44,15  Z  " style="fill:rgb(55, 111, 195); fill-opacity:1.000; stroke:none;" />
 <path d="  M 41,13  L 41,14  L 42,14  L 42,13  Z  " style="fill:rgb(55, 111, 195); fill-opacity:1.000; stroke:none;" />
 <path d="  M 8,55  L 8,54  L 7,54  L 7,55  Z  " style="fill:rgb(239, 150, 137); fill-opacity:1.000; stroke:none;" />
 <path d="  M 7,59  L 11,59  L 11,58  L 8,58  L 8,57  L 7,57  Z  " style="fill:rgb(239, 150, 137); fill-opacity:1.000; stroke:none;" />
 <path d="  M 11,56  L 11,57  L 12,57  L 12,56  Z  " style="fill:rgb(239, 150, 137); fill-opacity:1.000; stroke:none;" />
 <path d="  M 16,25  L 16,24  L 15,24  L 15,23  L 14,23  L 14,25  Z  " style="fill:rgb(239, 150, 137); fill-opacity:1.000; stroke:none;" />
 <path d="  M 17,18  L 18,18  L 18,17  L 17,17  Z  " style="fill:rgb(239, 150, 137); fill-opacity:1.000; stroke:none;" />
 <path d="  M 19,18  L 18,18  L 18,20  L 19,20  Z  " style="fill:rgb(239, 150, 137); fill-opacity:1.000; stroke:none;" />
 <path d="  M 19,28  L 20,28  L 20,27  L 19,27  Z  " style="fill:rgb(239, 150, 137); fill-opacity:1.000; stroke:none;" />
 <path d="  M 21,20  L 22,20  L 22,19  L 21,19  Z  " style="fill:rgb(239, 150, 137); fill-opacity:1.000; stroke:none;" />
 <path d="  M 21,27  L 23,27  L 23,26  L 21,26  Z  " style="fill:rgb(239, 150, 137); fill-opacity:1.000; stroke:none;" />
 <path d="  M 22,56  L 22,57  L 23,57  L 23,56  Z  " style="fill:rgb(239, 150, 137); fill-opacity:1.000; stroke:none;" />
 <path d="  M 27,60  L 27,59  L 26,59  L 26,58  L 25,58  L 25,59  L 23,59  L 23,60  Z  " style="fill:rgb(239, 150, 137); fill-opacity:1.000; stroke:none;" />
 <path d="  M 27,18  L 27,17  L 24,17  L 24,18  Z  " style="fill:rgb(239, 150, 137); fill-opacity:1.000; stroke:none;" />
 <path d="  M 25,27  L 24,27  L 24,28  L 25,28  Z  " style="fill:rgb(239, 150, 137); fill-opacity:1.000; stroke:none;" />
 <path d="  M 28,22  L 27,22  L 27,24  L 25,24  L 25,25  L 27,25  L 27,26  L 28,26  Z  " style="fill:rgb(239, 150, 137); fill-opacity:1.000; stroke:none;" />
 <path d="  M 27,56  L 27,55  L 25,55  L 25,56  Z  " style="fill:rgb(239, 150, 137); fill-opacity:1.000; stroke:none;" />
 <path d="  M 27,27  L 27,26  L 26,26  L 26,27  Z  " style="fill:rgb(239, 150, 137); fill-opacity:1.000; stroke:none;" />
 <path d="  M 28,58  L 29,58  L 29,56  L 28,56  Z  " style="fill:rgb(239, 150, 137); fill-opacity:1.000; stroke:none;" />
 <path d="  M 8,14  L 8,15  L 9,15  L 9,14  Z  " style="fill:rgb(213, 218, 232); fill-opacity:1.000; stroke:none;" />
 <path d="  M 11,18  L 10,18  L 10,20  L 11,20  Z  " style="fill:rgb(213, 218, 232); fill-opacity:1.000; stroke:none;" />
 <path d="  M 13,11  L 12,11  L 12,13  L 13,13  L 13,12  L 14,12  L 14,11  L 15,11  L 15,10  L 13,10  Z  " style="fill:rgb(213, 218, 232); fill-opacity:1.000; stroke:none;" />
 <path d="  M 21,67  L 20,67  L 20,66  L 19,66  L 19,65  L 14,65  L 14,67  L 15,67  L 15,71  L 16,71  L 16,82  L 17,82  L 17,93  L 22,93  L 22,92  L 23,92  L 23,89  L 22,89  L 22,77  L 21,77  Z  " style="fill:rgb(213, 218, 232); fill-opacity:1.000; stroke:none;" />
 <path d="  M 17,13  L 17,11  L 16,11  L 16,12  L 15,12  L 15,13  Z  " style="fill:rgb(213, 218, 232); fill-opacity:1.000; stroke:none;" />
 <path d="  M 18,13  L 20,13  L 20,11  L 18,11  Z  " style="fill:rgb(213, 218, 232); fill-opacity:1.000; stroke:none;" />
 <path d="  M 25,13  L 25,11  L 23,11  L 23,13  Z  " style="fill:rgb(213, 218, 232); fill-opacity:1.000; stroke:none;" />
 <path d="  M 28,67  L 28,66  L 25,66  L 25,67  Z  " style="fill:rgb(213, 218, 232); fill-opacity:1.000; stroke:none;" />
 <path d="  M 27,13  L 27,11  L 26,11  L 26,13  Z  " style="fill:rgb(213, 218, 232); fill-opacity:1.000; stroke:none;" />
 <path d="  M 27,76  L 27,77  L 28,77  L 28,76  Z  " style="fill:rgb(213, 218, 232); fill-opacity:1.000; stroke:none;" />
 <path d="  M 28,82  L 29,82  L 29,80  L 28,80  Z  " style="fill:rgb(213, 218, 232); fill-opacity:1.000; stroke:none;" />
 <path d="  M 30,66  L 30,65  L 29,65  L 29,66  Z  " style="fill:rgb(213, 218, 232); fill-opacity:1.000; stroke:none;" />
 <path d="  M 29,87  L 30,87  L 30,85  L 29,85  Z  " style="fill:rgb(213, 218, 232); fill-opacity:1.000; stroke:none;" />
 <path d="  M 30,64  L 30,65  L 31,65  L 31,64  Z  " style="fill:rgb(213, 218, 232); fill-opacity:1.000; stroke:none;" />
 <path d="  M 31,89  L 30,89  L 30,92  L 31,92  Z  " style="fill:rgb(213, 218, 232); fill-opacity:1.000; stroke:none;" />
 <path d="  M 31,71  L 32,71  L 32,70  L 31,70  Z  " style="fill:rgb(213, 218, 232); fill-opacity:1.000; stroke:none;" />
 <path d="  M 31,94  L 32,94  L 32,92  L 31,92  Z  " style="fill:rgb(213, 218, 232); fill-opacity:1.000; stroke:none;" />
 <path d="  M 33,76  L 33,75  L 32,75  L 32,76  Z  " style="fill:rgb(213, 218, 232); fill-opacity:1.000; stroke:none;" />
 <path d="  M 37,91  L 36,91  L 36,93  L 37,93  Z  " style="fill:rgb(213, 218, 232); fill-opacity:1.000; stroke:none;" />
 <path d="  M 10,15  L 10,14  L 9,14  L 9,15  Z  " style="fill:rgb(17, 53, 119); fill-opacity:1.000; stroke:none;" />
 <path d="  M 11,22  L 11,20  L 10,20  L 10,22  Z  " style="fill:rgb(17, 53, 119); fill-opacity:1.000; stroke:none;" />
 <path d="  M 11,58  L 11,59  L 10,59  L 10,60  L 12,60  L 12,59  L 22,59  L 22,58  Z  " style="fill:rgb(17, 53, 119); fill-opacity:1.000; stroke:none;" />
 <path d="  M 15,62  L 15,61  L 13,61  L 13,62  Z  " style="fill:rgb(17, 53, 119); fill-opacity:1.000; stroke:none;" />
 <path d="  M 22,95  L 23,95  L 23,92  L 22,92  L 22,93  L 15,93  L 15,98  L 19,98  L 19,97  L 22,97  Z  " style="fill:rgb(17, 53, 119); fill-opacity:1.000; stroke:none;" />
 <path d="  M 21,31  L 21,30  L 22,30  L 22,28  L 20,28  L 20,29  L 19,29  L 19,30  L 18,30  L 18,31  Z  " style="fill:rgb(17, 53, 119); fill-opacity:1.000; stroke:none;" />
 <path d="  M 22,63  L 22,62  L 21,62  L 21,63  Z  " style="fill:rgb(17, 53, 119); fill-opacity:1.000; stroke:none;" />
 <path d="  M 23,31  L 24,31  L 24,30  L 23,30  Z  " style="fill:rgb(17, 53, 119); fill-opacity:1.000; stroke:none;" />
 <path d="  M 24,28  L 24,30  L 25,30  L 25,28  Z  " style="fill:rgb(17, 53, 119); fill-opacity:1.000; stroke:none;" />
 <path d="  M 26,60  L 26,62  L 24,62  L 24,63  L 28,63  L 28,62  L 30,62  L 30,61  L 27,61  L 27,60  Z  " style="fill:rgb(17, 53, 119); fill-opacity:1.000; stroke:none;" />
 <path d="  M 25,27  L 25,28  L 26,28  L 26,27  Z  " style="fill:rgb(17, 53, 119); fill-opacity:1.000; stroke:none;" />
 <path d="  M 28,4  L 28,3  L 27,3  L 27,4  Z  " style="fill:rgb(17, 53, 119); fill-opacity:1.000; stroke:none;" />
 <path d="  M 27,27  L 28,27  L 28,26  L 27,26  Z  " style="fill:rgb(17, 53, 119); fill-opacity:1.000; stroke:none;" />
 <path d="  M 31,6  L 31,5  L 30,5  L 30,4  L 28,4  L 28,5  L 29,5  L 29,6  Z  " style="fill:rgb(17, 53, 119); fill-opacity:1.000; stroke:none;" />
 <path d="  M 30,60  L 30,59  L 28,59  L 28,60  Z  " style="fill:rgb(17, 53, 119); fill-opacity:1.000; stroke:none;" />
 <path d="  M 32,61  L 32,59  L 31,59  L 31,60  L 30,60  L 30,61  Z  " style="fill:rgb(17, 53, 119); fill-opacity:1.000; stroke:none;" />
 <path d="  M 32,7  L 32,6  L 31,6  L 31,7  Z  " style="fill:rgb(17, 53, 119); fill-opacity:1.000; stroke:none;" />
 <path d="  M 34,57  L 34,56  L 33,56  L 33,57  Z  " style="fill:rgb(17, 53, 119); fill-opacity:1.000; stroke:none;" />
 <path d="  M 39,15  L 39,16  L 38,16  L 38,17  L 37,17  L 37,18  L 36,18  L 36,23  L 37,23  L 37,21  L 38,21  L 38,20  L 39,20  L 39,18  L 40,18  L 40,17  L 41,17  L 41,15  L 42,15  L 42,14  L 40,14  L 40,15  Z  " style="fill:rgb(17, 53, 119); fill-opacity:1.000; stroke:none;" />
 <path d="  M 36,25  L 37,25  L 37,24  L 36,24  Z  " style="fill:rgb(17, 53, 119); fill-opacity:1.000; stroke:none;" />
 <path d="  M 38,24  L 38,23  L 37,23  L 37,24  Z  " style="fill:rgb(17, 53, 119); fill-opacity:1.000; stroke:none;" />
 <path d="  M 37,29  L 38,29  L 38,28  L 39,28  L 39,26  L 38,26  L 38,25  L 37,25  Z  " style="fill:rgb(17, 53, 119); fill-opacity:1.000; stroke:none;" />
 <path d="  M 38,21  L 38,23  L 39,23  L 39,21  Z  " style="fill:rgb(17, 53, 119); fill-opacity:1.000; stroke:none;" />
 <path d="  M 38,30  L 38,32  L 40,32  L 40,31  L 41,31  L 41,29  L 39,29  L 39,30  Z  " style="fill:rgb(17, 53, 119); fill-opacity:1.000; stroke:none;" />
 <path d="  M 40,20  L 39,20  L 39,21  L 40,21  Z  " style="fill:rgb(17, 53, 119); fill-opacity:1.000; stroke:none;" />
 <path d="  M 40,20  L 41,20  L 41,18  L 40,18  Z  " style="fill:rgb(17, 53, 119); fill-opacity:1.000; stroke:none;" />
 <path d="  M 41,18  L 42,18  L 42,17  L 41,17  Z  " style="fill:rgb(17, 53, 119); fill-opacity:1.000; stroke:none;" />
 <path d="  M 42,15  L 42,17  L 43,17  L 43,15  Z  " style="fill:rgb(17, 53, 119); fill-opacity:1.000; stroke:none;" />
 <path d="  M 11,25  L 10,25  L 10,26  L 11,26  Z  " style="fill:rgb(47, 50, 63); fill-opacity:1.000; stroke:none;" />
 <path d="  M 12,21  L 11,21  L 11,22  L 12,22  Z  " style="fill:rgb(47, 50, 63); fill-opacity:1.000; stroke:none;" />
 <path d="  M 13,20  L 13,24  L 14,24  L 14,20  Z  " style="fill:rgb(47, 50, 63); fill-opacity:1.000; stroke:none;" />
 <path d="  M 17,27  L 17,26  L 14,26  L 14,27  L 13,27  L 13,31  L 16,31  L 16,30  L 17,30  L 17,29  L 18,29  L 18,28  L 19,28  L 19,27  Z  " style="fill:rgb(47, 50, 63); fill-opacity:1.000; stroke:none;" />
 <path d="  M 26,19  L 27,19  L 27,18  L 26,18  Z  " style="fill:rgb(47, 50, 63); fill-opacity:1.000; stroke:none;" />
 <path d="  M 28,3  L 28,4  L 30,4  L 30,3  Z  " style="fill:rgb(47, 50, 63); fill-opacity:1.000; stroke:none;" />
 <path d="  M 29,18  L 29,19  L 30,19  L 30,18  Z  " style="fill:rgb(47, 50, 63); fill-opacity:1.000; stroke:none;" />
 <path d="  M 30,4  L 30,5  L 31,5  L 31,4  Z  " style="fill:rgb(47, 50, 63); fill-opacity:1.000; stroke:none;" />
 <path d="  M 30,19  L 30,20  L 31,20  L 31,19  Z  " style="fill:rgb(47, 50, 63); fill-opacity:1.000; stroke:none;" />
 <path d="  M 31,6  L 32,6  L 32,5  L 31,5  Z  " style="fill:rgb(47, 50, 63); fill-opacity:1.000; stroke:none;" />
 <path d="  M 32,8  L 32,7  L 31,7  L 31,8  Z  " style="fill:rgb(47, 50, 63); fill-opacity:1.000; stroke:none;" />
 <path d="  M 39,8  L 39,9  L 33,9  L 33,8  L 32,8  L 32,20  L 31,20  L 31,24  L 32,24  L 32,30  L 31,30  L 31,31  L 34,31  L 34,37  L 35,37  L 35,38  L 36,38  L 36,39  L 37,39  L 37,34  L 38,34  L 38,33  L 39,33  L 39,32  L 38,32  L 38,30  L 37,30  L 37,25  L 36,25  L 36,18  L 35,18  L 35,17  L 36,17  L 36,16  L 37,16  L 37,15  L 38,15  L 38,14  L 39,14  L 39,13  L 40,13  L 40,12  L 41,12  L 41,11  L 42,11  L 42,10  L 44,10  L 44,8  Z  M 34,21  L 34,18  L 35,18  L 35,21  Z  " style="fill:rgb(47, 50, 63); fill-opacity:1.000; stroke:none;" />
 <path d="  M 37,18  L 37,17  L 36,17  L 36,18  Z  " style="fill:rgb(47, 50, 63); fill-opacity:1.000; stroke:none;" />
 <path d="  M 38,16  L 37,16  L 37,17  L 38,17  Z  " style="fill:rgb(47, 50, 63); fill-opacity:1.000; stroke:none;" />
 <path d="  M 38,15  L 38,16  L 39,16  L 39,15  Z  " style="fill:rgb(47, 50, 63); fill-opacity:1.000; stroke:none;" />
 <path d="  M 39,14  L 39,15  L 40,15  L 40,14  Z  " style="fill:rgb(47, 50, 63); fill-opacity:1.000; stroke:none;" />
 <path d="  M 40,13  L 40,14  L 41,14  L 41,13  Z  " style="fill:rgb(47, 50, 63); fill-opacity:1.000; stroke:none;" />
 <path d="  M 12,11  L 11,11  L 11,12  L 12,12  Z  " style="fill:rgb(161, 164, 186); fill-opacity:1.000; stroke:none;" />
 <path d="  M 12,10  L 12,11  L 13,11  L 13,10  Z  " style="fill:rgb(161, 164, 186); fill-opacity:1.000; stroke:none;" />
 <path d="  M 13,12  L 13,13  L 14,13  L 14,12  Z  " style="fill:rgb(161, 164, 186); fill-opacity:1.000; stroke:none;" />
 <path d="  M 15,11  L 14,11  L 14,12  L 15,12  Z  " style="fill:rgb(161, 164, 186); fill-opacity:1.000; stroke:none;" />
 <path d="  M 14,60  L 14,61  L 15,61  L 15,60  Z  " style="fill:rgb(161, 164, 186); fill-opacity:1.000; stroke:none;" />
 <path d="  M 14,65  L 15,65  L 15,64  L 14,64  Z  " style="fill:rgb(161, 164, 186); fill-opacity:1.000; stroke:none;" />
 <path d="  M 15,19  L 15,20  L 16,20  L 16,19  Z  " style="fill:rgb(161, 164, 186); fill-opacity:1.000; stroke:none;" />
 <path d="  M 17,82  L 16,82  L 16,93  L 17,93  Z  " style="fill:rgb(161, 164, 186); fill-opacity:1.000; stroke:none;" />
 <path d="  M 17,13  L 18,13  L 18,11  L 17,11  Z  " style="fill:rgb(161, 164, 186); fill-opacity:1.000; stroke:none;" />
 <path d="  M 21,64  L 19,64  L 19,66  L 20,66  L 20,67  L 21,67  Z  " style="fill:rgb(161, 164, 186); fill-opacity:1.000; stroke:none;" />
 <path d="  M 23,30  L 21,30  L 21,31  L 23,31  Z  " style="fill:rgb(161, 164, 186); fill-opacity:1.000; stroke:none;" />
 <path d="  M 22,76  L 21,76  L 21,77  L 22,77  Z  " style="fill:rgb(161, 164, 186); fill-opacity:1.000; stroke:none;" />
 <path d="  M 23,89  L 23,88  L 22,88  L 22,89  Z  " style="fill:rgb(161, 164, 186); fill-opacity:1.000; stroke:none;" />
 <path d="  M 23,20  L 24,20  L 24,19  L 23,19  Z  " style="fill:rgb(161, 164, 186); fill-opacity:1.000; stroke:none;" />
 <path d="  M 25,60  L 23,60  L 23,61  L 25,61  Z  " style="fill:rgb(161, 164, 186); fill-opacity:1.000; stroke:none;" />
 <path d="  M 25,31  L 25,30  L 24,30  L 24,31  Z  " style="fill:rgb(161, 164, 186); fill-opacity:1.000; stroke:none;" />
 <path d="  M 25,13  L 26,13  L 26,11  L 25,11  Z  " style="fill:rgb(161, 164, 186); fill-opacity:1.000; stroke:none;" />
 <path d="  M 26,29  L 26,28  L 25,28  L 25,29  Z  " style="fill:rgb(161, 164, 186); fill-opacity:1.000; stroke:none;" />
 <path d="  M 29,65  L 25,65  L 25,66  L 29,66  Z  " style="fill:rgb(161, 164, 186); fill-opacity:1.000; stroke:none;" />
 <path d="  M 28,28  L 28,27  L 26,27  L 26,28  Z  " style="fill:rgb(161, 164, 186); fill-opacity:1.000; stroke:none;" />
 <path d="  M 40,18  L 39,18  L 39,20  L 40,20  Z  " style="fill:rgb(161, 164, 186); fill-opacity:1.000; stroke:none;" />
 <path d="  M 40,17  L 40,18  L 41,18  L 41,17  Z  " style="fill:rgb(161, 164, 186); fill-opacity:1.000; stroke:none;" />
 <path d="  M 41,17  L 42,17  L 42,15  L 41,15  Z  " style="fill:rgb(161, 164, 186); fill-opacity:1.000; stroke:none;" />
 <path d="  M 12,57  L 11,57  L 11,58  L 12,58  Z  " style="fill:rgb(229, 101, 94); fill-opacity:1.000; stroke:none;" />
 <path d="  M 14,17  L 14,19  L 15,19  L 15,18  L 17,18  L 17,17  Z  " style="fill:rgb(229, 101, 94); fill-opacity:1.000; stroke:none;" />
 <path d="  M 14,23  L 15,23  L 15,20  L 14,20  Z  " style="fill:rgb(229, 101, 94); fill-opacity:1.000; stroke:none;" />
 <path d="  M 19,65  L 19,64  L 21,64  L 21,63  L 16,63  L 16,62  L 14,62  L 14,64  L 15,64  L 15,65  Z  " style="fill:rgb(229, 101, 94); fill-opacity:1.000; stroke:none;" />
 <path d="  M 18,17  L 18,16  L 17,16  L 17,17  Z  " style="fill:rgb(229, 101, 94); fill-opacity:1.000; stroke:none;" />
 <path d="  M 22,19  L 23,19  L 23,18  L 22,18  Z  " style="fill:rgb(229, 101, 94); fill-opacity:1.000; stroke:none;" />
 <path d="  M 24,30  L 24,28  L 22,28  L 22,30  Z  " style="fill:rgb(229, 101, 94); fill-opacity:1.000; stroke:none;" />
 <path d="  M 23,59  L 22,59  L 22,60  L 23,60  Z  " style="fill:rgb(229, 101, 94); fill-opacity:1.000; stroke:none;" />
 <path d="  M 24,18  L 24,17  L 23,17  L 23,18  Z  " style="fill:rgb(229, 101, 94); fill-opacity:1.000; stroke:none;" />
 <path d="  M 28,62  L 28,63  L 25,63  L 25,65  L 30,65  L 30,64  L 31,64  L 31,62  Z  " style="fill:rgb(229, 101, 94); fill-opacity:1.000; stroke:none;" />
 <path d="  M 27,19  L 28,19  L 28,17  L 27,17  Z  " style="fill:rgb(229, 101, 94); fill-opacity:1.000; stroke:none;" />
 <path d="  M 28,59  L 27,59  L 27,60  L 28,60  Z  " style="fill:rgb(229, 101, 94); fill-opacity:1.000; stroke:none;" />
</svg>
