<?xml version="1.0" encoding="UTF-8" standalone="no"?>
<!DOCTYPE svg PUBLIC "-//W3C//DTD SVG 1.1//EN" 
  "http://www.w3.org/Graphics/SVG/1.1/DTD/svg11.dtd">
<svg width="45" height="100"
     xmlns="http://www.w3.org/2000/svg" version="1.1">
 <path d="  M 0,0  L 0,100  L 13,100  L 13,99  L 12,99  L 12,98  L 11,98  L 11,96  L 10,96  L 10,88  L 11,88  L 11,80  L 12,80  L 12,71  L 13,71  L 13,66  L 8,66  L 8,46  L 7,46  L 7,45  L 6,45  L 6,43  L 5,43  L 5,33  L 6,33  L 6,28  L 7,28  L 7,21  L 8,21  L 8,20  L 9,20  L 9,19  L 11,19  L 11,18  L 12,18  L 12,17  L 11,17  L 11,16  L 10,16  L 10,15  L 9,15  L 9,14  L 8,14  L 8,13  L 7,13  L 7,12  L 6,12  L 6,10  L 5,10  L 5,9  L 4,9  L 4,8  L 3,8  L 3,7  L 4,7  L 4,6  L 6,6  L 6,5  L 9,5  L 9,4  L 20,4  L 20,3  L 27,3  L 27,4  L 36,4  L 36,5  L 40,5  L 40,6  L 43,6  L 43,7  L 44,7  L 44,8  L 43,8  L 43,9  L 42,9  L 42,11  L 41,11  L 41,12  L 40,12  L 40,13  L 39,13  L 39,14  L 38,14  L 38,15  L 37,15  L 37,16  L 36,16  L 36,17  L 35,17  L 35,18  L 36,18  L 36,19  L 38,19  L 38,20  L 39,20  L 39,21  L 40,21  L 40,25  L 41,25  L 41,43  L 40,43  L 40,45  L 39,45  L 39,46  L 38,46  L 38,47  L 37,47  L 37,40  L 36,40  L 36,41  L 35,41  L 35,66  L 33,66  L 33,71  L 34,71  L 34,74  L 35,74  L 35,80  L 36,80  L 36,81  L 37,81  L 37,82  L 39,82  L 39,83  L 40,83  L 40,84  L 42,84  L 42,85  L 43,85  L 43,86  L 42,86  L 42,87  L 39,87  L 39,86  L 37,86  L 37,97  L 36,97  L 36,98  L 35,98  L 35,99  L 34,99  L 34,100  L 45,100  L 45,0  Z  " style="fill:rgb(255, 255, 255); fill-opacity:0.000; stroke:none;" />
 <path d="  M 9,38  L 10,38  L 10,30  L 9,30  Z  " style="fill:rgb(255, 255, 255); fill-opacity:0.000; stroke:none;" />
 <path d="  M 19,96  L 18,96  L 18,98  L 17,98  L 17,99  L 16,99  L 16,100  L 31,100  L 31,99  L 30,99  L 30,98  L 29,98  L 29,95  L 28,95  L 28,79  L 27,79  L 27,75  L 26,75  L 26,73  L 25,73  L 25,71  L 24,71  L 24,69  L 23,69  L 23,66  L 20,66  L 20,68  L 19,68  Z  " style="fill:rgb(255, 255, 255); fill-opacity:0.000; stroke:none;" />
 <path d="  M 37,85  L 36,85  L 36,86  L 37,86  Z  " style="fill:rgb(255, 255, 255); fill-opacity:0.000; stroke:none;" />
 <path d="  M 38,36  L 38,30  L 37,30  L 37,36  Z  " style="fill:rgb(255, 255, 255); fill-opacity:0.000; stroke:none;" />
 <path d="  M 3,8  L 4,8  L 4,7  L 3,7  Z  " style="fill:rgb(0, 0, 0); fill-opacity:1.000; stroke:none;" />
 <path d="  M 6,7  L 6,6  L 4,6  L 4,7  Z  " style="fill:rgb(0, 0, 0); fill-opacity:1.000; stroke:none;" />
 <path d="  M 5,8  L 4,8  L 4,9  L 5,9  Z  " style="fill:rgb(0, 0, 0); fill-opacity:1.000; stroke:none;" />
 <path d="  M 5,9  L 5,10  L 6,10  L 6,9  Z  " style="fill:rgb(0, 0, 0); fill-opacity:1.000; stroke:none;" />
 <path d="  M 5,43  L 6,43  L 6,33  L 5,33  Z  " style="fill:rgb(0, 0, 0); fill-opacity:1.000; stroke:none;" />
 <path d="  M 6,6  L 9,6  L 9,5  L 6,5  Z  " style="fill:rgb(0, 0, 0); fill-opacity:1.000; stroke:none;" />
 <path d="  M 7,12  L 7,10  L 6,10  L 6,12  Z  " style="fill:rgb(0, 0, 0); fill-opacity:1.000; stroke:none;" />
 <path d="  M 7,28  L 6,28  L 6,33  L 7,33  Z  " style="fill:rgb(0, 0, 0); fill-opacity:1.000; stroke:none;" />
 <path d="  M 7,45  L 7,43  L 6,43  L 6,45  Z  " style="fill:rgb(0, 0, 0); fill-opacity:1.000; stroke:none;" />
 <path d="  M 7,13  L 8,13  L 8,12  L 7,12  Z  " style="fill:rgb(0, 0, 0); fill-opacity:1.000; stroke:none;" />
 <path d="  M 7,28  L 8,28  L 8,21  L 7,21  Z  " style="fill:rgb(0, 0, 0); fill-opacity:1.000; stroke:none;" />
 <path d="  M 32,66  L 32,71  L 33,71  L 33,66  L 35,66  L 35,41  L 36,41  L 36,40  L 35,40  L 35,39  L 10,39  L 10,38  L 9,38  L 9,30  L 10,30  L 10,29  L 9,29  L 9,28  L 8,28  L 8,39  L 7,39  L 7,42  L 8,42  L 8,45  L 7,45  L 7,46  L 8,46  L 8,66  L 13,66  L 13,71  L 14,71  L 14,66  L 19,66  L 19,68  L 20,68  L 20,66  L 23,66  L 23,69  L 24,69  L 24,66  L 26,66  L 26,68  L 27,68  L 27,66  Z  M 9,40  L 34,40  L 34,65  L 9,65  Z  " style="fill:rgb(0, 0, 0); fill-opacity:1.000; stroke:none;" />
 <path d="  M 8,14  L 9,14  L 9,13  L 8,13  Z  " style="fill:rgb(0, 0, 0); fill-opacity:1.000; stroke:none;" />
 <path d="  M 9,20  L 8,20  L 8,21  L 9,21  Z  " style="fill:rgb(0, 0, 0); fill-opacity:1.000; stroke:none;" />
 <path d="  M 9,4  L 9,5  L 20,5  L 20,4  Z  " style="fill:rgb(0, 0, 0); fill-opacity:1.000; stroke:none;" />
 <path d="  M 10,15  L 10,14  L 9,14  L 9,15  Z  " style="fill:rgb(0, 0, 0); fill-opacity:1.000; stroke:none;" />
 <path d="  M 9,19  L 9,20  L 11,20  L 11,19  Z  " style="fill:rgb(0, 0, 0); fill-opacity:1.000; stroke:none;" />
 <path d="  M 10,15  L 10,16  L 11,16  L 11,15  Z  " style="fill:rgb(0, 0, 0); fill-opacity:1.000; stroke:none;" />
 <path d="  M 11,30  L 10,30  L 10,38  L 11,38  Z  " style="fill:rgb(0, 0, 0); fill-opacity:1.000; stroke:none;" />
 <path d="  M 11,88  L 10,88  L 10,96  L 11,96  Z  " style="fill:rgb(0, 0, 0); fill-opacity:1.000; stroke:none;" />
 <path d="  M 13,16  L 11,16  L 11,17  L 12,17  L 12,18  L 11,18  L 11,19  L 13,19  Z  " style="fill:rgb(0, 0, 0); fill-opacity:1.000; stroke:none;" />
 <path d="  M 12,80  L 11,80  L 11,88  L 12,88  Z  " style="fill:rgb(0, 0, 0); fill-opacity:1.000; stroke:none;" />
 <path d="  M 11,96  L 11,98  L 12,98  L 12,96  Z  " style="fill:rgb(0, 0, 0); fill-opacity:1.000; stroke:none;" />
 <path d="  M 13,71  L 12,71  L 12,80  L 13,80  Z  " style="fill:rgb(0, 0, 0); fill-opacity:1.000; stroke:none;" />
 <path d="  M 12,99  L 13,99  L 13,98  L 12,98  Z  " style="fill:rgb(0, 0, 0); fill-opacity:1.000; stroke:none;" />
 <path d="  M 13,99  L 13,100  L 16,100  L 16,99  Z  " style="fill:rgb(0, 0, 0); fill-opacity:1.000; stroke:none;" />
 <path d="  M 23,58  L 18,58  L 18,56  L 14,56  L 14,58  L 16,58  L 16,60  L 25,60  L 25,58  L 27,58  L 27,53  L 25,53  L 25,51  L 23,51  L 23,49  L 25,49  L 25,47  L 27,47  L 27,45  L 16,45  L 16,47  L 21,47  L 21,49  L 19,49  L 19,51  L 17,51  L 17,53  L 23,53  Z  " style="fill:rgb(0, 0, 0); fill-opacity:1.000; stroke:none;" />
 <path d="  M 16,98  L 16,99  L 17,99  L 17,98  Z  " style="fill:rgb(0, 0, 0); fill-opacity:1.000; stroke:none;" />
 <path d="  M 17,98  L 18,98  L 18,96  L 17,96  Z  " style="fill:rgb(0, 0, 0); fill-opacity:1.000; stroke:none;" />
 <path d="  M 18,96  L 19,96  L 19,68  L 18,68  Z  " style="fill:rgb(0, 0, 0); fill-opacity:1.000; stroke:none;" />
 <path d="  M 20,3  L 20,4  L 27,4  L 27,3  Z  " style="fill:rgb(0, 0, 0); fill-opacity:1.000; stroke:none;" />
 <path d="  M 24,71  L 25,71  L 25,69  L 24,69  Z  " style="fill:rgb(0, 0, 0); fill-opacity:1.000; stroke:none;" />
 <path d="  M 25,71  L 25,73  L 26,73  L 26,71  Z  " style="fill:rgb(0, 0, 0); fill-opacity:1.000; stroke:none;" />
 <path d="  M 26,75  L 27,75  L 27,73  L 26,73  Z  " style="fill:rgb(0, 0, 0); fill-opacity:1.000; stroke:none;" />
 <path d="  M 27,4  L 27,5  L 36,5  L 36,4  Z  " style="fill:rgb(0, 0, 0); fill-opacity:1.000; stroke:none;" />
 <path d="  M 28,75  L 27,75  L 27,79  L 28,79  Z  " style="fill:rgb(0, 0, 0); fill-opacity:1.000; stroke:none;" />
 <path d="  M 29,79  L 28,79  L 28,95  L 29,95  L 29,98  L 30,98  L 30,94  L 29,94  Z  " style="fill:rgb(0, 0, 0); fill-opacity:1.000; stroke:none;" />
 <path d="  M 31,98  L 30,98  L 30,99  L 31,99  Z  " style="fill:rgb(0, 0, 0); fill-opacity:1.000; stroke:none;" />
 <path d="  M 34,100  L 34,99  L 31,99  L 31,100  Z  " style="fill:rgb(0, 0, 0); fill-opacity:1.000; stroke:none;" />
 <path d="  M 33,74  L 34,74  L 34,71  L 33,71  Z  " style="fill:rgb(0, 0, 0); fill-opacity:1.000; stroke:none;" />
 <path d="  M 35,17  L 34,17  L 34,18  L 35,18  Z  " style="fill:rgb(0, 0, 0); fill-opacity:1.000; stroke:none;" />
 <path d="  M 35,74  L 34,74  L 34,80  L 35,80  Z  " style="fill:rgb(0, 0, 0); fill-opacity:1.000; stroke:none;" />
 <path d="  M 34,98  L 34,99  L 35,99  L 35,98  Z  " style="fill:rgb(0, 0, 0); fill-opacity:1.000; stroke:none;" />
 <path d="  M 35,16  L 35,17  L 36,17  L 36,16  Z  " style="fill:rgb(0, 0, 0); fill-opacity:1.000; stroke:none;" />
 <path d="  M 36,18  L 35,18  L 35,19  L 36,19  Z  " style="fill:rgb(0, 0, 0); fill-opacity:1.000; stroke:none;" />
 <path d="  M 36,80  L 35,80  L 35,81  L 36,81  Z  " style="fill:rgb(0, 0, 0); fill-opacity:1.000; stroke:none;" />
 <path d="  M 35,86  L 36,86  L 36,85  L 37,85  L 37,84  L 35,84  Z  " style="fill:rgb(0, 0, 0); fill-opacity:1.000; stroke:none;" />
 <path d="  M 35,97  L 35,98  L 36,98  L 36,97  Z  " style="fill:rgb(0, 0, 0); fill-opacity:1.000; stroke:none;" />
 <path d="  M 36,5  L 36,6  L 40,6  L 40,5  Z  " style="fill:rgb(0, 0, 0); fill-opacity:1.000; stroke:none;" />
 <path d="  M 36,15  L 36,16  L 37,16  L 37,15  Z  " style="fill:rgb(0, 0, 0); fill-opacity:1.000; stroke:none;" />
 <path d="  M 38,20  L 38,19  L 36,19  L 36,20  Z  " style="fill:rgb(0, 0, 0); fill-opacity:1.000; stroke:none;" />
 <path d="  M 37,30  L 36,30  L 36,40  L 37,40  L 37,47  L 38,47  L 38,46  L 39,46  L 39,45  L 38,45  L 38,36  L 37,36  Z  " style="fill:rgb(0, 0, 0); fill-opacity:1.000; stroke:none;" />
 <path d="  M 37,81  L 36,81  L 36,82  L 37,82  Z  " style="fill:rgb(0, 0, 0); fill-opacity:1.000; stroke:none;" />
 <path d="  M 37,86  L 36,86  L 36,97  L 37,97  Z  " style="fill:rgb(0, 0, 0); fill-opacity:1.000; stroke:none;" />
 <path d="  M 38,15  L 38,14  L 37,14  L 37,15  Z  " style="fill:rgb(0, 0, 0); fill-opacity:1.000; stroke:none;" />
 <path d="  M 39,25  L 38,25  L 38,26  L 37,26  L 37,30  L 38,30  L 38,36  L 39,36  Z  " style="fill:rgb(0, 0, 0); fill-opacity:1.000; stroke:none;" />
 <path d="  M 39,82  L 37,82  L 37,83  L 39,83  Z  " style="fill:rgb(0, 0, 0); fill-opacity:1.000; stroke:none;" />
 <path d="  M 39,85  L 37,85  L 37,86  L 39,86  Z  " style="fill:rgb(0, 0, 0); fill-opacity:1.000; stroke:none;" />
 <path d="  M 39,13  L 38,13  L 38,14  L 39,14  Z  " style="fill:rgb(0, 0, 0); fill-opacity:1.000; stroke:none;" />
 <path d="  M 39,21  L 39,20  L 38,20  L 38,21  Z  " style="fill:rgb(0, 0, 0); fill-opacity:1.000; stroke:none;" />
 <path d="  M 40,12  L 39,12  L 39,13  L 40,13  Z  " style="fill:rgb(0, 0, 0); fill-opacity:1.000; stroke:none;" />
 <path d="  M 40,21  L 39,21  L 39,25  L 40,25  Z  " style="fill:rgb(0, 0, 0); fill-opacity:1.000; stroke:none;" />
 <path d="  M 40,43  L 39,43  L 39,45  L 40,45  Z  " style="fill:rgb(0, 0, 0); fill-opacity:1.000; stroke:none;" />
 <path d="  M 40,84  L 40,83  L 39,83  L 39,84  Z  " style="fill:rgb(0, 0, 0); fill-opacity:1.000; stroke:none;" />
 <path d="  M 39,86  L 39,87  L 42,87  L 42,86  Z  " style="fill:rgb(0, 0, 0); fill-opacity:1.000; stroke:none;" />
 <path d="  M 40,6  L 40,7  L 43,7  L 43,6  Z  " style="fill:rgb(0, 0, 0); fill-opacity:1.000; stroke:none;" />
 <path d="  M 40,12  L 41,12  L 41,11  L 40,11  Z  " style="fill:rgb(0, 0, 0); fill-opacity:1.000; stroke:none;" />
 <path d="  M 41,25  L 40,25  L 40,43  L 41,43  Z  " style="fill:rgb(0, 0, 0); fill-opacity:1.000; stroke:none;" />
 <path d="  M 40,84  L 40,85  L 42,85  L 42,84  Z  " style="fill:rgb(0, 0, 0); fill-opacity:1.000; stroke:none;" />
 <path d="  M 42,11  L 42,9  L 41,9  L 41,11  Z  " style="fill:rgb(0, 0, 0); fill-opacity:1.000; stroke:none;" />
 <path d="  M 43,8  L 42,8  L 42,9  L 43,9  Z  " style="fill:rgb(0, 0, 0); fill-opacity:1.000; stroke:none;" />
 <path d="  M 43,85  L 42,85  L 42,86  L 43,86  Z  " style="fill:rgb(0, 0, 0); fill-opacity:1.000; stroke:none;" />
 <path d="  M 43,8  L 44,8  L 44,7  L 43,7  Z  " style="fill:rgb(0, 0, 0); fill-opacity:1.000; stroke:none;" />
 <path d="  M 7,7  L 4,7  L 4,8  L 5,8  L 5,9  L 6,9  L 6,10  L 7,10  L 7,12  L 9,12  L 9,13  L 10,13  L 10,14  L 12,14  L 12,16  L 13,16  L 13,15  L 14,15  L 14,11  L 13,11  L 13,9  L 10,9  L 10,8  L 7,8  Z  " style="fill:rgb(115, 124, 158); fill-opacity:1.000; stroke:none;" />
 <path d="  M 6,43  L 7,43  L 7,45  L 8,45  L 8,42  L 7,42  L 7,39  L 8,39  L 8,28  L 7,28  L 7,33  L 6,33  Z  " style="fill:rgb(115, 124, 158); fill-opacity:1.000; stroke:none;" />
 <path d="  M 12,36  L 13,36  L 13,30  L 12,30  L 12,29  L 11,29  L 11,28  L 10,28  L 10,27  L 9,27  L 9,26  L 8,26  L 8,28  L 9,28  L 9,29  L 10,29  L 10,30  L 11,30  L 11,37  L 12,37  Z  " style="fill:rgb(115, 124, 158); fill-opacity:1.000; stroke:none;" />
 <path d="  M 13,19  L 12,19  L 12,20  L 11,20  L 11,21  L 12,21  L 12,24  L 13,24  Z  " style="fill:rgb(115, 124, 158); fill-opacity:1.000; stroke:none;" />
 <path d="  M 14,38  L 14,36  L 13,36  L 13,37  L 12,37  L 12,38  L 11,38  L 11,39  L 18,39  L 18,38  L 17,38  L 17,34  L 15,34  L 15,38  Z  " style="fill:rgb(115, 124, 158); fill-opacity:1.000; stroke:none;" />
 <path d="  M 12,97  L 12,98  L 13,98  L 13,97  Z  " style="fill:rgb(115, 124, 158); fill-opacity:1.000; stroke:none;" />
 <path d="  M 14,75  L 13,75  L 13,76  L 14,76  Z  " style="fill:rgb(115, 124, 158); fill-opacity:1.000; stroke:none;" />
 <path d="  M 14,17  L 15,17  L 15,15  L 14,15  Z  " style="fill:rgb(115, 124, 158); fill-opacity:1.000; stroke:none;" />
 <path d="  M 16,25  L 16,23  L 17,23  L 17,21  L 16,21  L 16,17  L 15,17  L 15,27  L 16,27  L 16,29  L 18,29  L 18,30  L 20,30  L 20,29  L 21,29  L 21,28  L 19,28  L 19,27  L 17,27  L 17,25  Z  " style="fill:rgb(115, 124, 158); fill-opacity:1.000; stroke:none;" />
 <path d="  M 16,97  L 16,98  L 17,98  L 17,97  Z  " style="fill:rgb(115, 124, 158); fill-opacity:1.000; stroke:none;" />
 <path d="  M 22,30  L 22,29  L 21,29  L 21,30  Z  " style="fill:rgb(115, 124, 158); fill-opacity:1.000; stroke:none;" />
 <path d="  M 26,66  L 24,66  L 24,69  L 25,69  L 25,71  L 26,71  L 26,73  L 27,73  L 27,68  L 26,68  Z  " style="fill:rgb(115, 124, 158); fill-opacity:1.000; stroke:none;" />
 <path d="  M 27,30  L 29,30  L 29,29  L 31,29  L 31,27  L 29,27  L 29,28  L 27,28  Z  " style="fill:rgb(115, 124, 158); fill-opacity:1.000; stroke:none;" />
 <path d="  M 28,75  L 28,76  L 29,76  L 29,75  Z  " style="fill:rgb(115, 124, 158); fill-opacity:1.000; stroke:none;" />
 <path d="  M 31,9  L 32,9  L 32,11  L 33,11  L 33,16  L 32,16  L 32,17  L 31,17  L 31,19  L 32,19  L 32,21  L 31,21  L 31,23  L 32,23  L 32,25  L 31,25  L 31,27  L 33,27  L 33,23  L 34,23  L 34,35  L 33,35  L 33,38  L 34,38  L 34,39  L 35,39  L 35,40  L 36,40  L 36,30  L 37,30  L 37,27  L 36,27  L 36,28  L 35,28  L 35,20  L 36,20  L 36,19  L 35,19  L 35,18  L 34,18  L 34,17  L 35,17  L 35,15  L 36,15  L 36,14  L 37,14  L 37,13  L 38,13  L 38,12  L 39,12  L 39,11  L 41,11  L 41,8  L 43,8  L 43,7  L 39,7  L 39,8  L 37,8  L 37,9  L 35,9  L 35,8  L 34,8  L 34,7  L 33,7  L 33,6  L 31,6  L 31,5  L 29,5  L 29,6  L 30,6  L 30,7  L 31,7  Z  " style="fill:rgb(115, 124, 158); fill-opacity:1.000; stroke:none;" />
 <path d="  M 29,37  L 29,39  L 33,39  L 33,38  L 32,38  L 32,36  L 31,36  L 31,35  L 30,35  L 30,37  Z  " style="fill:rgb(115, 124, 158); fill-opacity:1.000; stroke:none;" />
 <path d="  M 31,98  L 31,97  L 30,97  L 30,98  Z  " style="fill:rgb(115, 124, 158); fill-opacity:1.000; stroke:none;" />
 <path d="  M 31,16  L 32,16  L 32,11  L 31,11  Z  " style="fill:rgb(115, 124, 158); fill-opacity:1.000; stroke:none;" />
 <path d="  M 32,35  L 32,33  L 31,33  L 31,35  Z  " style="fill:rgb(115, 124, 158); fill-opacity:1.000; stroke:none;" />
 <path d="  M 33,76  L 34,76  L 34,75  L 33,75  Z  " style="fill:rgb(115, 124, 158); fill-opacity:1.000; stroke:none;" />
 <path d="  M 35,98  L 35,97  L 34,97  L 34,98  Z  " style="fill:rgb(115, 124, 158); fill-opacity:1.000; stroke:none;" />
 <path d="  M 39,86  L 42,86  L 42,85  L 40,85  L 40,84  L 39,84  L 39,83  L 37,83  L 37,82  L 36,82  L 36,81  L 35,81  L 35,84  L 37,84  L 37,85  L 39,85  Z  " style="fill:rgb(115, 124, 158); fill-opacity:1.000; stroke:none;" />
 <path d="  M 39,36  L 38,36  L 38,45  L 39,45  L 39,43  L 40,43  L 40,25  L 39,25  Z  " style="fill:rgb(115, 124, 158); fill-opacity:1.000; stroke:none;" />
 <path d="  M 13,9  L 13,8  L 14,8  L 14,6  L 15,6  L 15,5  L 9,5  L 9,6  L 6,6  L 6,7  L 7,7  L 7,8  L 11,8  L 11,9  Z  " style="fill:rgb(255, 255, 255); fill-opacity:1.000; stroke:none;" />
 <path d="  M 16,47  L 16,45  L 27,45  L 27,47  L 25,47  L 25,49  L 23,49  L 23,51  L 25,51  L 25,53  L 27,53  L 27,58  L 25,58  L 25,60  L 16,60  L 16,58  L 14,58  L 14,56  L 18,56  L 18,58  L 23,58  L 23,53  L 17,53  L 17,51  L 19,51  L 19,49  L 21,49  L 21,47  Z  M 9,40  L 9,65  L 34,65  L 34,40  Z  " style="fill:rgb(255, 255, 255); fill-opacity:1.000; stroke:none;" />
 <path d="  M 11,39  L 11,38  L 10,38  L 10,39  Z  " style="fill:rgb(255, 255, 255); fill-opacity:1.000; stroke:none;" />
 <path d="  M 11,37  L 11,38  L 12,38  L 12,37  Z  " style="fill:rgb(255, 255, 255); fill-opacity:1.000; stroke:none;" />
 <path d="  M 13,17  L 13,30  L 14,30  L 14,32  L 15,32  L 15,27  L 14,27  L 14,17  Z  " style="fill:rgb(255, 255, 255); fill-opacity:1.000; stroke:none;" />
 <path d="  M 28,5  L 27,5  L 27,4  L 20,4  L 20,5  L 17,5  L 17,6  L 15,6  L 15,8  L 14,8  L 14,15  L 15,15  L 15,17  L 16,17  L 16,19  L 17,19  L 17,11  L 18,11  L 18,15  L 20,15  L 20,13  L 21,13  L 21,16  L 22,16  L 22,19  L 23,19  L 23,21  L 25,21  L 25,19  L 26,19  L 26,16  L 27,16  L 27,12  L 28,12  L 28,10  L 29,10  L 29,8  L 28,8  Z  " style="fill:rgb(255, 255, 255); fill-opacity:1.000; stroke:none;" />
 <path d="  M 19,23  L 18,23  L 18,22  L 17,22  L 17,24  L 19,24  Z  " style="fill:rgb(255, 255, 255); fill-opacity:1.000; stroke:none;" />
 <path d="  M 21,34  L 21,33  L 19,33  L 19,34  L 18,34  L 18,35  L 17,35  L 17,37  L 18,37  L 18,36  L 29,36  L 29,34  L 28,34  L 28,33  L 26,33  L 26,34  Z  " style="fill:rgb(255, 255, 255); fill-opacity:1.000; stroke:none;" />
 <path d="  M 18,16  L 18,17  L 19,17  L 19,18  L 20,18  L 20,16  Z  " style="fill:rgb(255, 255, 255); fill-opacity:1.000; stroke:none;" />
 <path d="  M 31,24  L 31,22  L 30,22  L 30,23  L 29,23  L 29,24  Z  " style="fill:rgb(255, 255, 255); fill-opacity:1.000; stroke:none;" />
 <path d="  M 32,5  L 32,6  L 33,6  L 33,7  L 35,7  L 35,8  L 39,8  L 39,7  L 40,7  L 40,6  L 36,6  L 36,5  Z  " style="fill:rgb(255, 255, 255); fill-opacity:1.000; stroke:none;" />
 <path d="  M 33,32  L 33,30  L 34,30  L 34,27  L 33,27  L 33,28  L 32,28  L 32,32  Z  " style="fill:rgb(255, 255, 255); fill-opacity:1.000; stroke:none;" />
 <path d="  M 8,13  L 9,13  L 9,12  L 8,12  Z  " style="fill:rgb(161, 164, 186); fill-opacity:1.000; stroke:none;" />
 <path d="  M 10,13  L 9,13  L 9,14  L 10,14  Z  " style="fill:rgb(161, 164, 186); fill-opacity:1.000; stroke:none;" />
 <path d="  M 11,15  L 11,16  L 12,16  L 12,14  L 10,14  L 10,15  Z  " style="fill:rgb(161, 164, 186); fill-opacity:1.000; stroke:none;" />
 <path d="  M 31,9  L 30,9  L 30,10  L 29,10  L 29,12  L 28,12  L 28,14  L 27,14  L 27,15  L 31,15  Z  " style="fill:rgb(161, 164, 186); fill-opacity:1.000; stroke:none;" />
 <path d="  M 30,16  L 27,16  L 27,17  L 28,17  L 28,19  L 29,19  L 29,18  L 30,18  Z  " style="fill:rgb(161, 164, 186); fill-opacity:1.000; stroke:none;" />
 <path d="  M 8,21  L 8,25  L 9,25  L 9,26  L 10,26  L 10,27  L 11,27  L 11,28  L 12,28  L 12,24  L 11,24  L 11,23  L 12,23  L 12,22  L 11,22  L 11,21  Z  " style="fill:rgb(12, 74, 165); fill-opacity:1.000; stroke:none;" />
 <path d="  M 11,88  L 11,92  L 12,92  L 12,88  Z  " style="fill:rgb(12, 74, 165); fill-opacity:1.000; stroke:none;" />
 <path d="  M 11,96  L 12,96  L 12,95  L 17,95  L 17,94  L 12,94  L 12,93  L 11,93  Z  " style="fill:rgb(12, 74, 165); fill-opacity:1.000; stroke:none;" />
 <path d="  M 13,80  L 12,80  L 12,88  L 13,88  Z  " style="fill:rgb(12, 74, 165); fill-opacity:1.000; stroke:none;" />
 <path d="  M 18,75  L 18,74  L 13,74  L 13,75  Z  " style="fill:rgb(12, 74, 165); fill-opacity:1.000; stroke:none;" />
 <path d="  M 14,76  L 13,76  L 13,80  L 14,80  Z  " style="fill:rgb(12, 74, 165); fill-opacity:1.000; stroke:none;" />
 <path d="  M 17,15  L 17,16  L 21,16  L 21,15  Z  " style="fill:rgb(12, 74, 165); fill-opacity:1.000; stroke:none;" />
 <path d="  M 17,92  L 17,93  L 18,93  L 18,92  Z  " style="fill:rgb(12, 74, 165); fill-opacity:1.000; stroke:none;" />
 <path d="  M 21,24  L 21,22  L 18,22  L 18,23  L 19,23  L 19,24  Z  " style="fill:rgb(12, 74, 165); fill-opacity:1.000; stroke:none;" />
 <path d="  M 31,16  L 31,15  L 27,15  L 27,16  Z  " style="fill:rgb(12, 74, 165); fill-opacity:1.000; stroke:none;" />
 <path d="  M 27,24  L 29,24  L 29,23  L 30,23  L 30,22  L 27,22  Z  " style="fill:rgb(12, 74, 165); fill-opacity:1.000; stroke:none;" />
 <path d="  M 29,75  L 32,75  L 32,74  L 29,74  Z  " style="fill:rgb(12, 74, 165); fill-opacity:1.000; stroke:none;" />
 <path d="  M 34,96  L 34,95  L 30,95  L 30,96  Z  " style="fill:rgb(12, 74, 165); fill-opacity:1.000; stroke:none;" />
 <path d="  M 34,74  L 33,74  L 33,75  L 34,75  Z  " style="fill:rgb(12, 74, 165); fill-opacity:1.000; stroke:none;" />
 <path d="  M 33,90  L 34,90  L 34,95  L 35,95  L 35,94  L 36,94  L 36,86  L 35,86  L 35,80  L 34,80  L 34,76  L 33,76  Z  " style="fill:rgb(12, 74, 165); fill-opacity:1.000; stroke:none;" />
 <path d="  M 38,25  L 38,24  L 39,24  L 39,21  L 36,21  L 36,26  L 37,26  L 37,25  Z  " style="fill:rgb(12, 74, 165); fill-opacity:1.000; stroke:none;" />
 <path d="  M 8,25  L 8,26  L 9,26  L 9,25  Z  " style="fill:rgb(17, 53, 119); fill-opacity:1.000; stroke:none;" />
 <path d="  M 9,20  L 9,21  L 11,21  L 11,20  Z  " style="fill:rgb(17, 53, 119); fill-opacity:1.000; stroke:none;" />
 <path d="  M 9,27  L 10,27  L 10,26  L 9,26  Z  " style="fill:rgb(17, 53, 119); fill-opacity:1.000; stroke:none;" />
 <path d="  M 10,27  L 10,28  L 11,28  L 11,27  Z  " style="fill:rgb(17, 53, 119); fill-opacity:1.000; stroke:none;" />
 <path d="  M 12,21  L 11,21  L 11,22  L 12,22  Z  " style="fill:rgb(17, 53, 119); fill-opacity:1.000; stroke:none;" />
 <path d="  M 11,24  L 12,24  L 12,23  L 11,23  Z  " style="fill:rgb(17, 53, 119); fill-opacity:1.000; stroke:none;" />
 <path d="  M 13,24  L 12,24  L 12,28  L 11,28  L 11,29  L 12,29  L 12,30  L 13,30  Z  " style="fill:rgb(17, 53, 119); fill-opacity:1.000; stroke:none;" />
 <path d="  M 13,98  L 16,98  L 16,97  L 17,97  L 17,96  L 18,96  L 18,93  L 17,93  L 17,92  L 18,92  L 18,76  L 14,76  L 14,80  L 13,80  L 13,88  L 12,88  L 12,92  L 11,92  L 11,93  L 12,93  L 12,94  L 17,94  L 17,95  L 12,95  L 12,97  L 13,97  Z  " style="fill:rgb(17, 53, 119); fill-opacity:1.000; stroke:none;" />
 <path d="  M 15,33  L 16,33  L 16,32  L 17,32  L 17,31  L 18,31  L 18,29  L 16,29  L 16,27  L 15,27  Z  " style="fill:rgb(17, 53, 119); fill-opacity:1.000; stroke:none;" />
 <path d="  M 18,32  L 17,32  L 17,33  L 16,33  L 16,34  L 18,34  L 18,33  L 19,33  L 19,32  L 28,32  L 28,31  L 18,31  Z  " style="fill:rgb(17, 53, 119); fill-opacity:1.000; stroke:none;" />
 <path d="  M 21,22  L 21,21  L 17,21  L 17,22  Z  " style="fill:rgb(17, 53, 119); fill-opacity:1.000; stroke:none;" />
 <path d="  M 31,22  L 31,21  L 27,21  L 27,22  Z  " style="fill:rgb(17, 53, 119); fill-opacity:1.000; stroke:none;" />
 <path d="  M 29,75  L 29,74  L 27,74  L 27,75  Z  " style="fill:rgb(17, 53, 119); fill-opacity:1.000; stroke:none;" />
 <path d="  M 29,32  L 28,32  L 28,33  L 29,33  Z  " style="fill:rgb(17, 53, 119); fill-opacity:1.000; stroke:none;" />
 <path d="  M 33,76  L 28,76  L 28,79  L 29,79  L 29,94  L 30,94  L 30,95  L 34,95  L 34,90  L 33,90  Z  " style="fill:rgb(17, 53, 119); fill-opacity:1.000; stroke:none;" />
 <path d="  M 32,27  L 31,27  L 31,29  L 29,29  L 29,32  L 30,32  L 30,33  L 32,33  Z  " style="fill:rgb(17, 53, 119); fill-opacity:1.000; stroke:none;" />
 <path d="  M 30,35  L 30,33  L 29,33  L 29,35  Z  " style="fill:rgb(17, 53, 119); fill-opacity:1.000; stroke:none;" />
 <path d="  M 34,98  L 34,97  L 36,97  L 36,94  L 35,94  L 35,95  L 34,95  L 34,96  L 30,96  L 30,97  L 31,97  L 31,98  Z  " style="fill:rgb(17, 53, 119); fill-opacity:1.000; stroke:none;" />
 <path d="  M 32,74  L 32,75  L 33,75  L 33,74  Z  " style="fill:rgb(17, 53, 119); fill-opacity:1.000; stroke:none;" />
 <path d="  M 35,28  L 36,28  L 36,27  L 37,27  L 37,26  L 36,26  L 36,21  L 38,21  L 38,20  L 35,20  Z  " style="fill:rgb(17, 53, 119); fill-opacity:1.000; stroke:none;" />
 <path d="  M 37,25  L 37,26  L 38,26  L 38,25  Z  " style="fill:rgb(17, 53, 119); fill-opacity:1.000; stroke:none;" />
 <path d="  M 38,24  L 38,25  L 39,25  L 39,24  Z  " style="fill:rgb(17, 53, 119); fill-opacity:1.000; stroke:none;" />
 <path d="  M 10,9  L 11,9  L 11,8  L 10,8  Z  " style="fill:rgb(213, 218, 232); fill-opacity:1.000; stroke:none;" />
 <path d="  M 12,19  L 11,19  L 11,20  L 12,20  Z  " style="fill:rgb(213, 218, 232); fill-opacity:1.000; stroke:none;" />
 <path d="  M 14,11  L 14,8  L 13,8  L 13,11  Z  " style="fill:rgb(213, 218, 232); fill-opacity:1.000; stroke:none;" />
 <path d="  M 13,17  L 14,17  L 14,15  L 13,15  Z  " style="fill:rgb(213, 218, 232); fill-opacity:1.000; stroke:none;" />
 <path d="  M 14,30  L 13,30  L 13,35  L 14,35  L 14,34  L 15,34  L 15,32  L 14,32  Z  " style="fill:rgb(213, 218, 232); fill-opacity:1.000; stroke:none;" />
 <path d="  M 16,98  L 13,98  L 13,99  L 16,99  Z  " style="fill:rgb(213, 218, 232); fill-opacity:1.000; stroke:none;" />
 <path d="  M 14,8  L 15,8  L 15,6  L 14,6  Z  " style="fill:rgb(213, 218, 232); fill-opacity:1.000; stroke:none;" />
 <path d="  M 14,27  L 15,27  L 15,17  L 14,17  Z  " style="fill:rgb(213, 218, 232); fill-opacity:1.000; stroke:none;" />
 <path d="  M 15,38  L 15,35  L 14,35  L 14,38  Z  " style="fill:rgb(213, 218, 232); fill-opacity:1.000; stroke:none;" />
 <path d="  M 14,75  L 14,76  L 18,76  L 18,75  Z  " style="fill:rgb(213, 218, 232); fill-opacity:1.000; stroke:none;" />
 <path d="  M 15,5  L 15,6  L 17,6  L 17,5  Z  " style="fill:rgb(213, 218, 232); fill-opacity:1.000; stroke:none;" />
 <path d="  M 16,19  L 16,20  L 17,20  L 17,19  Z  " style="fill:rgb(213, 218, 232); fill-opacity:1.000; stroke:none;" />
 <path d="  M 17,15  L 18,15  L 18,11  L 17,11  Z  " style="fill:rgb(213, 218, 232); fill-opacity:1.000; stroke:none;" />
 <path d="  M 18,17  L 18,16  L 17,16  L 17,17  Z  " style="fill:rgb(213, 218, 232); fill-opacity:1.000; stroke:none;" />
 <path d="  M 18,17  L 18,18  L 19,18  L 19,17  Z  " style="fill:rgb(213, 218, 232); fill-opacity:1.000; stroke:none;" />
 <path d="  M 19,19  L 20,19  L 20,18  L 19,18  Z  " style="fill:rgb(213, 218, 232); fill-opacity:1.000; stroke:none;" />
 <path d="  M 20,15  L 21,15  L 21,13  L 20,13  Z  " style="fill:rgb(213, 218, 232); fill-opacity:1.000; stroke:none;" />
 <path d="  M 20,16  L 20,17  L 21,17  L 21,19  L 22,19  L 22,16  Z  " style="fill:rgb(213, 218, 232); fill-opacity:1.000; stroke:none;" />
 <path d="  M 22,19  L 22,20  L 23,20  L 23,19  Z  " style="fill:rgb(213, 218, 232); fill-opacity:1.000; stroke:none;" />
 <path d="  M 25,22  L 25,21  L 23,21  L 23,22  Z  " style="fill:rgb(213, 218, 232); fill-opacity:1.000; stroke:none;" />
 <path d="  M 25,21  L 26,21  L 26,19  L 25,19  Z  " style="fill:rgb(213, 218, 232); fill-opacity:1.000; stroke:none;" />
 <path d="  M 26,19  L 27,19  L 27,16  L 26,16  Z  " style="fill:rgb(213, 218, 232); fill-opacity:1.000; stroke:none;" />
 <path d="  M 27,14  L 28,14  L 28,12  L 27,12  Z  " style="fill:rgb(213, 218, 232); fill-opacity:1.000; stroke:none;" />
 <path d="  M 30,10  L 30,9  L 31,9  L 31,7  L 30,7  L 30,6  L 29,6  L 29,5  L 28,5  L 28,8  L 29,8  L 29,10  Z  " style="fill:rgb(213, 218, 232); fill-opacity:1.000; stroke:none;" />
 <path d="  M 29,10  L 28,10  L 28,12  L 29,12  Z  " style="fill:rgb(213, 218, 232); fill-opacity:1.000; stroke:none;" />
 <path d="  M 33,76  L 33,75  L 29,75  L 29,76  Z  " style="fill:rgb(213, 218, 232); fill-opacity:1.000; stroke:none;" />
 <path d="  M 31,19  L 31,18  L 30,18  L 30,19  Z  " style="fill:rgb(213, 218, 232); fill-opacity:1.000; stroke:none;" />
 <path d="  M 31,6  L 32,6  L 32,5  L 31,5  Z  " style="fill:rgb(213, 218, 232); fill-opacity:1.000; stroke:none;" />
 <path d="  M 32,9  L 31,9  L 31,11  L 32,11  Z  " style="fill:rgb(213, 218, 232); fill-opacity:1.000; stroke:none;" />
 <path d="  M 31,17  L 32,17  L 32,16  L 31,16  Z  " style="fill:rgb(213, 218, 232); fill-opacity:1.000; stroke:none;" />
 <path d="  M 34,99  L 34,98  L 31,98  L 31,99  Z  " style="fill:rgb(213, 218, 232); fill-opacity:1.000; stroke:none;" />
 <path d="  M 33,11  L 32,11  L 32,16  L 33,16  Z  " style="fill:rgb(213, 218, 232); fill-opacity:1.000; stroke:none;" />
 <path d="  M 33,27  L 32,27  L 32,28  L 33,28  Z  " style="fill:rgb(213, 218, 232); fill-opacity:1.000; stroke:none;" />
 <path d="  M 32,36  L 33,36  L 33,35  L 34,35  L 34,30  L 33,30  L 33,32  L 32,32  Z  " style="fill:rgb(213, 218, 232); fill-opacity:1.000; stroke:none;" />
 <path d="  M 34,23  L 33,23  L 33,27  L 34,27  Z  " style="fill:rgb(213, 218, 232); fill-opacity:1.000; stroke:none;" />
 <path d="  M 35,7  L 34,7  L 34,8  L 35,8  Z  " style="fill:rgb(213, 218, 232); fill-opacity:1.000; stroke:none;" />
 <path d="  M 35,8  L 35,9  L 37,9  L 37,8  Z  " style="fill:rgb(213, 218, 232); fill-opacity:1.000; stroke:none;" />
 <path d="  M 36,15  L 35,15  L 35,16  L 36,16  Z  " style="fill:rgb(213, 218, 232); fill-opacity:1.000; stroke:none;" />
 <path d="  M 36,15  L 37,15  L 37,14  L 36,14  Z  " style="fill:rgb(213, 218, 232); fill-opacity:1.000; stroke:none;" />
 <path d="  M 38,14  L 38,13  L 37,13  L 37,14  Z  " style="fill:rgb(213, 218, 232); fill-opacity:1.000; stroke:none;" />
 <path d="  M 39,13  L 39,12  L 38,12  L 38,13  Z  " style="fill:rgb(213, 218, 232); fill-opacity:1.000; stroke:none;" />
 <path d="  M 40,12  L 40,11  L 39,11  L 39,12  Z  " style="fill:rgb(213, 218, 232); fill-opacity:1.000; stroke:none;" />
 <path d="  M 42,8  L 41,8  L 41,9  L 42,9  Z  " style="fill:rgb(213, 218, 232); fill-opacity:1.000; stroke:none;" />
 <path d="  M 13,36  L 12,36  L 12,37  L 13,37  Z  " style="fill:rgb(241, 231, 228); fill-opacity:1.000; stroke:none;" />
 <path d="  M 18,37  L 19,37  L 19,36  L 18,36  Z  " style="fill:rgb(241, 231, 228); fill-opacity:1.000; stroke:none;" />
 <path d="  M 21,33  L 21,34  L 26,34  L 26,33  Z  " style="fill:rgb(241, 231, 228); fill-opacity:1.000; stroke:none;" />
 <path d="  M 25,37  L 25,36  L 22,36  L 22,37  Z  " style="fill:rgb(241, 231, 228); fill-opacity:1.000; stroke:none;" />
 <path d="  M 14,35  L 13,35  L 13,36  L 14,36  Z  " style="fill:rgb(222, 205, 206); fill-opacity:1.000; stroke:none;" />
 <path d="  M 15,35  L 15,34  L 14,34  L 14,35  Z  " style="fill:rgb(222, 205, 206); fill-opacity:1.000; stroke:none;" />
 <path d="  M 16,33  L 15,33  L 15,34  L 16,34  Z  " style="fill:rgb(222, 205, 206); fill-opacity:1.000; stroke:none;" />
 <path d="  M 17,32  L 16,32  L 16,33  L 17,33  Z  " style="fill:rgb(222, 205, 206); fill-opacity:1.000; stroke:none;" />
 <path d="  M 18,32  L 18,31  L 17,31  L 17,32  Z  " style="fill:rgb(222, 205, 206); fill-opacity:1.000; stroke:none;" />
 <path d="  M 17,35  L 18,35  L 18,34  L 17,34  Z  " style="fill:rgb(222, 205, 206); fill-opacity:1.000; stroke:none;" />
 <path d="  M 17,38  L 18,38  L 18,39  L 29,39  L 29,37  L 28,37  L 28,36  L 25,36  L 25,37  L 22,37  L 22,36  L 19,36  L 19,37  L 17,37  Z  " style="fill:rgb(222, 205, 206); fill-opacity:1.000; stroke:none;" />
 <path d="  M 20,31  L 20,30  L 18,30  L 18,31  Z  " style="fill:rgb(222, 205, 206); fill-opacity:1.000; stroke:none;" />
 <path d="  M 19,34  L 19,33  L 18,33  L 18,34  Z  " style="fill:rgb(222, 205, 206); fill-opacity:1.000; stroke:none;" />
 <path d="  M 19,32  L 19,33  L 28,33  L 28,32  Z  " style="fill:rgb(222, 205, 206); fill-opacity:1.000; stroke:none;" />
 <path d="  M 21,29  L 20,29  L 20,30  L 21,30  Z  " style="fill:rgb(222, 205, 206); fill-opacity:1.000; stroke:none;" />
 <path d="  M 27,29  L 26,29  L 26,30  L 27,30  Z  " style="fill:rgb(222, 205, 206); fill-opacity:1.000; stroke:none;" />
 <path d="  M 27,31  L 28,31  L 28,30  L 27,30  Z  " style="fill:rgb(222, 205, 206); fill-opacity:1.000; stroke:none;" />
 <path d="  M 28,31  L 28,32  L 29,32  L 29,31  Z  " style="fill:rgb(222, 205, 206); fill-opacity:1.000; stroke:none;" />
 <path d="  M 28,34  L 29,34  L 29,33  L 28,33  Z  " style="fill:rgb(222, 205, 206); fill-opacity:1.000; stroke:none;" />
 <path d="  M 29,33  L 30,33  L 30,32  L 29,32  Z  " style="fill:rgb(222, 205, 206); fill-opacity:1.000; stroke:none;" />
 <path d="  M 29,37  L 30,37  L 30,35  L 29,35  Z  " style="fill:rgb(222, 205, 206); fill-opacity:1.000; stroke:none;" />
 <path d="  M 31,33  L 30,33  L 30,35  L 31,35  Z  " style="fill:rgb(222, 205, 206); fill-opacity:1.000; stroke:none;" />
 <path d="  M 31,36  L 32,36  L 32,35  L 31,35  Z  " style="fill:rgb(222, 205, 206); fill-opacity:1.000; stroke:none;" />
 <path d="  M 32,36  L 32,38  L 33,38  L 33,36  Z  " style="fill:rgb(222, 205, 206); fill-opacity:1.000; stroke:none;" />
 <path d="  M 33,38  L 33,39  L 34,39  L 34,38  Z  " style="fill:rgb(222, 205, 206); fill-opacity:1.000; stroke:none;" />
 <path d="  M 13,71  L 13,74  L 14,74  L 14,71  Z  " style="fill:rgb(237, 188, 188); fill-opacity:1.000; stroke:none;" />
 <path d="  M 15,68  L 15,66  L 14,66  L 14,68  Z  " style="fill:rgb(237, 188, 188); fill-opacity:1.000; stroke:none;" />
 <path d="  M 15,69  L 18,69  L 18,68  L 15,68  Z  " style="fill:rgb(237, 188, 188); fill-opacity:1.000; stroke:none;" />
 <path d="  M 16,25  L 17,25  L 17,26  L 18,26  L 18,24  L 16,24  Z  " style="fill:rgb(237, 188, 188); fill-opacity:1.000; stroke:none;" />
 <path d="  M 20,20  L 18,20  L 18,21  L 20,21  Z  " style="fill:rgb(237, 188, 188); fill-opacity:1.000; stroke:none;" />
 <path d="  M 26,23  L 26,22  L 22,22  L 22,23  Z  " style="fill:rgb(237, 188, 188); fill-opacity:1.000; stroke:none;" />
 <path d="  M 23,29  L 25,29  L 25,28  L 23,28  Z  " style="fill:rgb(237, 188, 188); fill-opacity:1.000; stroke:none;" />
 <path d="  M 27,27  L 27,28  L 28,28  L 28,27  Z  " style="fill:rgb(237, 188, 188); fill-opacity:1.000; stroke:none;" />
 <path d="  M 28,66  L 27,66  L 27,68  L 28,68  Z  " style="fill:rgb(237, 188, 188); fill-opacity:1.000; stroke:none;" />
 <path d="  M 30,68  L 28,68  L 28,69  L 30,69  Z  " style="fill:rgb(237, 188, 188); fill-opacity:1.000; stroke:none;" />
 <path d="  M 29,21  L 30,21  L 30,20  L 29,20  Z  " style="fill:rgb(237, 188, 188); fill-opacity:1.000; stroke:none;" />
 <path d="  M 31,26  L 31,25  L 32,25  L 32,24  L 30,24  L 30,26  Z  " style="fill:rgb(237, 188, 188); fill-opacity:1.000; stroke:none;" />
 <path d="  M 32,74  L 33,74  L 33,72  L 32,72  Z  " style="fill:rgb(237, 188, 188); fill-opacity:1.000; stroke:none;" />
 <path d="  M 15,69  L 15,68  L 14,68  L 14,74  L 18,74  L 18,69  Z  " style="fill:rgb(242, 155, 142); fill-opacity:1.000; stroke:none;" />
 <path d="  M 17,24  L 17,23  L 16,23  L 16,24  Z  " style="fill:rgb(242, 155, 142); fill-opacity:1.000; stroke:none;" />
 <path d="  M 22,23  L 22,22  L 23,22  L 23,20  L 21,20  L 21,19  L 19,19  L 19,18  L 18,18  L 18,19  L 17,19  L 17,21  L 18,21  L 18,20  L 20,20  L 20,21  L 21,21  L 21,23  Z  " style="fill:rgb(242, 155, 142); fill-opacity:1.000; stroke:none;" />
 <path d="  M 18,27  L 18,26  L 17,26  L 17,27  Z  " style="fill:rgb(242, 155, 142); fill-opacity:1.000; stroke:none;" />
 <path d="  M 18,25  L 18,26  L 20,26  L 20,25  Z  " style="fill:rgb(242, 155, 142); fill-opacity:1.000; stroke:none;" />
 <path d="  M 19,68  L 19,66  L 18,66  L 18,68  Z  " style="fill:rgb(242, 155, 142); fill-opacity:1.000; stroke:none;" />
 <path d="  M 19,28  L 20,28  L 20,27  L 19,27  Z  " style="fill:rgb(242, 155, 142); fill-opacity:1.000; stroke:none;" />
 <path d="  M 23,29  L 23,28  L 22,28  L 22,29  Z  " style="fill:rgb(242, 155, 142); fill-opacity:1.000; stroke:none;" />
 <path d="  M 25,22  L 26,22  L 26,23  L 27,23  L 27,21  L 25,21  Z  " style="fill:rgb(242, 155, 142); fill-opacity:1.000; stroke:none;" />
 <path d="  M 26,29  L 26,28  L 25,28  L 25,29  Z  " style="fill:rgb(242, 155, 142); fill-opacity:1.000; stroke:none;" />
 <path d="  M 29,21  L 29,20  L 30,20  L 30,19  L 28,19  L 28,20  L 27,20  L 27,21  Z  " style="fill:rgb(242, 155, 142); fill-opacity:1.000; stroke:none;" />
 <path d="  M 28,25  L 28,26  L 30,26  L 30,25  Z  " style="fill:rgb(242, 155, 142); fill-opacity:1.000; stroke:none;" />
 <path d="  M 33,72  L 33,71  L 32,71  L 32,66  L 31,66  L 31,68  L 30,68  L 30,69  L 28,69  L 28,74  L 32,74  L 32,72  Z  " style="fill:rgb(242, 155, 142); fill-opacity:1.000; stroke:none;" />
 <path d="  M 30,21  L 31,21  L 31,20  L 30,20  Z  " style="fill:rgb(242, 155, 142); fill-opacity:1.000; stroke:none;" />
 <path d="  M 31,23  L 31,24  L 32,24  L 32,23  Z  " style="fill:rgb(242, 155, 142); fill-opacity:1.000; stroke:none;" />
 <path d="  M 15,68  L 18,68  L 18,66  L 15,66  Z  " style="fill:rgb(250, 235, 226); fill-opacity:1.000; stroke:none;" />
 <path d="  M 18,27  L 20,27  L 20,28  L 27,28  L 27,27  L 30,27  L 30,26  L 28,26  L 28,25  L 30,25  L 30,24  L 27,24  L 27,23  L 21,23  L 21,24  L 18,24  L 18,25  L 20,25  L 20,26  L 18,26  Z  " style="fill:rgb(250, 235, 226); fill-opacity:1.000; stroke:none;" />
 <path d="  M 28,36  L 28,37  L 29,37  L 29,36  Z  " style="fill:rgb(250, 235, 226); fill-opacity:1.000; stroke:none;" />
 <path d="  M 28,66  L 28,68  L 31,68  L 31,66  Z  " style="fill:rgb(250, 235, 226); fill-opacity:1.000; stroke:none;" />
 <path d="  M 16,20  L 16,21  L 17,21  L 17,20  Z  " style="fill:rgb(177, 99, 98); fill-opacity:1.000; stroke:none;" />
 <path d="  M 18,17  L 17,17  L 17,19  L 18,19  Z  " style="fill:rgb(177, 99, 98); fill-opacity:1.000; stroke:none;" />
 <path d="  M 21,17  L 20,17  L 20,19  L 21,19  Z  " style="fill:rgb(177, 99, 98); fill-opacity:1.000; stroke:none;" />
 <path d="  M 27,31  L 27,30  L 26,30  L 26,29  L 22,29  L 22,30  L 20,30  L 20,31  Z  " style="fill:rgb(177, 99, 98); fill-opacity:1.000; stroke:none;" />
 <path d="  M 21,20  L 22,20  L 22,19  L 21,19  Z  " style="fill:rgb(177, 99, 98); fill-opacity:1.000; stroke:none;" />
 <path d="  M 21,28  L 21,29  L 22,29  L 22,28  Z  " style="fill:rgb(177, 99, 98); fill-opacity:1.000; stroke:none;" />
 <path d="  M 27,17  L 27,19  L 26,19  L 26,21  L 27,21  L 27,20  L 28,20  L 28,17  Z  " style="fill:rgb(177, 99, 98); fill-opacity:1.000; stroke:none;" />
 <path d="  M 26,29  L 27,29  L 27,28  L 26,28  Z  " style="fill:rgb(177, 99, 98); fill-opacity:1.000; stroke:none;" />
 <path d="  M 28,68  L 27,68  L 27,74  L 28,74  Z  " style="fill:rgb(177, 99, 98); fill-opacity:1.000; stroke:none;" />
 <path d="  M 29,28  L 29,27  L 28,27  L 28,28  Z  " style="fill:rgb(177, 99, 98); fill-opacity:1.000; stroke:none;" />
 <path d="  M 29,31  L 29,30  L 28,30  L 28,31  Z  " style="fill:rgb(177, 99, 98); fill-opacity:1.000; stroke:none;" />
 <path d="  M 29,18  L 29,19  L 30,19  L 30,18  Z  " style="fill:rgb(177, 99, 98); fill-opacity:1.000; stroke:none;" />
 <path d="  M 31,18  L 31,16  L 30,16  L 30,18  Z  " style="fill:rgb(177, 99, 98); fill-opacity:1.000; stroke:none;" />
 <path d="  M 32,19  L 30,19  L 30,20  L 31,20  L 31,21  L 32,21  Z  " style="fill:rgb(177, 99, 98); fill-opacity:1.000; stroke:none;" />
 <path d="  M 31,27  L 31,26  L 30,26  L 30,27  Z  " style="fill:rgb(177, 99, 98); fill-opacity:1.000; stroke:none;" />
</svg>
