<?xml version="1.0" encoding="UTF-8" standalone="no"?>
<!DOCTYPE svg PUBLIC "-//W3C//DTD SVG 1.1//EN" 
  "http://www.w3.org/Graphics/SVG/1.1/DTD/svg11.dtd">
<svg width="45" height="100"
     xmlns="http://www.w3.org/2000/svg" version="1.1">
 <path d="  M 0,0  L 0,100  L 10,100  L 10,99  L 9,99  L 9,84  L 7,84  L 7,81  L 9,81  L 9,78  L 10,78  L 10,69  L 11,69  L 11,64  L 12,64  L 12,61  L 13,61  L 13,57  L 11,57  L 11,50  L 8,50  L 8,56  L 7,56  L 7,57  L 6,57  L 6,56  L 5,56  L 5,54  L 4,54  L 4,52  L 3,52  L 3,43  L 4,43  L 4,42  L 5,42  L 5,29  L 6,29  L 6,25  L 7,25  L 7,20  L 8,20  L 8,18  L 9,18  L 9,11  L 8,11  L 8,9  L 7,9  L 7,6  L 6,6  L 6,4  L 5,4  L 5,3  L 6,3  L 6,2  L 14,2  L 14,3  L 19,3  L 19,4  L 30,4  L 30,5  L 35,5  L 35,6  L 42,6  L 42,7  L 44,7  L 44,8  L 45,8  L 45,0  Z  " style="fill:rgb(255, 255, 255); fill-opacity:0.000; stroke:none;" />
 <path d="  M 24,98  L 24,94  L 25,94  L 25,85  L 26,85  L 26,78  L 27,78  L 27,73  L 26,73  L 26,66  L 25,66  L 25,65  L 23,65  L 23,67  L 22,67  L 22,71  L 21,71  L 21,73  L 20,73  L 20,75  L 19,75  L 19,76  L 18,76  L 18,77  L 17,77  L 17,80  L 18,80  L 18,88  L 19,88  L 19,96  L 18,96  L 18,97  L 17,97  L 17,98  L 15,98  L 15,99  L 14,99  L 14,100  L 26,100  L 26,99  L 25,99  L 25,98  Z  " style="fill:rgb(255, 255, 255); fill-opacity:0.000; stroke:none;" />
 <path d="  M 17,70  L 17,72  L 18,72  L 18,70  Z  " style="fill:rgb(255, 255, 255); fill-opacity:0.000; stroke:none;" />
 <path d="  M 19,70  L 19,68  L 18,68  L 18,70  Z  " style="fill:rgb(255, 255, 255); fill-opacity:0.000; stroke:none;" />
 <path d="  M 39,50  L 40,50  L 40,51  L 41,51  L 41,54  L 40,54  L 40,56  L 39,56  L 39,57  L 33,57  L 33,75  L 34,75  L 34,96  L 33,96  L 33,98  L 32,98  L 32,99  L 31,99  L 31,100  L 45,100  L 45,9  L 44,9  L 44,10  L 43,10  L 43,11  L 42,11  L 42,12  L 41,12  L 41,13  L 40,13  L 40,14  L 39,14  L 39,15  L 38,15  L 38,20  L 37,20  L 37,21  L 36,21  L 36,29  L 39,29  Z  " style="fill:rgb(255, 255, 255); fill-opacity:0.000; stroke:none;" />
 <path d="  M 3,52  L 4,52  L 4,43  L 3,43  Z  " style="fill:rgb(0, 0, 0); fill-opacity:1.000; stroke:none;" />
 <path d="  M 5,43  L 5,42  L 4,42  L 4,43  Z  " style="fill:rgb(0, 0, 0); fill-opacity:1.000; stroke:none;" />
 <path d="  M 5,54  L 5,52  L 4,52  L 4,54  Z  " style="fill:rgb(0, 0, 0); fill-opacity:1.000; stroke:none;" />
 <path d="  M 5,3  L 5,4  L 6,4  L 6,3  Z  " style="fill:rgb(0, 0, 0); fill-opacity:1.000; stroke:none;" />
 <path d="  M 6,29  L 5,29  L 5,42  L 6,42  Z  " style="fill:rgb(0, 0, 0); fill-opacity:1.000; stroke:none;" />
 <path d="  M 5,54  L 5,56  L 6,56  L 6,54  Z  " style="fill:rgb(0, 0, 0); fill-opacity:1.000; stroke:none;" />
 <path d="  M 6,2  L 6,3  L 14,3  L 14,2  Z  " style="fill:rgb(0, 0, 0); fill-opacity:1.000; stroke:none;" />
 <path d="  M 6,4  L 6,6  L 7,6  L 7,4  Z  " style="fill:rgb(0, 0, 0); fill-opacity:1.000; stroke:none;" />
 <path d="  M 7,25  L 6,25  L 6,29  L 7,29  Z  " style="fill:rgb(0, 0, 0); fill-opacity:1.000; stroke:none;" />
 <path d="  M 6,56  L 6,57  L 7,57  L 7,56  Z  " style="fill:rgb(0, 0, 0); fill-opacity:1.000; stroke:none;" />
 <path d="  M 7,9  L 8,9  L 8,6  L 7,6  Z  " style="fill:rgb(0, 0, 0); fill-opacity:1.000; stroke:none;" />
 <path d="  M 7,25  L 8,25  L 8,20  L 7,20  Z  " style="fill:rgb(0, 0, 0); fill-opacity:1.000; stroke:none;" />
 <path d="  M 8,50  L 7,50  L 7,56  L 8,56  Z  " style="fill:rgb(0, 0, 0); fill-opacity:1.000; stroke:none;" />
 <path d="  M 7,84  L 9,84  L 9,83  L 8,83  L 8,82  L 9,82  L 9,81  L 7,81  Z  " style="fill:rgb(0, 0, 0); fill-opacity:1.000; stroke:none;" />
 <path d="  M 9,9  L 8,9  L 8,11  L 9,11  Z  " style="fill:rgb(0, 0, 0); fill-opacity:1.000; stroke:none;" />
 <path d="  M 9,20  L 9,18  L 8,18  L 8,20  Z  " style="fill:rgb(0, 0, 0); fill-opacity:1.000; stroke:none;" />
 <path d="  M 12,56  L 12,39  L 11,39  L 11,49  L 8,49  L 8,50  L 11,50  L 11,57  L 13,57  L 13,61  L 14,61  L 14,57  L 32,57  L 32,75  L 33,75  L 33,57  L 39,57  L 39,56  Z  " style="fill:rgb(0, 0, 0); fill-opacity:1.000; stroke:none;" />
 <path d="  M 10,11  L 9,11  L 9,18  L 10,18  Z  " style="fill:rgb(0, 0, 0); fill-opacity:1.000; stroke:none;" />
 <path d="  M 10,81  L 10,78  L 9,78  L 9,81  Z  " style="fill:rgb(0, 0, 0); fill-opacity:1.000; stroke:none;" />
 <path d="  M 9,99  L 10,99  L 10,84  L 9,84  Z  " style="fill:rgb(0, 0, 0); fill-opacity:1.000; stroke:none;" />
 <path d="  M 11,69  L 10,69  L 10,78  L 11,78  Z  " style="fill:rgb(0, 0, 0); fill-opacity:1.000; stroke:none;" />
 <path d="  M 10,99  L 10,100  L 14,100  L 14,99  Z  " style="fill:rgb(0, 0, 0); fill-opacity:1.000; stroke:none;" />
 <path d="  M 13,30  L 13,29  L 11,29  L 11,31  L 12,31  L 12,30  Z  " style="fill:rgb(0, 0, 0); fill-opacity:1.000; stroke:none;" />
 <path d="  M 11,69  L 12,69  L 12,64  L 11,64  Z  " style="fill:rgb(0, 0, 0); fill-opacity:1.000; stroke:none;" />
 <path d="  M 13,64  L 13,61  L 12,61  L 12,64  Z  " style="fill:rgb(0, 0, 0); fill-opacity:1.000; stroke:none;" />
 <path d="  M 19,4  L 19,3  L 14,3  L 14,4  Z  " style="fill:rgb(0, 0, 0); fill-opacity:1.000; stroke:none;" />
 <path d="  M 15,98  L 14,98  L 14,99  L 15,99  Z  " style="fill:rgb(0, 0, 0); fill-opacity:1.000; stroke:none;" />
 <path d="  M 17,97  L 15,97  L 15,98  L 17,98  Z  " style="fill:rgb(0, 0, 0); fill-opacity:1.000; stroke:none;" />
 <path d="  M 31,30  L 31,29  L 16,29  L 16,30  Z  " style="fill:rgb(0, 0, 0); fill-opacity:1.000; stroke:none;" />
 <path d="  M 17,70  L 16,70  L 16,73  L 18,73  L 18,72  L 17,72  Z  " style="fill:rgb(0, 0, 0); fill-opacity:1.000; stroke:none;" />
 <path d="  M 17,80  L 17,77  L 16,77  L 16,80  Z  " style="fill:rgb(0, 0, 0); fill-opacity:1.000; stroke:none;" />
 <path d="  M 18,68  L 17,68  L 17,70  L 18,70  Z  " style="fill:rgb(0, 0, 0); fill-opacity:1.000; stroke:none;" />
 <path d="  M 18,76  L 17,76  L 17,77  L 18,77  Z  " style="fill:rgb(0, 0, 0); fill-opacity:1.000; stroke:none;" />
 <path d="  M 18,80  L 17,80  L 17,88  L 18,88  Z  " style="fill:rgb(0, 0, 0); fill-opacity:1.000; stroke:none;" />
 <path d="  M 17,97  L 18,97  L 18,96  L 17,96  Z  " style="fill:rgb(0, 0, 0); fill-opacity:1.000; stroke:none;" />
 <path d="  M 20,44  L 20,43  L 22,43  L 22,41  L 24,41  L 24,39  L 26,39  L 26,44  Z  M 30,50  L 30,46  L 31,46  L 31,44  L 30,44  L 30,35  L 24,35  L 24,37  L 22,37  L 22,39  L 20,39  L 20,41  L 18,41  L 18,46  L 26,46  L 26,50  Z  " style="fill:rgb(0, 0, 0); fill-opacity:1.000; stroke:none;" />
 <path d="  M 19,68  L 19,67  L 18,67  L 18,68  Z  " style="fill:rgb(0, 0, 0); fill-opacity:1.000; stroke:none;" />
 <path d="  M 18,72  L 19,72  L 19,70  L 18,70  Z  " style="fill:rgb(0, 0, 0); fill-opacity:1.000; stroke:none;" />
 <path d="  M 18,76  L 19,76  L 19,75  L 18,75  Z  " style="fill:rgb(0, 0, 0); fill-opacity:1.000; stroke:none;" />
 <path d="  M 18,88  L 18,96  L 19,96  L 19,88  Z  " style="fill:rgb(0, 0, 0); fill-opacity:1.000; stroke:none;" />
 <path d="  M 30,5  L 30,4  L 19,4  L 19,5  Z  " style="fill:rgb(0, 0, 0); fill-opacity:1.000; stroke:none;" />
 <path d="  M 20,67  L 20,66  L 19,66  L 19,67  Z  " style="fill:rgb(0, 0, 0); fill-opacity:1.000; stroke:none;" />
 <path d="  M 20,68  L 19,68  L 19,70  L 20,70  Z  " style="fill:rgb(0, 0, 0); fill-opacity:1.000; stroke:none;" />
 <path d="  M 19,75  L 20,75  L 20,73  L 19,73  Z  " style="fill:rgb(0, 0, 0); fill-opacity:1.000; stroke:none;" />
 <path d="  M 20,66  L 21,66  L 21,63  L 20,63  Z  " style="fill:rgb(0, 0, 0); fill-opacity:1.000; stroke:none;" />
 <path d="  M 21,73  L 21,71  L 20,71  L 20,73  Z  " style="fill:rgb(0, 0, 0); fill-opacity:1.000; stroke:none;" />
 <path d="  M 21,71  L 22,71  L 22,67  L 21,67  Z  " style="fill:rgb(0, 0, 0); fill-opacity:1.000; stroke:none;" />
 <path d="  M 23,65  L 25,65  L 25,66  L 26,66  L 26,64  L 23,64  L 23,63  L 22,63  L 22,67  L 23,67  Z  " style="fill:rgb(0, 0, 0); fill-opacity:1.000; stroke:none;" />
 <path d="  M 25,94  L 24,94  L 24,98  L 25,98  Z  " style="fill:rgb(0, 0, 0); fill-opacity:1.000; stroke:none;" />
 <path d="  M 26,85  L 25,85  L 25,94  L 26,94  Z  " style="fill:rgb(0, 0, 0); fill-opacity:1.000; stroke:none;" />
 <path d="  M 25,99  L 26,99  L 26,98  L 25,98  Z  " style="fill:rgb(0, 0, 0); fill-opacity:1.000; stroke:none;" />
 <path d="  M 26,66  L 26,73  L 27,73  L 27,66  Z  " style="fill:rgb(0, 0, 0); fill-opacity:1.000; stroke:none;" />
 <path d="  M 27,78  L 26,78  L 26,85  L 27,85  Z  " style="fill:rgb(0, 0, 0); fill-opacity:1.000; stroke:none;" />
 <path d="  M 26,99  L 26,100  L 31,100  L 31,99  Z  " style="fill:rgb(0, 0, 0); fill-opacity:1.000; stroke:none;" />
 <path d="  M 28,73  L 27,73  L 27,78  L 28,78  Z  " style="fill:rgb(0, 0, 0); fill-opacity:1.000; stroke:none;" />
 <path d="  M 30,5  L 30,6  L 35,6  L 35,5  Z  " style="fill:rgb(0, 0, 0); fill-opacity:1.000; stroke:none;" />
 <path d="  M 32,98  L 31,98  L 31,99  L 32,99  Z  " style="fill:rgb(0, 0, 0); fill-opacity:1.000; stroke:none;" />
 <path d="  M 33,98  L 33,96  L 32,96  L 32,98  Z  " style="fill:rgb(0, 0, 0); fill-opacity:1.000; stroke:none;" />
 <path d="  M 33,96  L 34,96  L 34,75  L 33,75  Z  " style="fill:rgb(0, 0, 0); fill-opacity:1.000; stroke:none;" />
 <path d="  M 35,21  L 35,29  L 34,29  L 34,30  L 38,30  L 38,50  L 39,50  L 39,29  L 36,29  L 36,21  Z  " style="fill:rgb(0, 0, 0); fill-opacity:1.000; stroke:none;" />
 <path d="  M 42,7  L 42,6  L 35,6  L 35,7  Z  " style="fill:rgb(0, 0, 0); fill-opacity:1.000; stroke:none;" />
 <path d="  M 36,20  L 36,21  L 37,21  L 37,20  Z  " style="fill:rgb(0, 0, 0); fill-opacity:1.000; stroke:none;" />
 <path d="  M 37,15  L 37,20  L 38,20  L 38,15  Z  " style="fill:rgb(0, 0, 0); fill-opacity:1.000; stroke:none;" />
 <path d="  M 38,15  L 39,15  L 39,14  L 38,14  Z  " style="fill:rgb(0, 0, 0); fill-opacity:1.000; stroke:none;" />
 <path d="  M 39,14  L 40,14  L 40,13  L 39,13  Z  " style="fill:rgb(0, 0, 0); fill-opacity:1.000; stroke:none;" />
 <path d="  M 40,50  L 39,50  L 39,51  L 40,51  Z  " style="fill:rgb(0, 0, 0); fill-opacity:1.000; stroke:none;" />
 <path d="  M 39,56  L 40,56  L 40,54  L 39,54  Z  " style="fill:rgb(0, 0, 0); fill-opacity:1.000; stroke:none;" />
 <path d="  M 41,12  L 40,12  L 40,13  L 41,13  Z  " style="fill:rgb(0, 0, 0); fill-opacity:1.000; stroke:none;" />
 <path d="  M 41,51  L 40,51  L 40,54  L 41,54  Z  " style="fill:rgb(0, 0, 0); fill-opacity:1.000; stroke:none;" />
 <path d="  M 42,11  L 41,11  L 41,12  L 42,12  Z  " style="fill:rgb(0, 0, 0); fill-opacity:1.000; stroke:none;" />
 <path d="  M 44,8  L 44,7  L 42,7  L 42,8  Z  " style="fill:rgb(0, 0, 0); fill-opacity:1.000; stroke:none;" />
 <path d="  M 43,10  L 42,10  L 42,11  L 43,11  Z  " style="fill:rgb(0, 0, 0); fill-opacity:1.000; stroke:none;" />
 <path d="  M 43,10  L 44,10  L 44,9  L 43,9  Z  " style="fill:rgb(0, 0, 0); fill-opacity:1.000; stroke:none;" />
 <path d="  M 44,9  L 45,9  L 45,8  L 44,8  Z  " style="fill:rgb(0, 0, 0); fill-opacity:1.000; stroke:none;" />
 <path d="  M 5,43  L 4,43  L 4,44  L 5,44  Z  " style="fill:rgb(226, 161, 131); fill-opacity:1.000; stroke:none;" />
 <path d="  M 4,48  L 5,48  L 5,47  L 4,47  Z  " style="fill:rgb(226, 161, 131); fill-opacity:1.000; stroke:none;" />
 <path d="  M 5,48  L 5,49  L 6,49  L 6,48  Z  " style="fill:rgb(226, 161, 131); fill-opacity:1.000; stroke:none;" />
 <path d="  M 7,46  L 7,44  L 6,44  L 6,46  Z  " style="fill:rgb(226, 161, 131); fill-opacity:1.000; stroke:none;" />
 <path d="  M 6,55  L 6,56  L 7,56  L 7,55  Z  " style="fill:rgb(226, 161, 131); fill-opacity:1.000; stroke:none;" />
 <path d="  M 8,26  L 7,26  L 7,33  L 9,33  L 9,32  L 8,32  Z  " style="fill:rgb(226, 161, 131); fill-opacity:1.000; stroke:none;" />
 <path d="  M 9,20  L 8,20  L 8,21  L 9,21  Z  " style="fill:rgb(226, 161, 131); fill-opacity:1.000; stroke:none;" />
 <path d="  M 9,11  L 10,11  L 10,10  L 9,10  Z  " style="fill:rgb(226, 161, 131); fill-opacity:1.000; stroke:none;" />
 <path d="  M 10,18  L 9,18  L 9,19  L 10,19  Z  " style="fill:rgb(226, 161, 131); fill-opacity:1.000; stroke:none;" />
 <path d="  M 10,30  L 9,30  L 9,31  L 10,31  Z  " style="fill:rgb(226, 161, 131); fill-opacity:1.000; stroke:none;" />
 <path d="  M 11,13  L 11,12  L 10,12  L 10,13  Z  " style="fill:rgb(226, 161, 131); fill-opacity:1.000; stroke:none;" />
 <path d="  M 10,17  L 11,17  L 11,25  L 12,25  L 12,20  L 13,20  L 13,19  L 12,19  L 12,16  L 10,16  Z  " style="fill:rgb(226, 161, 131); fill-opacity:1.000; stroke:none;" />
 <path d="  M 11,35  L 11,34  L 10,34  L 10,35  Z  " style="fill:rgb(226, 161, 131); fill-opacity:1.000; stroke:none;" />
 <path d="  M 10,37  L 10,38  L 12,38  L 12,37  Z  " style="fill:rgb(226, 161, 131); fill-opacity:1.000; stroke:none;" />
 <path d="  M 11,32  L 12,32  L 12,31  L 11,31  Z  " style="fill:rgb(226, 161, 131); fill-opacity:1.000; stroke:none;" />
 <path d="  M 12,34  L 12,33  L 11,33  L 11,34  Z  " style="fill:rgb(226, 161, 131); fill-opacity:1.000; stroke:none;" />
 <path d="  M 12,70  L 12,69  L 11,69  L 11,70  Z  " style="fill:rgb(226, 161, 131); fill-opacity:1.000; stroke:none;" />
 <path d="  M 12,72  L 12,73  L 11,73  L 11,77  L 15,77  L 15,73  L 14,73  L 14,72  Z  " style="fill:rgb(226, 161, 131); fill-opacity:1.000; stroke:none;" />
 <path d="  M 12,10  L 12,11  L 13,11  L 13,10  Z  " style="fill:rgb(226, 161, 131); fill-opacity:1.000; stroke:none;" />
 <path d="  M 12,13  L 12,14  L 13,14  L 13,13  Z  " style="fill:rgb(226, 161, 131); fill-opacity:1.000; stroke:none;" />
 <path d="  M 13,25  L 12,25  L 12,27  L 13,27  Z  " style="fill:rgb(226, 161, 131); fill-opacity:1.000; stroke:none;" />
 <path d="  M 13,32  L 12,32  L 12,33  L 13,33  Z  " style="fill:rgb(226, 161, 131); fill-opacity:1.000; stroke:none;" />
 <path d="  M 12,34  L 12,37  L 13,37  L 13,35  L 14,35  L 14,34  Z  " style="fill:rgb(226, 161, 131); fill-opacity:1.000; stroke:none;" />
 <path d="  M 15,16  L 15,15  L 13,15  L 13,16  Z  " style="fill:rgb(226, 161, 131); fill-opacity:1.000; stroke:none;" />
 <path d="  M 13,61  L 13,62  L 14,62  L 14,61  Z  " style="fill:rgb(226, 161, 131); fill-opacity:1.000; stroke:none;" />
 <path d="  M 14,24  L 15,24  L 15,23  L 14,23  Z  " style="fill:rgb(226, 161, 131); fill-opacity:1.000; stroke:none;" />
 <path d="  M 14,30  L 14,31  L 15,31  L 15,30  Z  " style="fill:rgb(226, 161, 131); fill-opacity:1.000; stroke:none;" />
 <path d="  M 15,12  L 15,13  L 16,13  L 16,12  Z  " style="fill:rgb(226, 161, 131); fill-opacity:1.000; stroke:none;" />
 <path d="  M 16,21  L 17,21  L 17,17  L 18,17  L 18,15  L 17,15  L 17,16  L 15,16  L 15,17  L 16,17  Z  " style="fill:rgb(226, 161, 131); fill-opacity:1.000; stroke:none;" />
 <path d="  M 16,24  L 15,24  L 15,27  L 16,27  Z  " style="fill:rgb(226, 161, 131); fill-opacity:1.000; stroke:none;" />
 <path d="  M 19,6  L 19,5  L 16,5  L 16,6  Z  " style="fill:rgb(226, 161, 131); fill-opacity:1.000; stroke:none;" />
 <path d="  M 17,23  L 17,24  L 18,24  L 18,23  Z  " style="fill:rgb(226, 161, 131); fill-opacity:1.000; stroke:none;" />
 <path d="  M 19,26  L 19,25  L 17,25  L 17,26  Z  " style="fill:rgb(226, 161, 131); fill-opacity:1.000; stroke:none;" />
 <path d="  M 18,32  L 18,31  L 17,31  L 17,32  Z  " style="fill:rgb(226, 161, 131); fill-opacity:1.000; stroke:none;" />
 <path d="  M 18,14  L 18,15  L 19,15  L 19,14  Z  " style="fill:rgb(226, 161, 131); fill-opacity:1.000; stroke:none;" />
 <path d="  M 19,60  L 18,60  L 18,61  L 19,61  Z  " style="fill:rgb(226, 161, 131); fill-opacity:1.000; stroke:none;" />
 <path d="  M 20,25  L 20,24  L 19,24  L 19,25  Z  " style="fill:rgb(226, 161, 131); fill-opacity:1.000; stroke:none;" />
 <path d="  M 19,28  L 20,28  L 20,27  L 19,27  Z  " style="fill:rgb(226, 161, 131); fill-opacity:1.000; stroke:none;" />
 <path d="  M 20,14  L 21,14  L 21,11  L 20,11  Z  " style="fill:rgb(226, 161, 131); fill-opacity:1.000; stroke:none;" />
 <path d="  M 22,27  L 22,26  L 21,26  L 21,27  Z  " style="fill:rgb(226, 161, 131); fill-opacity:1.000; stroke:none;" />
 <path d="  M 22,19  L 22,20  L 23,20  L 23,19  Z  " style="fill:rgb(226, 161, 131); fill-opacity:1.000; stroke:none;" />
 <path d="  M 25,28  L 25,27  L 22,27  L 22,28  Z  " style="fill:rgb(226, 161, 131); fill-opacity:1.000; stroke:none;" />
 <path d="  M 23,18  L 24,18  L 24,16  L 23,16  Z  " style="fill:rgb(226, 161, 131); fill-opacity:1.000; stroke:none;" />
 <path d="  M 25,20  L 25,21  L 26,21  L 26,20  Z  " style="fill:rgb(226, 161, 131); fill-opacity:1.000; stroke:none;" />
 <path d="  M 26,29  L 27,29  L 27,28  L 26,28  Z  " style="fill:rgb(226, 161, 131); fill-opacity:1.000; stroke:none;" />
 <path d="  M 27,19  L 27,20  L 30,20  L 30,18  L 28,18  L 28,19  Z  " style="fill:rgb(226, 161, 131); fill-opacity:1.000; stroke:none;" />
 <path d="  M 31,64  L 30,64  L 30,65  L 28,65  L 28,66  L 27,66  L 27,73  L 30,73  L 30,72  L 31,72  Z  " style="fill:rgb(226, 161, 131); fill-opacity:1.000; stroke:none;" />
 <path d="  M 28,5  L 28,6  L 30,6  L 30,5  Z  " style="fill:rgb(226, 161, 131); fill-opacity:1.000; stroke:none;" />
 <path d="  M 29,26  L 29,25  L 28,25  L 28,27  L 30,27  L 30,26  Z  " style="fill:rgb(226, 161, 131); fill-opacity:1.000; stroke:none;" />
 <path d="  M 31,13  L 30,13  L 30,15  L 31,15  Z  " style="fill:rgb(226, 161, 131); fill-opacity:1.000; stroke:none;" />
 <path d="  M 31,26  L 31,25  L 30,25  L 30,26  Z  " style="fill:rgb(226, 161, 131); fill-opacity:1.000; stroke:none;" />
 <path d="  M 31,32  L 30,32  L 30,33  L 31,33  Z  " style="fill:rgb(226, 161, 131); fill-opacity:1.000; stroke:none;" />
 <path d="  M 32,7  L 32,6  L 31,6  L 31,7  Z  " style="fill:rgb(226, 161, 131); fill-opacity:1.000; stroke:none;" />
 <path d="  M 31,17  L 32,17  L 32,16  L 31,16  Z  " style="fill:rgb(226, 161, 131); fill-opacity:1.000; stroke:none;" />
 <path d="  M 31,29  L 31,32  L 32,32  L 32,29  Z  " style="fill:rgb(226, 161, 131); fill-opacity:1.000; stroke:none;" />
 <path d="  M 33,14  L 32,14  L 32,15  L 33,15  Z  " style="fill:rgb(226, 161, 131); fill-opacity:1.000; stroke:none;" />
 <path d="  M 32,29  L 33,29  L 33,28  L 32,28  Z  " style="fill:rgb(226, 161, 131); fill-opacity:1.000; stroke:none;" />
 <path d="  M 32,78  L 33,78  L 33,75  L 32,75  Z  " style="fill:rgb(226, 161, 131); fill-opacity:1.000; stroke:none;" />
 <path d="  M 33,11  L 33,12  L 34,12  L 34,11  Z  " style="fill:rgb(226, 161, 131); fill-opacity:1.000; stroke:none;" />
 <path d="  M 34,17  L 33,17  L 33,22  L 34,22  Z  " style="fill:rgb(226, 161, 131); fill-opacity:1.000; stroke:none;" />
 <path d="  M 35,10  L 34,10  L 34,11  L 35,11  Z  " style="fill:rgb(226, 161, 131); fill-opacity:1.000; stroke:none;" />
 <path d="  M 35,15  L 35,14  L 34,14  L 34,15  Z  " style="fill:rgb(226, 161, 131); fill-opacity:1.000; stroke:none;" />
 <path d="  M 36,52  L 35,52  L 35,54  L 36,54  Z  " style="fill:rgb(226, 161, 131); fill-opacity:1.000; stroke:none;" />
 <path d="  M 36,52  L 37,52  L 37,51  L 36,51  Z  " style="fill:rgb(226, 161, 131); fill-opacity:1.000; stroke:none;" />
 <path d="  M 37,10  L 38,10  L 38,9  L 37,9  Z  " style="fill:rgb(226, 161, 131); fill-opacity:1.000; stroke:none;" />
 <path d="  M 37,50  L 37,51  L 38,51  L 38,50  Z  " style="fill:rgb(226, 161, 131); fill-opacity:1.000; stroke:none;" />
 <path d="  M 38,54  L 38,53  L 37,53  L 37,54  Z  " style="fill:rgb(226, 161, 131); fill-opacity:1.000; stroke:none;" />
 <path d="  M 38,52  L 38,53  L 39,53  L 39,52  Z  " style="fill:rgb(226, 161, 131); fill-opacity:1.000; stroke:none;" />
 <path d="  M 43,8  L 43,9  L 44,9  L 44,8  Z  " style="fill:rgb(226, 161, 131); fill-opacity:1.000; stroke:none;" />
 <path d="  M 4,44  L 4,47  L 5,47  L 5,48  L 6,48  L 6,44  L 7,44  L 7,43  L 6,43  L 6,42  L 5,42  L 5,44  Z  " style="fill:rgb(252, 205, 137); fill-opacity:1.000; stroke:none;" />
 <path d="  M 13,9  L 13,8  L 14,8  L 14,7  L 15,7  L 15,6  L 16,6  L 16,5  L 19,5  L 19,4  L 14,4  L 14,3  L 6,3  L 6,4  L 7,4  L 7,5  L 8,5  L 8,6  L 9,6  L 9,7  L 10,7  L 10,8  L 11,8  L 11,9  Z  " style="fill:rgb(252, 205, 137); fill-opacity:1.000; stroke:none;" />
 <path d="  M 8,32  L 9,32  L 9,30  L 11,30  L 11,29  L 12,29  L 12,25  L 11,25  L 11,17  L 10,17  L 10,19  L 9,19  L 9,21  L 8,21  Z  " style="fill:rgb(252, 205, 137); fill-opacity:1.000; stroke:none;" />
 <path d="  M 13,11  L 12,11  L 12,13  L 13,13  L 13,14  L 14,14  L 14,13  L 15,13  L 15,12  L 16,12  L 16,11  L 14,11  L 14,10  L 13,10  Z  " style="fill:rgb(252, 205, 137); fill-opacity:1.000; stroke:none;" />
 <path d="  M 15,30  L 15,32  L 17,32  L 17,31  L 16,31  L 16,27  L 15,27  L 15,24  L 14,24  L 14,21  L 13,21  L 13,20  L 12,20  L 12,25  L 13,25  L 13,28  L 14,28  L 14,30  Z  " style="fill:rgb(252, 205, 137); fill-opacity:1.000; stroke:none;" />
 <path d="  M 29,13  L 27,13  L 27,11  L 29,11  Z  M 28,6  L 28,5  L 19,5  L 19,6  L 16,6  L 16,7  L 15,7  L 15,9  L 17,9  L 17,12  L 16,12  L 16,13  L 15,13  L 15,14  L 14,14  L 14,15  L 18,15  L 18,14  L 19,14  L 19,13  L 20,13  L 20,12  L 18,12  L 18,11  L 19,11  L 19,10  L 22,10  L 22,13  L 21,13  L 21,14  L 24,14  L 24,13  L 23,13  L 23,12  L 24,12  L 24,11  L 26,11  L 26,19  L 27,19  L 27,18  L 28,18  L 28,16  L 29,16  L 29,14  L 30,14  L 30,13  L 31,13  L 31,16  L 32,16  L 32,14  L 33,14  L 33,17  L 34,17  L 34,12  L 33,12  L 33,11  L 34,11  L 34,9  L 33,9  L 33,8  L 32,8  L 32,7  L 31,7  L 31,6  Z  " style="fill:rgb(252, 205, 137); fill-opacity:1.000; stroke:none;" />
 <path d="  M 15,24  L 16,24  L 16,17  L 15,17  Z  " style="fill:rgb(252, 205, 137); fill-opacity:1.000; stroke:none;" />
 <path d="  M 18,32  L 17,32  L 17,33  L 18,33  Z  " style="fill:rgb(252, 205, 137); fill-opacity:1.000; stroke:none;" />
 <path d="  M 20,15  L 20,16  L 19,16  L 19,17  L 21,17  L 21,16  L 22,16  L 22,15  Z  " style="fill:rgb(252, 205, 137); fill-opacity:1.000; stroke:none;" />
 <path d="  M 24,13  L 25,13  L 25,12  L 24,12  Z  " style="fill:rgb(252, 205, 137); fill-opacity:1.000; stroke:none;" />
 <path d="  M 34,7  L 34,8  L 36,8  L 36,9  L 38,9  L 38,10  L 40,10  L 40,9  L 43,9  L 43,8  L 42,8  L 42,7  L 35,7  L 35,6  L 32,6  L 32,7  Z  " style="fill:rgb(252, 205, 137); fill-opacity:1.000; stroke:none;" />
 <path d="  M 35,12  L 35,11  L 34,11  L 34,12  Z  " style="fill:rgb(252, 205, 137); fill-opacity:1.000; stroke:none;" />
 <path d="  M 7,46  L 6,46  L 6,49  L 5,49  L 5,48  L 4,48  L 4,52  L 5,52  L 5,54  L 6,54  L 6,55  L 7,55  Z  " style="fill:rgb(215, 127, 112); fill-opacity:1.000; stroke:none;" />
 <path d="  M 6,41  L 9,41  L 9,33  L 7,33  L 7,29  L 6,29  Z  " style="fill:rgb(215, 127, 112); fill-opacity:1.000; stroke:none;" />
 <path d="  M 8,5  L 7,5  L 7,6  L 8,6  Z  " style="fill:rgb(215, 127, 112); fill-opacity:1.000; stroke:none;" />
 <path d="  M 7,26  L 8,26  L 8,25  L 7,25  Z  " style="fill:rgb(215, 127, 112); fill-opacity:1.000; stroke:none;" />
 <path d="  M 7,45  L 8,45  L 8,43  L 7,43  Z  " style="fill:rgb(215, 127, 112); fill-opacity:1.000; stroke:none;" />
 <path d="  M 8,7  L 8,9  L 9,9  L 9,10  L 10,10  L 10,12  L 11,12  L 11,9  L 10,9  L 10,8  L 9,8  L 9,7  Z  " style="fill:rgb(215, 127, 112); fill-opacity:1.000; stroke:none;" />
 <path d="  M 9,83  L 9,82  L 8,82  L 8,83  Z  " style="fill:rgb(215, 127, 112); fill-opacity:1.000; stroke:none;" />
 <path d="  M 9,32  L 10,32  L 10,31  L 9,31  Z  " style="fill:rgb(215, 127, 112); fill-opacity:1.000; stroke:none;" />
 <path d="  M 9,82  L 10,82  L 10,81  L 9,81  Z  " style="fill:rgb(215, 127, 112); fill-opacity:1.000; stroke:none;" />
 <path d="  M 10,16  L 11,16  L 11,14  L 10,14  Z  " style="fill:rgb(215, 127, 112); fill-opacity:1.000; stroke:none;" />
 <path d="  M 10,31  L 11,31  L 11,30  L 10,30  Z  " style="fill:rgb(215, 127, 112); fill-opacity:1.000; stroke:none;" />
 <path d="  M 11,34  L 11,33  L 10,33  L 10,34  Z  " style="fill:rgb(215, 127, 112); fill-opacity:1.000; stroke:none;" />
 <path d="  M 12,13  L 11,13  L 11,14  L 12,14  Z  " style="fill:rgb(215, 127, 112); fill-opacity:1.000; stroke:none;" />
 <path d="  M 13,9  L 12,9  L 12,10  L 13,10  Z  " style="fill:rgb(215, 127, 112); fill-opacity:1.000; stroke:none;" />
 <path d="  M 12,19  L 13,19  L 13,21  L 14,21  L 14,23  L 15,23  L 15,16  L 13,16  L 13,15  L 14,15  L 14,14  L 12,14  Z  " style="fill:rgb(215, 127, 112); fill-opacity:1.000; stroke:none;" />
 <path d="  M 12,28  L 13,28  L 13,27  L 12,27  Z  " style="fill:rgb(215, 127, 112); fill-opacity:1.000; stroke:none;" />
 <path d="  M 12,33  L 12,34  L 13,34  L 13,33  Z  " style="fill:rgb(215, 127, 112); fill-opacity:1.000; stroke:none;" />
 <path d="  M 12,38  L 13,38  L 13,37  L 12,37  Z  " style="fill:rgb(215, 127, 112); fill-opacity:1.000; stroke:none;" />
 <path d="  M 14,9  L 14,8  L 13,8  L 13,9  Z  " style="fill:rgb(215, 127, 112); fill-opacity:1.000; stroke:none;" />
 <path d="  M 14,28  L 13,28  L 13,30  L 14,30  Z  " style="fill:rgb(215, 127, 112); fill-opacity:1.000; stroke:none;" />
 <path d="  M 14,35  L 13,35  L 13,37  L 14,37  Z  " style="fill:rgb(215, 127, 112); fill-opacity:1.000; stroke:none;" />
 <path d="  M 15,8  L 15,7  L 14,7  L 14,8  Z  " style="fill:rgb(215, 127, 112); fill-opacity:1.000; stroke:none;" />
 <path d="  M 14,14  L 15,14  L 15,13  L 14,13  Z  " style="fill:rgb(215, 127, 112); fill-opacity:1.000; stroke:none;" />
 <path d="  M 15,7  L 16,7  L 16,6  L 15,6  Z  " style="fill:rgb(215, 127, 112); fill-opacity:1.000; stroke:none;" />
 <path d="  M 17,16  L 17,15  L 15,15  L 15,16  Z  " style="fill:rgb(215, 127, 112); fill-opacity:1.000; stroke:none;" />
 <path d="  M 17,22  L 17,21  L 16,21  L 16,22  Z  " style="fill:rgb(215, 127, 112); fill-opacity:1.000; stroke:none;" />
 <path d="  M 17,27  L 17,26  L 16,26  L 16,29  L 20,29  L 20,28  L 18,28  L 18,27  Z  " style="fill:rgb(215, 127, 112); fill-opacity:1.000; stroke:none;" />
 <path d="  M 17,31  L 17,30  L 16,30  L 16,31  Z  " style="fill:rgb(215, 127, 112); fill-opacity:1.000; stroke:none;" />
 <path d="  M 19,25  L 19,24  L 17,24  L 17,25  Z  " style="fill:rgb(215, 127, 112); fill-opacity:1.000; stroke:none;" />
 <path d="  M 18,75  L 19,75  L 19,73  L 18,73  L 18,74  L 17,74  L 17,76  L 18,76  Z  " style="fill:rgb(215, 127, 112); fill-opacity:1.000; stroke:none;" />
 <path d="  M 18,17  L 18,18  L 20,18  L 20,17  Z  " style="fill:rgb(215, 127, 112); fill-opacity:1.000; stroke:none;" />
 <path d="  M 20,61  L 19,61  L 19,65  L 18,65  L 18,67  L 19,67  L 19,66  L 20,66  Z  " style="fill:rgb(215, 127, 112); fill-opacity:1.000; stroke:none;" />
 <path d="  M 19,14  L 20,14  L 20,13  L 19,13  Z  " style="fill:rgb(215, 127, 112); fill-opacity:1.000; stroke:none;" />
 <path d="  M 19,15  L 19,16  L 20,16  L 20,15  Z  " style="fill:rgb(215, 127, 112); fill-opacity:1.000; stroke:none;" />
 <path d="  M 20,71  L 19,71  L 19,73  L 20,73  Z  " style="fill:rgb(215, 127, 112); fill-opacity:1.000; stroke:none;" />
 <path d="  M 21,24  L 21,23  L 20,23  L 20,24  Z  " style="fill:rgb(215, 127, 112); fill-opacity:1.000; stroke:none;" />
 <path d="  M 23,16  L 24,16  L 24,15  L 22,15  L 22,16  L 21,16  L 21,17  L 22,17  L 22,18  L 23,18  Z  " style="fill:rgb(215, 127, 112); fill-opacity:1.000; stroke:none;" />
 <path d="  M 24,19  L 24,18  L 23,18  L 23,19  Z  " style="fill:rgb(215, 127, 112); fill-opacity:1.000; stroke:none;" />
 <path d="  M 25,15  L 25,14  L 24,14  L 24,15  Z  " style="fill:rgb(215, 127, 112); fill-opacity:1.000; stroke:none;" />
 <path d="  M 26,12  L 26,11  L 25,11  L 25,12  Z  " style="fill:rgb(215, 127, 112); fill-opacity:1.000; stroke:none;" />
 <path d="  M 27,19  L 26,19  L 26,20  L 27,20  Z  " style="fill:rgb(215, 127, 112); fill-opacity:1.000; stroke:none;" />
 <path d="  M 28,66  L 28,65  L 30,65  L 30,64  L 26,64  L 26,66  Z  " style="fill:rgb(215, 127, 112); fill-opacity:1.000; stroke:none;" />
 <path d="  M 31,72  L 30,72  L 30,73  L 28,73  L 28,78  L 32,78  L 32,63  L 31,63  Z  " style="fill:rgb(215, 127, 112); fill-opacity:1.000; stroke:none;" />
 <path d="  M 29,17  L 29,18  L 30,18  L 30,20  L 31,20  L 31,18  L 32,18  L 32,17  Z  " style="fill:rgb(215, 127, 112); fill-opacity:1.000; stroke:none;" />
 <path d="  M 29,25  L 29,26  L 30,26  L 30,25  Z  " style="fill:rgb(215, 127, 112); fill-opacity:1.000; stroke:none;" />
 <path d="  M 31,15  L 30,15  L 30,16  L 31,16  Z  " style="fill:rgb(215, 127, 112); fill-opacity:1.000; stroke:none;" />
 <path d="  M 31,24  L 30,24  L 30,25  L 31,25  Z  " style="fill:rgb(215, 127, 112); fill-opacity:1.000; stroke:none;" />
 <path d="  M 31,32  L 31,33  L 32,33  L 32,32  Z  " style="fill:rgb(215, 127, 112); fill-opacity:1.000; stroke:none;" />
 <path d="  M 32,7  L 32,8  L 33,8  L 33,9  L 34,9  L 34,10  L 35,10  L 35,11  L 38,11  L 38,10  L 37,10  L 37,9  L 36,9  L 36,8  L 34,8  L 34,7  Z  " style="fill:rgb(215, 127, 112); fill-opacity:1.000; stroke:none;" />
 <path d="  M 33,15  L 32,15  L 32,16  L 33,16  Z  " style="fill:rgb(215, 127, 112); fill-opacity:1.000; stroke:none;" />
 <path d="  M 34,28  L 35,28  L 35,24  L 34,24  L 34,25  L 33,25  L 33,27  L 32,27  L 32,28  L 33,28  L 33,29  L 32,29  L 32,32  L 33,32  L 33,31  L 34,31  Z  " style="fill:rgb(215, 127, 112); fill-opacity:1.000; stroke:none;" />
 <path d="  M 34,23  L 34,22  L 33,22  L 33,23  Z  " style="fill:rgb(215, 127, 112); fill-opacity:1.000; stroke:none;" />
 <path d="  M 34,13  L 35,13  L 35,12  L 34,12  Z  " style="fill:rgb(215, 127, 112); fill-opacity:1.000; stroke:none;" />
 <path d="  M 34,15  L 34,20  L 35,20  L 35,15  Z  " style="fill:rgb(215, 127, 112); fill-opacity:1.000; stroke:none;" />
 <path d="  M 36,14  L 36,13  L 35,13  L 35,14  Z  " style="fill:rgb(215, 127, 112); fill-opacity:1.000; stroke:none;" />
 <path d="  M 37,55  L 38,55  L 38,54  L 35,54  L 35,56  L 37,56  Z  " style="fill:rgb(215, 127, 112); fill-opacity:1.000; stroke:none;" />
 <path d="  M 38,51  L 37,51  L 37,52  L 38,52  Z  " style="fill:rgb(215, 127, 112); fill-opacity:1.000; stroke:none;" />
 <path d="  M 40,54  L 40,51  L 39,51  L 39,53  L 38,53  L 38,54  Z  " style="fill:rgb(215, 127, 112); fill-opacity:1.000; stroke:none;" />
 <path d="  M 8,42  L 8,41  L 6,41  L 6,42  Z  " style="fill:rgb(151, 145, 150); fill-opacity:1.000; stroke:none;" />
 <path d="  M 15,78  L 15,79  L 16,79  L 16,77  L 11,77  L 11,78  Z  " style="fill:rgb(151, 145, 150); fill-opacity:1.000; stroke:none;" />
 <path d="  M 15,80  L 15,79  L 14,79  L 14,80  Z  " style="fill:rgb(151, 145, 150); fill-opacity:1.000; stroke:none;" />
 <path d="  M 33,79  L 33,78  L 28,78  L 28,79  Z  " style="fill:rgb(151, 145, 150); fill-opacity:1.000; stroke:none;" />
 <path d="  M 28,81  L 33,81  L 33,80  L 28,80  Z  " style="fill:rgb(151, 145, 150); fill-opacity:1.000; stroke:none;" />
 <path d="  M 6,42  L 6,43  L 8,43  L 8,42  Z  " style="fill:rgb(210, 198, 212); fill-opacity:1.000; stroke:none;" />
 <path d="  M 9,46  L 9,47  L 10,47  L 10,46  Z  " style="fill:rgb(210, 198, 212); fill-opacity:1.000; stroke:none;" />
 <path d="  M 11,40  L 10,40  L 10,41  L 11,41  Z  " style="fill:rgb(210, 198, 212); fill-opacity:1.000; stroke:none;" />
 <path d="  M 10,78  L 10,79  L 11,79  L 11,80  L 13,80  L 13,79  L 15,79  L 15,78  Z  " style="fill:rgb(210, 198, 212); fill-opacity:1.000; stroke:none;" />
 <path d="  M 10,81  L 10,93  L 11,93  L 11,92  L 15,92  L 15,93  L 16,93  L 16,94  L 17,94  L 17,80  L 14,80  L 14,81  Z  " style="fill:rgb(210, 198, 212); fill-opacity:1.000; stroke:none;" />
 <path d="  M 14,98  L 14,97  L 13,97  L 13,98  Z  " style="fill:rgb(210, 198, 212); fill-opacity:1.000; stroke:none;" />
 <path d="  M 33,82  L 27,82  L 27,85  L 26,85  L 26,94  L 25,94  L 25,98  L 31,98  L 31,97  L 32,97  L 32,94  L 33,94  Z  " style="fill:rgb(210, 198, 212); fill-opacity:1.000; stroke:none;" />
 <path d="  M 28,79  L 28,80  L 31,80  L 31,79  Z  " style="fill:rgb(210, 198, 212); fill-opacity:1.000; stroke:none;" />
 <path d="  M 30,59  L 31,59  L 31,58  L 30,58  Z  " style="fill:rgb(210, 198, 212); fill-opacity:1.000; stroke:none;" />
 <path d="  M 30,61  L 31,61  L 31,60  L 30,60  Z  " style="fill:rgb(210, 198, 212); fill-opacity:1.000; stroke:none;" />
 <path d="  M 7,45  L 7,49  L 8,49  L 8,45  Z  " style="fill:rgb(162, 108, 97); fill-opacity:1.000; stroke:none;" />
 <path d="  M 9,7  L 9,6  L 8,6  L 8,7  Z  " style="fill:rgb(162, 108, 97); fill-opacity:1.000; stroke:none;" />
 <path d="  M 9,7  L 9,8  L 10,8  L 10,7  Z  " style="fill:rgb(162, 108, 97); fill-opacity:1.000; stroke:none;" />
 <path d="  M 10,9  L 11,9  L 11,8  L 10,8  Z  " style="fill:rgb(162, 108, 97); fill-opacity:1.000; stroke:none;" />
 <path d="  M 10,14  L 11,14  L 11,13  L 10,13  Z  " style="fill:rgb(162, 108, 97); fill-opacity:1.000; stroke:none;" />
 <path d="  M 12,9  L 11,9  L 11,13  L 12,13  Z  " style="fill:rgb(162, 108, 97); fill-opacity:1.000; stroke:none;" />
 <path d="  M 11,16  L 12,16  L 12,14  L 11,14  Z  " style="fill:rgb(162, 108, 97); fill-opacity:1.000; stroke:none;" />
 <path d="  M 13,28  L 12,28  L 12,29  L 13,29  Z  " style="fill:rgb(162, 108, 97); fill-opacity:1.000; stroke:none;" />
 <path d="  M 17,26  L 17,23  L 18,23  L 18,22  L 16,22  L 16,26  Z  " style="fill:rgb(162, 108, 97); fill-opacity:1.000; stroke:none;" />
 <path d="  M 17,18  L 18,18  L 18,17  L 17,17  Z  " style="fill:rgb(162, 108, 97); fill-opacity:1.000; stroke:none;" />
 <path d="  M 18,20  L 18,19  L 17,19  L 17,20  Z  " style="fill:rgb(162, 108, 97); fill-opacity:1.000; stroke:none;" />
 <path d="  M 18,27  L 18,26  L 17,26  L 17,27  Z  " style="fill:rgb(162, 108, 97); fill-opacity:1.000; stroke:none;" />
 <path d="  M 19,17  L 19,15  L 18,15  L 18,17  Z  " style="fill:rgb(162, 108, 97); fill-opacity:1.000; stroke:none;" />
 <path d="  M 19,28  L 19,27  L 18,27  L 18,28  Z  " style="fill:rgb(162, 108, 97); fill-opacity:1.000; stroke:none;" />
 <path d="  M 19,72  L 18,72  L 18,73  L 19,73  Z  " style="fill:rgb(162, 108, 97); fill-opacity:1.000; stroke:none;" />
 <path d="  M 19,15  L 20,15  L 20,14  L 19,14  Z  " style="fill:rgb(162, 108, 97); fill-opacity:1.000; stroke:none;" />
 <path d="  M 21,66  L 20,66  L 20,70  L 19,70  L 19,71  L 21,71  Z  " style="fill:rgb(162, 108, 97); fill-opacity:1.000; stroke:none;" />
 <path d="  M 21,29  L 21,28  L 20,28  L 20,29  Z  " style="fill:rgb(162, 108, 97); fill-opacity:1.000; stroke:none;" />
 <path d="  M 23,14  L 23,15  L 24,15  L 24,14  Z  " style="fill:rgb(162, 108, 97); fill-opacity:1.000; stroke:none;" />
 <path d="  M 24,13  L 24,14  L 25,14  L 25,13  Z  " style="fill:rgb(162, 108, 97); fill-opacity:1.000; stroke:none;" />
 <path d="  M 25,12  L 25,13  L 26,13  L 26,12  Z  " style="fill:rgb(162, 108, 97); fill-opacity:1.000; stroke:none;" />
 <path d="  M 27,19  L 28,19  L 28,18  L 27,18  Z  " style="fill:rgb(162, 108, 97); fill-opacity:1.000; stroke:none;" />
 <path d="  M 28,18  L 29,18  L 29,16  L 28,16  Z  " style="fill:rgb(162, 108, 97); fill-opacity:1.000; stroke:none;" />
 <path d="  M 29,16  L 30,16  L 30,14  L 29,14  Z  " style="fill:rgb(162, 108, 97); fill-opacity:1.000; stroke:none;" />
 <path d="  M 31,24  L 31,23  L 30,23  L 30,24  Z  " style="fill:rgb(162, 108, 97); fill-opacity:1.000; stroke:none;" />
 <path d="  M 31,18  L 31,23  L 32,23  L 32,18  Z  " style="fill:rgb(162, 108, 97); fill-opacity:1.000; stroke:none;" />
 <path d="  M 33,25  L 34,25  L 34,24  L 35,24  L 35,22  L 34,22  L 34,23  L 33,23  Z  " style="fill:rgb(162, 108, 97); fill-opacity:1.000; stroke:none;" />
 <path d="  M 34,13  L 34,14  L 35,14  L 35,13  Z  " style="fill:rgb(162, 108, 97); fill-opacity:1.000; stroke:none;" />
 <path d="  M 35,13  L 36,13  L 36,11  L 35,11  Z  " style="fill:rgb(162, 108, 97); fill-opacity:1.000; stroke:none;" />
 <path d="  M 37,15  L 36,15  L 36,19  L 37,19  Z  " style="fill:rgb(162, 108, 97); fill-opacity:1.000; stroke:none;" />
 <path d="  M 38,56  L 38,55  L 37,55  L 37,56  Z  " style="fill:rgb(162, 108, 97); fill-opacity:1.000; stroke:none;" />
 <path d="  M 39,13  L 38,13  L 38,14  L 39,14  Z  " style="fill:rgb(162, 108, 97); fill-opacity:1.000; stroke:none;" />
 <path d="  M 39,55  L 39,54  L 38,54  L 38,55  Z  " style="fill:rgb(162, 108, 97); fill-opacity:1.000; stroke:none;" />
 <path d="  M 40,12  L 39,12  L 39,13  L 40,13  Z  " style="fill:rgb(162, 108, 97); fill-opacity:1.000; stroke:none;" />
 <path d="  M 40,12  L 41,12  L 41,11  L 40,11  Z  " style="fill:rgb(162, 108, 97); fill-opacity:1.000; stroke:none;" />
 <path d="  M 41,10  L 41,11  L 42,11  L 42,10  Z  " style="fill:rgb(162, 108, 97); fill-opacity:1.000; stroke:none;" />
 <path d="  M 8,50  L 8,49  L 7,49  L 7,50  Z  " style="fill:rgb(17, 53, 119); fill-opacity:1.000; stroke:none;" />
 <path d="  M 11,49  L 11,48  L 10,48  L 10,47  L 9,47  L 9,49  Z  " style="fill:rgb(17, 53, 119); fill-opacity:1.000; stroke:none;" />
 <path d="  M 9,82  L 9,84  L 10,84  L 10,82  Z  " style="fill:rgb(17, 53, 119); fill-opacity:1.000; stroke:none;" />
 <path d="  M 11,40  L 11,39  L 10,39  L 10,40  Z  " style="fill:rgb(17, 53, 119); fill-opacity:1.000; stroke:none;" />
 <path d="  M 11,42  L 11,41  L 10,41  L 10,42  Z  " style="fill:rgb(17, 53, 119); fill-opacity:1.000; stroke:none;" />
 <path d="  M 14,58  L 15,58  L 15,57  L 14,57  Z  " style="fill:rgb(17, 53, 119); fill-opacity:1.000; stroke:none;" />
 <path d="  M 14,98  L 15,98  L 15,97  L 14,97  Z  " style="fill:rgb(17, 53, 119); fill-opacity:1.000; stroke:none;" />
 <path d="  M 17,97  L 17,96  L 18,96  L 18,93  L 17,93  L 17,95  L 16,95  L 16,96  L 15,96  L 15,97  Z  " style="fill:rgb(17, 53, 119); fill-opacity:1.000; stroke:none;" />
 <path d="  M 18,73  L 16,73  L 16,77  L 17,77  L 17,74  L 18,74  Z  " style="fill:rgb(17, 53, 119); fill-opacity:1.000; stroke:none;" />
 <path d="  M 20,24  L 20,23  L 18,23  L 18,24  Z  " style="fill:rgb(17, 53, 119); fill-opacity:1.000; stroke:none;" />
 <path d="  M 19,20  L 21,20  L 21,19  L 19,19  Z  " style="fill:rgb(17, 53, 119); fill-opacity:1.000; stroke:none;" />
 <path d="  M 19,68  L 20,68  L 20,67  L 19,67  Z  " style="fill:rgb(17, 53, 119); fill-opacity:1.000; stroke:none;" />
 <path d="  M 22,63  L 23,63  L 23,59  L 22,59  Z  " style="fill:rgb(17, 53, 119); fill-opacity:1.000; stroke:none;" />
 <path d="  M 32,57  L 24,57  L 24,64  L 30,64  L 30,63  L 31,63  L 31,62  L 32,62  Z  M 31,60  L 31,61  L 30,61  L 30,60  Z  M 30,58  L 31,58  L 31,59  L 30,59  Z  " style="fill:rgb(17, 53, 119); fill-opacity:1.000; stroke:none;" />
 <path d="  M 26,98  L 26,99  L 31,99  L 31,98  Z  " style="fill:rgb(17, 53, 119); fill-opacity:1.000; stroke:none;" />
 <path d="  M 27,22  L 28,22  L 28,21  L 27,21  Z  " style="fill:rgb(17, 53, 119); fill-opacity:1.000; stroke:none;" />
 <path d="  M 32,97  L 31,97  L 31,98  L 32,98  Z  " style="fill:rgb(17, 53, 119); fill-opacity:1.000; stroke:none;" />
 <path d="  M 33,94  L 32,94  L 32,96  L 33,96  Z  " style="fill:rgb(17, 53, 119); fill-opacity:1.000; stroke:none;" />
 <path d="  M 9,41  L 8,41  L 8,49  L 9,49  Z  " style="fill:rgb(72, 37, 53); fill-opacity:1.000; stroke:none;" />
 <path d="  M 12,39  L 12,38  L 10,38  L 10,32  L 9,32  L 9,41  L 10,41  L 10,39  Z  " style="fill:rgb(72, 37, 53); fill-opacity:1.000; stroke:none;" />
 <path d="  M 10,31  L 10,32  L 11,32  L 11,31  Z  " style="fill:rgb(72, 37, 53); fill-opacity:1.000; stroke:none;" />
 <path d="  M 17,20  L 17,22  L 18,22  L 18,20  Z  " style="fill:rgb(72, 37, 53); fill-opacity:1.000; stroke:none;" />
 <path d="  M 18,20  L 19,20  L 19,19  L 18,19  Z  " style="fill:rgb(72, 37, 53); fill-opacity:1.000; stroke:none;" />
 <path d="  M 19,18  L 19,19  L 22,19  L 22,18  Z  " style="fill:rgb(72, 37, 53); fill-opacity:1.000; stroke:none;" />
 <path d="  M 24,57  L 23,57  L 23,64  L 24,64  Z  " style="fill:rgb(72, 37, 53); fill-opacity:1.000; stroke:none;" />
 <path d="  M 31,21  L 31,20  L 28,20  L 28,21  Z  " style="fill:rgb(72, 37, 53); fill-opacity:1.000; stroke:none;" />
 <path d="  M 30,63  L 30,64  L 31,64  L 31,63  Z  " style="fill:rgb(72, 37, 53); fill-opacity:1.000; stroke:none;" />
 <path d="  M 31,63  L 32,63  L 32,62  L 31,62  Z  " style="fill:rgb(72, 37, 53); fill-opacity:1.000; stroke:none;" />
 <path d="  M 38,55  L 38,56  L 39,56  L 39,55  Z  " style="fill:rgb(72, 37, 53); fill-opacity:1.000; stroke:none;" />
 <path d="  M 9,41  L 9,43  L 11,43  L 11,42  L 10,42  L 10,41  Z  " style="fill:rgb(55, 111, 195); fill-opacity:1.000; stroke:none;" />
 <path d="  M 9,44  L 9,46  L 11,46  L 11,44  Z  " style="fill:rgb(55, 111, 195); fill-opacity:1.000; stroke:none;" />
 <path d="  M 11,48  L 11,47  L 10,47  L 10,48  Z  " style="fill:rgb(55, 111, 195); fill-opacity:1.000; stroke:none;" />
 <path d="  M 10,98  L 10,99  L 14,99  L 14,98  Z  " style="fill:rgb(55, 111, 195); fill-opacity:1.000; stroke:none;" />
 <path d="  M 22,59  L 23,59  L 23,57  L 15,57  L 15,58  L 14,58  L 14,60  L 19,60  L 19,61  L 21,61  L 21,62  L 22,62  Z  " style="fill:rgb(55, 111, 195); fill-opacity:1.000; stroke:none;" />
 <path d="  M 9,43  L 9,44  L 11,44  L 11,43  Z  " style="fill:rgb(252, 255, 255); fill-opacity:1.000; stroke:none;" />
 <path d="  M 11,47  L 11,46  L 10,46  L 10,47  Z  " style="fill:rgb(252, 255, 255); fill-opacity:1.000; stroke:none;" />
 <path d="  M 14,81  L 14,80  L 10,80  L 10,81  Z  " style="fill:rgb(252, 255, 255); fill-opacity:1.000; stroke:none;" />
 <path d="  M 15,97  L 15,96  L 16,96  L 16,93  L 15,93  L 15,92  L 11,92  L 11,93  L 10,93  L 10,98  L 13,98  L 13,97  Z  " style="fill:rgb(252, 255, 255); fill-opacity:1.000; stroke:none;" />
 <path d="  M 38,30  L 34,30  L 34,31  L 33,31  L 33,32  L 32,32  L 32,33  L 30,33  L 30,32  L 31,32  L 31,30  L 17,30  L 17,31  L 18,31  L 18,33  L 17,33  L 17,32  L 15,32  L 15,31  L 14,31  L 14,30  L 12,30  L 12,32  L 13,32  L 13,34  L 14,34  L 14,37  L 13,37  L 13,38  L 12,38  L 12,56  L 35,56  L 35,52  L 36,52  L 36,51  L 37,51  L 37,50  L 38,50  Z  M 18,46  L 18,41  L 20,41  L 20,39  L 22,39  L 22,37  L 24,37  L 24,35  L 30,35  L 30,44  L 31,44  L 31,46  L 30,46  L 30,50  L 26,50  L 26,46  Z  " style="fill:rgb(252, 255, 255); fill-opacity:1.000; stroke:none;" />
 <path d="  M 17,10  L 16,10  L 16,9  L 14,9  L 14,11  L 17,11  Z  " style="fill:rgb(252, 255, 255); fill-opacity:1.000; stroke:none;" />
 <path d="  M 21,10  L 19,10  L 19,12  L 20,12  L 20,11  L 21,11  Z  " style="fill:rgb(252, 255, 255); fill-opacity:1.000; stroke:none;" />
 <path d="  M 26,44  L 26,39  L 24,39  L 24,41  L 22,41  L 22,43  L 20,43  L 20,44  Z  " style="fill:rgb(252, 255, 255); fill-opacity:1.000; stroke:none;" />
 <path d="  M 21,11  L 21,12  L 22,12  L 22,11  Z  " style="fill:rgb(252, 255, 255); fill-opacity:1.000; stroke:none;" />
 <path d="  M 22,20  L 21,20  L 21,24  L 22,24  Z  " style="fill:rgb(252, 255, 255); fill-opacity:1.000; stroke:none;" />
 <path d="  M 25,12  L 25,11  L 24,11  L 24,12  Z  " style="fill:rgb(252, 255, 255); fill-opacity:1.000; stroke:none;" />
 <path d="  M 28,11  L 27,11  L 27,13  L 28,13  Z  " style="fill:rgb(252, 255, 255); fill-opacity:1.000; stroke:none;" />
 <path d="  M 33,82  L 33,81  L 27,81  L 27,82  Z  " style="fill:rgb(252, 255, 255); fill-opacity:1.000; stroke:none;" />
 <path d="  M 30,22  L 29,22  L 29,25  L 30,25  Z  " style="fill:rgb(252, 255, 255); fill-opacity:1.000; stroke:none;" />
 <path d="  M 10,32  L 10,33  L 12,33  L 12,32  Z  " style="fill:rgb(254, 234, 220); fill-opacity:1.000; stroke:none;" />
 <path d="  M 10,37  L 12,37  L 12,34  L 11,34  L 11,35  L 10,35  Z  " style="fill:rgb(254, 234, 220); fill-opacity:1.000; stroke:none;" />
 <path d="  M 16,70  L 17,70  L 17,68  L 18,68  L 18,65  L 19,65  L 19,61  L 18,61  L 18,60  L 14,60  L 14,62  L 13,62  L 13,64  L 12,64  L 12,70  L 11,70  L 11,73  L 12,73  L 12,72  L 14,72  L 14,73  L 15,73  L 15,77  L 16,77  Z  " style="fill:rgb(254, 234, 220); fill-opacity:1.000; stroke:none;" />
 <path d="  M 13,10  L 14,10  L 14,9  L 13,9  Z  " style="fill:rgb(254, 234, 220); fill-opacity:1.000; stroke:none;" />
 <path d="  M 14,9  L 15,9  L 15,8  L 14,8  Z  " style="fill:rgb(254, 234, 220); fill-opacity:1.000; stroke:none;" />
 <path d="  M 16,10  L 17,10  L 17,9  L 16,9  Z  " style="fill:rgb(254, 234, 220); fill-opacity:1.000; stroke:none;" />
 <path d="  M 17,11  L 16,11  L 16,12  L 17,12  Z  " style="fill:rgb(254, 234, 220); fill-opacity:1.000; stroke:none;" />
 <path d="  M 19,12  L 19,11  L 18,11  L 18,12  Z  " style="fill:rgb(254, 234, 220); fill-opacity:1.000; stroke:none;" />
 <path d="  M 18,27  L 20,27  L 20,28  L 21,28  L 21,29  L 26,29  L 26,28  L 29,28  L 29,27  L 28,27  L 28,25  L 27,25  L 27,20  L 26,20  L 26,13  L 25,13  L 25,15  L 24,15  L 24,19  L 23,19  L 23,20  L 22,20  L 22,24  L 20,24  L 20,25  L 19,25  L 19,26  L 18,26  Z  M 22,28  L 22,27  L 25,27  L 25,28  Z  M 21,27  L 21,26  L 22,26  L 22,27  Z  M 26,20  L 26,21  L 25,21  L 25,20  Z  " style="fill:rgb(254, 234, 220); fill-opacity:1.000; stroke:none;" />
 <path d="  M 20,17  L 20,18  L 22,18  L 22,17  Z  " style="fill:rgb(254, 234, 220); fill-opacity:1.000; stroke:none;" />
 <path d="  M 22,11  L 22,10  L 21,10  L 21,11  Z  " style="fill:rgb(254, 234, 220); fill-opacity:1.000; stroke:none;" />
 <path d="  M 21,12  L 21,13  L 22,13  L 22,12  Z  " style="fill:rgb(254, 234, 220); fill-opacity:1.000; stroke:none;" />
 <path d="  M 21,20  L 22,20  L 22,19  L 21,19  Z  " style="fill:rgb(254, 234, 220); fill-opacity:1.000; stroke:none;" />
 <path d="  M 23,13  L 24,13  L 24,12  L 23,12  Z  " style="fill:rgb(254, 234, 220); fill-opacity:1.000; stroke:none;" />
 <path d="  M 29,11  L 28,11  L 28,13  L 29,13  Z  " style="fill:rgb(254, 234, 220); fill-opacity:1.000; stroke:none;" />
 <path d="  M 29,21  L 29,22  L 30,22  L 30,21  Z  " style="fill:rgb(254, 234, 220); fill-opacity:1.000; stroke:none;" />
 <path d="  M 38,52  L 36,52  L 36,54  L 37,54  L 37,53  L 38,53  Z  " style="fill:rgb(254, 234, 220); fill-opacity:1.000; stroke:none;" />
 <path d="  M 39,50  L 38,50  L 38,52  L 39,52  Z  " style="fill:rgb(254, 234, 220); fill-opacity:1.000; stroke:none;" />
 <path d="  M 10,79  L 10,80  L 11,80  L 11,79  Z  " style="fill:rgb(185, 178, 184); fill-opacity:1.000; stroke:none;" />
 <path d="  M 13,79  L 13,80  L 14,80  L 14,79  Z  " style="fill:rgb(185, 178, 184); fill-opacity:1.000; stroke:none;" />
 <path d="  M 16,79  L 15,79  L 15,80  L 16,80  Z  " style="fill:rgb(185, 178, 184); fill-opacity:1.000; stroke:none;" />
 <path d="  M 17,94  L 16,94  L 16,95  L 17,95  Z  " style="fill:rgb(185, 178, 184); fill-opacity:1.000; stroke:none;" />
 <path d="  M 18,88  L 17,88  L 17,93  L 18,93  Z  " style="fill:rgb(185, 178, 184); fill-opacity:1.000; stroke:none;" />
 <path d="  M 27,81  L 28,81  L 28,78  L 27,78  Z  " style="fill:rgb(185, 178, 184); fill-opacity:1.000; stroke:none;" />
 <path d="  M 31,80  L 33,80  L 33,79  L 31,79  Z  " style="fill:rgb(185, 178, 184); fill-opacity:1.000; stroke:none;" />
 <path d="  M 17,18  L 17,19  L 19,19  L 19,18  Z  " style="fill:rgb(128, 80, 78); fill-opacity:1.000; stroke:none;" />
 <path d="  M 20,14  L 20,15  L 23,15  L 23,14  Z  " style="fill:rgb(128, 80, 78); fill-opacity:1.000; stroke:none;" />
 <path d="  M 21,67  L 22,67  L 22,62  L 21,62  L 21,61  L 20,61  L 20,63  L 21,63  Z  " style="fill:rgb(128, 80, 78); fill-opacity:1.000; stroke:none;" />
 <path d="  M 22,19  L 23,19  L 23,18  L 22,18  Z  " style="fill:rgb(128, 80, 78); fill-opacity:1.000; stroke:none;" />
 <path d="  M 28,20  L 27,20  L 27,21  L 28,21  Z  " style="fill:rgb(128, 80, 78); fill-opacity:1.000; stroke:none;" />
 <path d="  M 27,29  L 32,29  L 32,27  L 33,27  L 33,16  L 32,16  L 32,23  L 31,23  L 31,26  L 30,26  L 30,27  L 29,27  L 29,28  L 27,28  Z  " style="fill:rgb(128, 80, 78); fill-opacity:1.000; stroke:none;" />
 <path d="  M 31,17  L 31,16  L 29,16  L 29,17  Z  " style="fill:rgb(128, 80, 78); fill-opacity:1.000; stroke:none;" />
 <path d="  M 30,23  L 31,23  L 31,21  L 30,21  Z  " style="fill:rgb(128, 80, 78); fill-opacity:1.000; stroke:none;" />
 <path d="  M 38,11  L 36,11  L 36,14  L 35,14  L 35,20  L 34,20  L 34,22  L 35,22  L 35,21  L 36,21  L 36,20  L 37,20  L 37,19  L 36,19  L 36,15  L 38,15  L 38,13  L 39,13  L 39,12  L 40,12  L 40,11  L 41,11  L 41,10  L 43,10  L 43,9  L 40,9  L 40,10  L 38,10  Z  " style="fill:rgb(128, 80, 78); fill-opacity:1.000; stroke:none;" />
 <path d="  M 34,28  L 34,29  L 35,29  L 35,28  Z  " style="fill:rgb(128, 80, 78); fill-opacity:1.000; stroke:none;" />
 <path d="  M 18,23  L 21,23  L 21,20  L 18,20  Z  " style="fill:rgb(70, 127, 190); fill-opacity:1.000; stroke:none;" />
 <path d="  M 29,21  L 28,21  L 28,22  L 27,22  L 27,25  L 29,25  Z  " style="fill:rgb(70, 127, 190); fill-opacity:1.000; stroke:none;" />
</svg>
