<?xml version="1.0" encoding="UTF-8" standalone="no"?>
<!DOCTYPE svg PUBLIC "-//W3C//DTD SVG 1.1//EN" 
  "http://www.w3.org/Graphics/SVG/1.1/DTD/svg11.dtd">
<svg width="45" height="100"
     xmlns="http://www.w3.org/2000/svg" version="1.1">
 <path d="  M 0,0  L 0,100  L 29,100  L 29,99  L 28,99  L 28,97  L 27,97  L 27,96  L 25,96  L 25,95  L 24,95  L 24,94  L 23,94  L 23,79  L 22,79  L 22,93  L 21,93  L 21,98  L 20,98  L 20,99  L 15,99  L 15,98  L 13,98  L 13,97  L 12,97  L 12,95  L 11,95  L 11,93  L 10,93  L 10,92  L 7,92  L 7,91  L 6,91  L 6,88  L 7,88  L 7,84  L 8,84  L 8,82  L 9,82  L 9,78  L 7,78  L 7,62  L 6,62  L 6,61  L 5,61  L 5,59  L 4,59  L 4,56  L 5,56  L 5,54  L 6,54  L 6,53  L 7,53  L 7,51  L 9,51  L 9,48  L 8,48  L 8,37  L 9,37  L 9,31  L 10,31  L 10,25  L 9,25  L 9,22  L 8,22  L 8,20  L 7,20  L 7,19  L 6,19  L 6,14  L 5,14  L 5,13  L 4,13  L 4,12  L 3,12  L 3,10  L 4,10  L 4,9  L 6,9  L 6,8  L 8,8  L 8,7  L 10,7  L 10,6  L 11,6  L 11,5  L 12,5  L 12,4  L 14,4  L 14,3  L 18,3  L 18,2  L 41,2  L 41,4  L 40,4  L 40,6  L 39,6  L 39,8  L 38,8  L 38,9  L 37,9  L 37,11  L 36,11  L 36,12  L 37,12  L 37,13  L 38,13  L 38,15  L 39,15  L 39,17  L 40,17  L 40,19  L 41,19  L 41,21  L 42,21  L 42,24  L 43,24  L 43,35  L 44,35  L 44,42  L 43,42  L 43,43  L 42,43  L 42,42  L 41,42  L 41,45  L 40,45  L 40,47  L 39,47  L 39,49  L 38,49  L 38,50  L 37,50  L 37,49  L 36,49  L 36,54  L 37,54  L 37,61  L 36,61  L 36,62  L 35,62  L 35,63  L 34,63  L 34,72  L 35,72  L 35,73  L 36,73  L 36,74  L 37,74  L 37,75  L 38,75  L 38,76  L 39,76  L 39,77  L 40,77  L 40,78  L 41,78  L 41,79  L 42,79  L 42,81  L 41,81  L 41,82  L 39,82  L 39,81  L 38,81  L 38,80  L 37,80  L 37,79  L 36,79  L 36,78  L 35,78  L 35,77  L 34,77  L 34,79  L 35,79  L 35,81  L 36,81  L 36,85  L 37,85  L 37,88  L 38,88  L 38,93  L 37,93  L 37,97  L 36,97  L 36,98  L 35,98  L 35,99  L 33,99  L 33,100  L 45,100  L 45,0  Z  " style="fill:rgb(255, 255, 255); fill-opacity:0.000; stroke:none;" />
 <path d="  M 15,26  L 14,26  L 14,33  L 15,33  L 15,32  L 16,32  L 16,31  L 15,31  Z  " style="fill:rgb(255, 255, 255); fill-opacity:0.000; stroke:none;" />
 <path d="  M 28,45  L 29,45  L 29,47  L 30,47  L 30,48  L 31,48  L 31,46  L 30,46  L 30,43  L 29,43  L 29,40  L 28,40  Z  " style="fill:rgb(255, 255, 255); fill-opacity:0.000; stroke:none;" />
 <path d="  M 31,30  L 31,31  L 32,31  L 32,30  Z  " style="fill:rgb(255, 255, 255); fill-opacity:0.000; stroke:none;" />
 <path d="  M 36,24  L 35,24  L 35,21  L 34,21  L 34,18  L 33,18  L 33,24  L 32,24  L 32,28  L 34,28  L 34,29  L 36,29  L 36,30  L 37,30  L 37,28  L 36,28  Z  " style="fill:rgb(255, 255, 255); fill-opacity:0.000; stroke:none;" />
 <path d="  M 32,31  L 32,32  L 33,32  L 33,31  Z  " style="fill:rgb(255, 255, 255); fill-opacity:0.000; stroke:none;" />
 <path d="  M 37,35  L 36,35  L 36,34  L 35,34  L 35,33  L 34,33  L 34,32  L 33,32  L 33,34  L 34,34  L 34,35  L 35,35  L 35,36  L 36,36  L 36,38  L 37,38  Z  " style="fill:rgb(255, 255, 255); fill-opacity:0.000; stroke:none;" />
 <path d="  M 34,42  L 34,43  L 35,43  L 35,42  Z  " style="fill:rgb(255, 255, 255); fill-opacity:0.000; stroke:none;" />
 <path d="  M 37,45  L 36,45  L 36,43  L 35,43  L 35,46  L 37,46  Z  " style="fill:rgb(255, 255, 255); fill-opacity:0.000; stroke:none;" />
 <path d="  M 4,10  L 3,10  L 3,12  L 4,12  Z  " style="fill:rgb(0, 0, 0); fill-opacity:1.000; stroke:none;" />
 <path d="  M 4,9  L 4,10  L 6,10  L 6,9  Z  " style="fill:rgb(0, 0, 0); fill-opacity:1.000; stroke:none;" />
 <path d="  M 4,13  L 5,13  L 5,12  L 4,12  Z  " style="fill:rgb(0, 0, 0); fill-opacity:1.000; stroke:none;" />
 <path d="  M 4,59  L 5,59  L 5,56  L 4,56  Z  " style="fill:rgb(0, 0, 0); fill-opacity:1.000; stroke:none;" />
 <path d="  M 6,14  L 6,13  L 5,13  L 5,14  Z  " style="fill:rgb(0, 0, 0); fill-opacity:1.000; stroke:none;" />
 <path d="  M 5,54  L 5,56  L 6,56  L 6,54  Z  " style="fill:rgb(0, 0, 0); fill-opacity:1.000; stroke:none;" />
 <path d="  M 5,61  L 6,61  L 6,59  L 5,59  Z  " style="fill:rgb(0, 0, 0); fill-opacity:1.000; stroke:none;" />
 <path d="  M 6,8  L 6,9  L 8,9  L 8,8  Z  " style="fill:rgb(0, 0, 0); fill-opacity:1.000; stroke:none;" />
 <path d="  M 6,19  L 7,19  L 7,14  L 6,14  Z  " style="fill:rgb(0, 0, 0); fill-opacity:1.000; stroke:none;" />
 <path d="  M 10,49  L 11,49  L 11,48  L 9,48  L 9,51  L 7,51  L 7,53  L 6,53  L 6,54  L 8,54  L 8,52  L 20,52  L 20,51  L 10,51  Z  " style="fill:rgb(0, 0, 0); fill-opacity:1.000; stroke:none;" />
 <path d="  M 7,62  L 7,61  L 6,61  L 6,62  Z  " style="fill:rgb(0, 0, 0); fill-opacity:1.000; stroke:none;" />
 <path d="  M 7,88  L 6,88  L 6,91  L 7,91  Z  " style="fill:rgb(0, 0, 0); fill-opacity:1.000; stroke:none;" />
 <path d="  M 7,20  L 8,20  L 8,19  L 7,19  Z  " style="fill:rgb(0, 0, 0); fill-opacity:1.000; stroke:none;" />
 <path d="  M 8,77  L 8,62  L 7,62  L 7,78  L 9,78  L 9,82  L 10,82  L 10,78  L 20,78  L 20,77  Z  " style="fill:rgb(0, 0, 0); fill-opacity:1.000; stroke:none;" />
 <path d="  M 7,88  L 8,88  L 8,84  L 7,84  Z  " style="fill:rgb(0, 0, 0); fill-opacity:1.000; stroke:none;" />
 <path d="  M 7,91  L 7,92  L 10,92  L 10,91  Z  " style="fill:rgb(0, 0, 0); fill-opacity:1.000; stroke:none;" />
 <path d="  M 8,7  L 8,8  L 10,8  L 10,7  Z  " style="fill:rgb(0, 0, 0); fill-opacity:1.000; stroke:none;" />
 <path d="  M 9,22  L 9,20  L 8,20  L 8,22  Z  " style="fill:rgb(0, 0, 0); fill-opacity:1.000; stroke:none;" />
 <path d="  M 9,37  L 8,37  L 8,48  L 9,48  Z  " style="fill:rgb(0, 0, 0); fill-opacity:1.000; stroke:none;" />
 <path d="  M 9,82  L 8,82  L 8,84  L 9,84  Z  " style="fill:rgb(0, 0, 0); fill-opacity:1.000; stroke:none;" />
 <path d="  M 9,25  L 10,25  L 10,22  L 9,22  Z  " style="fill:rgb(0, 0, 0); fill-opacity:1.000; stroke:none;" />
 <path d="  M 9,37  L 10,37  L 10,31  L 9,31  Z  " style="fill:rgb(0, 0, 0); fill-opacity:1.000; stroke:none;" />
 <path d="  M 10,7  L 11,7  L 11,6  L 10,6  Z  " style="fill:rgb(0, 0, 0); fill-opacity:1.000; stroke:none;" />
 <path d="  M 11,25  L 10,25  L 10,31  L 11,31  Z  " style="fill:rgb(0, 0, 0); fill-opacity:1.000; stroke:none;" />
 <path d="  M 10,93  L 11,93  L 11,92  L 10,92  Z  " style="fill:rgb(0, 0, 0); fill-opacity:1.000; stroke:none;" />
 <path d="  M 12,5  L 11,5  L 11,6  L 12,6  Z  " style="fill:rgb(0, 0, 0); fill-opacity:1.000; stroke:none;" />
 <path d="  M 11,44  L 11,46  L 12,46  L 12,44  Z  " style="fill:rgb(0, 0, 0); fill-opacity:1.000; stroke:none;" />
 <path d="  M 11,95  L 12,95  L 12,93  L 11,93  Z  " style="fill:rgb(0, 0, 0); fill-opacity:1.000; stroke:none;" />
 <path d="  M 12,4  L 12,5  L 14,5  L 14,4  Z  " style="fill:rgb(0, 0, 0); fill-opacity:1.000; stroke:none;" />
 <path d="  M 12,41  L 12,43  L 13,43  L 13,41  Z  " style="fill:rgb(0, 0, 0); fill-opacity:1.000; stroke:none;" />
 <path d="  M 12,95  L 12,97  L 13,97  L 13,95  Z  " style="fill:rgb(0, 0, 0); fill-opacity:1.000; stroke:none;" />
 <path d="  M 14,34  L 15,34  L 15,33  L 14,33  L 14,26  L 15,26  L 15,24  L 13,24  L 13,41  L 14,41  Z  " style="fill:rgb(0, 0, 0); fill-opacity:1.000; stroke:none;" />
 <path d="  M 15,97  L 13,97  L 13,98  L 15,98  Z  " style="fill:rgb(0, 0, 0); fill-opacity:1.000; stroke:none;" />
 <path d="  M 14,4  L 18,4  L 18,3  L 14,3  Z  " style="fill:rgb(0, 0, 0); fill-opacity:1.000; stroke:none;" />
 <path d="  M 14,47  L 14,48  L 15,48  L 15,47  Z  " style="fill:rgb(0, 0, 0); fill-opacity:1.000; stroke:none;" />
 <path d="  M 25,63  L 18,63  L 18,59  L 25,59  L 25,57  L 14,57  L 14,65  L 23,65  L 23,70  L 18,70  L 18,68  L 14,68  L 14,70  L 16,70  L 16,72  L 25,72  L 25,70  L 27,70  L 27,65  L 25,65  Z  " style="fill:rgb(0, 0, 0); fill-opacity:1.000; stroke:none;" />
 <path d="  M 15,31  L 16,31  L 16,26  L 15,26  Z  " style="fill:rgb(0, 0, 0); fill-opacity:1.000; stroke:none;" />
 <path d="  M 16,32  L 15,32  L 15,33  L 16,33  Z  " style="fill:rgb(0, 0, 0); fill-opacity:1.000; stroke:none;" />
 <path d="  M 16,39  L 15,39  L 15,40  L 16,40  Z  " style="fill:rgb(0, 0, 0); fill-opacity:1.000; stroke:none;" />
 <path d="  M 16,47  L 16,46  L 15,46  L 15,47  Z  " style="fill:rgb(0, 0, 0); fill-opacity:1.000; stroke:none;" />
 <path d="  M 20,98  L 15,98  L 15,99  L 20,99  Z  " style="fill:rgb(0, 0, 0); fill-opacity:1.000; stroke:none;" />
 <path d="  M 16,32  L 17,32  L 17,31  L 16,31  Z  " style="fill:rgb(0, 0, 0); fill-opacity:1.000; stroke:none;" />
 <path d="  M 17,43  L 16,43  L 16,46  L 17,46  L 17,44  L 18,44  L 18,40  L 16,40  L 16,41  L 17,41  Z  " style="fill:rgb(0, 0, 0); fill-opacity:1.000; stroke:none;" />
 <path d="  M 21,29  L 21,27  L 17,27  L 17,30  L 18,30  L 18,29  Z  " style="fill:rgb(0, 0, 0); fill-opacity:1.000; stroke:none;" />
 <path d="  M 18,2  L 18,3  L 40,3  L 40,4  L 41,4  L 41,2  Z  " style="fill:rgb(0, 0, 0); fill-opacity:1.000; stroke:none;" />
 <path d="  M 34,53  L 34,52  L 20,52  L 20,53  Z  " style="fill:rgb(0, 0, 0); fill-opacity:1.000; stroke:none;" />
 <path d="  M 22,79  L 23,79  L 23,94  L 24,94  L 24,79  L 34,79  L 34,77  L 35,77  L 35,76  L 34,76  L 34,73  L 35,73  L 35,72  L 34,72  L 34,63  L 33,63  L 33,78  L 20,78  L 20,79  L 21,79  L 21,93  L 22,93  Z  " style="fill:rgb(0, 0, 0); fill-opacity:1.000; stroke:none;" />
 <path d="  M 21,93  L 20,93  L 20,98  L 21,98  Z  " style="fill:rgb(0, 0, 0); fill-opacity:1.000; stroke:none;" />
 <path d="  M 24,94  L 24,95  L 25,95  L 25,94  Z  " style="fill:rgb(0, 0, 0); fill-opacity:1.000; stroke:none;" />
 <path d="  M 25,95  L 25,96  L 27,96  L 27,95  Z  " style="fill:rgb(0, 0, 0); fill-opacity:1.000; stroke:none;" />
 <path d="  M 29,25  L 28,25  L 28,26  L 27,26  L 27,27  L 26,27  L 26,28  L 29,28  Z  " style="fill:rgb(0, 0, 0); fill-opacity:1.000; stroke:none;" />
 <path d="  M 28,40  L 27,40  L 27,45  L 28,45  Z  " style="fill:rgb(0, 0, 0); fill-opacity:1.000; stroke:none;" />
 <path d="  M 28,96  L 27,96  L 27,97  L 28,97  Z  " style="fill:rgb(0, 0, 0); fill-opacity:1.000; stroke:none;" />
 <path d="  M 29,37  L 28,37  L 28,40  L 29,40  Z  " style="fill:rgb(0, 0, 0); fill-opacity:1.000; stroke:none;" />
 <path d="  M 28,47  L 29,47  L 29,45  L 28,45  Z  " style="fill:rgb(0, 0, 0); fill-opacity:1.000; stroke:none;" />
 <path d="  M 29,97  L 28,97  L 28,99  L 29,99  Z  " style="fill:rgb(0, 0, 0); fill-opacity:1.000; stroke:none;" />
 <path d="  M 29,43  L 30,43  L 30,40  L 29,40  Z  " style="fill:rgb(0, 0, 0); fill-opacity:1.000; stroke:none;" />
 <path d="  M 30,47  L 29,47  L 29,48  L 30,48  Z  " style="fill:rgb(0, 0, 0); fill-opacity:1.000; stroke:none;" />
 <path d="  M 33,100  L 33,99  L 29,99  L 29,100  Z  " style="fill:rgb(0, 0, 0); fill-opacity:1.000; stroke:none;" />
 <path d="  M 32,31  L 31,31  L 31,30  L 32,30  L 32,29  L 30,29  L 30,32  L 32,32  Z  " style="fill:rgb(0, 0, 0); fill-opacity:1.000; stroke:none;" />
 <path d="  M 31,43  L 30,43  L 30,46  L 31,46  Z  " style="fill:rgb(0, 0, 0); fill-opacity:1.000; stroke:none;" />
 <path d="  M 30,49  L 32,49  L 32,46  L 31,46  L 31,48  L 30,48  Z  " style="fill:rgb(0, 0, 0); fill-opacity:1.000; stroke:none;" />
 <path d="  M 31,28  L 32,28  L 32,24  L 31,24  Z  " style="fill:rgb(0, 0, 0); fill-opacity:1.000; stroke:none;" />
 <path d="  M 33,16  L 32,16  L 32,24  L 33,24  L 33,18  L 34,18  L 34,17  L 33,17  Z  " style="fill:rgb(0, 0, 0); fill-opacity:1.000; stroke:none;" />
 <path d="  M 34,28  L 32,28  L 32,29  L 34,29  Z  " style="fill:rgb(0, 0, 0); fill-opacity:1.000; stroke:none;" />
 <path d="  M 32,31  L 33,31  L 33,30  L 32,30  Z  " style="fill:rgb(0, 0, 0); fill-opacity:1.000; stroke:none;" />
 <path d="  M 33,32  L 32,32  L 32,34  L 33,34  Z  " style="fill:rgb(0, 0, 0); fill-opacity:1.000; stroke:none;" />
 <path d="  M 32,40  L 33,40  L 33,39  L 32,39  Z  " style="fill:rgb(0, 0, 0); fill-opacity:1.000; stroke:none;" />
 <path d="  M 33,32  L 34,32  L 34,31  L 33,31  Z  " style="fill:rgb(0, 0, 0); fill-opacity:1.000; stroke:none;" />
 <path d="  M 34,35  L 34,34  L 33,34  L 33,35  Z  " style="fill:rgb(0, 0, 0); fill-opacity:1.000; stroke:none;" />
 <path d="  M 34,41  L 34,40  L 33,40  L 33,43  L 34,43  L 34,42  L 35,42  L 35,41  Z  " style="fill:rgb(0, 0, 0); fill-opacity:1.000; stroke:none;" />
 <path d="  M 35,98  L 33,98  L 33,99  L 35,99  Z  " style="fill:rgb(0, 0, 0); fill-opacity:1.000; stroke:none;" />
 <path d="  M 34,21  L 35,21  L 35,18  L 34,18  Z  " style="fill:rgb(0, 0, 0); fill-opacity:1.000; stroke:none;" />
 <path d="  M 34,30  L 36,30  L 36,29  L 34,29  Z  " style="fill:rgb(0, 0, 0); fill-opacity:1.000; stroke:none;" />
 <path d="  M 34,33  L 35,33  L 35,32  L 34,32  Z  " style="fill:rgb(0, 0, 0); fill-opacity:1.000; stroke:none;" />
 <path d="  M 35,35  L 34,35  L 34,36  L 35,36  Z  " style="fill:rgb(0, 0, 0); fill-opacity:1.000; stroke:none;" />
 <path d="  M 34,43  L 34,46  L 35,46  L 35,43  Z  " style="fill:rgb(0, 0, 0); fill-opacity:1.000; stroke:none;" />
 <path d="  M 35,63  L 35,62  L 34,62  L 34,63  Z  " style="fill:rgb(0, 0, 0); fill-opacity:1.000; stroke:none;" />
 <path d="  M 34,79  L 34,81  L 35,81  L 35,79  Z  " style="fill:rgb(0, 0, 0); fill-opacity:1.000; stroke:none;" />
 <path d="  M 35,12  L 36,12  L 36,11  L 35,11  Z  " style="fill:rgb(0, 0, 0); fill-opacity:1.000; stroke:none;" />
 <path d="  M 35,21  L 35,24  L 36,24  L 36,21  Z  " style="fill:rgb(0, 0, 0); fill-opacity:1.000; stroke:none;" />
 <path d="  M 35,33  L 35,34  L 36,34  L 36,33  Z  " style="fill:rgb(0, 0, 0); fill-opacity:1.000; stroke:none;" />
 <path d="  M 35,36  L 35,38  L 36,38  L 36,36  Z  " style="fill:rgb(0, 0, 0); fill-opacity:1.000; stroke:none;" />
 <path d="  M 36,43  L 36,42  L 35,42  L 35,43  Z  " style="fill:rgb(0, 0, 0); fill-opacity:1.000; stroke:none;" />
 <path d="  M 35,47  L 36,47  L 36,49  L 37,49  L 37,46  L 35,46  Z  " style="fill:rgb(0, 0, 0); fill-opacity:1.000; stroke:none;" />
 <path d="  M 35,54  L 36,54  L 36,49  L 35,49  Z  " style="fill:rgb(0, 0, 0); fill-opacity:1.000; stroke:none;" />
 <path d="  M 35,61  L 35,62  L 36,62  L 36,61  Z  " style="fill:rgb(0, 0, 0); fill-opacity:1.000; stroke:none;" />
 <path d="  M 35,74  L 36,74  L 36,73  L 35,73  Z  " style="fill:rgb(0, 0, 0); fill-opacity:1.000; stroke:none;" />
 <path d="  M 35,78  L 36,78  L 36,77  L 35,77  Z  " style="fill:rgb(0, 0, 0); fill-opacity:1.000; stroke:none;" />
 <path d="  M 36,81  L 35,81  L 35,85  L 36,85  Z  " style="fill:rgb(0, 0, 0); fill-opacity:1.000; stroke:none;" />
 <path d="  M 35,97  L 35,98  L 36,98  L 36,97  Z  " style="fill:rgb(0, 0, 0); fill-opacity:1.000; stroke:none;" />
 <path d="  M 37,11  L 37,9  L 36,9  L 36,11  Z  " style="fill:rgb(0, 0, 0); fill-opacity:1.000; stroke:none;" />
 <path d="  M 37,13  L 37,12  L 36,12  L 36,13  Z  " style="fill:rgb(0, 0, 0); fill-opacity:1.000; stroke:none;" />
 <path d="  M 37,24  L 36,24  L 36,28  L 37,28  Z  " style="fill:rgb(0, 0, 0); fill-opacity:1.000; stroke:none;" />
 <path d="  M 37,30  L 36,30  L 36,31  L 37,31  Z  " style="fill:rgb(0, 0, 0); fill-opacity:1.000; stroke:none;" />
 <path d="  M 38,34  L 36,34  L 36,35  L 37,35  L 37,38  L 36,38  L 36,39  L 37,39  L 37,43  L 36,43  L 36,45  L 37,45  L 37,46  L 38,46  Z  " style="fill:rgb(0, 0, 0); fill-opacity:1.000; stroke:none;" />
 <path d="  M 36,61  L 37,61  L 37,54  L 36,54  Z  " style="fill:rgb(0, 0, 0); fill-opacity:1.000; stroke:none;" />
 <path d="  M 37,75  L 37,74  L 36,74  L 36,75  Z  " style="fill:rgb(0, 0, 0); fill-opacity:1.000; stroke:none;" />
 <path d="  M 37,78  L 36,78  L 36,79  L 37,79  Z  " style="fill:rgb(0, 0, 0); fill-opacity:1.000; stroke:none;" />
 <path d="  M 37,85  L 36,85  L 36,88  L 37,88  Z  " style="fill:rgb(0, 0, 0); fill-opacity:1.000; stroke:none;" />
 <path d="  M 36,94  L 36,97  L 37,97  L 37,94  Z  " style="fill:rgb(0, 0, 0); fill-opacity:1.000; stroke:none;" />
 <path d="  M 37,8  L 37,9  L 38,9  L 38,8  Z  " style="fill:rgb(0, 0, 0); fill-opacity:1.000; stroke:none;" />
 <path d="  M 37,15  L 38,15  L 38,13  L 37,13  Z  " style="fill:rgb(0, 0, 0); fill-opacity:1.000; stroke:none;" />
 <path d="  M 38,30  L 38,28  L 37,28  L 37,30  Z  " style="fill:rgb(0, 0, 0); fill-opacity:1.000; stroke:none;" />
 <path d="  M 37,49  L 37,50  L 38,50  L 38,49  Z  " style="fill:rgb(0, 0, 0); fill-opacity:1.000; stroke:none;" />
 <path d="  M 38,75  L 37,75  L 37,76  L 38,76  Z  " style="fill:rgb(0, 0, 0); fill-opacity:1.000; stroke:none;" />
 <path d="  M 37,79  L 37,80  L 38,80  L 38,79  Z  " style="fill:rgb(0, 0, 0); fill-opacity:1.000; stroke:none;" />
 <path d="  M 37,93  L 38,93  L 38,88  L 37,88  Z  " style="fill:rgb(0, 0, 0); fill-opacity:1.000; stroke:none;" />
 <path d="  M 38,6  L 38,8  L 39,8  L 39,6  Z  " style="fill:rgb(0, 0, 0); fill-opacity:1.000; stroke:none;" />
 <path d="  M 38,17  L 39,17  L 39,15  L 38,15  Z  " style="fill:rgb(0, 0, 0); fill-opacity:1.000; stroke:none;" />
 <path d="  M 39,47  L 38,47  L 38,49  L 39,49  Z  " style="fill:rgb(0, 0, 0); fill-opacity:1.000; stroke:none;" />
 <path d="  M 39,76  L 38,76  L 38,77  L 39,77  Z  " style="fill:rgb(0, 0, 0); fill-opacity:1.000; stroke:none;" />
 <path d="  M 39,80  L 38,80  L 38,81  L 39,81  Z  " style="fill:rgb(0, 0, 0); fill-opacity:1.000; stroke:none;" />
 <path d="  M 39,6  L 40,6  L 40,4  L 39,4  Z  " style="fill:rgb(0, 0, 0); fill-opacity:1.000; stroke:none;" />
 <path d="  M 40,19  L 40,17  L 39,17  L 39,19  Z  " style="fill:rgb(0, 0, 0); fill-opacity:1.000; stroke:none;" />
 <path d="  M 40,47  L 40,45  L 39,45  L 39,47  Z  " style="fill:rgb(0, 0, 0); fill-opacity:1.000; stroke:none;" />
 <path d="  M 39,78  L 40,78  L 40,77  L 39,77  Z  " style="fill:rgb(0, 0, 0); fill-opacity:1.000; stroke:none;" />
 <path d="  M 39,81  L 39,82  L 41,82  L 41,81  Z  " style="fill:rgb(0, 0, 0); fill-opacity:1.000; stroke:none;" />
 <path d="  M 41,21  L 41,19  L 40,19  L 40,21  Z  " style="fill:rgb(0, 0, 0); fill-opacity:1.000; stroke:none;" />
 <path d="  M 42,40  L 40,40  L 40,45  L 41,45  L 41,42  L 42,42  Z  " style="fill:rgb(0, 0, 0); fill-opacity:1.000; stroke:none;" />
 <path d="  M 40,78  L 40,79  L 41,79  L 41,78  Z  " style="fill:rgb(0, 0, 0); fill-opacity:1.000; stroke:none;" />
 <path d="  M 42,21  L 41,21  L 41,24  L 42,24  Z  " style="fill:rgb(0, 0, 0); fill-opacity:1.000; stroke:none;" />
 <path d="  M 41,81  L 42,81  L 42,79  L 41,79  Z  " style="fill:rgb(0, 0, 0); fill-opacity:1.000; stroke:none;" />
 <path d="  M 43,24  L 42,24  L 42,35  L 43,35  Z  " style="fill:rgb(0, 0, 0); fill-opacity:1.000; stroke:none;" />
 <path d="  M 42,43  L 43,43  L 43,42  L 42,42  Z  " style="fill:rgb(0, 0, 0); fill-opacity:1.000; stroke:none;" />
 <path d="  M 43,42  L 44,42  L 44,35  L 43,35  Z  " style="fill:rgb(0, 0, 0); fill-opacity:1.000; stroke:none;" />
 <path d="  M 4,10  L 4,11  L 6,11  L 6,10  Z  " style="fill:rgb(255, 255, 255); fill-opacity:1.000; stroke:none;" />
 <path d="  M 8,10  L 8,9  L 6,9  L 6,10  Z  " style="fill:rgb(255, 255, 255); fill-opacity:1.000; stroke:none;" />
 <path d="  M 9,8  L 8,8  L 8,9  L 9,9  Z  " style="fill:rgb(255, 255, 255); fill-opacity:1.000; stroke:none;" />
 <path d="  M 11,17  L 12,17  L 12,19  L 13,19  L 13,22  L 14,22  L 14,14  L 13,14  L 13,13  L 12,13  L 12,12  L 11,12  L 11,11  L 10,11  L 10,10  L 9,10  L 9,11  L 8,11  L 8,16  L 9,16  L 9,21  L 10,21  L 10,23  L 11,23  Z  " style="fill:rgb(255, 255, 255); fill-opacity:1.000; stroke:none;" />
 <path d="  M 25,63  L 25,65  L 27,65  L 27,70  L 25,70  L 25,72  L 16,72  L 16,70  L 14,70  L 14,68  L 18,68  L 18,70  L 23,70  L 23,65  L 14,65  L 14,57  L 25,57  L 25,59  L 18,59  L 18,63  Z  M 8,77  L 20,77  L 20,78  L 33,78  L 33,62  L 32,62  L 32,58  L 33,58  L 33,57  L 34,57  L 34,56  L 33,56  L 33,54  L 34,54  L 34,53  L 20,53  L 20,52  L 8,52  L 8,55  L 9,55  L 9,57  L 8,57  L 8,58  L 9,58  L 9,63  L 8,63  Z  " style="fill:rgb(255, 255, 255); fill-opacity:1.000; stroke:none;" />
 <path d="  M 9,47  L 10,47  L 10,39  L 9,39  Z  " style="fill:rgb(255, 255, 255); fill-opacity:1.000; stroke:none;" />
 <path d="  M 10,38  L 11,38  L 11,34  L 10,34  Z  " style="fill:rgb(255, 255, 255); fill-opacity:1.000; stroke:none;" />
 <path d="  M 12,7  L 11,7  L 11,11  L 12,11  L 12,12  L 13,12  L 13,13  L 14,13  L 14,14  L 15,14  L 15,15  L 16,15  L 16,16  L 17,16  L 17,17  L 18,17  L 18,18  L 20,18  L 20,16  L 19,16  L 19,14  L 18,14  L 18,13  L 17,13  L 17,11  L 16,11  L 16,10  L 15,10  L 15,8  L 14,8  L 14,5  L 12,5  Z  " style="fill:rgb(255, 255, 255); fill-opacity:1.000; stroke:none;" />
 <path d="  M 11,33  L 12,33  L 12,29  L 11,29  Z  " style="fill:rgb(255, 255, 255); fill-opacity:1.000; stroke:none;" />
 <path d="  M 18,4  L 16,4  L 16,5  L 15,5  L 15,8  L 16,8  L 16,10  L 17,10  L 17,11  L 18,11  L 18,12  L 20,12  L 20,13  L 22,13  L 22,14  L 24,14  L 24,15  L 26,15  L 26,14  L 27,14  L 27,13  L 28,13  L 28,12  L 27,12  L 27,10  L 28,10  L 28,11  L 29,11  L 29,6  L 28,6  L 28,5  L 23,5  L 23,4  L 39,4  L 39,3  L 18,3  Z  M 26,10  L 26,9  L 27,9  L 27,10  Z  " style="fill:rgb(255, 255, 255); fill-opacity:1.000; stroke:none;" />
 <path d="  M 18,32  L 16,32  L 16,33  L 15,33  L 15,34  L 18,34  Z  " style="fill:rgb(255, 255, 255); fill-opacity:1.000; stroke:none;" />
 <path d="  M 15,96  L 15,97  L 20,97  L 20,96  Z  " style="fill:rgb(255, 255, 255); fill-opacity:1.000; stroke:none;" />
 <path d="  M 17,21  L 16,21  L 16,23  L 17,23  Z  " style="fill:rgb(255, 255, 255); fill-opacity:1.000; stroke:none;" />
 <path d="  M 17,23  L 17,24  L 18,24  L 18,23  Z  " style="fill:rgb(255, 255, 255); fill-opacity:1.000; stroke:none;" />
 <path d="  M 21,19  L 21,18  L 20,18  L 20,19  Z  " style="fill:rgb(255, 255, 255); fill-opacity:1.000; stroke:none;" />
 <path d="  M 22,32  L 22,33  L 21,33  L 21,35  L 20,35  L 20,36  L 22,36  L 22,35  L 23,35  L 23,34  L 26,34  L 26,35  L 27,35  L 27,33  L 26,33  L 26,32  Z  " style="fill:rgb(255, 255, 255); fill-opacity:1.000; stroke:none;" />
 <path d="  M 24,18  L 24,21  L 25,21  L 25,18  Z  " style="fill:rgb(255, 255, 255); fill-opacity:1.000; stroke:none;" />
 <path d="  M 29,98  L 33,98  L 33,97  L 29,97  Z  " style="fill:rgb(255, 255, 255); fill-opacity:1.000; stroke:none;" />
 <path d="  M 35,9  L 34,9  L 34,10  L 33,10  L 33,11  L 34,11  L 34,12  L 35,12  L 35,10  L 36,10  L 36,9  L 37,9  L 37,7  L 36,7  L 36,8  L 35,8  Z  " style="fill:rgb(255, 255, 255); fill-opacity:1.000; stroke:none;" />
 <path d="  M 38,6  L 37,6  L 37,7  L 38,7  Z  " style="fill:rgb(255, 255, 255); fill-opacity:1.000; stroke:none;" />
 <path d="  M 38,26  L 37,26  L 37,28  L 38,28  Z  " style="fill:rgb(255, 255, 255); fill-opacity:1.000; stroke:none;" />
 <path d="  M 38,28  L 38,35  L 39,35  L 39,42  L 38,42  L 38,47  L 39,47  L 39,45  L 40,45  L 40,32  L 39,32  L 39,28  Z  " style="fill:rgb(255, 255, 255); fill-opacity:1.000; stroke:none;" />
 <path d="  M 42,35  L 42,25  L 41,25  L 41,35  Z  " style="fill:rgb(255, 255, 255); fill-opacity:1.000; stroke:none;" />
 <path d="  M 7,12  L 7,10  L 6,10  L 6,11  L 4,11  L 4,12  L 5,12  L 5,13  L 6,13  L 6,12  Z  " style="fill:rgb(161, 164, 186); fill-opacity:1.000; stroke:none;" />
 <path d="  M 7,19  L 8,19  L 8,20  L 9,20  L 9,17  L 8,17  L 8,12  L 7,12  Z  " style="fill:rgb(161, 164, 186); fill-opacity:1.000; stroke:none;" />
 <path d="  M 9,11  L 9,10  L 8,10  L 8,11  Z  " style="fill:rgb(161, 164, 186); fill-opacity:1.000; stroke:none;" />
 <path d="  M 9,62  L 8,62  L 8,63  L 9,63  Z  " style="fill:rgb(161, 164, 186); fill-opacity:1.000; stroke:none;" />
 <path d="  M 10,8  L 9,8  L 9,9  L 10,9  Z  " style="fill:rgb(161, 164, 186); fill-opacity:1.000; stroke:none;" />
 <path d="  M 10,38  L 10,37  L 9,37  L 9,38  Z  " style="fill:rgb(161, 164, 186); fill-opacity:1.000; stroke:none;" />
 <path d="  M 10,48  L 10,47  L 9,47  L 9,48  Z  " style="fill:rgb(161, 164, 186); fill-opacity:1.000; stroke:none;" />
 <path d="  M 10,9  L 10,11  L 11,11  L 11,9  Z  " style="fill:rgb(161, 164, 186); fill-opacity:1.000; stroke:none;" />
 <path d="  M 11,25  L 11,24  L 10,24  L 10,25  Z  " style="fill:rgb(161, 164, 186); fill-opacity:1.000; stroke:none;" />
 <path d="  M 11,31  L 10,31  L 10,33  L 11,33  Z  " style="fill:rgb(161, 164, 186); fill-opacity:1.000; stroke:none;" />
 <path d="  M 13,40  L 13,23  L 12,23  L 12,25  L 11,25  L 11,28  L 12,28  L 12,33  L 11,33  L 11,38  L 10,38  L 10,46  L 11,46  L 11,43  L 12,43  L 12,40  Z  " style="fill:rgb(161, 164, 186); fill-opacity:1.000; stroke:none;" />
 <path d="  M 12,6  L 11,6  L 11,7  L 12,7  Z  " style="fill:rgb(161, 164, 186); fill-opacity:1.000; stroke:none;" />
 <path d="  M 12,18  L 11,18  L 11,20  L 12,20  Z  " style="fill:rgb(161, 164, 186); fill-opacity:1.000; stroke:none;" />
 <path d="  M 12,21  L 13,21  L 13,20  L 12,20  Z  " style="fill:rgb(161, 164, 186); fill-opacity:1.000; stroke:none;" />
 <path d="  M 14,14  L 14,13  L 13,13  L 13,14  Z  " style="fill:rgb(161, 164, 186); fill-opacity:1.000; stroke:none;" />
 <path d="  M 13,22  L 13,23  L 14,23  L 14,22  Z  " style="fill:rgb(161, 164, 186); fill-opacity:1.000; stroke:none;" />
 <path d="  M 14,95  L 14,94  L 13,94  L 13,96  L 14,96  L 14,97  L 15,97  L 15,96  L 16,96  L 16,95  Z  " style="fill:rgb(161, 164, 186); fill-opacity:1.000; stroke:none;" />
 <path d="  M 15,4  L 14,4  L 14,6  L 15,6  Z  " style="fill:rgb(161, 164, 186); fill-opacity:1.000; stroke:none;" />
 <path d="  M 17,27  L 16,27  L 16,31  L 17,31  Z  " style="fill:rgb(161, 164, 186); fill-opacity:1.000; stroke:none;" />
 <path d="  M 18,32  L 18,31  L 17,31  L 17,32  Z  " style="fill:rgb(161, 164, 186); fill-opacity:1.000; stroke:none;" />
 <path d="  M 20,12  L 19,12  L 19,13  L 20,13  Z  " style="fill:rgb(161, 164, 186); fill-opacity:1.000; stroke:none;" />
 <path d="  M 20,95  L 19,95  L 19,96  L 20,96  Z  " style="fill:rgb(161, 164, 186); fill-opacity:1.000; stroke:none;" />
 <path d="  M 23,20  L 23,19  L 22,19  L 22,18  L 21,18  L 21,19  L 20,19  L 20,20  Z  " style="fill:rgb(161, 164, 186); fill-opacity:1.000; stroke:none;" />
 <path d="  M 21,14  L 22,14  L 22,13  L 21,13  Z  " style="fill:rgb(161, 164, 186); fill-opacity:1.000; stroke:none;" />
 <path d="  M 22,37  L 22,36  L 21,36  L 21,37  Z  " style="fill:rgb(161, 164, 186); fill-opacity:1.000; stroke:none;" />
 <path d="  M 23,35  L 22,35  L 22,36  L 23,36  Z  " style="fill:rgb(161, 164, 186); fill-opacity:1.000; stroke:none;" />
 <path d="  M 23,4  L 23,5  L 26,5  L 26,4  Z  " style="fill:rgb(161, 164, 186); fill-opacity:1.000; stroke:none;" />
 <path d="  M 23,14  L 23,15  L 24,15  L 24,14  Z  " style="fill:rgb(161, 164, 186); fill-opacity:1.000; stroke:none;" />
 <path d="  M 23,31  L 23,32  L 24,32  L 24,31  Z  " style="fill:rgb(161, 164, 186); fill-opacity:1.000; stroke:none;" />
 <path d="  M 24,30  L 24,31  L 26,31  L 26,30  Z  " style="fill:rgb(161, 164, 186); fill-opacity:1.000; stroke:none;" />
 <path d="  M 29,16  L 29,17  L 31,17  L 31,16  L 30,16  L 30,15  L 29,15  L 29,14  L 27,14  L 27,15  L 25,15  L 25,16  Z  " style="fill:rgb(161, 164, 186); fill-opacity:1.000; stroke:none;" />
 <path d="  M 26,32  L 26,33  L 27,33  L 27,32  Z  " style="fill:rgb(161, 164, 186); fill-opacity:1.000; stroke:none;" />
 <path d="  M 26,35  L 26,36  L 27,36  L 27,35  Z  " style="fill:rgb(161, 164, 186); fill-opacity:1.000; stroke:none;" />
 <path d="  M 27,12  L 28,12  L 28,11  L 27,11  Z  " style="fill:rgb(161, 164, 186); fill-opacity:1.000; stroke:none;" />
 <path d="  M 32,10  L 32,14  L 34,14  L 34,11  L 33,11  L 33,10  L 34,10  L 34,9  L 35,9  L 35,8  L 36,8  L 36,7  L 37,7  L 37,6  L 39,6  L 39,5  L 38,5  L 38,4  L 34,4  L 34,5  L 29,5  L 29,6  L 30,6  L 30,7  L 31,7  L 31,10  Z  " style="fill:rgb(161, 164, 186); fill-opacity:1.000; stroke:none;" />
 <path d="  M 29,11  L 29,14  L 30,14  L 30,15  L 31,15  L 31,16  L 32,16  L 32,14  L 31,14  L 31,10  L 30,10  L 30,11  Z  " style="fill:rgb(161, 164, 186); fill-opacity:1.000; stroke:none;" />
 <path d="  M 29,30  L 30,30  L 30,23  L 29,23  Z  " style="fill:rgb(161, 164, 186); fill-opacity:1.000; stroke:none;" />
 <path d="  M 31,18  L 30,18  L 30,23  L 31,23  Z  " style="fill:rgb(161, 164, 186); fill-opacity:1.000; stroke:none;" />
 <path d="  M 35,97  L 35,96  L 36,96  L 36,94  L 35,94  L 35,95  L 34,95  L 34,96  L 33,96  L 33,97  Z  " style="fill:rgb(161, 164, 186); fill-opacity:1.000; stroke:none;" />
 <path d="  M 34,18  L 35,18  L 35,20  L 36,20  L 36,23  L 37,23  L 37,25  L 38,25  L 38,28  L 39,28  L 39,31  L 40,31  L 40,40  L 41,40  L 41,36  L 42,36  L 42,35  L 41,35  L 41,24  L 40,24  L 40,21  L 39,21  L 39,19  L 38,19  L 38,16  L 37,16  L 37,14  L 36,14  L 36,12  L 35,12  L 35,14  L 34,14  Z  " style="fill:rgb(161, 164, 186); fill-opacity:1.000; stroke:none;" />
 <path d="  M 39,77  L 38,77  L 38,76  L 37,76  L 37,75  L 36,75  L 36,74  L 35,74  L 35,76  L 36,76  L 36,77  L 37,77  L 37,78  L 38,78  L 38,79  L 39,79  L 39,80  L 41,80  L 41,79  L 40,79  L 40,78  L 39,78  Z  " style="fill:rgb(161, 164, 186); fill-opacity:1.000; stroke:none;" />
 <path d="  M 37,7  L 37,8  L 38,8  L 38,7  Z  " style="fill:rgb(161, 164, 186); fill-opacity:1.000; stroke:none;" />
 <path d="  M 37,49  L 38,49  L 38,46  L 37,46  Z  " style="fill:rgb(161, 164, 186); fill-opacity:1.000; stroke:none;" />
 <path d="  M 5,56  L 5,57  L 6,57  L 6,56  Z  " style="fill:rgb(240, 158, 130); fill-opacity:1.000; stroke:none;" />
 <path d="  M 6,56  L 8,56  L 8,55  L 6,55  Z  " style="fill:rgb(240, 158, 130); fill-opacity:1.000; stroke:none;" />
 <path d="  M 8,59  L 7,59  L 7,62  L 8,62  Z  " style="fill:rgb(240, 158, 130); fill-opacity:1.000; stroke:none;" />
 <path d="  M 12,51  L 12,50  L 11,50  L 11,51  Z  " style="fill:rgb(240, 158, 130); fill-opacity:1.000; stroke:none;" />
 <path d="  M 14,43  L 12,43  L 12,44  L 13,44  L 13,45  L 14,45  Z  " style="fill:rgb(240, 158, 130); fill-opacity:1.000; stroke:none;" />
 <path d="  M 13,48  L 13,46  L 12,46  L 12,48  Z  " style="fill:rgb(240, 158, 130); fill-opacity:1.000; stroke:none;" />
 <path d="  M 18,38  L 16,38  L 16,39  L 18,39  Z  " style="fill:rgb(240, 158, 130); fill-opacity:1.000; stroke:none;" />
 <path d="  M 16,49  L 17,49  L 17,48  L 16,48  Z  " style="fill:rgb(240, 158, 130); fill-opacity:1.000; stroke:none;" />
 <path d="  M 18,47  L 18,44  L 17,44  L 17,47  Z  " style="fill:rgb(240, 158, 130); fill-opacity:1.000; stroke:none;" />
 <path d="  M 18,26  L 18,27  L 19,27  L 19,26  Z  " style="fill:rgb(240, 158, 130); fill-opacity:1.000; stroke:none;" />
 <path d="  M 19,35  L 18,35  L 18,36  L 19,36  Z  " style="fill:rgb(240, 158, 130); fill-opacity:1.000; stroke:none;" />
 <path d="  M 18,43  L 18,44  L 19,44  L 19,43  Z  " style="fill:rgb(240, 158, 130); fill-opacity:1.000; stroke:none;" />
 <path d="  M 20,23  L 20,19  L 19,19  L 19,23  Z  " style="fill:rgb(240, 158, 130); fill-opacity:1.000; stroke:none;" />
 <path d="  M 21,32  L 21,31  L 19,31  L 19,32  Z  " style="fill:rgb(240, 158, 130); fill-opacity:1.000; stroke:none;" />
 <path d="  M 20,37  L 20,36  L 19,36  L 19,37  Z  " style="fill:rgb(240, 158, 130); fill-opacity:1.000; stroke:none;" />
 <path d="  M 23,43  L 23,44  L 24,44  L 24,46  L 25,46  L 25,45  L 26,45  L 26,44  L 27,44  L 27,42  L 26,42  L 26,43  L 24,43  L 24,42  L 19,42  L 19,43  Z  " style="fill:rgb(240, 158, 130); fill-opacity:1.000; stroke:none;" />
 <path d="  M 20,16  L 22,16  L 22,15  L 23,15  L 23,14  L 21,14  L 21,13  L 20,13  Z  " style="fill:rgb(240, 158, 130); fill-opacity:1.000; stroke:none;" />
 <path d="  M 21,34  L 20,34  L 20,35  L 21,35  Z  " style="fill:rgb(240, 158, 130); fill-opacity:1.000; stroke:none;" />
 <path d="  M 20,46  L 20,47  L 21,47  L 21,46  Z  " style="fill:rgb(240, 158, 130); fill-opacity:1.000; stroke:none;" />
 <path d="  M 20,49  L 20,50  L 22,50  L 22,49  Z  " style="fill:rgb(240, 158, 130); fill-opacity:1.000; stroke:none;" />
 <path d="  M 23,25  L 22,25  L 22,26  L 23,26  Z  " style="fill:rgb(240, 158, 130); fill-opacity:1.000; stroke:none;" />
 <path d="  M 23,32  L 23,31  L 22,31  L 22,32  Z  " style="fill:rgb(240, 158, 130); fill-opacity:1.000; stroke:none;" />
 <path d="  M 25,38  L 22,38  L 22,39  L 25,39  Z  " style="fill:rgb(240, 158, 130); fill-opacity:1.000; stroke:none;" />
 <path d="  M 22,48  L 22,49  L 26,49  L 26,48  Z  " style="fill:rgb(240, 158, 130); fill-opacity:1.000; stroke:none;" />
 <path d="  M 23,20  L 24,20  L 24,19  L 23,19  Z  " style="fill:rgb(240, 158, 130); fill-opacity:1.000; stroke:none;" />
 <path d="  M 26,27  L 26,26  L 25,26  L 25,27  Z  " style="fill:rgb(240, 158, 130); fill-opacity:1.000; stroke:none;" />
 <path d="  M 28,24  L 29,24  L 29,20  L 28,20  Z  " style="fill:rgb(240, 158, 130); fill-opacity:1.000; stroke:none;" />
 <path d="  M 28,48  L 28,49  L 29,49  L 29,48  Z  " style="fill:rgb(240, 158, 130); fill-opacity:1.000; stroke:none;" />
 <path d="  M 31,46  L 32,46  L 32,43  L 31,43  Z  " style="fill:rgb(240, 158, 130); fill-opacity:1.000; stroke:none;" />
 <path d="  M 33,41  L 32,41  L 32,43  L 33,43  Z  " style="fill:rgb(240, 158, 130); fill-opacity:1.000; stroke:none;" />
 <path d="  M 33,49  L 32,49  L 32,52  L 33,52  Z  " style="fill:rgb(240, 158, 130); fill-opacity:1.000; stroke:none;" />
 <path d="  M 33,58  L 32,58  L 32,60  L 33,60  Z  " style="fill:rgb(240, 158, 130); fill-opacity:1.000; stroke:none;" />
 <path d="  M 34,43  L 33,43  L 33,46  L 34,46  Z  " style="fill:rgb(240, 158, 130); fill-opacity:1.000; stroke:none;" />
 <path d="  M 33,54  L 33,55  L 34,55  L 34,56  L 35,56  L 35,55  L 36,55  L 36,54  Z  " style="fill:rgb(240, 158, 130); fill-opacity:1.000; stroke:none;" />
 <path d="  M 36,57  L 33,57  L 33,58  L 36,58  Z  " style="fill:rgb(240, 158, 130); fill-opacity:1.000; stroke:none;" />
 <path d="  M 36,60  L 33,60  L 33,62  L 35,62  L 35,61  L 36,61  Z  " style="fill:rgb(240, 158, 130); fill-opacity:1.000; stroke:none;" />
 <path d="  M 34,49  L 34,50  L 35,50  L 35,49  Z  " style="fill:rgb(240, 158, 130); fill-opacity:1.000; stroke:none;" />
 <path d="  M 34,52  L 34,53  L 35,53  L 35,52  Z  " style="fill:rgb(240, 158, 130); fill-opacity:1.000; stroke:none;" />
 <path d="  M 8,59  L 8,62  L 9,62  L 9,58  L 8,58  L 8,57  L 5,57  L 5,59  Z  " style="fill:rgb(211, 97, 71); fill-opacity:1.000; stroke:none;" />
 <path d="  M 8,55  L 8,57  L 9,57  L 9,55  Z  " style="fill:rgb(211, 97, 71); fill-opacity:1.000; stroke:none;" />
 <path d="  M 14,43  L 14,42  L 13,42  L 13,43  Z  " style="fill:rgb(211, 97, 71); fill-opacity:1.000; stroke:none;" />
 <path d="  M 15,46  L 15,43  L 14,43  L 14,45  L 13,45  L 13,47  L 14,47  L 14,46  Z  " style="fill:rgb(211, 97, 71); fill-opacity:1.000; stroke:none;" />
 <path d="  M 14,20  L 15,20  L 15,18  L 17,18  L 17,17  L 16,17  L 16,16  L 15,16  L 15,15  L 14,15  Z  " style="fill:rgb(211, 97, 71); fill-opacity:1.000; stroke:none;" />
 <path d="  M 18,13  L 19,13  L 19,12  L 18,12  Z  " style="fill:rgb(211, 97, 71); fill-opacity:1.000; stroke:none;" />
 <path d="  M 18,20  L 19,20  L 19,19  L 18,19  Z  " style="fill:rgb(211, 97, 71); fill-opacity:1.000; stroke:none;" />
 <path d="  M 18,37  L 19,37  L 19,36  L 18,36  Z  " style="fill:rgb(211, 97, 71); fill-opacity:1.000; stroke:none;" />
 <path d="  M 24,42  L 24,43  L 26,43  L 26,42  L 27,42  L 27,40  L 28,40  L 28,39  L 26,39  L 26,38  L 25,38  L 25,39  L 22,39  L 22,40  L 21,40  L 21,39  L 20,39  L 20,38  L 18,38  L 18,39  L 19,39  L 19,40  L 18,40  L 18,43  L 19,43  L 19,42  Z  " style="fill:rgb(211, 97, 71); fill-opacity:1.000; stroke:none;" />
 <path d="  M 19,14  L 20,14  L 20,13  L 19,13  Z  " style="fill:rgb(211, 97, 71); fill-opacity:1.000; stroke:none;" />
 <path d="  M 21,48  L 21,47  L 20,47  L 20,48  Z  " style="fill:rgb(211, 97, 71); fill-opacity:1.000; stroke:none;" />
 <path d="  M 20,51  L 21,51  L 21,50  L 20,50  Z  " style="fill:rgb(211, 97, 71); fill-opacity:1.000; stroke:none;" />
 <path d="  M 25,16  L 25,15  L 23,15  L 23,16  L 21,16  L 21,17  L 22,17  L 22,19  L 23,19  L 23,17  L 24,17  L 24,16  Z  " style="fill:rgb(211, 97, 71); fill-opacity:1.000; stroke:none;" />
 <path d="  M 23,30  L 21,30  L 21,32  L 22,32  L 22,31  L 23,31  Z  " style="fill:rgb(211, 97, 71); fill-opacity:1.000; stroke:none;" />
 <path d="  M 22,39  L 22,38  L 21,38  L 21,39  Z  " style="fill:rgb(211, 97, 71); fill-opacity:1.000; stroke:none;" />
 <path d="  M 29,37  L 30,37  L 30,40  L 31,40  L 31,43  L 32,43  L 32,41  L 33,41  L 33,40  L 32,40  L 32,37  L 31,37  L 31,33  L 30,33  L 30,32  L 29,32  L 29,30  L 28,30  L 28,31  L 27,31  L 27,33  L 28,33  L 28,34  L 29,34  Z  " style="fill:rgb(211, 97, 71); fill-opacity:1.000; stroke:none;" />
 <path d="  M 33,55  L 33,56  L 34,56  L 34,55  Z  " style="fill:rgb(211, 97, 71); fill-opacity:1.000; stroke:none;" />
 <path d="  M 36,58  L 33,58  L 33,60  L 36,60  Z  " style="fill:rgb(211, 97, 71); fill-opacity:1.000; stroke:none;" />
 <path d="  M 34,49  L 35,49  L 35,47  L 34,47  Z  " style="fill:rgb(211, 97, 71); fill-opacity:1.000; stroke:none;" />
 <path d="  M 36,55  L 35,55  L 35,56  L 36,56  Z  " style="fill:rgb(211, 97, 71); fill-opacity:1.000; stroke:none;" />
 <path d="  M 7,12  L 6,12  L 6,14  L 7,14  Z  " style="fill:rgb(115, 124, 158); fill-opacity:1.000; stroke:none;" />
 <path d="  M 7,12  L 8,12  L 8,10  L 7,10  Z  " style="fill:rgb(115, 124, 158); fill-opacity:1.000; stroke:none;" />
 <path d="  M 9,10  L 9,9  L 8,9  L 8,10  Z  " style="fill:rgb(115, 124, 158); fill-opacity:1.000; stroke:none;" />
 <path d="  M 10,9  L 11,9  L 11,7  L 10,7  Z  " style="fill:rgb(115, 124, 158); fill-opacity:1.000; stroke:none;" />
 <path d="  M 11,46  L 10,46  L 10,48  L 11,48  Z  " style="fill:rgb(115, 124, 158); fill-opacity:1.000; stroke:none;" />
 <path d="  M 11,25  L 12,25  L 12,23  L 13,23  L 13,21  L 12,21  L 12,20  L 11,20  Z  " style="fill:rgb(115, 124, 158); fill-opacity:1.000; stroke:none;" />
 <path d="  M 12,43  L 11,43  L 11,44  L 12,44  Z  " style="fill:rgb(115, 124, 158); fill-opacity:1.000; stroke:none;" />
 <path d="  M 12,40  L 12,41  L 13,41  L 13,40  Z  " style="fill:rgb(115, 124, 158); fill-opacity:1.000; stroke:none;" />
 <path d="  M 13,93  L 12,93  L 12,95  L 13,95  Z  " style="fill:rgb(115, 124, 158); fill-opacity:1.000; stroke:none;" />
 <path d="  M 14,23  L 13,23  L 13,24  L 15,24  L 15,21  L 14,21  Z  " style="fill:rgb(115, 124, 158); fill-opacity:1.000; stroke:none;" />
 <path d="  M 15,14  L 14,14  L 14,15  L 15,15  Z  " style="fill:rgb(115, 124, 158); fill-opacity:1.000; stroke:none;" />
 <path d="  M 15,35  L 15,36  L 14,36  L 14,38  L 15,38  L 15,37  L 18,37  L 18,35  Z  " style="fill:rgb(115, 124, 158); fill-opacity:1.000; stroke:none;" />
 <path d="  M 16,5  L 16,4  L 15,4  L 15,5  Z  " style="fill:rgb(115, 124, 158); fill-opacity:1.000; stroke:none;" />
 <path d="  M 15,15  L 15,16  L 16,16  L 16,15  Z  " style="fill:rgb(115, 124, 158); fill-opacity:1.000; stroke:none;" />
 <path d="  M 16,24  L 15,24  L 15,26  L 16,26  Z  " style="fill:rgb(115, 124, 158); fill-opacity:1.000; stroke:none;" />
 <path d="  M 16,17  L 17,17  L 17,16  L 16,16  Z  " style="fill:rgb(115, 124, 158); fill-opacity:1.000; stroke:none;" />
 <path d="  M 16,26  L 16,27  L 17,27  L 17,26  Z  " style="fill:rgb(115, 124, 158); fill-opacity:1.000; stroke:none;" />
 <path d="  M 17,13  L 18,13  L 18,11  L 17,11  Z  " style="fill:rgb(115, 124, 158); fill-opacity:1.000; stroke:none;" />
 <path d="  M 17,18  L 18,18  L 18,17  L 17,17  Z  " style="fill:rgb(115, 124, 158); fill-opacity:1.000; stroke:none;" />
 <path d="  M 19,14  L 19,13  L 18,13  L 18,14  Z  " style="fill:rgb(115, 124, 158); fill-opacity:1.000; stroke:none;" />
 <path d="  M 19,19  L 19,18  L 18,18  L 18,19  Z  " style="fill:rgb(115, 124, 158); fill-opacity:1.000; stroke:none;" />
 <path d="  M 19,15  L 19,16  L 20,16  L 20,15  Z  " style="fill:rgb(115, 124, 158); fill-opacity:1.000; stroke:none;" />
 <path d="  M 19,30  L 19,31  L 20,31  L 20,30  Z  " style="fill:rgb(115, 124, 158); fill-opacity:1.000; stroke:none;" />
 <path d="  M 20,16  L 20,17  L 21,17  L 21,16  Z  " style="fill:rgb(115, 124, 158); fill-opacity:1.000; stroke:none;" />
 <path d="  M 20,29  L 20,30  L 22,30  L 22,29  Z  " style="fill:rgb(115, 124, 158); fill-opacity:1.000; stroke:none;" />
 <path d="  M 21,37  L 21,36  L 20,36  L 20,37  Z  " style="fill:rgb(115, 124, 158); fill-opacity:1.000; stroke:none;" />
 <path d="  M 27,33  L 27,36  L 26,36  L 26,35  L 23,35  L 23,36  L 22,36  L 22,37  L 26,37  L 26,38  L 28,38  L 28,33  Z  " style="fill:rgb(115, 124, 158); fill-opacity:1.000; stroke:none;" />
 <path d="  M 23,31  L 24,31  L 24,30  L 23,30  Z  " style="fill:rgb(115, 124, 158); fill-opacity:1.000; stroke:none;" />
 <path d="  M 24,30  L 26,30  L 26,29  L 24,29  Z  " style="fill:rgb(115, 124, 158); fill-opacity:1.000; stroke:none;" />
 <path d="  M 25,27  L 25,28  L 26,28  L 26,27  Z  " style="fill:rgb(115, 124, 158); fill-opacity:1.000; stroke:none;" />
 <path d="  M 28,5  L 28,4  L 26,4  L 26,5  Z  " style="fill:rgb(115, 124, 158); fill-opacity:1.000; stroke:none;" />
 <path d="  M 27,31  L 26,31  L 26,32  L 27,32  Z  " style="fill:rgb(115, 124, 158); fill-opacity:1.000; stroke:none;" />
 <path d="  M 29,16  L 27,16  L 27,17  L 29,17  Z  " style="fill:rgb(115, 124, 158); fill-opacity:1.000; stroke:none;" />
 <path d="  M 29,5  L 28,5  L 28,6  L 29,6  Z  " style="fill:rgb(115, 124, 158); fill-opacity:1.000; stroke:none;" />
 <path d="  M 29,14  L 29,12  L 28,12  L 28,14  Z  " style="fill:rgb(115, 124, 158); fill-opacity:1.000; stroke:none;" />
 <path d="  M 29,97  L 29,96  L 28,96  L 28,97  Z  " style="fill:rgb(115, 124, 158); fill-opacity:1.000; stroke:none;" />
 <path d="  M 30,6  L 29,6  L 29,7  L 30,7  Z  " style="fill:rgb(115, 124, 158); fill-opacity:1.000; stroke:none;" />
 <path d="  M 30,15  L 30,14  L 29,14  L 29,15  Z  " style="fill:rgb(115, 124, 158); fill-opacity:1.000; stroke:none;" />
 <path d="  M 31,23  L 30,23  L 30,29  L 31,29  L 31,24  L 32,24  L 32,16  L 31,16  L 31,17  L 29,17  L 29,18  L 31,18  Z  " style="fill:rgb(115, 124, 158); fill-opacity:1.000; stroke:none;" />
 <path d="  M 29,23  L 30,23  L 30,21  L 29,21  Z  " style="fill:rgb(115, 124, 158); fill-opacity:1.000; stroke:none;" />
 <path d="  M 29,32  L 30,32  L 30,30  L 29,30  Z  " style="fill:rgb(115, 124, 158); fill-opacity:1.000; stroke:none;" />
 <path d="  M 30,7  L 30,10  L 31,10  L 31,7  Z  " style="fill:rgb(115, 124, 158); fill-opacity:1.000; stroke:none;" />
 <path d="  M 31,15  L 30,15  L 30,16  L 31,16  Z  " style="fill:rgb(115, 124, 158); fill-opacity:1.000; stroke:none;" />
 <path d="  M 31,14  L 32,14  L 32,10  L 31,10  Z  " style="fill:rgb(115, 124, 158); fill-opacity:1.000; stroke:none;" />
 <path d="  M 32,14  L 32,16  L 33,16  L 33,17  L 34,17  L 34,14  Z  " style="fill:rgb(115, 124, 158); fill-opacity:1.000; stroke:none;" />
 <path d="  M 34,96  L 34,95  L 32,95  L 32,96  Z  " style="fill:rgb(115, 124, 158); fill-opacity:1.000; stroke:none;" />
 <path d="  M 35,12  L 34,12  L 34,14  L 35,14  Z  " style="fill:rgb(115, 124, 158); fill-opacity:1.000; stroke:none;" />
 <path d="  M 35,76  L 35,73  L 34,73  L 34,76  Z  " style="fill:rgb(115, 124, 158); fill-opacity:1.000; stroke:none;" />
 <path d="  M 35,94  L 34,94  L 34,95  L 35,95  Z  " style="fill:rgb(115, 124, 158); fill-opacity:1.000; stroke:none;" />
 <path d="  M 36,20  L 35,20  L 35,21  L 36,21  Z  " style="fill:rgb(115, 124, 158); fill-opacity:1.000; stroke:none;" />
 <path d="  M 36,77  L 36,76  L 35,76  L 35,77  Z  " style="fill:rgb(115, 124, 158); fill-opacity:1.000; stroke:none;" />
 <path d="  M 37,77  L 36,77  L 36,78  L 37,78  Z  " style="fill:rgb(115, 124, 158); fill-opacity:1.000; stroke:none;" />
 <path d="  M 38,79  L 38,78  L 37,78  L 37,79  Z  " style="fill:rgb(115, 124, 158); fill-opacity:1.000; stroke:none;" />
 <path d="  M 38,80  L 39,80  L 39,79  L 38,79  Z  " style="fill:rgb(115, 124, 158); fill-opacity:1.000; stroke:none;" />
 <path d="  M 39,80  L 39,81  L 41,81  L 41,80  Z  " style="fill:rgb(115, 124, 158); fill-opacity:1.000; stroke:none;" />
 <path d="  M 6,55  L 7,55  L 7,54  L 6,54  Z  " style="fill:rgb(255, 188, 160); fill-opacity:1.000; stroke:none;" />
 <path d="  M 8,56  L 6,56  L 6,57  L 8,57  Z  " style="fill:rgb(255, 188, 160); fill-opacity:1.000; stroke:none;" />
 <path d="  M 7,61  L 7,59  L 6,59  L 6,61  Z  " style="fill:rgb(255, 188, 160); fill-opacity:1.000; stroke:none;" />
 <path d="  M 10,51  L 11,51  L 11,50  L 12,50  L 12,46  L 11,46  L 11,49  L 10,49  Z  " style="fill:rgb(255, 188, 160); fill-opacity:1.000; stroke:none;" />
 <path d="  M 12,46  L 13,46  L 13,44  L 12,44  Z  " style="fill:rgb(255, 188, 160); fill-opacity:1.000; stroke:none;" />
 <path d="  M 26,48  L 26,49  L 28,49  L 28,48  L 29,48  L 29,47  L 28,47  L 28,45  L 27,45  L 27,44  L 26,44  L 26,45  L 25,45  L 25,46  L 24,46  L 24,44  L 23,44  L 23,43  L 19,43  L 19,44  L 18,44  L 18,47  L 17,47  L 17,46  L 16,46  L 16,47  L 15,47  L 15,48  L 17,48  L 17,49  L 22,49  L 22,48  Z  M 20,48  L 20,46  L 21,46  L 21,48  Z  " style="fill:rgb(255, 188, 160); fill-opacity:1.000; stroke:none;" />
 <path d="  M 20,23  L 19,23  L 19,24  L 17,24  L 17,26  L 19,26  L 19,27  L 25,27  L 25,26  L 27,26  L 27,25  L 28,25  L 28,22  L 24,22  L 24,20  L 20,20  Z  M 22,26  L 22,25  L 23,25  L 23,26  Z  " style="fill:rgb(255, 188, 160); fill-opacity:1.000; stroke:none;" />
 <path d="  M 19,35  L 19,36  L 20,36  L 20,34  L 21,34  L 21,33  L 22,33  L 22,32  L 18,32  L 18,35  Z  " style="fill:rgb(255, 188, 160); fill-opacity:1.000; stroke:none;" />
 <path d="  M 32,49  L 33,49  L 33,52  L 35,52  L 35,50  L 34,50  L 34,46  L 33,46  L 33,43  L 32,43  Z  " style="fill:rgb(255, 188, 160); fill-opacity:1.000; stroke:none;" />
 <path d="  M 32,62  L 33,62  L 33,60  L 32,60  Z  " style="fill:rgb(255, 188, 160); fill-opacity:1.000; stroke:none;" />
 <path d="  M 8,55  L 8,54  L 7,54  L 7,55  Z  " style="fill:rgb(175, 10, 54); fill-opacity:1.000; stroke:none;" />
 <path d="  M 13,51  L 13,48  L 12,48  L 12,51  Z  " style="fill:rgb(175, 10, 54); fill-opacity:1.000; stroke:none;" />
 <path d="  M 16,43  L 17,43  L 17,41  L 16,41  L 16,40  L 15,40  L 15,39  L 14,39  L 14,41  L 13,41  L 13,42  L 14,42  L 14,43  L 15,43  L 15,46  L 16,46  Z  " style="fill:rgb(175, 10, 54); fill-opacity:1.000; stroke:none;" />
 <path d="  M 14,48  L 14,47  L 13,47  L 13,48  Z  " style="fill:rgb(175, 10, 54); fill-opacity:1.000; stroke:none;" />
 <path d="  M 15,20  L 14,20  L 14,21  L 15,21  Z  " style="fill:rgb(175, 10, 54); fill-opacity:1.000; stroke:none;" />
 <path d="  M 14,46  L 14,47  L 15,47  L 15,46  Z  " style="fill:rgb(175, 10, 54); fill-opacity:1.000; stroke:none;" />
 <path d="  M 16,18  L 15,18  L 15,19  L 16,19  Z  " style="fill:rgb(175, 10, 54); fill-opacity:1.000; stroke:none;" />
 <path d="  M 16,24  L 16,22  L 15,22  L 15,24  Z  " style="fill:rgb(175, 10, 54); fill-opacity:1.000; stroke:none;" />
 <path d="  M 16,39  L 16,38  L 15,38  L 15,39  Z  " style="fill:rgb(175, 10, 54); fill-opacity:1.000; stroke:none;" />
 <path d="  M 17,26  L 17,24  L 16,24  L 16,26  Z  " style="fill:rgb(175, 10, 54); fill-opacity:1.000; stroke:none;" />
 <path d="  M 16,39  L 16,40  L 19,40  L 19,39  Z  " style="fill:rgb(175, 10, 54); fill-opacity:1.000; stroke:none;" />
 <path d="  M 18,29  L 18,30  L 17,30  L 17,31  L 19,31  L 19,30  L 20,30  L 20,29  Z  " style="fill:rgb(175, 10, 54); fill-opacity:1.000; stroke:none;" />
 <path d="  M 19,15  L 20,15  L 20,14  L 19,14  Z  " style="fill:rgb(175, 10, 54); fill-opacity:1.000; stroke:none;" />
 <path d="  M 21,30  L 20,30  L 20,31  L 21,31  Z  " style="fill:rgb(175, 10, 54); fill-opacity:1.000; stroke:none;" />
 <path d="  M 21,38  L 20,38  L 20,39  L 21,39  Z  " style="fill:rgb(175, 10, 54); fill-opacity:1.000; stroke:none;" />
 <path d="  M 20,51  L 20,52  L 21,52  L 21,51  Z  " style="fill:rgb(175, 10, 54); fill-opacity:1.000; stroke:none;" />
 <path d="  M 21,17  L 21,18  L 22,18  L 22,17  Z  " style="fill:rgb(175, 10, 54); fill-opacity:1.000; stroke:none;" />
 <path d="  M 25,28  L 25,27  L 21,27  L 21,28  Z  " style="fill:rgb(175, 10, 54); fill-opacity:1.000; stroke:none;" />
 <path d="  M 22,39  L 21,39  L 21,40  L 22,40  Z  " style="fill:rgb(175, 10, 54); fill-opacity:1.000; stroke:none;" />
 <path d="  M 23,15  L 22,15  L 22,16  L 23,16  Z  " style="fill:rgb(175, 10, 54); fill-opacity:1.000; stroke:none;" />
 <path d="  M 24,30  L 24,29  L 22,29  L 22,30  Z  " style="fill:rgb(175, 10, 54); fill-opacity:1.000; stroke:none;" />
 <path d="  M 27,27  L 27,26  L 26,26  L 26,27  Z  " style="fill:rgb(175, 10, 54); fill-opacity:1.000; stroke:none;" />
 <path d="  M 29,30  L 29,29  L 26,29  L 26,31  L 28,31  L 28,30  Z  " style="fill:rgb(175, 10, 54); fill-opacity:1.000; stroke:none;" />
 <path d="  M 27,26  L 28,26  L 28,25  L 27,25  Z  " style="fill:rgb(175, 10, 54); fill-opacity:1.000; stroke:none;" />
 <path d="  M 29,18  L 29,17  L 28,17  L 28,18  Z  " style="fill:rgb(175, 10, 54); fill-opacity:1.000; stroke:none;" />
 <path d="  M 28,24  L 28,25  L 29,25  L 29,24  Z  " style="fill:rgb(175, 10, 54); fill-opacity:1.000; stroke:none;" />
 <path d="  M 28,37  L 29,37  L 29,34  L 28,34  Z  " style="fill:rgb(175, 10, 54); fill-opacity:1.000; stroke:none;" />
 <path d="  M 29,21  L 30,21  L 30,18  L 29,18  Z  " style="fill:rgb(175, 10, 54); fill-opacity:1.000; stroke:none;" />
 <path d="  M 29,37  L 29,40  L 30,40  L 30,37  Z  " style="fill:rgb(175, 10, 54); fill-opacity:1.000; stroke:none;" />
 <path d="  M 31,32  L 30,32  L 30,33  L 31,33  Z  " style="fill:rgb(175, 10, 54); fill-opacity:1.000; stroke:none;" />
 <path d="  M 31,40  L 30,40  L 30,43  L 31,43  Z  " style="fill:rgb(175, 10, 54); fill-opacity:1.000; stroke:none;" />
 <path d="  M 32,36  L 31,36  L 31,37  L 32,37  Z  " style="fill:rgb(175, 10, 54); fill-opacity:1.000; stroke:none;" />
 <path d="  M 34,63  L 34,62  L 33,62  L 33,63  Z  " style="fill:rgb(175, 10, 54); fill-opacity:1.000; stroke:none;" />
 <path d="  M 34,47  L 35,47  L 35,46  L 34,46  Z  " style="fill:rgb(175, 10, 54); fill-opacity:1.000; stroke:none;" />
 <path d="  M 35,54  L 35,53  L 34,53  L 34,54  Z  " style="fill:rgb(175, 10, 54); fill-opacity:1.000; stroke:none;" />
 <path d="  M 34,56  L 34,57  L 36,57  L 36,56  Z  " style="fill:rgb(175, 10, 54); fill-opacity:1.000; stroke:none;" />
 <path d="  M 8,88  L 7,88  L 7,89  L 8,89  Z  " style="fill:rgb(73, 170, 234); fill-opacity:1.000; stroke:none;" />
 <path d="  M 8,85  L 8,86  L 10,86  L 10,87  L 11,87  L 11,86  L 12,86  L 12,85  Z  " style="fill:rgb(73, 170, 234); fill-opacity:1.000; stroke:none;" />
 <path d="  M 12,89  L 11,89  L 11,88  L 10,88  L 10,90  L 12,90  Z  " style="fill:rgb(73, 170, 234); fill-opacity:1.000; stroke:none;" />
 <path d="  M 12,86  L 12,88  L 15,88  L 15,87  L 16,87  L 16,85  L 17,85  L 17,83  L 16,83  L 16,84  L 15,84  L 15,86  Z  " style="fill:rgb(73, 170, 234); fill-opacity:1.000; stroke:none;" />
 <path d="  M 20,93  L 20,92  L 19,92  L 19,91  L 17,91  L 17,92  L 15,92  L 15,90  L 14,90  L 14,89  L 13,89  L 13,91  L 14,91  L 14,93  Z  " style="fill:rgb(73, 170, 234); fill-opacity:1.000; stroke:none;" />
 <path d="  M 14,83  L 15,83  L 15,82  L 14,82  Z  " style="fill:rgb(73, 170, 234); fill-opacity:1.000; stroke:none;" />
 <path d="  M 16,49  L 16,48  L 15,48  L 15,49  Z  " style="fill:rgb(73, 170, 234); fill-opacity:1.000; stroke:none;" />
 <path d="  M 16,79  L 15,79  L 15,80  L 16,80  Z  " style="fill:rgb(73, 170, 234); fill-opacity:1.000; stroke:none;" />
 <path d="  M 20,50  L 20,49  L 16,49  L 16,50  Z  " style="fill:rgb(73, 170, 234); fill-opacity:1.000; stroke:none;" />
 <path d="  M 17,79  L 17,80  L 18,80  L 18,79  Z  " style="fill:rgb(73, 170, 234); fill-opacity:1.000; stroke:none;" />
 <path d="  M 17,83  L 18,83  L 18,82  L 17,82  Z  " style="fill:rgb(73, 170, 234); fill-opacity:1.000; stroke:none;" />
 <path d="  M 23,49  L 23,50  L 28,50  L 28,49  Z  " style="fill:rgb(73, 170, 234); fill-opacity:1.000; stroke:none;" />
 <path d="  M 27,85  L 27,84  L 29,84  L 29,83  L 24,83  L 24,85  Z  " style="fill:rgb(73, 170, 234); fill-opacity:1.000; stroke:none;" />
 <path d="  M 28,94  L 28,93  L 27,93  L 27,91  L 26,91  L 26,94  Z  " style="fill:rgb(73, 170, 234); fill-opacity:1.000; stroke:none;" />
 <path d="  M 30,80  L 29,80  L 29,82  L 30,82  Z  " style="fill:rgb(73, 170, 234); fill-opacity:1.000; stroke:none;" />
 <path d="  M 29,85  L 30,85  L 30,86  L 29,86  L 29,88  L 30,88  L 30,89  L 32,89  L 32,87  L 33,87  L 33,86  L 31,86  L 31,84  L 29,84  Z  " style="fill:rgb(73, 170, 234); fill-opacity:1.000; stroke:none;" />
 <path d="  M 30,93  L 30,94  L 31,94  L 31,93  Z  " style="fill:rgb(73, 170, 234); fill-opacity:1.000; stroke:none;" />
 <path d="  M 32,91  L 32,90  L 31,90  L 31,91  Z  " style="fill:rgb(73, 170, 234); fill-opacity:1.000; stroke:none;" />
 <path d="  M 36,33  L 36,34  L 37,34  L 37,31  L 36,31  L 36,30  L 35,30  L 35,33  Z  " style="fill:rgb(73, 170, 234); fill-opacity:1.000; stroke:none;" />
 <path d="  M 43,35  L 42,35  L 42,36  L 41,36  L 41,40  L 42,40  L 42,42  L 43,42  Z  " style="fill:rgb(73, 170, 234); fill-opacity:1.000; stroke:none;" />
 <path d="  M 8,89  L 7,89  L 7,90  L 8,90  L 8,91  L 10,91  L 10,88  L 8,88  Z  " style="fill:rgb(173, 210, 234); fill-opacity:1.000; stroke:none;" />
 <path d="  M 12,87  L 12,86  L 11,86  L 11,87  Z  " style="fill:rgb(173, 210, 234); fill-opacity:1.000; stroke:none;" />
 <path d="  M 13,81  L 14,81  L 14,82  L 15,82  L 15,84  L 16,84  L 16,83  L 17,83  L 17,82  L 19,82  L 19,80  L 17,80  L 17,79  L 16,79  L 16,80  L 14,80  L 14,79  L 13,79  Z  " style="fill:rgb(173, 210, 234); fill-opacity:1.000; stroke:none;" />
 <path d="  M 17,24  L 17,23  L 16,23  L 16,24  Z  " style="fill:rgb(173, 210, 234); fill-opacity:1.000; stroke:none;" />
 <path d="  M 28,88  L 28,87  L 26,87  L 26,89  L 30,89  L 30,88  Z  " style="fill:rgb(173, 210, 234); fill-opacity:1.000; stroke:none;" />
 <path d="  M 27,90  L 27,93  L 29,93  L 29,92  L 30,92  L 30,93  L 31,93  L 31,94  L 32,94  L 32,91  L 31,91  L 31,90  Z  " style="fill:rgb(173, 210, 234); fill-opacity:1.000; stroke:none;" />
 <path d="  M 31,82  L 33,82  L 33,81  L 32,81  L 32,80  L 30,80  L 30,82  L 29,82  L 29,84  L 31,84  Z  " style="fill:rgb(173, 210, 234); fill-opacity:1.000; stroke:none;" />
 <path d="  M 8,91  L 8,90  L 7,90  L 7,91  Z  " style="fill:rgb(17, 53, 119); fill-opacity:1.000; stroke:none;" />
 <path d="  M 9,87  L 9,86  L 8,86  L 8,88  L 11,88  L 11,87  Z  " style="fill:rgb(17, 53, 119); fill-opacity:1.000; stroke:none;" />
 <path d="  M 11,84  L 11,82  L 9,82  L 9,84  Z  " style="fill:rgb(17, 53, 119); fill-opacity:1.000; stroke:none;" />
 <path d="  M 11,93  L 13,93  L 13,92  L 11,92  Z  " style="fill:rgb(17, 53, 119); fill-opacity:1.000; stroke:none;" />
 <path d="  M 21,82  L 20,82  L 20,84  L 17,84  L 17,85  L 16,85  L 16,88  L 12,88  L 12,89  L 14,89  L 14,90  L 15,90  L 15,91  L 18,91  L 18,90  L 20,90  L 20,93  L 21,93  Z  " style="fill:rgb(17, 53, 119); fill-opacity:1.000; stroke:none;" />
 <path d="  M 19,95  L 19,94  L 16,94  L 16,93  L 13,93  L 13,94  L 15,94  L 15,95  Z  " style="fill:rgb(17, 53, 119); fill-opacity:1.000; stroke:none;" />
 <path d="  M 15,35  L 15,34  L 14,34  L 14,35  Z  " style="fill:rgb(17, 53, 119); fill-opacity:1.000; stroke:none;" />
 <path d="  M 14,38  L 14,39  L 15,39  L 15,38  Z  " style="fill:rgb(17, 53, 119); fill-opacity:1.000; stroke:none;" />
 <path d="  M 15,22  L 16,22  L 16,19  L 15,19  Z  " style="fill:rgb(17, 53, 119); fill-opacity:1.000; stroke:none;" />
 <path d="  M 26,38  L 26,37  L 15,37  L 15,38  Z  " style="fill:rgb(17, 53, 119); fill-opacity:1.000; stroke:none;" />
 <path d="  M 18,19  L 18,18  L 16,18  L 16,19  Z  " style="fill:rgb(17, 53, 119); fill-opacity:1.000; stroke:none;" />
 <path d="  M 18,27  L 18,26  L 17,26  L 17,27  Z  " style="fill:rgb(17, 53, 119); fill-opacity:1.000; stroke:none;" />
 <path d="  M 19,24  L 19,23  L 18,23  L 18,24  Z  " style="fill:rgb(17, 53, 119); fill-opacity:1.000; stroke:none;" />
 <path d="  M 20,93  L 19,93  L 19,94  L 20,94  Z  " style="fill:rgb(17, 53, 119); fill-opacity:1.000; stroke:none;" />
 <path d="  M 29,29  L 29,28  L 21,28  L 21,29  Z  " style="fill:rgb(17, 53, 119); fill-opacity:1.000; stroke:none;" />
 <path d="  M 24,18  L 24,17  L 23,17  L 23,18  Z  " style="fill:rgb(17, 53, 119); fill-opacity:1.000; stroke:none;" />
 <path d="  M 27,17  L 27,16  L 24,16  L 24,17  Z  " style="fill:rgb(17, 53, 119); fill-opacity:1.000; stroke:none;" />
 <path d="  M 28,83  L 28,79  L 24,79  L 24,83  L 25,83  L 25,82  L 26,82  L 26,83  Z  " style="fill:rgb(17, 53, 119); fill-opacity:1.000; stroke:none;" />
 <path d="  M 24,90  L 27,90  L 27,89  L 25,89  L 25,88  L 24,88  Z  " style="fill:rgb(17, 53, 119); fill-opacity:1.000; stroke:none;" />
 <path d="  M 32,96  L 32,95  L 29,95  L 29,94  L 25,94  L 25,95  L 27,95  L 27,96  Z  " style="fill:rgb(17, 53, 119); fill-opacity:1.000; stroke:none;" />
 <path d="  M 28,22  L 28,21  L 26,21  L 26,22  Z  " style="fill:rgb(17, 53, 119); fill-opacity:1.000; stroke:none;" />
 <path d="  M 26,38  L 26,39  L 28,39  L 28,38  Z  " style="fill:rgb(17, 53, 119); fill-opacity:1.000; stroke:none;" />
 <path d="  M 28,17  L 27,17  L 27,18  L 28,18  Z  " style="fill:rgb(17, 53, 119); fill-opacity:1.000; stroke:none;" />
 <path d="  M 29,20  L 29,18  L 28,18  L 28,20  Z  " style="fill:rgb(17, 53, 119); fill-opacity:1.000; stroke:none;" />
 <path d="  M 30,49  L 30,48  L 29,48  L 29,49  Z  " style="fill:rgb(17, 53, 119); fill-opacity:1.000; stroke:none;" />
 <path d="  M 32,52  L 32,49  L 30,49  L 30,52  Z  " style="fill:rgb(17, 53, 119); fill-opacity:1.000; stroke:none;" />
 <path d="  M 35,38  L 35,36  L 34,36  L 34,35  L 33,35  L 33,34  L 32,34  L 32,32  L 31,32  L 31,36  L 32,36  L 32,39  L 33,39  L 33,40  L 34,40  L 34,41  L 35,41  L 35,42  L 36,42  L 36,43  L 37,43  L 37,39  L 36,39  L 36,38  Z  " style="fill:rgb(17, 53, 119); fill-opacity:1.000; stroke:none;" />
 <path d="  M 34,82  L 34,83  L 33,83  L 33,85  L 34,85  L 34,86  L 33,86  L 33,89  L 31,89  L 31,90  L 34,90  L 34,91  L 35,91  L 35,93  L 34,93  L 34,94  L 37,94  L 37,93  L 36,93  L 36,92  L 37,92  L 37,89  L 36,89  L 36,85  L 35,85  L 35,82  Z  " style="fill:rgb(17, 53, 119); fill-opacity:1.000; stroke:none;" />
 <path d="  M 33,80  L 33,82  L 34,82  L 34,79  L 32,79  L 32,80  Z  " style="fill:rgb(17, 53, 119); fill-opacity:1.000; stroke:none;" />
 <path d="  M 32,94  L 32,95  L 34,95  L 34,94  Z  " style="fill:rgb(17, 53, 119); fill-opacity:1.000; stroke:none;" />
 <path d="  M 36,47  L 35,47  L 35,49  L 36,49  Z  " style="fill:rgb(17, 53, 119); fill-opacity:1.000; stroke:none;" />
 <path d="  M 8,17  L 9,17  L 9,16  L 8,16  Z  " style="fill:rgb(213, 218, 232); fill-opacity:1.000; stroke:none;" />
 <path d="  M 9,10  L 10,10  L 10,9  L 9,9  Z  " style="fill:rgb(213, 218, 232); fill-opacity:1.000; stroke:none;" />
 <path d="  M 10,21  L 9,21  L 9,22  L 10,22  Z  " style="fill:rgb(213, 218, 232); fill-opacity:1.000; stroke:none;" />
 <path d="  M 9,38  L 9,39  L 10,39  L 10,38  Z  " style="fill:rgb(213, 218, 232); fill-opacity:1.000; stroke:none;" />
 <path d="  M 11,23  L 10,23  L 10,24  L 11,24  Z  " style="fill:rgb(213, 218, 232); fill-opacity:1.000; stroke:none;" />
 <path d="  M 11,34  L 11,33  L 10,33  L 10,34  Z  " style="fill:rgb(213, 218, 232); fill-opacity:1.000; stroke:none;" />
 <path d="  M 12,11  L 11,11  L 11,12  L 12,12  Z  " style="fill:rgb(213, 218, 232); fill-opacity:1.000; stroke:none;" />
 <path d="  M 12,17  L 11,17  L 11,18  L 12,18  Z  " style="fill:rgb(213, 218, 232); fill-opacity:1.000; stroke:none;" />
 <path d="  M 12,29  L 12,28  L 11,28  L 11,29  Z  " style="fill:rgb(213, 218, 232); fill-opacity:1.000; stroke:none;" />
 <path d="  M 13,12  L 12,12  L 12,13  L 13,13  Z  " style="fill:rgb(213, 218, 232); fill-opacity:1.000; stroke:none;" />
 <path d="  M 13,19  L 12,19  L 12,20  L 13,20  Z  " style="fill:rgb(213, 218, 232); fill-opacity:1.000; stroke:none;" />
 <path d="  M 14,8  L 15,8  L 15,6  L 14,6  Z  " style="fill:rgb(213, 218, 232); fill-opacity:1.000; stroke:none;" />
 <path d="  M 14,36  L 15,36  L 15,35  L 14,35  Z  " style="fill:rgb(213, 218, 232); fill-opacity:1.000; stroke:none;" />
 <path d="  M 16,10  L 16,8  L 15,8  L 15,10  Z  " style="fill:rgb(213, 218, 232); fill-opacity:1.000; stroke:none;" />
 <path d="  M 15,34  L 15,35  L 18,35  L 18,34  Z  " style="fill:rgb(213, 218, 232); fill-opacity:1.000; stroke:none;" />
 <path d="  M 17,11  L 17,10  L 16,10  L 16,11  Z  " style="fill:rgb(213, 218, 232); fill-opacity:1.000; stroke:none;" />
 <path d="  M 16,20  L 16,21  L 17,21  L 17,20  Z  " style="fill:rgb(213, 218, 232); fill-opacity:1.000; stroke:none;" />
 <path d="  M 19,96  L 19,95  L 16,95  L 16,96  Z  " style="fill:rgb(213, 218, 232); fill-opacity:1.000; stroke:none;" />
 <path d="  M 19,32  L 19,31  L 18,31  L 18,32  Z  " style="fill:rgb(213, 218, 232); fill-opacity:1.000; stroke:none;" />
 <path d="  M 19,19  L 20,19  L 20,18  L 19,18  Z  " style="fill:rgb(213, 218, 232); fill-opacity:1.000; stroke:none;" />
 <path d="  M 20,17  L 20,18  L 21,18  L 21,17  Z  " style="fill:rgb(213, 218, 232); fill-opacity:1.000; stroke:none;" />
 <path d="  M 23,34  L 23,35  L 26,35  L 26,34  Z  " style="fill:rgb(213, 218, 232); fill-opacity:1.000; stroke:none;" />
 <path d="  M 24,21  L 24,22  L 25,22  L 25,21  Z  " style="fill:rgb(213, 218, 232); fill-opacity:1.000; stroke:none;" />
 <path d="  M 26,31  L 24,31  L 24,32  L 26,32  Z  " style="fill:rgb(213, 218, 232); fill-opacity:1.000; stroke:none;" />
 <path d="  M 27,10  L 27,9  L 26,9  L 26,10  Z  " style="fill:rgb(213, 218, 232); fill-opacity:1.000; stroke:none;" />
 <path d="  M 27,15  L 27,14  L 26,14  L 26,15  Z  " style="fill:rgb(213, 218, 232); fill-opacity:1.000; stroke:none;" />
 <path d="  M 28,10  L 27,10  L 27,11  L 28,11  Z  " style="fill:rgb(213, 218, 232); fill-opacity:1.000; stroke:none;" />
 <path d="  M 27,14  L 28,14  L 28,13  L 27,13  Z  " style="fill:rgb(213, 218, 232); fill-opacity:1.000; stroke:none;" />
 <path d="  M 28,4  L 28,5  L 34,5  L 34,4  Z  " style="fill:rgb(213, 218, 232); fill-opacity:1.000; stroke:none;" />
 <path d="  M 28,11  L 28,12  L 29,12  L 29,11  Z  " style="fill:rgb(213, 218, 232); fill-opacity:1.000; stroke:none;" />
 <path d="  M 30,7  L 29,7  L 29,11  L 30,11  Z  " style="fill:rgb(213, 218, 232); fill-opacity:1.000; stroke:none;" />
 <path d="  M 29,96  L 29,97  L 33,97  L 33,96  Z  " style="fill:rgb(213, 218, 232); fill-opacity:1.000; stroke:none;" />
 <path d="  M 33,97  L 33,98  L 34,98  L 34,97  Z  " style="fill:rgb(213, 218, 232); fill-opacity:1.000; stroke:none;" />
 <path d="  M 36,11  L 36,10  L 35,10  L 35,11  Z  " style="fill:rgb(213, 218, 232); fill-opacity:1.000; stroke:none;" />
 <path d="  M 37,13  L 36,13  L 36,14  L 37,14  Z  " style="fill:rgb(213, 218, 232); fill-opacity:1.000; stroke:none;" />
 <path d="  M 36,23  L 36,24  L 37,24  L 37,23  Z  " style="fill:rgb(213, 218, 232); fill-opacity:1.000; stroke:none;" />
 <path d="  M 37,15  L 37,16  L 38,16  L 38,15  Z  " style="fill:rgb(213, 218, 232); fill-opacity:1.000; stroke:none;" />
 <path d="  M 37,25  L 37,26  L 38,26  L 38,25  Z  " style="fill:rgb(213, 218, 232); fill-opacity:1.000; stroke:none;" />
 <path d="  M 38,5  L 39,5  L 39,4  L 38,4  Z  " style="fill:rgb(213, 218, 232); fill-opacity:1.000; stroke:none;" />
 <path d="  M 38,17  L 38,19  L 39,19  L 39,17  Z  " style="fill:rgb(213, 218, 232); fill-opacity:1.000; stroke:none;" />
 <path d="  M 38,35  L 38,42  L 39,42  L 39,35  Z  " style="fill:rgb(213, 218, 232); fill-opacity:1.000; stroke:none;" />
 <path d="  M 40,4  L 40,3  L 39,3  L 39,4  Z  " style="fill:rgb(213, 218, 232); fill-opacity:1.000; stroke:none;" />
 <path d="  M 40,19  L 39,19  L 39,21  L 40,21  Z  " style="fill:rgb(213, 218, 232); fill-opacity:1.000; stroke:none;" />
 <path d="  M 39,31  L 39,32  L 40,32  L 40,31  Z  " style="fill:rgb(213, 218, 232); fill-opacity:1.000; stroke:none;" />
 <path d="  M 41,21  L 40,21  L 40,24  L 41,24  Z  " style="fill:rgb(213, 218, 232); fill-opacity:1.000; stroke:none;" />
 <path d="  M 42,24  L 41,24  L 41,25  L 42,25  Z  " style="fill:rgb(213, 218, 232); fill-opacity:1.000; stroke:none;" />
 <path d="  M 9,84  L 8,84  L 8,85  L 9,85  Z  " style="fill:rgb(12, 74, 165); fill-opacity:1.000; stroke:none;" />
 <path d="  M 9,87  L 10,87  L 10,86  L 9,86  Z  " style="fill:rgb(12, 74, 165); fill-opacity:1.000; stroke:none;" />
 <path d="  M 15,83  L 14,83  L 14,81  L 13,81  L 13,79  L 19,79  L 19,82  L 18,82  L 18,84  L 20,84  L 20,82  L 21,82  L 21,79  L 20,79  L 20,78  L 10,78  L 10,82  L 11,82  L 11,85  L 12,85  L 12,86  L 14,86  L 14,84  L 15,84  Z  " style="fill:rgb(12, 74, 165); fill-opacity:1.000; stroke:none;" />
 <path d="  M 10,92  L 13,92  L 13,93  L 14,93  L 14,91  L 13,91  L 13,90  L 10,90  Z  " style="fill:rgb(12, 74, 165); fill-opacity:1.000; stroke:none;" />
 <path d="  M 12,87  L 11,87  L 11,88  L 12,88  Z  " style="fill:rgb(12, 74, 165); fill-opacity:1.000; stroke:none;" />
 <path d="  M 15,48  L 13,48  L 13,51  L 15,51  Z  " style="fill:rgb(12, 74, 165); fill-opacity:1.000; stroke:none;" />
 <path d="  M 14,94  L 14,95  L 15,95  L 15,94  Z  " style="fill:rgb(12, 74, 165); fill-opacity:1.000; stroke:none;" />
 <path d="  M 16,19  L 16,20  L 17,20  L 17,23  L 19,23  L 19,20  L 18,20  L 18,19  Z  " style="fill:rgb(12, 74, 165); fill-opacity:1.000; stroke:none;" />
 <path d="  M 17,92  L 17,91  L 16,91  L 16,92  Z  " style="fill:rgb(12, 74, 165); fill-opacity:1.000; stroke:none;" />
 <path d="  M 19,94  L 19,93  L 16,93  L 16,94  Z  " style="fill:rgb(12, 74, 165); fill-opacity:1.000; stroke:none;" />
 <path d="  M 20,92  L 20,90  L 18,90  L 18,91  L 19,91  L 19,92  Z  " style="fill:rgb(12, 74, 165); fill-opacity:1.000; stroke:none;" />
 <path d="  M 19,94  L 19,95  L 20,95  L 20,94  Z  " style="fill:rgb(12, 74, 165); fill-opacity:1.000; stroke:none;" />
 <path d="  M 19,98  L 20,98  L 20,97  L 19,97  Z  " style="fill:rgb(12, 74, 165); fill-opacity:1.000; stroke:none;" />
 <path d="  M 22,50  L 22,51  L 26,51  L 26,52  L 30,52  L 30,50  Z  " style="fill:rgb(12, 74, 165); fill-opacity:1.000; stroke:none;" />
 <path d="  M 24,19  L 24,18  L 23,18  L 23,19  Z  " style="fill:rgb(12, 74, 165); fill-opacity:1.000; stroke:none;" />
 <path d="  M 24,18  L 26,18  L 26,20  L 27,20  L 27,17  L 24,17  Z  " style="fill:rgb(12, 74, 165); fill-opacity:1.000; stroke:none;" />
 <path d="  M 26,85  L 26,86  L 24,86  L 24,88  L 25,88  L 25,89  L 26,89  L 26,87  L 29,87  L 29,86  L 28,86  L 28,85  Z  " style="fill:rgb(12, 74, 165); fill-opacity:1.000; stroke:none;" />
 <path d="  M 24,90  L 24,92  L 26,92  L 26,91  L 25,91  L 25,90  Z  " style="fill:rgb(12, 74, 165); fill-opacity:1.000; stroke:none;" />
 <path d="  M 24,94  L 25,94  L 25,93  L 24,93  Z  " style="fill:rgb(12, 74, 165); fill-opacity:1.000; stroke:none;" />
 <path d="  M 25,22  L 26,22  L 26,21  L 25,21  Z  " style="fill:rgb(12, 74, 165); fill-opacity:1.000; stroke:none;" />
 <path d="  M 26,83  L 26,82  L 25,82  L 25,83  Z  " style="fill:rgb(12, 74, 165); fill-opacity:1.000; stroke:none;" />
 <path d="  M 28,20  L 27,20  L 27,21  L 28,21  Z  " style="fill:rgb(12, 74, 165); fill-opacity:1.000; stroke:none;" />
 <path d="  M 27,89  L 27,90  L 29,90  L 29,89  Z  " style="fill:rgb(12, 74, 165); fill-opacity:1.000; stroke:none;" />
 <path d="  M 28,81  L 29,81  L 29,79  L 28,79  Z  " style="fill:rgb(12, 74, 165); fill-opacity:1.000; stroke:none;" />
 <path d="  M 29,94  L 29,95  L 30,95  L 30,93  L 28,93  L 28,94  Z  " style="fill:rgb(12, 74, 165); fill-opacity:1.000; stroke:none;" />
 <path d="  M 31,79  L 30,79  L 30,80  L 31,80  Z  " style="fill:rgb(12, 74, 165); fill-opacity:1.000; stroke:none;" />
 <path d="  M 31,90  L 31,89  L 30,89  L 30,90  Z  " style="fill:rgb(12, 74, 165); fill-opacity:1.000; stroke:none;" />
 <path d="  M 31,29  L 32,29  L 32,28  L 31,28  Z  " style="fill:rgb(12, 74, 165); fill-opacity:1.000; stroke:none;" />
 <path d="  M 34,30  L 34,29  L 32,29  L 32,30  L 33,30  L 33,31  L 34,31  L 34,32  L 35,32  L 35,30  Z  " style="fill:rgb(12, 74, 165); fill-opacity:1.000; stroke:none;" />
 <path d="  M 32,85  L 33,85  L 33,83  L 34,83  L 34,82  L 32,82  Z  " style="fill:rgb(12, 74, 165); fill-opacity:1.000; stroke:none;" />
 <path d="  M 33,89  L 33,88  L 32,88  L 32,89  Z  " style="fill:rgb(12, 74, 165); fill-opacity:1.000; stroke:none;" />
 <path d="  M 35,91  L 34,91  L 34,90  L 33,90  L 33,92  L 32,92  L 32,93  L 33,93  L 33,94  L 34,94  L 34,93  L 35,93  Z  " style="fill:rgb(12, 74, 165); fill-opacity:1.000; stroke:none;" />
 <path d="  M 33,85  L 33,86  L 34,86  L 34,85  Z  " style="fill:rgb(12, 74, 165); fill-opacity:1.000; stroke:none;" />
 <path d="  M 34,81  L 34,82  L 35,82  L 35,81  Z  " style="fill:rgb(12, 74, 165); fill-opacity:1.000; stroke:none;" />
 <path d="  M 37,89  L 37,88  L 36,88  L 36,89  Z  " style="fill:rgb(12, 74, 165); fill-opacity:1.000; stroke:none;" />
 <path d="  M 37,93  L 37,92  L 36,92  L 36,93  Z  " style="fill:rgb(12, 74, 165); fill-opacity:1.000; stroke:none;" />
 <path d="  M 11,84  L 9,84  L 9,85  L 11,85  Z  " style="fill:rgb(55, 111, 195); fill-opacity:1.000; stroke:none;" />
 <path d="  M 11,89  L 12,89  L 12,88  L 11,88  Z  " style="fill:rgb(55, 111, 195); fill-opacity:1.000; stroke:none;" />
 <path d="  M 12,89  L 12,90  L 13,90  L 13,89  Z  " style="fill:rgb(55, 111, 195); fill-opacity:1.000; stroke:none;" />
 <path d="  M 13,96  L 13,97  L 14,97  L 14,96  Z  " style="fill:rgb(55, 111, 195); fill-opacity:1.000; stroke:none;" />
 <path d="  M 15,80  L 15,79  L 14,79  L 14,80  Z  " style="fill:rgb(55, 111, 195); fill-opacity:1.000; stroke:none;" />
 <path d="  M 15,84  L 14,84  L 14,86  L 15,86  Z  " style="fill:rgb(55, 111, 195); fill-opacity:1.000; stroke:none;" />
 <path d="  M 16,50  L 16,49  L 15,49  L 15,51  L 20,51  L 20,50  Z  " style="fill:rgb(55, 111, 195); fill-opacity:1.000; stroke:none;" />
 <path d="  M 16,87  L 15,87  L 15,88  L 16,88  Z  " style="fill:rgb(55, 111, 195); fill-opacity:1.000; stroke:none;" />
 <path d="  M 16,91  L 15,91  L 15,92  L 16,92  Z  " style="fill:rgb(55, 111, 195); fill-opacity:1.000; stroke:none;" />
 <path d="  M 19,98  L 19,97  L 15,97  L 15,98  Z  " style="fill:rgb(55, 111, 195); fill-opacity:1.000; stroke:none;" />
 <path d="  M 18,84  L 18,83  L 17,83  L 17,84  Z  " style="fill:rgb(55, 111, 195); fill-opacity:1.000; stroke:none;" />
 <path d="  M 19,79  L 18,79  L 18,80  L 19,80  Z  " style="fill:rgb(55, 111, 195); fill-opacity:1.000; stroke:none;" />
 <path d="  M 21,52  L 26,52  L 26,51  L 22,51  L 22,50  L 21,50  Z  " style="fill:rgb(55, 111, 195); fill-opacity:1.000; stroke:none;" />
 <path d="  M 22,49  L 22,50  L 23,50  L 23,49  Z  " style="fill:rgb(55, 111, 195); fill-opacity:1.000; stroke:none;" />
 <path d="  M 24,85  L 24,86  L 26,86  L 26,85  Z  " style="fill:rgb(55, 111, 195); fill-opacity:1.000; stroke:none;" />
 <path d="  M 24,93  L 25,93  L 25,94  L 26,94  L 26,92  L 24,92  Z  " style="fill:rgb(55, 111, 195); fill-opacity:1.000; stroke:none;" />
 <path d="  M 25,21  L 27,21  L 27,20  L 26,20  L 26,18  L 25,18  Z  " style="fill:rgb(55, 111, 195); fill-opacity:1.000; stroke:none;" />
 <path d="  M 25,90  L 25,91  L 27,91  L 27,90  Z  " style="fill:rgb(55, 111, 195); fill-opacity:1.000; stroke:none;" />
 <path d="  M 27,20  L 28,20  L 28,18  L 27,18  Z  " style="fill:rgb(55, 111, 195); fill-opacity:1.000; stroke:none;" />
 <path d="  M 29,85  L 29,84  L 27,84  L 27,85  L 28,85  L 28,86  L 30,86  L 30,85  Z  " style="fill:rgb(55, 111, 195); fill-opacity:1.000; stroke:none;" />
 <path d="  M 30,50  L 30,49  L 28,49  L 28,50  Z  " style="fill:rgb(55, 111, 195); fill-opacity:1.000; stroke:none;" />
 <path d="  M 29,83  L 29,81  L 28,81  L 28,83  Z  " style="fill:rgb(55, 111, 195); fill-opacity:1.000; stroke:none;" />
 <path d="  M 28,87  L 28,88  L 29,88  L 29,87  Z  " style="fill:rgb(55, 111, 195); fill-opacity:1.000; stroke:none;" />
 <path d="  M 29,79  L 29,80  L 30,80  L 30,79  Z  " style="fill:rgb(55, 111, 195); fill-opacity:1.000; stroke:none;" />
 <path d="  M 29,89  L 29,90  L 30,90  L 30,89  Z  " style="fill:rgb(55, 111, 195); fill-opacity:1.000; stroke:none;" />
 <path d="  M 29,92  L 29,93  L 30,93  L 30,92  Z  " style="fill:rgb(55, 111, 195); fill-opacity:1.000; stroke:none;" />
 <path d="  M 29,98  L 29,99  L 33,99  L 33,98  Z  " style="fill:rgb(55, 111, 195); fill-opacity:1.000; stroke:none;" />
 <path d="  M 32,95  L 32,94  L 30,94  L 30,95  Z  " style="fill:rgb(55, 111, 195); fill-opacity:1.000; stroke:none;" />
 <path d="  M 31,80  L 32,80  L 32,79  L 31,79  Z  " style="fill:rgb(55, 111, 195); fill-opacity:1.000; stroke:none;" />
 <path d="  M 31,82  L 31,86  L 33,86  L 33,85  L 32,85  L 32,82  Z  " style="fill:rgb(55, 111, 195); fill-opacity:1.000; stroke:none;" />
 <path d="  M 32,80  L 32,81  L 33,81  L 33,80  Z  " style="fill:rgb(55, 111, 195); fill-opacity:1.000; stroke:none;" />
 <path d="  M 33,88  L 33,87  L 32,87  L 32,88  Z  " style="fill:rgb(55, 111, 195); fill-opacity:1.000; stroke:none;" />
 <path d="  M 33,90  L 32,90  L 32,92  L 33,92  Z  " style="fill:rgb(55, 111, 195); fill-opacity:1.000; stroke:none;" />
 <path d="  M 33,93  L 32,93  L 32,94  L 33,94  Z  " style="fill:rgb(55, 111, 195); fill-opacity:1.000; stroke:none;" />
 <path d="  M 35,98  L 35,97  L 34,97  L 34,98  Z  " style="fill:rgb(55, 111, 195); fill-opacity:1.000; stroke:none;" />
 <path d="  M 36,97  L 36,96  L 35,96  L 35,97  Z  " style="fill:rgb(55, 111, 195); fill-opacity:1.000; stroke:none;" />
 <path d="  M 37,34  L 38,34  L 38,30  L 37,30  Z  " style="fill:rgb(55, 111, 195); fill-opacity:1.000; stroke:none;" />
</svg>
