<?xml version="1.0" encoding="UTF-8" standalone="no"?>
<!DOCTYPE svg PUBLIC "-//W3C//DTD SVG 1.1//EN" 
  "http://www.w3.org/Graphics/SVG/1.1/DTD/svg11.dtd">
<svg width="45" height="100"
     xmlns="http://www.w3.org/2000/svg" version="1.1">
 <path d="  M 13,88  L 14,88  L 14,84  L 15,84  L 15,83  L 16,83  L 16,77  L 15,77  L 15,79  L 14,79  L 14,80  L 13,80  L 13,81  L 12,81  L 12,82  L 11,82  L 11,83  L 10,83  L 10,84  L 9,84  L 9,85  L 8,85  L 8,86  L 6,86  L 6,85  L 5,85  L 5,83  L 6,83  L 6,82  L 7,82  L 7,81  L 8,81  L 8,80  L 9,80  L 9,79  L 10,79  L 10,78  L 11,78  L 11,76  L 12,76  L 12,74  L 11,74  L 11,73  L 10,73  L 10,60  L 9,60  L 9,59  L 8,59  L 8,60  L 4,60  L 4,59  L 3,59  L 3,56  L 4,56  L 4,50  L 5,50  L 5,49  L 7,49  L 7,48  L 6,48  L 6,43  L 7,43  L 7,38  L 12,38  L 12,36  L 11,36  L 11,33  L 9,33  L 9,34  L 8,34  L 8,33  L 7,33  L 7,32  L 6,32  L 6,31  L 5,31  L 5,29  L 4,29  L 4,25  L 3,25  L 3,20  L 2,20  L 2,1  L 8,1  L 8,2  L 19,2  L 19,3  L 32,3  L 32,4  L 37,4  L 37,6  L 36,6  L 36,7  L 35,7  L 35,8  L 34,8  L 34,9  L 33,9  L 33,10  L 32,10  L 32,11  L 31,11  L 31,12  L 30,12  L 30,13  L 29,13  L 29,16  L 30,16  L 30,19  L 31,19  L 31,22  L 32,22  L 32,25  L 33,25  L 33,27  L 32,27  L 32,28  L 31,28  L 31,27  L 30,27  L 30,25  L 29,25  L 29,31  L 28,31  L 28,32  L 27,32  L 27,38  L 29,38  L 29,44  L 42,44  L 42,46  L 41,46  L 41,48  L 40,48  L 40,50  L 39,50  L 39,53  L 38,53  L 38,55  L 37,55  L 37,56  L 42,56  L 42,66  L 43,66  L 43,75  L 44,75  L 44,82  L 40,82  L 40,83  L 39,83  L 39,87  L 40,87  L 40,95  L 39,95  L 39,96  L 38,96  L 38,97  L 34,97  L 34,96  L 33,96  L 33,95  L 32,95  L 32,86  L 31,86  L 31,83  L 29,83  L 29,84  L 23,84  L 23,87  L 22,87  L 22,98  L 21,98  L 21,99  L 20,99  L 20,100  L 45,100  L 45,0  L 0,0  L 0,100  L 15,100  L 15,99  L 14,99  L 14,98  L 13,98  L 13,97  L 12,97  L 12,91  L 13,91  Z  " style="fill:rgb(255, 255, 255); fill-opacity:0.000; stroke:none;" />
 <path d="  M 12,39  L 13,39  L 13,38  L 12,38  Z  " style="fill:rgb(255, 255, 255); fill-opacity:0.000; stroke:none;" />
 <path d="  M 13,74  L 13,73  L 12,73  L 12,74  Z  " style="fill:rgb(255, 255, 255); fill-opacity:0.000; stroke:none;" />
 <path d="  M 26,30  L 25,30  L 25,31  L 26,31  Z  " style="fill:rgb(255, 255, 255); fill-opacity:0.000; stroke:none;" />
 <path d="  M 27,31  L 26,31  L 26,32  L 27,32  Z  " style="fill:rgb(255, 255, 255); fill-opacity:0.000; stroke:none;" />
 <path d="  M 3,2  L 8,2  L 8,1  L 2,1  L 2,20  L 3,20  Z  " style="fill:rgb(0, 0, 0); fill-opacity:1.000; stroke:none;" />
 <path d="  M 4,20  L 3,20  L 3,25  L 4,25  Z  " style="fill:rgb(0, 0, 0); fill-opacity:1.000; stroke:none;" />
 <path d="  M 4,59  L 4,56  L 3,56  L 3,59  Z  " style="fill:rgb(0, 0, 0); fill-opacity:1.000; stroke:none;" />
 <path d="  M 4,25  L 4,29  L 5,29  L 5,25  Z  " style="fill:rgb(0, 0, 0); fill-opacity:1.000; stroke:none;" />
 <path d="  M 4,50  L 4,56  L 5,56  L 5,50  Z  " style="fill:rgb(0, 0, 0); fill-opacity:1.000; stroke:none;" />
 <path d="  M 8,60  L 8,59  L 4,59  L 4,60  Z  " style="fill:rgb(0, 0, 0); fill-opacity:1.000; stroke:none;" />
 <path d="  M 6,29  L 5,29  L 5,31  L 6,31  Z  " style="fill:rgb(0, 0, 0); fill-opacity:1.000; stroke:none;" />
 <path d="  M 5,49  L 5,50  L 7,50  L 7,49  Z  " style="fill:rgb(0, 0, 0); fill-opacity:1.000; stroke:none;" />
 <path d="  M 6,85  L 6,83  L 5,83  L 5,85  Z  " style="fill:rgb(0, 0, 0); fill-opacity:1.000; stroke:none;" />
 <path d="  M 6,31  L 6,32  L 7,32  L 7,31  Z  " style="fill:rgb(0, 0, 0); fill-opacity:1.000; stroke:none;" />
 <path d="  M 7,43  L 6,43  L 6,48  L 7,48  L 7,49  L 10,49  L 10,47  L 7,47  Z  " style="fill:rgb(0, 0, 0); fill-opacity:1.000; stroke:none;" />
 <path d="  M 6,83  L 7,83  L 7,82  L 6,82  Z  " style="fill:rgb(0, 0, 0); fill-opacity:1.000; stroke:none;" />
 <path d="  M 6,85  L 6,86  L 8,86  L 8,85  Z  " style="fill:rgb(0, 0, 0); fill-opacity:1.000; stroke:none;" />
 <path d="  M 8,33  L 8,32  L 7,32  L 7,33  Z  " style="fill:rgb(0, 0, 0); fill-opacity:1.000; stroke:none;" />
 <path d="  M 8,39  L 12,39  L 12,38  L 7,38  L 7,43  L 8,43  Z  " style="fill:rgb(0, 0, 0); fill-opacity:1.000; stroke:none;" />
 <path d="  M 8,81  L 7,81  L 7,82  L 8,82  Z  " style="fill:rgb(0, 0, 0); fill-opacity:1.000; stroke:none;" />
 <path d="  M 19,3  L 19,2  L 8,2  L 8,3  Z  " style="fill:rgb(0, 0, 0); fill-opacity:1.000; stroke:none;" />
 <path d="  M 8,34  L 9,34  L 9,33  L 8,33  Z  " style="fill:rgb(0, 0, 0); fill-opacity:1.000; stroke:none;" />
 <path d="  M 9,59  L 9,58  L 8,58  L 8,59  Z  " style="fill:rgb(0, 0, 0); fill-opacity:1.000; stroke:none;" />
 <path d="  M 9,81  L 9,80  L 8,80  L 8,81  Z  " style="fill:rgb(0, 0, 0); fill-opacity:1.000; stroke:none;" />
 <path d="  M 9,84  L 8,84  L 8,85  L 9,85  Z  " style="fill:rgb(0, 0, 0); fill-opacity:1.000; stroke:none;" />
 <path d="  M 11,32  L 9,32  L 9,33  L 11,33  Z  " style="fill:rgb(0, 0, 0); fill-opacity:1.000; stroke:none;" />
 <path d="  M 10,59  L 9,59  L 9,60  L 10,60  Z  " style="fill:rgb(0, 0, 0); fill-opacity:1.000; stroke:none;" />
 <path d="  M 10,79  L 9,79  L 9,80  L 10,80  Z  " style="fill:rgb(0, 0, 0); fill-opacity:1.000; stroke:none;" />
 <path d="  M 9,83  L 9,84  L 10,84  L 10,83  Z  " style="fill:rgb(0, 0, 0); fill-opacity:1.000; stroke:none;" />
 <path d="  M 11,73  L 11,60  L 10,60  L 10,73  Z  " style="fill:rgb(0, 0, 0); fill-opacity:1.000; stroke:none;" />
 <path d="  M 10,78  L 10,79  L 11,79  L 11,78  Z  " style="fill:rgb(0, 0, 0); fill-opacity:1.000; stroke:none;" />
 <path d="  M 11,82  L 10,82  L 10,83  L 11,83  Z  " style="fill:rgb(0, 0, 0); fill-opacity:1.000; stroke:none;" />
 <path d="  M 12,33  L 11,33  L 11,36  L 12,36  Z  " style="fill:rgb(0, 0, 0); fill-opacity:1.000; stroke:none;" />
 <path d="  M 11,60  L 12,60  L 12,56  L 11,56  Z  " style="fill:rgb(0, 0, 0); fill-opacity:1.000; stroke:none;" />
 <path d="  M 12,74  L 12,73  L 11,73  L 11,74  Z  " style="fill:rgb(0, 0, 0); fill-opacity:1.000; stroke:none;" />
 <path d="  M 12,76  L 11,76  L 11,78  L 12,78  Z  " style="fill:rgb(0, 0, 0); fill-opacity:1.000; stroke:none;" />
 <path d="  M 12,82  L 12,81  L 11,81  L 11,82  Z  " style="fill:rgb(0, 0, 0); fill-opacity:1.000; stroke:none;" />
 <path d="  M 12,38  L 13,38  L 13,36  L 12,36  Z  " style="fill:rgb(0, 0, 0); fill-opacity:1.000; stroke:none;" />
 <path d="  M 14,38  L 13,38  L 13,39  L 12,39  L 12,40  L 14,40  Z  " style="fill:rgb(0, 0, 0); fill-opacity:1.000; stroke:none;" />
 <path d="  M 12,72  L 12,73  L 13,73  L 13,74  L 14,74  L 14,72  Z  " style="fill:rgb(0, 0, 0); fill-opacity:1.000; stroke:none;" />
 <path d="  M 12,76  L 13,76  L 13,74  L 12,74  Z  " style="fill:rgb(0, 0, 0); fill-opacity:1.000; stroke:none;" />
 <path d="  M 12,81  L 13,81  L 13,80  L 12,80  Z  " style="fill:rgb(0, 0, 0); fill-opacity:1.000; stroke:none;" />
 <path d="  M 12,97  L 13,97  L 13,91  L 12,91  Z  " style="fill:rgb(0, 0, 0); fill-opacity:1.000; stroke:none;" />
 <path d="  M 13,79  L 13,80  L 14,80  L 14,79  Z  " style="fill:rgb(0, 0, 0); fill-opacity:1.000; stroke:none;" />
 <path d="  M 14,88  L 13,88  L 13,91  L 14,91  Z  " style="fill:rgb(0, 0, 0); fill-opacity:1.000; stroke:none;" />
 <path d="  M 14,98  L 14,97  L 13,97  L 13,98  Z  " style="fill:rgb(0, 0, 0); fill-opacity:1.000; stroke:none;" />
 <path d="  M 25,58  L 25,57  L 14,57  L 14,65  L 15,65  L 15,58  Z  " style="fill:rgb(0, 0, 0); fill-opacity:1.000; stroke:none;" />
 <path d="  M 14,79  L 15,79  L 15,77  L 14,77  Z  " style="fill:rgb(0, 0, 0); fill-opacity:1.000; stroke:none;" />
 <path d="  M 14,88  L 15,88  L 15,84  L 14,84  Z  " style="fill:rgb(0, 0, 0); fill-opacity:1.000; stroke:none;" />
 <path d="  M 15,98  L 14,98  L 14,99  L 15,99  Z  " style="fill:rgb(0, 0, 0); fill-opacity:1.000; stroke:none;" />
 <path d="  M 16,65  L 15,65  L 15,74  L 16,74  Z  " style="fill:rgb(0, 0, 0); fill-opacity:1.000; stroke:none;" />
 <path d="  M 17,83  L 17,74  L 16,74  L 16,76  L 15,76  L 15,77  L 16,77  L 16,83  L 15,83  L 15,84  L 22,84  L 22,87  L 23,87  L 23,84  L 29,84  L 29,83  Z  " style="fill:rgb(0, 0, 0); fill-opacity:1.000; stroke:none;" />
 <path d="  M 15,99  L 15,100  L 20,100  L 20,99  Z  " style="fill:rgb(0, 0, 0); fill-opacity:1.000; stroke:none;" />
 <path d="  M 32,4  L 32,3  L 19,3  L 19,4  Z  " style="fill:rgb(0, 0, 0); fill-opacity:1.000; stroke:none;" />
 <path d="  M 20,98  L 20,99  L 21,99  L 21,98  Z  " style="fill:rgb(0, 0, 0); fill-opacity:1.000; stroke:none;" />
 <path d="  M 22,87  L 21,87  L 21,98  L 22,98  Z  " style="fill:rgb(0, 0, 0); fill-opacity:1.000; stroke:none;" />
 <path d="  M 27,68  L 27,66  L 29,66  L 29,64  L 34,64  L 34,62  L 27,62  L 27,64  L 25,64  L 25,66  L 23,66  L 23,75  L 25,75  L 25,77  L 34,77  L 34,75  L 36,75  L 36,70  L 34,70  L 34,68  Z  M 27,75  L 27,70  L 32,70  L 32,75  Z  " style="fill:rgb(0, 0, 0); fill-opacity:1.000; stroke:none;" />
 <path d="  M 24,31  L 25,31  L 25,30  L 26,30  L 26,29  L 24,29  Z  " style="fill:rgb(0, 0, 0); fill-opacity:1.000; stroke:none;" />
 <path d="  M 25,32  L 26,32  L 26,31  L 25,31  Z  " style="fill:rgb(0, 0, 0); fill-opacity:1.000; stroke:none;" />
 <path d="  M 26,31  L 27,31  L 27,30  L 26,30  Z  " style="fill:rgb(0, 0, 0); fill-opacity:1.000; stroke:none;" />
 <path d="  M 26,38  L 27,38  L 27,32  L 26,32  Z  " style="fill:rgb(0, 0, 0); fill-opacity:1.000; stroke:none;" />
 <path d="  M 27,32  L 28,32  L 28,31  L 27,31  Z  " style="fill:rgb(0, 0, 0); fill-opacity:1.000; stroke:none;" />
 <path d="  M 29,38  L 27,38  L 27,39  L 28,39  L 28,44  L 29,44  Z  " style="fill:rgb(0, 0, 0); fill-opacity:1.000; stroke:none;" />
 <path d="  M 28,16  L 29,16  L 29,13  L 28,13  Z  " style="fill:rgb(0, 0, 0); fill-opacity:1.000; stroke:none;" />
 <path d="  M 28,23  L 28,31  L 29,31  L 29,25  L 30,25  L 30,24  L 29,24  L 29,23  Z  " style="fill:rgb(0, 0, 0); fill-opacity:1.000; stroke:none;" />
 <path d="  M 30,12  L 29,12  L 29,13  L 30,13  Z  " style="fill:rgb(0, 0, 0); fill-opacity:1.000; stroke:none;" />
 <path d="  M 29,19  L 30,19  L 30,16  L 29,16  Z  " style="fill:rgb(0, 0, 0); fill-opacity:1.000; stroke:none;" />
 <path d="  M 41,45  L 41,46  L 42,46  L 42,44  L 29,44  L 29,46  L 31,46  L 31,45  Z  " style="fill:rgb(0, 0, 0); fill-opacity:1.000; stroke:none;" />
 <path d="  M 31,86  L 32,86  L 32,83  L 38,83  L 38,87  L 39,87  L 39,83  L 40,83  L 40,82  L 29,82  L 29,83  L 31,83  Z  " style="fill:rgb(0, 0, 0); fill-opacity:1.000; stroke:none;" />
 <path d="  M 30,11  L 30,12  L 31,12  L 31,11  Z  " style="fill:rgb(0, 0, 0); fill-opacity:1.000; stroke:none;" />
 <path d="  M 30,22  L 31,22  L 31,19  L 30,19  Z  " style="fill:rgb(0, 0, 0); fill-opacity:1.000; stroke:none;" />
 <path d="  M 31,25  L 30,25  L 30,27  L 31,27  Z  " style="fill:rgb(0, 0, 0); fill-opacity:1.000; stroke:none;" />
 <path d="  M 31,11  L 32,11  L 32,10  L 31,10  Z  " style="fill:rgb(0, 0, 0); fill-opacity:1.000; stroke:none;" />
 <path d="  M 32,22  L 31,22  L 31,25  L 32,25  Z  " style="fill:rgb(0, 0, 0); fill-opacity:1.000; stroke:none;" />
 <path d="  M 31,28  L 32,28  L 32,27  L 31,27  Z  " style="fill:rgb(0, 0, 0); fill-opacity:1.000; stroke:none;" />
 <path d="  M 32,46  L 31,46  L 31,47  L 32,47  Z  " style="fill:rgb(0, 0, 0); fill-opacity:1.000; stroke:none;" />
 <path d="  M 32,5  L 36,5  L 36,6  L 37,6  L 37,4  L 32,4  Z  " style="fill:rgb(0, 0, 0); fill-opacity:1.000; stroke:none;" />
 <path d="  M 33,9  L 32,9  L 32,10  L 33,10  Z  " style="fill:rgb(0, 0, 0); fill-opacity:1.000; stroke:none;" />
 <path d="  M 33,27  L 33,25  L 32,25  L 32,27  Z  " style="fill:rgb(0, 0, 0); fill-opacity:1.000; stroke:none;" />
 <path d="  M 32,47  L 32,48  L 34,48  L 34,47  Z  " style="fill:rgb(0, 0, 0); fill-opacity:1.000; stroke:none;" />
 <path d="  M 33,86  L 32,86  L 32,95  L 33,95  Z  " style="fill:rgb(0, 0, 0); fill-opacity:1.000; stroke:none;" />
 <path d="  M 34,8  L 33,8  L 33,9  L 34,9  Z  " style="fill:rgb(0, 0, 0); fill-opacity:1.000; stroke:none;" />
 <path d="  M 42,56  L 37,56  L 37,55  L 36,55  L 36,56  L 33,56  L 33,57  L 41,57  L 41,66  L 42,66  Z  " style="fill:rgb(0, 0, 0); fill-opacity:1.000; stroke:none;" />
 <path d="  M 33,95  L 33,96  L 34,96  L 34,95  Z  " style="fill:rgb(0, 0, 0); fill-opacity:1.000; stroke:none;" />
 <path d="  M 35,7  L 34,7  L 34,8  L 35,8  Z  " style="fill:rgb(0, 0, 0); fill-opacity:1.000; stroke:none;" />
 <path d="  M 34,49  L 35,49  L 35,48  L 34,48  Z  " style="fill:rgb(0, 0, 0); fill-opacity:1.000; stroke:none;" />
 <path d="  M 34,96  L 34,97  L 38,97  L 38,96  Z  " style="fill:rgb(0, 0, 0); fill-opacity:1.000; stroke:none;" />
 <path d="  M 36,7  L 36,6  L 35,6  L 35,7  Z  " style="fill:rgb(0, 0, 0); fill-opacity:1.000; stroke:none;" />
 <path d="  M 37,49  L 35,49  L 35,50  L 37,50  Z  " style="fill:rgb(0, 0, 0); fill-opacity:1.000; stroke:none;" />
 <path d="  M 39,50  L 37,50  L 37,51  L 38,51  L 38,53  L 39,53  Z  " style="fill:rgb(0, 0, 0); fill-opacity:1.000; stroke:none;" />
 <path d="  M 37,55  L 38,55  L 38,53  L 37,53  Z  " style="fill:rgb(0, 0, 0); fill-opacity:1.000; stroke:none;" />
 <path d="  M 38,95  L 38,96  L 39,96  L 39,95  Z  " style="fill:rgb(0, 0, 0); fill-opacity:1.000; stroke:none;" />
 <path d="  M 40,50  L 40,48  L 39,48  L 39,50  Z  " style="fill:rgb(0, 0, 0); fill-opacity:1.000; stroke:none;" />
 <path d="  M 39,95  L 40,95  L 40,87  L 39,87  Z  " style="fill:rgb(0, 0, 0); fill-opacity:1.000; stroke:none;" />
 <path d="  M 41,48  L 41,46  L 40,46  L 40,48  Z  " style="fill:rgb(0, 0, 0); fill-opacity:1.000; stroke:none;" />
 <path d="  M 44,82  L 44,75  L 43,75  L 43,81  L 40,81  L 40,82  Z  " style="fill:rgb(0, 0, 0); fill-opacity:1.000; stroke:none;" />
 <path d="  M 43,66  L 42,66  L 42,75  L 43,75  Z  " style="fill:rgb(0, 0, 0); fill-opacity:1.000; stroke:none;" />
 <path d="  M 3,2  L 3,3  L 5,3  L 5,2  Z  " style="fill:rgb(254, 248, 212); fill-opacity:1.000; stroke:none;" />
 <path d="  M 3,17  L 4,17  L 4,15  L 3,15  Z  " style="fill:rgb(254, 248, 212); fill-opacity:1.000; stroke:none;" />
 <path d="  M 5,20  L 5,18  L 6,18  L 6,17  L 8,17  L 8,12  L 7,12  L 7,14  L 6,14  L 6,15  L 5,15  L 5,17  L 4,17  L 4,24  L 5,24  L 5,27  L 6,27  L 6,25  L 7,25  L 7,27  L 8,27  L 8,28  L 9,28  L 9,29  L 10,29  L 10,30  L 11,30  L 11,31  L 12,31  L 12,29  L 11,29  L 11,27  L 10,27  L 10,24  L 9,24  L 9,21  L 8,21  L 8,20  Z  " style="fill:rgb(254, 248, 212); fill-opacity:1.000; stroke:none;" />
 <path d="  M 7,27  L 6,27  L 6,31  L 7,31  Z  " style="fill:rgb(254, 248, 212); fill-opacity:1.000; stroke:none;" />
 <path d="  M 7,82  L 7,83  L 6,83  L 6,85  L 8,85  L 8,84  L 9,84  L 9,83  L 10,83  L 10,82  L 11,82  L 11,81  L 12,81  L 12,80  L 13,80  L 13,79  L 14,79  L 14,75  L 13,75  L 13,76  L 12,76  L 12,78  L 11,78  L 11,79  L 10,79  L 10,80  L 9,80  L 9,81  L 8,81  L 8,82  Z  " style="fill:rgb(254, 248, 212); fill-opacity:1.000; stroke:none;" />
 <path d="  M 8,12  L 9,12  L 9,11  L 8,11  Z  " style="fill:rgb(254, 248, 212); fill-opacity:1.000; stroke:none;" />
 <path d="  M 10,10  L 10,13  L 11,13  L 11,14  L 10,14  L 10,15  L 12,15  L 12,14  L 14,14  L 14,13  L 15,13  L 15,12  L 16,12  L 16,11  L 18,11  L 18,10  L 20,10  L 20,8  L 14,8  L 14,9  L 12,9  L 12,10  Z  M 11,13  L 11,12  L 12,12  L 12,13  Z  M 14,10  L 14,11  L 13,11  L 13,10  Z  M 13,12  L 12,12  L 12,11  L 13,11  Z  " style="fill:rgb(254, 248, 212); fill-opacity:1.000; stroke:none;" />
 <path d="  M 22,10  L 23,10  L 23,9  L 22,9  Z  " style="fill:rgb(254, 248, 212); fill-opacity:1.000; stroke:none;" />
 <path d="  M 24,10  L 23,10  L 23,13  L 24,13  Z  " style="fill:rgb(254, 248, 212); fill-opacity:1.000; stroke:none;" />
 <path d="  M 32,5  L 32,4  L 24,4  L 24,5  L 25,5  L 25,7  L 27,7  L 27,6  L 30,6  L 30,5  Z  " style="fill:rgb(254, 248, 212); fill-opacity:1.000; stroke:none;" />
 <path d="  M 3,15  L 4,15  L 4,3  L 3,3  Z  " style="fill:rgb(254, 207, 174); fill-opacity:1.000; stroke:none;" />
 <path d="  M 4,20  L 4,19  L 3,19  L 3,20  Z  " style="fill:rgb(254, 207, 174); fill-opacity:1.000; stroke:none;" />
 <path d="  M 4,16  L 4,17  L 5,17  L 5,16  Z  " style="fill:rgb(254, 207, 174); fill-opacity:1.000; stroke:none;" />
 <path d="  M 4,25  L 5,25  L 5,24  L 4,24  Z  " style="fill:rgb(254, 207, 174); fill-opacity:1.000; stroke:none;" />
 <path d="  M 5,3  L 8,3  L 8,2  L 5,2  Z  " style="fill:rgb(254, 207, 174); fill-opacity:1.000; stroke:none;" />
 <path d="  M 5,29  L 6,29  L 6,27  L 5,27  Z  " style="fill:rgb(254, 207, 174); fill-opacity:1.000; stroke:none;" />
 <path d="  M 6,13  L 6,14  L 7,14  L 7,13  Z  " style="fill:rgb(254, 207, 174); fill-opacity:1.000; stroke:none;" />
 <path d="  M 7,26  L 7,25  L 6,25  L 6,26  Z  " style="fill:rgb(254, 207, 174); fill-opacity:1.000; stroke:none;" />
 <path d="  M 7,12  L 8,12  L 8,11  L 7,11  Z  " style="fill:rgb(254, 207, 174); fill-opacity:1.000; stroke:none;" />
 <path d="  M 8,32  L 8,30  L 7,30  L 7,32  Z  " style="fill:rgb(254, 207, 174); fill-opacity:1.000; stroke:none;" />
 <path d="  M 9,20  L 8,20  L 8,21  L 9,21  Z  " style="fill:rgb(254, 207, 174); fill-opacity:1.000; stroke:none;" />
 <path d="  M 9,32  L 8,32  L 8,33  L 9,33  Z  " style="fill:rgb(254, 207, 174); fill-opacity:1.000; stroke:none;" />
 <path d="  M 10,12  L 9,12  L 9,14  L 11,14  L 11,13  L 10,13  Z  " style="fill:rgb(254, 207, 174); fill-opacity:1.000; stroke:none;" />
 <path d="  M 10,17  L 10,16  L 11,16  L 11,15  L 9,15  L 9,17  Z  " style="fill:rgb(254, 207, 174); fill-opacity:1.000; stroke:none;" />
 <path d="  M 11,3  L 10,3  L 10,4  L 11,4  Z  " style="fill:rgb(254, 207, 174); fill-opacity:1.000; stroke:none;" />
 <path d="  M 11,9  L 11,10  L 12,10  L 12,9  Z  " style="fill:rgb(254, 207, 174); fill-opacity:1.000; stroke:none;" />
 <path d="  M 11,13  L 12,13  L 12,12  L 11,12  Z  " style="fill:rgb(254, 207, 174); fill-opacity:1.000; stroke:none;" />
 <path d="  M 13,11  L 12,11  L 12,12  L 13,12  Z  " style="fill:rgb(254, 207, 174); fill-opacity:1.000; stroke:none;" />
 <path d="  M 13,15  L 13,14  L 12,14  L 12,15  Z  " style="fill:rgb(254, 207, 174); fill-opacity:1.000; stroke:none;" />
 <path d="  M 13,10  L 13,11  L 14,11  L 14,10  Z  " style="fill:rgb(254, 207, 174); fill-opacity:1.000; stroke:none;" />
 <path d="  M 15,75  L 14,75  L 14,77  L 15,77  Z  " style="fill:rgb(254, 207, 174); fill-opacity:1.000; stroke:none;" />
 <path d="  M 20,7  L 16,7  L 16,8  L 20,8  Z  " style="fill:rgb(254, 207, 174); fill-opacity:1.000; stroke:none;" />
 <path d="  M 18,12  L 18,11  L 16,11  L 16,12  Z  " style="fill:rgb(254, 207, 174); fill-opacity:1.000; stroke:none;" />
 <path d="  M 19,11  L 19,10  L 18,10  L 18,11  Z  " style="fill:rgb(254, 207, 174); fill-opacity:1.000; stroke:none;" />
 <path d="  M 21,8  L 20,8  L 20,9  L 21,9  Z  " style="fill:rgb(254, 207, 174); fill-opacity:1.000; stroke:none;" />
 <path d="  M 22,5  L 24,5  L 24,4  L 22,4  Z  " style="fill:rgb(254, 207, 174); fill-opacity:1.000; stroke:none;" />
 <path d="  M 23,9  L 23,10  L 24,10  L 24,9  Z  " style="fill:rgb(254, 207, 174); fill-opacity:1.000; stroke:none;" />
 <path d="  M 24,13  L 23,13  L 23,14  L 24,14  Z  " style="fill:rgb(254, 207, 174); fill-opacity:1.000; stroke:none;" />
 <path d="  M 26,13  L 26,14  L 27,14  L 27,13  Z  " style="fill:rgb(254, 207, 174); fill-opacity:1.000; stroke:none;" />
 <path d="  M 27,15  L 27,16  L 28,16  L 28,15  Z  " style="fill:rgb(254, 207, 174); fill-opacity:1.000; stroke:none;" />
 <path d="  M 29,17  L 28,17  L 28,19  L 29,19  Z  " style="fill:rgb(254, 207, 174); fill-opacity:1.000; stroke:none;" />
 <path d="  M 29,19  L 29,22  L 30,22  L 30,19  Z  " style="fill:rgb(254, 207, 174); fill-opacity:1.000; stroke:none;" />
 <path d="  M 31,24  L 31,22  L 30,22  L 30,24  Z  " style="fill:rgb(254, 207, 174); fill-opacity:1.000; stroke:none;" />
 <path d="  M 4,17  L 3,17  L 3,19  L 4,19  Z  " style="fill:rgb(255, 255, 255); fill-opacity:1.000; stroke:none;" />
 <path d="  M 8,20  L 8,17  L 6,17  L 6,18  L 5,18  L 5,20  Z  " style="fill:rgb(255, 255, 255); fill-opacity:1.000; stroke:none;" />
 <path d="  M 8,50  L 8,49  L 7,49  L 7,50  Z  " style="fill:rgb(255, 255, 255); fill-opacity:1.000; stroke:none;" />
 <path d="  M 9,50  L 8,50  L 8,51  L 9,51  Z  " style="fill:rgb(255, 255, 255); fill-opacity:1.000; stroke:none;" />
 <path d="  M 9,10  L 10,10  L 10,9  L 9,9  Z  " style="fill:rgb(255, 255, 255); fill-opacity:1.000; stroke:none;" />
 <path d="  M 9,53  L 10,53  L 10,52  L 9,52  Z  " style="fill:rgb(255, 255, 255); fill-opacity:1.000; stroke:none;" />
 <path d="  M 10,51  L 10,52  L 11,52  L 11,51  Z  " style="fill:rgb(255, 255, 255); fill-opacity:1.000; stroke:none;" />
 <path d="  M 11,55  L 12,55  L 12,54  L 11,54  Z  " style="fill:rgb(255, 255, 255); fill-opacity:1.000; stroke:none;" />
 <path d="  M 13,3  L 12,3  L 12,4  L 13,4  Z  " style="fill:rgb(255, 255, 255); fill-opacity:1.000; stroke:none;" />
 <path d="  M 14,7  L 12,7  L 12,8  L 14,8  Z  " style="fill:rgb(255, 255, 255); fill-opacity:1.000; stroke:none;" />
 <path d="  M 18,32  L 16,32  L 16,31  L 12,31  L 12,35  L 13,35  L 13,36  L 14,36  L 14,37  L 16,37  L 16,36  L 17,36  L 17,35  L 18,35  L 18,34  L 19,34  L 19,33  L 18,33  Z  " style="fill:rgb(255, 255, 255); fill-opacity:1.000; stroke:none;" />
 <path d="  M 13,54  L 13,53  L 12,53  L 12,54  Z  " style="fill:rgb(255, 255, 255); fill-opacity:1.000; stroke:none;" />
 <path d="  M 15,55  L 13,55  L 13,56  L 15,56  Z  " style="fill:rgb(255, 255, 255); fill-opacity:1.000; stroke:none;" />
 <path d="  M 14,4  L 15,4  L 15,3  L 14,3  Z  " style="fill:rgb(255, 255, 255); fill-opacity:1.000; stroke:none;" />
 <path d="  M 14,24  L 15,24  L 15,20  L 14,20  Z  " style="fill:rgb(255, 255, 255); fill-opacity:1.000; stroke:none;" />
 <path d="  M 19,84  L 15,84  L 15,88  L 14,88  L 14,94  L 16,94  L 16,95  L 18,95  L 18,88  L 19,88  Z  " style="fill:rgb(255, 255, 255); fill-opacity:1.000; stroke:none;" />
 <path d="  M 15,56  L 15,57  L 16,57  L 16,56  Z  " style="fill:rgb(255, 255, 255); fill-opacity:1.000; stroke:none;" />
 <path d="  M 15,58  L 15,63  L 16,63  L 16,73  L 17,73  L 17,83  L 28,83  L 28,82  L 38,82  L 38,81  L 43,81  L 43,76  L 42,76  L 42,67  L 41,67  L 41,57  L 34,57  L 34,58  L 28,58  L 28,59  L 26,59  L 26,58  Z  M 23,66  L 25,66  L 25,64  L 27,64  L 27,62  L 34,62  L 34,64  L 29,64  L 29,66  L 27,66  L 27,68  L 34,68  L 34,70  L 36,70  L 36,75  L 34,75  L 34,77  L 25,77  L 25,75  L 23,75  Z  " style="fill:rgb(255, 255, 255); fill-opacity:1.000; stroke:none;" />
 <path d="  M 17,4  L 18,4  L 18,3  L 16,3  L 16,5  L 17,5  Z  " style="fill:rgb(255, 255, 255); fill-opacity:1.000; stroke:none;" />
 <path d="  M 16,6  L 16,7  L 18,7  L 18,6  Z  " style="fill:rgb(255, 255, 255); fill-opacity:1.000; stroke:none;" />
 <path d="  M 17,55  L 16,55  L 16,56  L 17,56  Z  " style="fill:rgb(255, 255, 255); fill-opacity:1.000; stroke:none;" />
 <path d="  M 20,98  L 16,98  L 16,99  L 20,99  Z  " style="fill:rgb(255, 255, 255); fill-opacity:1.000; stroke:none;" />
 <path d="  M 20,5  L 20,4  L 19,4  L 19,5  Z  " style="fill:rgb(255, 255, 255); fill-opacity:1.000; stroke:none;" />
 <path d="  M 21,4  L 21,5  L 22,5  L 22,4  Z  " style="fill:rgb(255, 255, 255); fill-opacity:1.000; stroke:none;" />
 <path d="  M 22,22  L 23,22  L 23,20  L 22,20  Z  " style="fill:rgb(255, 255, 255); fill-opacity:1.000; stroke:none;" />
 <path d="  M 32,75  L 32,70  L 27,70  L 27,75  Z  " style="fill:rgb(255, 255, 255); fill-opacity:1.000; stroke:none;" />
 <path d="  M 9,5  L 9,4  L 10,4  L 10,3  L 4,3  L 4,13  L 5,13  L 5,14  L 6,14  L 6,13  L 7,13  L 7,11  L 8,11  L 8,9  L 7,9  L 7,7  L 8,7  L 8,5  Z  " style="fill:rgb(218, 126, 93); fill-opacity:1.000; stroke:none;" />
 <path d="  M 8,29  L 8,32  L 11,32  L 11,30  L 10,30  L 10,29  L 9,29  L 9,28  L 8,28  L 8,27  L 7,27  L 7,29  Z  " style="fill:rgb(218, 126, 93); fill-opacity:1.000; stroke:none;" />
 <path d="  M 9,20  L 9,14  L 8,14  L 8,20  Z  " style="fill:rgb(218, 126, 93); fill-opacity:1.000; stroke:none;" />
 <path d="  M 13,30  L 13,27  L 11,27  L 11,28  L 12,28  L 12,30  Z  " style="fill:rgb(218, 126, 93); fill-opacity:1.000; stroke:none;" />
 <path d="  M 13,15  L 16,15  L 16,14  L 13,14  Z  " style="fill:rgb(218, 126, 93); fill-opacity:1.000; stroke:none;" />
 <path d="  M 14,75  L 16,75  L 16,74  L 15,74  L 15,69  L 14,69  Z  " style="fill:rgb(218, 126, 93); fill-opacity:1.000; stroke:none;" />
 <path d="  M 15,7  L 15,8  L 16,8  L 16,7  Z  " style="fill:rgb(218, 126, 93); fill-opacity:1.000; stroke:none;" />
 <path d="  M 15,29  L 18,29  L 18,28  L 15,28  Z  " style="fill:rgb(218, 126, 93); fill-opacity:1.000; stroke:none;" />
 <path d="  M 20,27  L 18,27  L 18,28  L 20,28  Z  " style="fill:rgb(218, 126, 93); fill-opacity:1.000; stroke:none;" />
 <path d="  M 21,40  L 21,39  L 20,39  L 20,40  Z  " style="fill:rgb(218, 126, 93); fill-opacity:1.000; stroke:none;" />
 <path d="  M 26,29  L 26,30  L 27,30  L 27,31  L 28,31  L 28,29  L 27,29  L 27,22  L 28,22  L 28,23  L 29,23  L 29,24  L 30,24  L 30,22  L 29,22  L 29,19  L 28,19  L 28,16  L 27,16  L 27,14  L 26,14  L 26,12  L 25,12  L 25,19  L 24,19  L 24,25  L 23,25  L 23,26  L 21,26  L 21,27  L 22,27  L 22,28  L 23,28  L 23,29  Z  " style="fill:rgb(218, 126, 93); fill-opacity:1.000; stroke:none;" />
 <path d="  M 23,15  L 23,14  L 22,14  L 22,15  Z  " style="fill:rgb(218, 126, 93); fill-opacity:1.000; stroke:none;" />
 <path d="  M 23,42  L 22,42  L 22,43  L 23,43  Z  " style="fill:rgb(218, 126, 93); fill-opacity:1.000; stroke:none;" />
 <path d="  M 28,47  L 29,47  L 29,44  L 28,44  L 28,41  L 27,41  L 27,38  L 26,38  L 26,36  L 23,36  L 23,38  L 24,38  L 24,41  L 25,41  L 25,44  L 26,44  L 26,42  L 27,42  L 27,45  L 28,45  Z  " style="fill:rgb(218, 126, 93); fill-opacity:1.000; stroke:none;" />
 <path d="  M 24,44  L 23,44  L 23,45  L 24,45  Z  " style="fill:rgb(218, 126, 93); fill-opacity:1.000; stroke:none;" />
 <path d="  M 23,55  L 24,55  L 24,52  L 23,52  Z  " style="fill:rgb(218, 126, 93); fill-opacity:1.000; stroke:none;" />
 <path d="  M 25,55  L 24,55  L 24,56  L 25,56  Z  " style="fill:rgb(218, 126, 93); fill-opacity:1.000; stroke:none;" />
 <path d="  M 27,14  L 28,14  L 28,12  L 29,12  L 29,11  L 30,11  L 30,10  L 31,10  L 31,9  L 32,9  L 32,8  L 33,8  L 33,7  L 34,7  L 34,6  L 36,6  L 36,5  L 30,5  L 30,6  L 27,6  L 27,7  L 25,7  L 25,10  L 26,10  L 26,12  L 27,12  Z  " style="fill:rgb(218, 126, 93); fill-opacity:1.000; stroke:none;" />
 <path d="  M 26,48  L 25,48  L 25,49  L 26,49  Z  " style="fill:rgb(218, 126, 93); fill-opacity:1.000; stroke:none;" />
 <path d="  M 25,58  L 26,58  L 26,57  L 25,57  Z  " style="fill:rgb(218, 126, 93); fill-opacity:1.000; stroke:none;" />
 <path d="  M 26,45  L 26,47  L 27,47  L 27,45  Z  " style="fill:rgb(218, 126, 93); fill-opacity:1.000; stroke:none;" />
 <path d="  M 28,49  L 27,49  L 27,50  L 28,50  Z  " style="fill:rgb(218, 126, 93); fill-opacity:1.000; stroke:none;" />
 <path d="  M 27,58  L 27,59  L 28,59  L 28,58  Z  " style="fill:rgb(218, 126, 93); fill-opacity:1.000; stroke:none;" />
 <path d="  M 29,57  L 28,57  L 28,58  L 29,58  Z  " style="fill:rgb(218, 126, 93); fill-opacity:1.000; stroke:none;" />
 <path d="  M 29,47  L 29,49  L 30,49  L 30,47  Z  " style="fill:rgb(218, 126, 93); fill-opacity:1.000; stroke:none;" />
 <path d="  M 32,58  L 32,57  L 33,57  L 33,52  L 32,52  L 32,54  L 30,54  L 30,58  Z  " style="fill:rgb(218, 126, 93); fill-opacity:1.000; stroke:none;" />
 <path d="  M 32,51  L 31,51  L 31,52  L 32,52  Z  " style="fill:rgb(218, 126, 93); fill-opacity:1.000; stroke:none;" />
 <path d="  M 4,16  L 5,16  L 5,15  L 6,15  L 6,14  L 5,14  L 5,13  L 4,13  Z  " style="fill:rgb(239, 158, 161); fill-opacity:1.000; stroke:none;" />
 <path d="  M 7,26  L 6,26  L 6,27  L 7,27  Z  " style="fill:rgb(239, 158, 161); fill-opacity:1.000; stroke:none;" />
 <path d="  M 8,30  L 8,29  L 7,29  L 7,30  Z  " style="fill:rgb(239, 158, 161); fill-opacity:1.000; stroke:none;" />
 <path d="  M 9,12  L 8,12  L 8,14  L 9,14  Z  " style="fill:rgb(239, 158, 161); fill-opacity:1.000; stroke:none;" />
 <path d="  M 10,12  L 10,11  L 9,11  L 9,12  Z  " style="fill:rgb(239, 158, 161); fill-opacity:1.000; stroke:none;" />
 <path d="  M 10,15  L 10,14  L 9,14  L 9,15  Z  " style="fill:rgb(239, 158, 161); fill-opacity:1.000; stroke:none;" />
 <path d="  M 10,17  L 9,17  L 9,24  L 10,24  Z  " style="fill:rgb(239, 158, 161); fill-opacity:1.000; stroke:none;" />
 <path d="  M 11,17  L 11,16  L 10,16  L 10,17  Z  " style="fill:rgb(239, 158, 161); fill-opacity:1.000; stroke:none;" />
 <path d="  M 11,26  L 10,26  L 10,27  L 11,27  Z  " style="fill:rgb(239, 158, 161); fill-opacity:1.000; stroke:none;" />
 <path d="  M 12,16  L 12,15  L 11,15  L 11,16  Z  " style="fill:rgb(239, 158, 161); fill-opacity:1.000; stroke:none;" />
 <path d="  M 14,25  L 14,24  L 11,24  L 11,25  Z  " style="fill:rgb(239, 158, 161); fill-opacity:1.000; stroke:none;" />
 <path d="  M 12,29  L 12,28  L 11,28  L 11,29  Z  " style="fill:rgb(239, 158, 161); fill-opacity:1.000; stroke:none;" />
 <path d="  M 13,74  L 13,75  L 14,75  L 14,74  Z  " style="fill:rgb(239, 158, 161); fill-opacity:1.000; stroke:none;" />
 <path d="  M 14,14  L 15,14  L 15,13  L 14,13  Z  " style="fill:rgb(239, 158, 161); fill-opacity:1.000; stroke:none;" />
 <path d="  M 15,12  L 15,13  L 16,13  L 16,12  Z  " style="fill:rgb(239, 158, 161); fill-opacity:1.000; stroke:none;" />
 <path d="  M 15,25  L 15,27  L 18,27  L 18,26  L 20,26  L 20,25  Z  " style="fill:rgb(239, 158, 161); fill-opacity:1.000; stroke:none;" />
 <path d="  M 15,76  L 16,76  L 16,75  L 15,75  Z  " style="fill:rgb(239, 158, 161); fill-opacity:1.000; stroke:none;" />
 <path d="  M 17,38  L 17,39  L 18,39  L 18,38  Z  " style="fill:rgb(239, 158, 161); fill-opacity:1.000; stroke:none;" />
 <path d="  M 18,38  L 19,38  L 19,37  L 18,37  Z  " style="fill:rgb(239, 158, 161); fill-opacity:1.000; stroke:none;" />
 <path d="  M 19,38  L 19,39  L 20,39  L 20,38  Z  " style="fill:rgb(239, 158, 161); fill-opacity:1.000; stroke:none;" />
 <path d="  M 21,7  L 20,7  L 20,8  L 21,8  Z  " style="fill:rgb(239, 158, 161); fill-opacity:1.000; stroke:none;" />
 <path d="  M 22,10  L 22,8  L 21,8  L 21,10  Z  " style="fill:rgb(239, 158, 161); fill-opacity:1.000; stroke:none;" />
 <path d="  M 21,41  L 21,42  L 22,42  L 22,41  Z  " style="fill:rgb(239, 158, 161); fill-opacity:1.000; stroke:none;" />
 <path d="  M 23,12  L 23,10  L 22,10  L 22,12  Z  " style="fill:rgb(239, 158, 161); fill-opacity:1.000; stroke:none;" />
 <path d="  M 22,23  L 22,24  L 24,24  L 24,23  Z  " style="fill:rgb(239, 158, 161); fill-opacity:1.000; stroke:none;" />
 <path d="  M 23,25  L 22,25  L 22,26  L 23,26  Z  " style="fill:rgb(239, 158, 161); fill-opacity:1.000; stroke:none;" />
 <path d="  M 23,52  L 24,52  L 24,50  L 23,50  Z  " style="fill:rgb(239, 158, 161); fill-opacity:1.000; stroke:none;" />
 <path d="  M 24,19  L 25,19  L 25,12  L 26,12  L 26,11  L 24,11  Z  " style="fill:rgb(239, 158, 161); fill-opacity:1.000; stroke:none;" />
 <path d="  M 27,12  L 26,12  L 26,13  L 27,13  Z  " style="fill:rgb(239, 158, 161); fill-opacity:1.000; stroke:none;" />
 <path d="  M 26,42  L 26,45  L 27,45  L 27,42  Z  " style="fill:rgb(239, 158, 161); fill-opacity:1.000; stroke:none;" />
 <path d="  M 27,15  L 28,15  L 28,14  L 27,14  Z  " style="fill:rgb(239, 158, 161); fill-opacity:1.000; stroke:none;" />
 <path d="  M 27,29  L 28,29  L 28,22  L 27,22  Z  " style="fill:rgb(239, 158, 161); fill-opacity:1.000; stroke:none;" />
 <path d="  M 30,50  L 30,49  L 29,49  L 29,47  L 28,47  L 28,45  L 27,45  L 27,49  L 28,49  L 28,51  L 29,51  L 29,52  L 30,52  L 30,54  L 32,54  L 32,52  L 31,52  L 31,50  Z  " style="fill:rgb(239, 158, 161); fill-opacity:1.000; stroke:none;" />
 <path d="  M 27,58  L 28,58  L 28,57  L 27,57  Z  " style="fill:rgb(239, 158, 161); fill-opacity:1.000; stroke:none;" />
 <path d="  M 28,13  L 29,13  L 29,12  L 28,12  Z  " style="fill:rgb(239, 158, 161); fill-opacity:1.000; stroke:none;" />
 <path d="  M 28,17  L 29,17  L 29,16  L 28,16  Z  " style="fill:rgb(239, 158, 161); fill-opacity:1.000; stroke:none;" />
 <path d="  M 28,57  L 29,57  L 29,56  L 28,56  Z  " style="fill:rgb(239, 158, 161); fill-opacity:1.000; stroke:none;" />
 <path d="  M 29,11  L 29,12  L 30,12  L 30,11  Z  " style="fill:rgb(239, 158, 161); fill-opacity:1.000; stroke:none;" />
 <path d="  M 30,10  L 30,11  L 31,11  L 31,10  Z  " style="fill:rgb(239, 158, 161); fill-opacity:1.000; stroke:none;" />
 <path d="  M 31,24  L 30,24  L 30,25  L 31,25  Z  " style="fill:rgb(239, 158, 161); fill-opacity:1.000; stroke:none;" />
 <path d="  M 32,10  L 32,9  L 31,9  L 31,10  Z  " style="fill:rgb(239, 158, 161); fill-opacity:1.000; stroke:none;" />
 <path d="  M 31,27  L 32,27  L 32,25  L 31,25  Z  " style="fill:rgb(239, 158, 161); fill-opacity:1.000; stroke:none;" />
 <path d="  M 32,9  L 33,9  L 33,8  L 32,8  Z  " style="fill:rgb(239, 158, 161); fill-opacity:1.000; stroke:none;" />
 <path d="  M 33,7  L 33,8  L 34,8  L 34,7  Z  " style="fill:rgb(239, 158, 161); fill-opacity:1.000; stroke:none;" />
 <path d="  M 35,6  L 34,6  L 34,7  L 35,7  Z  " style="fill:rgb(239, 158, 161); fill-opacity:1.000; stroke:none;" />
 <path d="  M 5,57  L 5,56  L 4,56  L 4,57  Z  " style="fill:rgb(161, 164, 186); fill-opacity:1.000; stroke:none;" />
 <path d="  M 6,53  L 5,53  L 5,54  L 6,54  Z  " style="fill:rgb(161, 164, 186); fill-opacity:1.000; stroke:none;" />
 <path d="  M 6,56  L 6,55  L 5,55  L 5,56  Z  " style="fill:rgb(161, 164, 186); fill-opacity:1.000; stroke:none;" />
 <path d="  M 6,59  L 6,58  L 5,58  L 5,59  Z  " style="fill:rgb(161, 164, 186); fill-opacity:1.000; stroke:none;" />
 <path d="  M 7,51  L 7,50  L 6,50  L 6,51  Z  " style="fill:rgb(161, 164, 186); fill-opacity:1.000; stroke:none;" />
 <path d="  M 6,53  L 7,53  L 7,52  L 6,52  Z  " style="fill:rgb(161, 164, 186); fill-opacity:1.000; stroke:none;" />
 <path d="  M 6,55  L 7,55  L 7,54  L 6,54  Z  " style="fill:rgb(161, 164, 186); fill-opacity:1.000; stroke:none;" />
 <path d="  M 7,9  L 8,9  L 8,7  L 7,7  Z  " style="fill:rgb(161, 164, 186); fill-opacity:1.000; stroke:none;" />
 <path d="  M 9,50  L 9,49  L 8,49  L 8,50  Z  " style="fill:rgb(161, 164, 186); fill-opacity:1.000; stroke:none;" />
 <path d="  M 9,52  L 8,52  L 8,53  L 9,53  Z  " style="fill:rgb(161, 164, 186); fill-opacity:1.000; stroke:none;" />
 <path d="  M 9,6  L 10,6  L 10,5  L 9,5  Z  " style="fill:rgb(161, 164, 186); fill-opacity:1.000; stroke:none;" />
 <path d="  M 10,52  L 10,51  L 9,51  L 9,52  Z  " style="fill:rgb(161, 164, 186); fill-opacity:1.000; stroke:none;" />
 <path d="  M 10,54  L 11,54  L 11,53  L 10,53  Z  " style="fill:rgb(161, 164, 186); fill-opacity:1.000; stroke:none;" />
 <path d="  M 11,4  L 11,5  L 12,5  L 12,4  Z  " style="fill:rgb(161, 164, 186); fill-opacity:1.000; stroke:none;" />
 <path d="  M 11,51  L 11,53  L 12,53  L 12,51  Z  " style="fill:rgb(161, 164, 186); fill-opacity:1.000; stroke:none;" />
 <path d="  M 12,36  L 13,36  L 13,35  L 12,35  Z  " style="fill:rgb(161, 164, 186); fill-opacity:1.000; stroke:none;" />
 <path d="  M 12,56  L 13,56  L 13,55  L 12,55  Z  " style="fill:rgb(161, 164, 186); fill-opacity:1.000; stroke:none;" />
 <path d="  M 13,4  L 13,5  L 14,5  L 14,4  Z  " style="fill:rgb(161, 164, 186); fill-opacity:1.000; stroke:none;" />
 <path d="  M 14,9  L 14,8  L 13,8  L 13,9  Z  " style="fill:rgb(161, 164, 186); fill-opacity:1.000; stroke:none;" />
 <path d="  M 15,54  L 14,54  L 14,53  L 13,53  L 13,55  L 15,55  Z  " style="fill:rgb(161, 164, 186); fill-opacity:1.000; stroke:none;" />
 <path d="  M 16,6  L 14,6  L 14,7  L 16,7  Z  " style="fill:rgb(161, 164, 186); fill-opacity:1.000; stroke:none;" />
 <path d="  M 15,57  L 15,56  L 14,56  L 14,57  Z  " style="fill:rgb(161, 164, 186); fill-opacity:1.000; stroke:none;" />
 <path d="  M 16,5  L 16,4  L 15,4  L 15,5  Z  " style="fill:rgb(161, 164, 186); fill-opacity:1.000; stroke:none;" />
 <path d="  M 17,37  L 15,37  L 15,38  L 18,38  L 18,37  L 19,37  L 19,36  L 17,36  Z  " style="fill:rgb(161, 164, 186); fill-opacity:1.000; stroke:none;" />
 <path d="  M 17,39  L 16,39  L 16,40  L 17,40  Z  " style="fill:rgb(161, 164, 186); fill-opacity:1.000; stroke:none;" />
 <path d="  M 17,56  L 16,56  L 16,57  L 17,57  Z  " style="fill:rgb(161, 164, 186); fill-opacity:1.000; stroke:none;" />
 <path d="  M 17,73  L 16,73  L 16,74  L 17,74  Z  " style="fill:rgb(161, 164, 186); fill-opacity:1.000; stroke:none;" />
 <path d="  M 18,32  L 18,31  L 17,31  L 17,32  Z  " style="fill:rgb(161, 164, 186); fill-opacity:1.000; stroke:none;" />
 <path d="  M 18,5  L 19,5  L 19,4  L 18,4  Z  " style="fill:rgb(161, 164, 186); fill-opacity:1.000; stroke:none;" />
 <path d="  M 19,31  L 19,30  L 18,30  L 18,31  Z  " style="fill:rgb(161, 164, 186); fill-opacity:1.000; stroke:none;" />
 <path d="  M 19,33  L 19,32  L 18,32  L 18,33  Z  " style="fill:rgb(161, 164, 186); fill-opacity:1.000; stroke:none;" />
 <path d="  M 20,32  L 20,31  L 19,31  L 19,32  Z  " style="fill:rgb(161, 164, 186); fill-opacity:1.000; stroke:none;" />
 <path d="  M 20,34  L 19,34  L 19,35  L 20,35  Z  " style="fill:rgb(161, 164, 186); fill-opacity:1.000; stroke:none;" />
 <path d="  M 20,33  L 21,33  L 21,32  L 20,32  Z  " style="fill:rgb(161, 164, 186); fill-opacity:1.000; stroke:none;" />
 <path d="  M 21,37  L 21,36  L 20,36  L 20,37  Z  " style="fill:rgb(161, 164, 186); fill-opacity:1.000; stroke:none;" />
 <path d="  M 21,93  L 20,93  L 20,94  L 21,94  Z  " style="fill:rgb(161, 164, 186); fill-opacity:1.000; stroke:none;" />
 <path d="  M 23,32  L 22,32  L 22,34  L 21,34  L 21,35  L 22,35  L 22,36  L 23,36  Z  " style="fill:rgb(161, 164, 186); fill-opacity:1.000; stroke:none;" />
 <path d="  M 24,7  L 25,7  L 25,5  L 24,5  Z  " style="fill:rgb(161, 164, 186); fill-opacity:1.000; stroke:none;" />
 <path d="  M 29,83  L 29,82  L 28,82  L 28,83  Z  " style="fill:rgb(161, 164, 186); fill-opacity:1.000; stroke:none;" />
 <path d="  M 33,57  L 32,57  L 32,58  L 33,58  Z  " style="fill:rgb(161, 164, 186); fill-opacity:1.000; stroke:none;" />
 <path d="  M 33,83  L 32,83  L 32,86  L 33,86  Z  " style="fill:rgb(161, 164, 186); fill-opacity:1.000; stroke:none;" />
 <path d="  M 34,92  L 34,91  L 33,91  L 33,92  Z  " style="fill:rgb(161, 164, 186); fill-opacity:1.000; stroke:none;" />
 <path d="  M 35,56  L 35,55  L 34,55  L 34,56  Z  " style="fill:rgb(161, 164, 186); fill-opacity:1.000; stroke:none;" />
 <path d="  M 37,55  L 37,54  L 36,54  L 36,53  L 35,53  L 35,55  Z  " style="fill:rgb(161, 164, 186); fill-opacity:1.000; stroke:none;" />
 <path d="  M 37,50  L 36,50  L 36,51  L 37,51  Z  " style="fill:rgb(161, 164, 186); fill-opacity:1.000; stroke:none;" />
 <path d="  M 36,53  L 38,53  L 38,52  L 36,52  Z  " style="fill:rgb(161, 164, 186); fill-opacity:1.000; stroke:none;" />
 <path d="  M 39,87  L 38,87  L 38,88  L 39,88  Z  " style="fill:rgb(161, 164, 186); fill-opacity:1.000; stroke:none;" />
 <path d="  M 40,81  L 39,81  L 39,82  L 40,82  Z  " style="fill:rgb(161, 164, 186); fill-opacity:1.000; stroke:none;" />
 <path d="  M 41,67  L 42,67  L 42,66  L 41,66  Z  " style="fill:rgb(161, 164, 186); fill-opacity:1.000; stroke:none;" />
 <path d="  M 4,59  L 5,59  L 5,58  L 6,58  L 6,57  L 4,57  Z  " style="fill:rgb(115, 124, 158); fill-opacity:1.000; stroke:none;" />
 <path d="  M 6,52  L 7,52  L 7,53  L 6,53  Z  M 8,59  L 8,58  L 9,58  L 9,59  L 10,59  L 10,60  L 11,60  L 11,56  L 12,56  L 12,55  L 11,55  L 11,54  L 10,54  L 10,53  L 8,53  L 8,51  L 5,51  L 5,53  L 6,53  L 6,54  L 7,54  L 7,56  L 6,56  L 6,57  L 7,57  L 7,58  L 6,58  L 6,59  Z  " style="fill:rgb(115, 124, 158); fill-opacity:1.000; stroke:none;" />
 <path d="  M 5,55  L 6,55  L 6,54  L 5,54  Z  " style="fill:rgb(115, 124, 158); fill-opacity:1.000; stroke:none;" />
 <path d="  M 8,10  L 9,10  L 9,7  L 10,7  L 10,6  L 9,6  L 9,5  L 8,5  Z  " style="fill:rgb(115, 124, 158); fill-opacity:1.000; stroke:none;" />
 <path d="  M 9,4  L 9,5  L 10,5  L 10,4  Z  " style="fill:rgb(115, 124, 158); fill-opacity:1.000; stroke:none;" />
 <path d="  M 9,11  L 10,11  L 10,10  L 9,10  Z  " style="fill:rgb(115, 124, 158); fill-opacity:1.000; stroke:none;" />
 <path d="  M 11,8  L 10,8  L 10,10  L 11,10  Z  " style="fill:rgb(115, 124, 158); fill-opacity:1.000; stroke:none;" />
 <path d="  M 11,7  L 11,8  L 12,8  L 12,7  Z  " style="fill:rgb(115, 124, 158); fill-opacity:1.000; stroke:none;" />
 <path d="  M 11,33  L 12,33  L 12,31  L 11,31  Z  " style="fill:rgb(115, 124, 158); fill-opacity:1.000; stroke:none;" />
 <path d="  M 12,9  L 13,9  L 13,8  L 12,8  Z  " style="fill:rgb(115, 124, 158); fill-opacity:1.000; stroke:none;" />
 <path d="  M 12,31  L 13,31  L 13,30  L 12,30  Z  " style="fill:rgb(115, 124, 158); fill-opacity:1.000; stroke:none;" />
 <path d="  M 13,57  L 13,56  L 12,56  L 12,57  Z  " style="fill:rgb(115, 124, 158); fill-opacity:1.000; stroke:none;" />
 <path d="  M 13,29  L 15,29  L 15,28  L 13,28  Z  " style="fill:rgb(115, 124, 158); fill-opacity:1.000; stroke:none;" />
 <path d="  M 16,39  L 16,38  L 15,38  L 15,37  L 14,37  L 14,36  L 13,36  L 13,38  L 14,38  L 14,39  Z  " style="fill:rgb(115, 124, 158); fill-opacity:1.000; stroke:none;" />
 <path d="  M 13,59  L 14,59  L 14,57  L 13,57  Z  " style="fill:rgb(115, 124, 158); fill-opacity:1.000; stroke:none;" />
 <path d="  M 15,8  L 15,7  L 14,7  L 14,8  Z  " style="fill:rgb(115, 124, 158); fill-opacity:1.000; stroke:none;" />
 <path d="  M 18,30  L 18,29  L 16,29  L 16,30  Z  " style="fill:rgb(115, 124, 158); fill-opacity:1.000; stroke:none;" />
 <path d="  M 19,6  L 19,7  L 21,7  L 21,8  L 22,8  L 22,6  Z  " style="fill:rgb(115, 124, 158); fill-opacity:1.000; stroke:none;" />
 <path d="  M 20,27  L 20,28  L 19,28  L 19,29  L 20,29  L 20,30  L 21,30  L 21,31  L 22,31  L 22,29  L 23,29  L 23,28  L 22,28  L 22,27  Z  " style="fill:rgb(115, 124, 158); fill-opacity:1.000; stroke:none;" />
 <path d="  M 19,37  L 19,38  L 20,38  L 20,37  Z  " style="fill:rgb(115, 124, 158); fill-opacity:1.000; stroke:none;" />
 <path d="  M 22,35  L 21,35  L 21,37  L 22,37  Z  " style="fill:rgb(115, 124, 158); fill-opacity:1.000; stroke:none;" />
 <path d="  M 23,8  L 22,8  L 22,9  L 23,9  Z  " style="fill:rgb(115, 124, 158); fill-opacity:1.000; stroke:none;" />
 <path d="  M 24,5  L 23,5  L 23,6  L 24,6  Z  " style="fill:rgb(115, 124, 158); fill-opacity:1.000; stroke:none;" />
 <path d="  M 24,11  L 26,11  L 26,10  L 24,10  Z  " style="fill:rgb(115, 124, 158); fill-opacity:1.000; stroke:none;" />
 <path d="  M 6,51  L 6,50  L 5,50  L 5,51  Z  " style="fill:rgb(213, 218, 232); fill-opacity:1.000; stroke:none;" />
 <path d="  M 5,56  L 5,57  L 6,57  L 6,56  Z  " style="fill:rgb(213, 218, 232); fill-opacity:1.000; stroke:none;" />
 <path d="  M 6,55  L 6,56  L 7,56  L 7,55  Z  " style="fill:rgb(213, 218, 232); fill-opacity:1.000; stroke:none;" />
 <path d="  M 6,58  L 7,58  L 7,57  L 6,57  Z  " style="fill:rgb(213, 218, 232); fill-opacity:1.000; stroke:none;" />
 <path d="  M 7,50  L 7,51  L 8,51  L 8,50  Z  " style="fill:rgb(213, 218, 232); fill-opacity:1.000; stroke:none;" />
 <path d="  M 9,11  L 9,10  L 8,10  L 8,11  Z  " style="fill:rgb(213, 218, 232); fill-opacity:1.000; stroke:none;" />
 <path d="  M 8,52  L 9,52  L 9,51  L 8,51  Z  " style="fill:rgb(213, 218, 232); fill-opacity:1.000; stroke:none;" />
 <path d="  M 10,50  L 9,50  L 9,51  L 10,51  Z  " style="fill:rgb(213, 218, 232); fill-opacity:1.000; stroke:none;" />
 <path d="  M 11,6  L 11,4  L 10,4  L 10,6  Z  " style="fill:rgb(213, 218, 232); fill-opacity:1.000; stroke:none;" />
 <path d="  M 11,52  L 10,52  L 10,53  L 11,53  Z  " style="fill:rgb(213, 218, 232); fill-opacity:1.000; stroke:none;" />
 <path d="  M 12,4  L 12,3  L 11,3  L 11,4  Z  " style="fill:rgb(213, 218, 232); fill-opacity:1.000; stroke:none;" />
 <path d="  M 12,9  L 12,8  L 11,8  L 11,9  Z  " style="fill:rgb(213, 218, 232); fill-opacity:1.000; stroke:none;" />
 <path d="  M 11,54  L 12,54  L 12,53  L 11,53  Z  " style="fill:rgb(213, 218, 232); fill-opacity:1.000; stroke:none;" />
 <path d="  M 13,4  L 12,4  L 12,5  L 13,5  Z  " style="fill:rgb(213, 218, 232); fill-opacity:1.000; stroke:none;" />
 <path d="  M 13,55  L 13,54  L 12,54  L 12,55  Z  " style="fill:rgb(213, 218, 232); fill-opacity:1.000; stroke:none;" />
 <path d="  M 14,4  L 14,3  L 13,3  L 13,4  Z  " style="fill:rgb(213, 218, 232); fill-opacity:1.000; stroke:none;" />
 <path d="  M 13,30  L 13,31  L 16,31  L 16,30  Z  " style="fill:rgb(213, 218, 232); fill-opacity:1.000; stroke:none;" />
 <path d="  M 13,57  L 14,57  L 14,56  L 13,56  Z  " style="fill:rgb(213, 218, 232); fill-opacity:1.000; stroke:none;" />
 <path d="  M 13,91  L 13,93  L 14,93  L 14,91  Z  " style="fill:rgb(213, 218, 232); fill-opacity:1.000; stroke:none;" />
 <path d="  M 15,5  L 15,4  L 14,4  L 14,5  Z  " style="fill:rgb(213, 218, 232); fill-opacity:1.000; stroke:none;" />
 <path d="  M 15,19  L 14,19  L 14,20  L 15,20  Z  " style="fill:rgb(213, 218, 232); fill-opacity:1.000; stroke:none;" />
 <path d="  M 14,98  L 15,98  L 15,97  L 14,97  Z  " style="fill:rgb(213, 218, 232); fill-opacity:1.000; stroke:none;" />
 <path d="  M 16,4  L 16,3  L 15,3  L 15,4  Z  " style="fill:rgb(213, 218, 232); fill-opacity:1.000; stroke:none;" />
 <path d="  M 15,56  L 16,56  L 16,55  L 15,55  Z  " style="fill:rgb(213, 218, 232); fill-opacity:1.000; stroke:none;" />
 <path d="  M 16,65  L 16,63  L 15,63  L 15,65  Z  " style="fill:rgb(213, 218, 232); fill-opacity:1.000; stroke:none;" />
 <path d="  M 16,95  L 16,94  L 15,94  L 15,95  Z  " style="fill:rgb(213, 218, 232); fill-opacity:1.000; stroke:none;" />
 <path d="  M 15,98  L 15,99  L 16,99  L 16,98  Z  " style="fill:rgb(213, 218, 232); fill-opacity:1.000; stroke:none;" />
 <path d="  M 16,32  L 17,32  L 17,31  L 16,31  Z  " style="fill:rgb(213, 218, 232); fill-opacity:1.000; stroke:none;" />
 <path d="  M 16,36  L 16,37  L 17,37  L 17,36  Z  " style="fill:rgb(213, 218, 232); fill-opacity:1.000; stroke:none;" />
 <path d="  M 17,38  L 16,38  L 16,39  L 17,39  Z  " style="fill:rgb(213, 218, 232); fill-opacity:1.000; stroke:none;" />
 <path d="  M 18,4  L 17,4  L 17,5  L 18,5  Z  " style="fill:rgb(213, 218, 232); fill-opacity:1.000; stroke:none;" />
 <path d="  M 17,31  L 18,31  L 18,30  L 17,30  Z  " style="fill:rgb(213, 218, 232); fill-opacity:1.000; stroke:none;" />
 <path d="  M 17,36  L 19,36  L 19,34  L 18,34  L 18,35  L 17,35  Z  " style="fill:rgb(213, 218, 232); fill-opacity:1.000; stroke:none;" />
 <path d="  M 18,56  L 17,56  L 17,57  L 18,57  Z  " style="fill:rgb(213, 218, 232); fill-opacity:1.000; stroke:none;" />
 <path d="  M 19,4  L 19,3  L 18,3  L 18,4  Z  " style="fill:rgb(213, 218, 232); fill-opacity:1.000; stroke:none;" />
 <path d="  M 19,6  L 18,6  L 18,7  L 19,7  Z  " style="fill:rgb(213, 218, 232); fill-opacity:1.000; stroke:none;" />
 <path d="  M 18,29  L 18,30  L 19,30  L 19,29  Z  " style="fill:rgb(213, 218, 232); fill-opacity:1.000; stroke:none;" />
 <path d="  M 19,32  L 19,31  L 18,31  L 18,32  Z  " style="fill:rgb(213, 218, 232); fill-opacity:1.000; stroke:none;" />
 <path d="  M 21,87  L 22,87  L 22,84  L 19,84  L 19,88  L 18,88  L 18,95  L 20,95  L 20,93  L 21,93  Z  " style="fill:rgb(213, 218, 232); fill-opacity:1.000; stroke:none;" />
 <path d="  M 19,30  L 19,31  L 20,31  L 20,30  Z  " style="fill:rgb(213, 218, 232); fill-opacity:1.000; stroke:none;" />
 <path d="  M 21,32  L 21,33  L 20,33  L 20,32  L 19,32  L 19,34  L 20,34  L 20,36  L 21,36  L 21,34  L 22,34  L 22,32  Z  " style="fill:rgb(213, 218, 232); fill-opacity:1.000; stroke:none;" />
 <path d="  M 20,4  L 20,5  L 21,5  L 21,4  Z  " style="fill:rgb(213, 218, 232); fill-opacity:1.000; stroke:none;" />
 <path d="  M 21,32  L 21,31  L 20,31  L 20,32  Z  " style="fill:rgb(213, 218, 232); fill-opacity:1.000; stroke:none;" />
 <path d="  M 22,5  L 22,6  L 23,6  L 23,5  Z  " style="fill:rgb(213, 218, 232); fill-opacity:1.000; stroke:none;" />
 <path d="  M 23,7  L 22,7  L 22,8  L 23,8  Z  " style="fill:rgb(213, 218, 232); fill-opacity:1.000; stroke:none;" />
 <path d="  M 22,19  L 22,20  L 23,20  L 23,19  Z  " style="fill:rgb(213, 218, 232); fill-opacity:1.000; stroke:none;" />
 <path d="  M 23,32  L 23,36  L 26,36  L 26,32  L 25,32  L 25,31  L 24,31  L 24,29  L 22,29  L 22,32  Z  " style="fill:rgb(213, 218, 232); fill-opacity:1.000; stroke:none;" />
 <path d="  M 24,8  L 23,8  L 23,9  L 24,9  Z  " style="fill:rgb(213, 218, 232); fill-opacity:1.000; stroke:none;" />
 <path d="  M 25,10  L 25,9  L 24,9  L 24,10  Z  " style="fill:rgb(213, 218, 232); fill-opacity:1.000; stroke:none;" />
 <path d="  M 34,58  L 34,57  L 33,57  L 33,58  Z  " style="fill:rgb(213, 218, 232); fill-opacity:1.000; stroke:none;" />
 <path d="  M 38,92  L 38,91  L 39,91  L 39,88  L 38,88  L 38,83  L 33,83  L 33,91  L 34,91  L 34,92  Z  " style="fill:rgb(213, 218, 232); fill-opacity:1.000; stroke:none;" />
 <path d="  M 38,96  L 38,95  L 34,95  L 34,96  Z  " style="fill:rgb(213, 218, 232); fill-opacity:1.000; stroke:none;" />
 <path d="  M 36,55  L 35,55  L 35,56  L 36,56  Z  " style="fill:rgb(213, 218, 232); fill-opacity:1.000; stroke:none;" />
 <path d="  M 36,53  L 36,54  L 37,54  L 37,53  Z  " style="fill:rgb(213, 218, 232); fill-opacity:1.000; stroke:none;" />
 <path d="  M 38,51  L 37,51  L 37,52  L 38,52  Z  " style="fill:rgb(213, 218, 232); fill-opacity:1.000; stroke:none;" />
 <path d="  M 39,82  L 39,81  L 38,81  L 38,82  Z  " style="fill:rgb(213, 218, 232); fill-opacity:1.000; stroke:none;" />
 <path d="  M 43,76  L 43,75  L 42,75  L 42,76  Z  " style="fill:rgb(213, 218, 232); fill-opacity:1.000; stroke:none;" />
 <path d="  M 8,39  L 8,43  L 7,43  L 7,47  L 10,47  L 10,41  L 11,41  L 11,39  Z  " style="fill:rgb(73, 170, 234); fill-opacity:1.000; stroke:none;" />
 <path d="  M 15,47  L 15,48  L 11,48  L 11,49  L 9,49  L 9,50  L 11,50  L 11,51  L 12,51  L 12,52  L 13,52  L 13,53  L 16,53  L 16,52  L 17,52  L 17,51  L 18,51  L 18,50  L 19,50  L 19,49  L 20,49  L 20,47  Z  " style="fill:rgb(73, 170, 234); fill-opacity:1.000; stroke:none;" />
 <path d="  M 13,23  L 13,20  L 12,20  L 12,21  L 11,21  L 11,23  Z  " style="fill:rgb(73, 170, 234); fill-opacity:1.000; stroke:none;" />
 <path d="  M 21,6  L 21,5  L 13,5  L 13,6  Z  " style="fill:rgb(73, 170, 234); fill-opacity:1.000; stroke:none;" />
 <path d="  M 14,23  L 13,23  L 13,24  L 14,24  Z  " style="fill:rgb(73, 170, 234); fill-opacity:1.000; stroke:none;" />
 <path d="  M 15,95  L 15,94  L 14,94  L 14,97  L 15,97  L 15,98  L 21,98  L 21,96  L 17,96  L 17,95  Z  " style="fill:rgb(73, 170, 234); fill-opacity:1.000; stroke:none;" />
 <path d="  M 19,50  L 19,51  L 18,51  L 18,53  L 17,53  L 17,56  L 18,56  L 18,57  L 22,57  L 22,53  L 21,53  L 21,50  Z  " style="fill:rgb(73, 170, 234); fill-opacity:1.000; stroke:none;" />
 <path d="  M 22,37  L 21,37  L 21,38  L 22,38  Z  " style="fill:rgb(73, 170, 234); fill-opacity:1.000; stroke:none;" />
 <path d="  M 9,7  L 9,8  L 11,8  L 11,7  Z  " style="fill:rgb(12, 74, 165); fill-opacity:1.000; stroke:none;" />
 <path d="  M 15,46  L 15,41  L 13,41  L 13,40  L 11,40  L 11,45  L 10,45  L 10,47  L 14,47  L 14,46  Z  " style="fill:rgb(12, 74, 165); fill-opacity:1.000; stroke:none;" />
 <path d="  M 10,49  L 11,49  L 11,48  L 10,48  Z  " style="fill:rgb(12, 74, 165); fill-opacity:1.000; stroke:none;" />
 <path d="  M 10,51  L 11,51  L 11,50  L 10,50  Z  " style="fill:rgb(12, 74, 165); fill-opacity:1.000; stroke:none;" />
 <path d="  M 12,6  L 11,6  L 11,7  L 12,7  Z  " style="fill:rgb(12, 74, 165); fill-opacity:1.000; stroke:none;" />
 <path d="  M 13,20  L 13,23  L 14,23  L 14,19  L 13,19  L 13,18  L 12,18  L 12,19  L 11,19  L 11,21  L 12,21  L 12,20  Z  " style="fill:rgb(12, 74, 165); fill-opacity:1.000; stroke:none;" />
 <path d="  M 13,24  L 13,23  L 11,23  L 11,24  Z  " style="fill:rgb(12, 74, 165); fill-opacity:1.000; stroke:none;" />
 <path d="  M 14,93  L 13,93  L 13,94  L 14,94  Z  " style="fill:rgb(12, 74, 165); fill-opacity:1.000; stroke:none;" />
 <path d="  M 15,18  L 14,18  L 14,19  L 15,19  Z  " style="fill:rgb(12, 74, 165); fill-opacity:1.000; stroke:none;" />
 <path d="  M 15,40  L 15,39  L 14,39  L 14,40  Z  " style="fill:rgb(12, 74, 165); fill-opacity:1.000; stroke:none;" />
 <path d="  M 16,46  L 19,46  L 19,47  L 21,47  L 21,45  L 20,45  L 20,43  L 19,43  L 19,42  L 18,42  L 18,41  L 17,41  L 17,40  L 15,40  L 15,41  L 16,41  Z  " style="fill:rgb(12, 74, 165); fill-opacity:1.000; stroke:none;" />
 <path d="  M 16,47  L 16,46  L 15,46  L 15,47  Z  " style="fill:rgb(12, 74, 165); fill-opacity:1.000; stroke:none;" />
 <path d="  M 17,52  L 16,52  L 16,53  L 15,53  L 15,55  L 16,55  L 16,54  L 17,54  Z  " style="fill:rgb(12, 74, 165); fill-opacity:1.000; stroke:none;" />
 <path d="  M 20,96  L 20,95  L 17,95  L 17,96  Z  " style="fill:rgb(12, 74, 165); fill-opacity:1.000; stroke:none;" />
 <path d="  M 20,23  L 22,23  L 22,19  L 23,19  L 23,18  L 21,18  L 21,19  L 20,19  Z  " style="fill:rgb(12, 74, 165); fill-opacity:1.000; stroke:none;" />
 <path d="  M 23,44  L 24,44  L 24,40  L 23,40  L 23,37  L 22,37  L 22,38  L 20,38  L 20,39  L 21,39  L 21,41  L 22,41  L 22,42  L 23,42  Z  " style="fill:rgb(12, 74, 165); fill-opacity:1.000; stroke:none;" />
 <path d="  M 22,55  L 23,55  L 23,49  L 22,49  L 22,47  L 21,47  L 21,48  L 20,48  L 20,49  L 21,49  L 21,52  L 22,52  Z  " style="fill:rgb(12, 74, 165); fill-opacity:1.000; stroke:none;" />
 <path d="  M 20,95  L 21,95  L 21,94  L 20,94  Z  " style="fill:rgb(12, 74, 165); fill-opacity:1.000; stroke:none;" />
 <path d="  M 25,7  L 24,7  L 24,6  L 22,6  L 22,7  L 23,7  L 23,8  L 24,8  L 24,9  L 25,9  Z  " style="fill:rgb(12, 74, 165); fill-opacity:1.000; stroke:none;" />
 <path d="  M 25,57  L 25,56  L 24,56  L 24,55  L 23,55  L 23,57  Z  " style="fill:rgb(12, 74, 165); fill-opacity:1.000; stroke:none;" />
 <path d="  M 24,45  L 25,45  L 25,44  L 24,44  Z  " style="fill:rgb(12, 74, 165); fill-opacity:1.000; stroke:none;" />
 <path d="  M 25,48  L 26,48  L 26,47  L 25,47  Z  " style="fill:rgb(12, 74, 165); fill-opacity:1.000; stroke:none;" />
 <path d="  M 31,47  L 31,46  L 29,46  L 29,47  Z  " style="fill:rgb(12, 74, 165); fill-opacity:1.000; stroke:none;" />
 <path d="  M 31,48  L 32,48  L 32,47  L 31,47  Z  " style="fill:rgb(12, 74, 165); fill-opacity:1.000; stroke:none;" />
 <path d="  M 32,49  L 34,49  L 34,48  L 32,48  Z  " style="fill:rgb(12, 74, 165); fill-opacity:1.000; stroke:none;" />
 <path d="  M 33,93  L 34,93  L 34,92  L 33,92  Z  " style="fill:rgb(12, 74, 165); fill-opacity:1.000; stroke:none;" />
 <path d="  M 34,49  L 34,50  L 35,50  L 35,49  Z  " style="fill:rgb(12, 74, 165); fill-opacity:1.000; stroke:none;" />
 <path d="  M 35,51  L 36,51  L 36,50  L 35,50  Z  " style="fill:rgb(12, 74, 165); fill-opacity:1.000; stroke:none;" />
 <path d="  M 39,93  L 39,91  L 38,91  L 38,93  Z  " style="fill:rgb(12, 74, 165); fill-opacity:1.000; stroke:none;" />
 <path d="  M 10,8  L 9,8  L 9,9  L 10,9  Z  " style="fill:rgb(17, 53, 119); fill-opacity:1.000; stroke:none;" />
 <path d="  M 10,7  L 11,7  L 11,6  L 10,6  Z  " style="fill:rgb(17, 53, 119); fill-opacity:1.000; stroke:none;" />
 <path d="  M 10,21  L 11,21  L 11,19  L 10,19  Z  " style="fill:rgb(17, 53, 119); fill-opacity:1.000; stroke:none;" />
 <path d="  M 10,47  L 10,48  L 14,48  L 14,47  Z  " style="fill:rgb(17, 53, 119); fill-opacity:1.000; stroke:none;" />
 <path d="  M 12,5  L 11,5  L 11,6  L 12,6  Z  " style="fill:rgb(17, 53, 119); fill-opacity:1.000; stroke:none;" />
 <path d="  M 12,18  L 11,18  L 11,19  L 12,19  Z  " style="fill:rgb(17, 53, 119); fill-opacity:1.000; stroke:none;" />
 <path d="  M 15,69  L 15,65  L 14,65  L 14,59  L 13,59  L 13,57  L 12,57  L 12,60  L 11,60  L 11,73  L 12,73  L 12,72  L 14,72  L 14,69  Z  " style="fill:rgb(17, 53, 119); fill-opacity:1.000; stroke:none;" />
 <path d="  M 14,18  L 13,18  L 13,19  L 14,19  Z  " style="fill:rgb(17, 53, 119); fill-opacity:1.000; stroke:none;" />
 <path d="  M 13,29  L 13,30  L 16,30  L 16,29  Z  " style="fill:rgb(17, 53, 119); fill-opacity:1.000; stroke:none;" />
 <path d="  M 14,40  L 14,41  L 15,41  L 15,40  Z  " style="fill:rgb(17, 53, 119); fill-opacity:1.000; stroke:none;" />
 <path d="  M 14,46  L 14,47  L 15,47  L 15,46  Z  " style="fill:rgb(17, 53, 119); fill-opacity:1.000; stroke:none;" />
 <path d="  M 16,41  L 15,41  L 15,46  L 16,46  Z  " style="fill:rgb(17, 53, 119); fill-opacity:1.000; stroke:none;" />
 <path d="  M 17,31  L 17,30  L 16,30  L 16,31  Z  " style="fill:rgb(17, 53, 119); fill-opacity:1.000; stroke:none;" />
 <path d="  M 19,29  L 19,28  L 18,28  L 18,29  Z  " style="fill:rgb(17, 53, 119); fill-opacity:1.000; stroke:none;" />
 <path d="  M 20,29  L 19,29  L 19,30  L 20,30  Z  " style="fill:rgb(17, 53, 119); fill-opacity:1.000; stroke:none;" />
 <path d="  M 19,35  L 19,37  L 20,37  L 20,35  Z  " style="fill:rgb(17, 53, 119); fill-opacity:1.000; stroke:none;" />
 <path d="  M 21,19  L 21,18  L 20,18  L 20,19  Z  " style="fill:rgb(17, 53, 119); fill-opacity:1.000; stroke:none;" />
 <path d="  M 21,30  L 20,30  L 20,31  L 21,31  Z  " style="fill:rgb(17, 53, 119); fill-opacity:1.000; stroke:none;" />
 <path d="  M 23,17  L 21,17  L 21,18  L 23,18  Z  " style="fill:rgb(17, 53, 119); fill-opacity:1.000; stroke:none;" />
 <path d="  M 21,31  L 21,32  L 22,32  L 22,31  Z  " style="fill:rgb(17, 53, 119); fill-opacity:1.000; stroke:none;" />
 <path d="  M 23,40  L 24,40  L 24,38  L 23,38  Z  " style="fill:rgb(17, 53, 119); fill-opacity:1.000; stroke:none;" />
 <path d="  M 24,44  L 25,44  L 25,41  L 24,41  Z  " style="fill:rgb(17, 53, 119); fill-opacity:1.000; stroke:none;" />
 <path d="  M 24,46  L 25,46  L 25,47  L 26,47  L 26,44  L 25,44  L 25,45  L 24,45  Z  " style="fill:rgb(17, 53, 119); fill-opacity:1.000; stroke:none;" />
 <path d="  M 27,50  L 27,47  L 26,47  L 26,50  Z  " style="fill:rgb(17, 53, 119); fill-opacity:1.000; stroke:none;" />
 <path d="  M 28,39  L 27,39  L 27,41  L 28,41  Z  " style="fill:rgb(17, 53, 119); fill-opacity:1.000; stroke:none;" />
 <path d="  M 32,49  L 32,48  L 31,48  L 31,47  L 30,47  L 30,50  L 31,50  L 31,51  L 32,51  L 32,52  L 33,52  L 33,56  L 34,56  L 34,55  L 35,55  L 35,53  L 36,53  L 36,52  L 37,52  L 37,51  L 35,51  L 35,50  L 34,50  L 34,49  Z  " style="fill:rgb(17, 53, 119); fill-opacity:1.000; stroke:none;" />
 <path d="  M 37,49  L 37,50  L 39,50  L 39,48  L 40,48  L 40,46  L 41,46  L 41,45  L 31,45  L 31,46  L 32,46  L 32,47  L 34,47  L 34,48  L 35,48  L 35,49  Z  " style="fill:rgb(17, 53, 119); fill-opacity:1.000; stroke:none;" />
 <path d="  M 15,25  L 20,25  L 20,26  L 22,26  L 22,23  L 20,23  L 20,16  L 21,16  L 21,14  L 23,14  L 23,13  L 22,13  L 22,11  L 21,11  L 21,10  L 20,10  L 20,11  L 18,11  L 18,12  L 16,12  L 16,13  L 15,13  L 15,14  L 16,14  L 16,16  L 15,16  L 15,15  L 13,15  L 13,16  L 12,16  L 12,17  L 10,17  L 10,18  L 15,18  L 15,19  L 16,19  L 16,20  L 15,20  L 15,24  L 14,24  L 14,25  L 13,25  L 13,26  L 12,26  L 12,27  L 14,27  L 14,28  L 15,28  Z  " style="fill:rgb(251, 240, 228); fill-opacity:1.000; stroke:none;" />
 <path d="  M 18,27  L 20,27  L 20,26  L 18,26  Z  " style="fill:rgb(251, 240, 228); fill-opacity:1.000; stroke:none;" />
 <path d="  M 29,55  L 29,56  L 30,56  L 30,53  L 29,53  L 29,52  L 28,52  L 28,51  L 27,51  L 27,50  L 26,50  L 26,49  L 25,49  L 25,47  L 24,47  L 24,45  L 23,45  L 23,44  L 22,44  L 22,42  L 21,42  L 21,41  L 20,41  L 20,40  L 18,40  L 18,42  L 19,42  L 19,43  L 20,43  L 20,44  L 21,44  L 21,46  L 22,46  L 22,48  L 23,48  L 23,49  L 24,49  L 24,55  L 26,55  L 26,57  L 27,57  L 27,56  L 28,56  L 28,55  Z  " style="fill:rgb(251, 240, 228); fill-opacity:1.000; stroke:none;" />
 <path d="  M 11,18  L 10,18  L 10,19  L 11,19  Z  " style="fill:rgb(235, 201, 183); fill-opacity:1.000; stroke:none;" />
 <path d="  M 11,21  L 10,21  L 10,26  L 11,26  L 11,27  L 12,27  L 12,26  L 13,26  L 13,25  L 11,25  Z  " style="fill:rgb(235, 201, 183); fill-opacity:1.000; stroke:none;" />
 <path d="  M 12,17  L 12,16  L 11,16  L 11,17  Z  " style="fill:rgb(235, 201, 183); fill-opacity:1.000; stroke:none;" />
 <path d="  M 12,16  L 13,16  L 13,15  L 12,15  Z  " style="fill:rgb(235, 201, 183); fill-opacity:1.000; stroke:none;" />
 <path d="  M 13,27  L 13,28  L 14,28  L 14,27  Z  " style="fill:rgb(235, 201, 183); fill-opacity:1.000; stroke:none;" />
 <path d="  M 15,15  L 15,16  L 16,16  L 16,15  Z  " style="fill:rgb(235, 201, 183); fill-opacity:1.000; stroke:none;" />
 <path d="  M 15,19  L 15,20  L 16,20  L 16,19  Z  " style="fill:rgb(235, 201, 183); fill-opacity:1.000; stroke:none;" />
 <path d="  M 18,28  L 18,27  L 15,27  L 15,28  Z  " style="fill:rgb(235, 201, 183); fill-opacity:1.000; stroke:none;" />
 <path d="  M 20,40  L 20,39  L 19,39  L 19,38  L 18,38  L 18,39  L 17,39  L 17,41  L 18,41  L 18,40  Z  " style="fill:rgb(235, 201, 183); fill-opacity:1.000; stroke:none;" />
 <path d="  M 19,11  L 20,11  L 20,10  L 19,10  Z  " style="fill:rgb(235, 201, 183); fill-opacity:1.000; stroke:none;" />
 <path d="  M 21,10  L 21,9  L 20,9  L 20,10  Z  " style="fill:rgb(235, 201, 183); fill-opacity:1.000; stroke:none;" />
 <path d="  M 24,14  L 23,14  L 23,15  L 22,15  L 22,14  L 21,14  L 21,16  L 20,16  L 20,18  L 21,18  L 21,17  L 23,17  L 23,22  L 22,22  L 22,23  L 24,23  Z  " style="fill:rgb(235, 201, 183); fill-opacity:1.000; stroke:none;" />
 <path d="  M 20,27  L 21,27  L 21,26  L 20,26  Z  " style="fill:rgb(235, 201, 183); fill-opacity:1.000; stroke:none;" />
 <path d="  M 20,41  L 21,41  L 21,40  L 20,40  Z  " style="fill:rgb(235, 201, 183); fill-opacity:1.000; stroke:none;" />
 <path d="  M 20,44  L 20,45  L 21,45  L 21,44  Z  " style="fill:rgb(235, 201, 183); fill-opacity:1.000; stroke:none;" />
 <path d="  M 22,11  L 22,10  L 21,10  L 21,11  Z  " style="fill:rgb(235, 201, 183); fill-opacity:1.000; stroke:none;" />
 <path d="  M 21,47  L 22,47  L 22,46  L 21,46  Z  " style="fill:rgb(235, 201, 183); fill-opacity:1.000; stroke:none;" />
 <path d="  M 23,13  L 23,12  L 22,12  L 22,13  Z  " style="fill:rgb(235, 201, 183); fill-opacity:1.000; stroke:none;" />
 <path d="  M 24,25  L 24,24  L 22,24  L 22,25  Z  " style="fill:rgb(235, 201, 183); fill-opacity:1.000; stroke:none;" />
 <path d="  M 22,44  L 23,44  L 23,43  L 22,43  Z  " style="fill:rgb(235, 201, 183); fill-opacity:1.000; stroke:none;" />
 <path d="  M 23,49  L 23,48  L 22,48  L 22,49  Z  " style="fill:rgb(235, 201, 183); fill-opacity:1.000; stroke:none;" />
 <path d="  M 24,50  L 24,49  L 23,49  L 23,50  Z  " style="fill:rgb(235, 201, 183); fill-opacity:1.000; stroke:none;" />
 <path d="  M 25,46  L 24,46  L 24,47  L 25,47  Z  " style="fill:rgb(235, 201, 183); fill-opacity:1.000; stroke:none;" />
 <path d="  M 26,55  L 25,55  L 25,57  L 26,57  Z  " style="fill:rgb(235, 201, 183); fill-opacity:1.000; stroke:none;" />
 <path d="  M 26,59  L 27,59  L 27,57  L 26,57  Z  " style="fill:rgb(235, 201, 183); fill-opacity:1.000; stroke:none;" />
 <path d="  M 27,51  L 28,51  L 28,50  L 27,50  Z  " style="fill:rgb(235, 201, 183); fill-opacity:1.000; stroke:none;" />
 <path d="  M 28,56  L 27,56  L 27,57  L 28,57  Z  " style="fill:rgb(235, 201, 183); fill-opacity:1.000; stroke:none;" />
 <path d="  M 29,52  L 29,51  L 28,51  L 28,52  Z  " style="fill:rgb(235, 201, 183); fill-opacity:1.000; stroke:none;" />
 <path d="  M 28,56  L 29,56  L 29,55  L 28,55  Z  " style="fill:rgb(235, 201, 183); fill-opacity:1.000; stroke:none;" />
 <path d="  M 29,52  L 29,53  L 30,53  L 30,52  Z  " style="fill:rgb(235, 201, 183); fill-opacity:1.000; stroke:none;" />
 <path d="  M 30,56  L 29,56  L 29,58  L 30,58  Z  " style="fill:rgb(235, 201, 183); fill-opacity:1.000; stroke:none;" />
 <path d="  M 11,41  L 10,41  L 10,45  L 11,45  Z  " style="fill:rgb(55, 111, 195); fill-opacity:1.000; stroke:none;" />
 <path d="  M 11,39  L 11,40  L 12,40  L 12,39  Z  " style="fill:rgb(55, 111, 195); fill-opacity:1.000; stroke:none;" />
 <path d="  M 13,6  L 13,5  L 12,5  L 12,7  L 14,7  L 14,6  Z  " style="fill:rgb(55, 111, 195); fill-opacity:1.000; stroke:none;" />
 <path d="  M 12,52  L 12,53  L 13,53  L 13,52  Z  " style="fill:rgb(55, 111, 195); fill-opacity:1.000; stroke:none;" />
 <path d="  M 14,41  L 14,40  L 13,40  L 13,41  Z  " style="fill:rgb(55, 111, 195); fill-opacity:1.000; stroke:none;" />
 <path d="  M 14,94  L 13,94  L 13,97  L 14,97  Z  " style="fill:rgb(55, 111, 195); fill-opacity:1.000; stroke:none;" />
 <path d="  M 14,47  L 14,48  L 15,48  L 15,47  Z  " style="fill:rgb(55, 111, 195); fill-opacity:1.000; stroke:none;" />
 <path d="  M 15,54  L 15,53  L 14,53  L 14,54  Z  " style="fill:rgb(55, 111, 195); fill-opacity:1.000; stroke:none;" />
 <path d="  M 16,39  L 15,39  L 15,40  L 16,40  Z  " style="fill:rgb(55, 111, 195); fill-opacity:1.000; stroke:none;" />
 <path d="  M 16,46  L 16,47  L 19,47  L 19,46  Z  " style="fill:rgb(55, 111, 195); fill-opacity:1.000; stroke:none;" />
 <path d="  M 17,54  L 16,54  L 16,55  L 17,55  Z  " style="fill:rgb(55, 111, 195); fill-opacity:1.000; stroke:none;" />
 <path d="  M 17,53  L 18,53  L 18,51  L 17,51  Z  " style="fill:rgb(55, 111, 195); fill-opacity:1.000; stroke:none;" />
 <path d="  M 19,50  L 18,50  L 18,51  L 19,51  Z  " style="fill:rgb(55, 111, 195); fill-opacity:1.000; stroke:none;" />
 <path d="  M 21,50  L 21,49  L 19,49  L 19,50  Z  " style="fill:rgb(55, 111, 195); fill-opacity:1.000; stroke:none;" />
 <path d="  M 21,37  L 20,37  L 20,38  L 21,38  Z  " style="fill:rgb(55, 111, 195); fill-opacity:1.000; stroke:none;" />
 <path d="  M 21,48  L 21,47  L 20,47  L 20,48  Z  " style="fill:rgb(55, 111, 195); fill-opacity:1.000; stroke:none;" />
 <path d="  M 21,96  L 21,95  L 20,95  L 20,96  Z  " style="fill:rgb(55, 111, 195); fill-opacity:1.000; stroke:none;" />
 <path d="  M 22,5  L 21,5  L 21,6  L 22,6  Z  " style="fill:rgb(55, 111, 195); fill-opacity:1.000; stroke:none;" />
 <path d="  M 22,52  L 21,52  L 21,53  L 22,53  Z  " style="fill:rgb(55, 111, 195); fill-opacity:1.000; stroke:none;" />
 <path d="  M 23,36  L 22,36  L 22,37  L 23,37  Z  " style="fill:rgb(55, 111, 195); fill-opacity:1.000; stroke:none;" />
 <path d="  M 23,55  L 22,55  L 22,57  L 23,57  Z  " style="fill:rgb(55, 111, 195); fill-opacity:1.000; stroke:none;" />
 <path d="  M 39,95  L 39,93  L 38,93  L 38,92  L 34,92  L 34,93  L 33,93  L 33,95  Z  " style="fill:rgb(55, 111, 195); fill-opacity:1.000; stroke:none;" />
</svg>
