<?xml version="1.0" encoding="UTF-8" standalone="no"?>
<!DOCTYPE svg PUBLIC "-//W3C//DTD SVG 1.1//EN" 
  "http://www.w3.org/Graphics/SVG/1.1/DTD/svg11.dtd">
<svg width="45" height="100"
     xmlns="http://www.w3.org/2000/svg" version="1.1">
 <path d="  M 7,76  L 5,76  L 5,75  L 4,75  L 4,74  L 3,74  L 3,71  L 2,71  L 2,67  L 3,67  L 3,66  L 4,66  L 4,67  L 5,67  L 5,69  L 6,69  L 6,72  L 7,72  L 7,73  L 8,73  L 8,70  L 9,70  L 9,67  L 8,67  L 8,66  L 7,66  L 7,65  L 6,65  L 6,66  L 5,66  L 5,65  L 4,65  L 4,62  L 3,62  L 3,56  L 4,56  L 4,50  L 5,50  L 5,42  L 6,42  L 6,34  L 5,34  L 5,30  L 4,30  L 4,27  L 5,27  L 5,24  L 4,24  L 4,19  L 9,19  L 9,20  L 11,20  L 11,18  L 12,18  L 12,15  L 13,15  L 13,14  L 15,14  L 15,13  L 23,13  L 23,14  L 24,14  L 24,15  L 25,15  L 25,16  L 26,16  L 26,17  L 27,17  L 27,19  L 28,19  L 28,21  L 30,21  L 30,20  L 32,20  L 32,19  L 35,19  L 35,18  L 37,18  L 37,17  L 41,17  L 41,22  L 40,22  L 40,25  L 39,25  L 39,28  L 38,28  L 38,31  L 37,31  L 37,34  L 36,34  L 36,37  L 35,37  L 35,38  L 34,38  L 34,43  L 35,43  L 35,48  L 36,48  L 36,53  L 37,53  L 37,58  L 36,58  L 36,59  L 35,59  L 35,60  L 36,60  L 36,63  L 35,63  L 35,64  L 36,64  L 36,67  L 35,67  L 35,68  L 34,68  L 34,69  L 32,69  L 32,68  L 31,68  L 31,67  L 30,67  L 30,64  L 31,64  L 31,63  L 30,63  L 30,60  L 31,60  L 31,59  L 30,59  L 30,58  L 28,58  L 28,62  L 29,62  L 29,68  L 30,68  L 30,69  L 31,69  L 31,72  L 35,72  L 35,79  L 36,79  L 36,81  L 37,81  L 37,82  L 38,82  L 38,83  L 39,83  L 39,84  L 40,84  L 40,86  L 41,86  L 41,87  L 42,87  L 42,89  L 43,89  L 43,92  L 44,92  L 44,97  L 43,97  L 43,98  L 42,98  L 42,99  L 41,99  L 41,100  L 45,100  L 45,0  L 0,0  L 0,100  L 5,100  L 5,99  L 4,99  L 4,98  L 3,98  L 3,89  L 4,89  L 4,85  L 5,85  L 5,81  L 6,81  L 6,78  L 7,78  Z  " style="fill:rgb(255, 255, 255); fill-opacity:0.000; stroke:none;" />
 <path d="  M 35,100  L 35,99  L 12,99  L 12,100  Z  " style="fill:rgb(255, 255, 255); fill-opacity:0.000; stroke:none;" />
 <path d="  M 2,71  L 3,71  L 3,67  L 2,67  Z  " style="fill:rgb(0, 0, 0); fill-opacity:1.000; stroke:none;" />
 <path d="  M 4,56  L 3,56  L 3,62  L 4,62  Z  " style="fill:rgb(0, 0, 0); fill-opacity:1.000; stroke:none;" />
 <path d="  M 4,66  L 3,66  L 3,67  L 4,67  Z  " style="fill:rgb(0, 0, 0); fill-opacity:1.000; stroke:none;" />
 <path d="  M 3,74  L 4,74  L 4,71  L 3,71  Z  " style="fill:rgb(0, 0, 0); fill-opacity:1.000; stroke:none;" />
 <path d="  M 4,89  L 3,89  L 3,98  L 4,98  Z  " style="fill:rgb(0, 0, 0); fill-opacity:1.000; stroke:none;" />
 <path d="  M 5,20  L 9,20  L 9,19  L 4,19  L 4,24  L 5,24  Z  " style="fill:rgb(0, 0, 0); fill-opacity:1.000; stroke:none;" />
 <path d="  M 5,27  L 4,27  L 4,30  L 5,30  Z  " style="fill:rgb(0, 0, 0); fill-opacity:1.000; stroke:none;" />
 <path d="  M 4,50  L 4,56  L 5,56  L 5,50  Z  " style="fill:rgb(0, 0, 0); fill-opacity:1.000; stroke:none;" />
 <path d="  M 4,65  L 5,65  L 5,62  L 4,62  Z  " style="fill:rgb(0, 0, 0); fill-opacity:1.000; stroke:none;" />
 <path d="  M 5,67  L 4,67  L 4,69  L 5,69  Z  " style="fill:rgb(0, 0, 0); fill-opacity:1.000; stroke:none;" />
 <path d="  M 5,74  L 4,74  L 4,75  L 5,75  Z  " style="fill:rgb(0, 0, 0); fill-opacity:1.000; stroke:none;" />
 <path d="  M 5,85  L 4,85  L 4,89  L 5,89  Z  " style="fill:rgb(0, 0, 0); fill-opacity:1.000; stroke:none;" />
 <path d="  M 4,98  L 4,99  L 5,99  L 5,98  Z  " style="fill:rgb(0, 0, 0); fill-opacity:1.000; stroke:none;" />
 <path d="  M 5,27  L 6,27  L 6,24  L 5,24  Z  " style="fill:rgb(0, 0, 0); fill-opacity:1.000; stroke:none;" />
 <path d="  M 5,34  L 6,34  L 6,30  L 5,30  Z  " style="fill:rgb(0, 0, 0); fill-opacity:1.000; stroke:none;" />
 <path d="  M 5,50  L 6,50  L 6,42  L 5,42  Z  " style="fill:rgb(0, 0, 0); fill-opacity:1.000; stroke:none;" />
 <path d="  M 6,66  L 6,65  L 5,65  L 5,66  Z  " style="fill:rgb(0, 0, 0); fill-opacity:1.000; stroke:none;" />
 <path d="  M 6,72  L 6,69  L 5,69  L 5,72  Z  " style="fill:rgb(0, 0, 0); fill-opacity:1.000; stroke:none;" />
 <path d="  M 7,75  L 5,75  L 5,76  L 7,76  Z  " style="fill:rgb(0, 0, 0); fill-opacity:1.000; stroke:none;" />
 <path d="  M 5,81  L 5,85  L 6,85  L 6,81  Z  " style="fill:rgb(0, 0, 0); fill-opacity:1.000; stroke:none;" />
 <path d="  M 5,100  L 12,100  L 12,99  L 5,99  Z  " style="fill:rgb(0, 0, 0); fill-opacity:1.000; stroke:none;" />
 <path d="  M 7,34  L 6,34  L 6,42  L 7,42  Z  " style="fill:rgb(0, 0, 0); fill-opacity:1.000; stroke:none;" />
 <path d="  M 6,65  L 7,65  L 7,62  L 6,62  Z  " style="fill:rgb(0, 0, 0); fill-opacity:1.000; stroke:none;" />
 <path d="  M 7,72  L 6,72  L 6,73  L 7,73  Z  " style="fill:rgb(0, 0, 0); fill-opacity:1.000; stroke:none;" />
 <path d="  M 7,78  L 6,78  L 6,81  L 7,81  Z  " style="fill:rgb(0, 0, 0); fill-opacity:1.000; stroke:none;" />
 <path d="  M 7,65  L 7,66  L 8,66  L 8,65  Z  " style="fill:rgb(0, 0, 0); fill-opacity:1.000; stroke:none;" />
 <path d="  M 8,73  L 7,73  L 7,74  L 8,74  Z  " style="fill:rgb(0, 0, 0); fill-opacity:1.000; stroke:none;" />
 <path d="  M 7,78  L 8,78  L 8,76  L 7,76  Z  " style="fill:rgb(0, 0, 0); fill-opacity:1.000; stroke:none;" />
 <path d="  M 9,66  L 8,66  L 8,67  L 9,67  Z  " style="fill:rgb(0, 0, 0); fill-opacity:1.000; stroke:none;" />
 <path d="  M 9,73  L 9,70  L 8,70  L 8,73  Z  " style="fill:rgb(0, 0, 0); fill-opacity:1.000; stroke:none;" />
 <path d="  M 9,20  L 9,21  L 11,21  L 11,20  Z  " style="fill:rgb(0, 0, 0); fill-opacity:1.000; stroke:none;" />
 <path d="  M 9,70  L 10,70  L 10,67  L 9,67  Z  " style="fill:rgb(0, 0, 0); fill-opacity:1.000; stroke:none;" />
 <path d="  M 12,18  L 11,18  L 11,20  L 12,20  Z  " style="fill:rgb(0, 0, 0); fill-opacity:1.000; stroke:none;" />
 <path d="  M 13,15  L 12,15  L 12,18  L 13,18  Z  " style="fill:rgb(0, 0, 0); fill-opacity:1.000; stroke:none;" />
 <path d="  M 35,99  L 35,98  L 12,98  L 12,99  Z  " style="fill:rgb(0, 0, 0); fill-opacity:1.000; stroke:none;" />
 <path d="  M 13,15  L 15,15  L 15,14  L 13,14  Z  " style="fill:rgb(0, 0, 0); fill-opacity:1.000; stroke:none;" />
 <path d="  M 23,14  L 23,13  L 15,13  L 15,14  Z  " style="fill:rgb(0, 0, 0); fill-opacity:1.000; stroke:none;" />
 <path d="  M 17,82  L 20,82  L 20,80  L 26,80  L 26,84  L 24,84  L 24,85  L 23,85  L 23,87  L 21,87  L 21,93  L 25,93  L 25,87  L 26,87  L 26,86  L 28,86  L 28,84  L 30,84  L 30,78  L 17,78  Z  " style="fill:rgb(0, 0, 0); fill-opacity:1.000; stroke:none;" />
 <path d="  M 23,14  L 23,15  L 24,15  L 24,14  Z  " style="fill:rgb(0, 0, 0); fill-opacity:1.000; stroke:none;" />
 <path d="  M 25,16  L 25,15  L 24,15  L 24,16  Z  " style="fill:rgb(0, 0, 0); fill-opacity:1.000; stroke:none;" />
 <path d="  M 25,17  L 26,17  L 26,16  L 25,16  Z  " style="fill:rgb(0, 0, 0); fill-opacity:1.000; stroke:none;" />
 <path d="  M 26,19  L 27,19  L 27,17  L 26,17  Z  " style="fill:rgb(0, 0, 0); fill-opacity:1.000; stroke:none;" />
 <path d="  M 27,22  L 30,22  L 30,21  L 28,21  L 28,19  L 27,19  Z  " style="fill:rgb(0, 0, 0); fill-opacity:1.000; stroke:none;" />
 <path d="  M 28,58  L 27,58  L 27,62  L 28,62  Z  " style="fill:rgb(0, 0, 0); fill-opacity:1.000; stroke:none;" />
 <path d="  M 31,47  L 30,47  L 30,48  L 29,48  L 29,53  L 28,53  L 28,58  L 30,58  L 30,52  L 31,52  Z  " style="fill:rgb(0, 0, 0); fill-opacity:1.000; stroke:none;" />
 <path d="  M 29,62  L 28,62  L 28,68  L 29,68  Z  " style="fill:rgb(0, 0, 0); fill-opacity:1.000; stroke:none;" />
 <path d="  M 30,68  L 29,68  L 29,69  L 30,69  Z  " style="fill:rgb(0, 0, 0); fill-opacity:1.000; stroke:none;" />
 <path d="  M 30,20  L 30,21  L 32,21  L 32,20  Z  " style="fill:rgb(0, 0, 0); fill-opacity:1.000; stroke:none;" />
 <path d="  M 30,59  L 31,59  L 31,58  L 30,58  Z  " style="fill:rgb(0, 0, 0); fill-opacity:1.000; stroke:none;" />
 <path d="  M 31,63  L 31,60  L 30,60  L 30,63  Z  " style="fill:rgb(0, 0, 0); fill-opacity:1.000; stroke:none;" />
 <path d="  M 31,64  L 30,64  L 30,67  L 31,67  Z  " style="fill:rgb(0, 0, 0); fill-opacity:1.000; stroke:none;" />
 <path d="  M 30,72  L 31,72  L 31,69  L 30,69  Z  " style="fill:rgb(0, 0, 0); fill-opacity:1.000; stroke:none;" />
 <path d="  M 32,59  L 31,59  L 31,60  L 32,60  Z  " style="fill:rgb(0, 0, 0); fill-opacity:1.000; stroke:none;" />
 <path d="  M 32,64  L 32,63  L 31,63  L 31,64  Z  " style="fill:rgb(0, 0, 0); fill-opacity:1.000; stroke:none;" />
 <path d="  M 31,67  L 31,68  L 32,68  L 32,67  Z  " style="fill:rgb(0, 0, 0); fill-opacity:1.000; stroke:none;" />
 <path d="  M 35,72  L 31,72  L 31,73  L 34,73  L 34,79  L 35,79  Z  " style="fill:rgb(0, 0, 0); fill-opacity:1.000; stroke:none;" />
 <path d="  M 32,19  L 32,20  L 35,20  L 35,19  Z  " style="fill:rgb(0, 0, 0); fill-opacity:1.000; stroke:none;" />
 <path d="  M 32,68  L 32,69  L 34,69  L 34,68  Z  " style="fill:rgb(0, 0, 0); fill-opacity:1.000; stroke:none;" />
 <path d="  M 34,38  L 33,38  L 33,43  L 34,43  Z  " style="fill:rgb(0, 0, 0); fill-opacity:1.000; stroke:none;" />
 <path d="  M 34,37  L 34,38  L 35,38  L 35,37  Z  " style="fill:rgb(0, 0, 0); fill-opacity:1.000; stroke:none;" />
 <path d="  M 34,43  L 34,48  L 35,48  L 35,43  Z  " style="fill:rgb(0, 0, 0); fill-opacity:1.000; stroke:none;" />
 <path d="  M 34,59  L 34,60  L 35,60  L 35,59  Z  " style="fill:rgb(0, 0, 0); fill-opacity:1.000; stroke:none;" />
 <path d="  M 35,63  L 34,63  L 34,64  L 35,64  Z  " style="fill:rgb(0, 0, 0); fill-opacity:1.000; stroke:none;" />
 <path d="  M 35,68  L 35,67  L 34,67  L 34,68  Z  " style="fill:rgb(0, 0, 0); fill-opacity:1.000; stroke:none;" />
 <path d="  M 37,19  L 37,18  L 35,18  L 35,19  Z  " style="fill:rgb(0, 0, 0); fill-opacity:1.000; stroke:none;" />
 <path d="  M 35,37  L 36,37  L 36,34  L 35,34  Z  " style="fill:rgb(0, 0, 0); fill-opacity:1.000; stroke:none;" />
 <path d="  M 35,53  L 36,53  L 36,48  L 35,48  Z  " style="fill:rgb(0, 0, 0); fill-opacity:1.000; stroke:none;" />
 <path d="  M 35,59  L 36,59  L 36,58  L 35,58  Z  " style="fill:rgb(0, 0, 0); fill-opacity:1.000; stroke:none;" />
 <path d="  M 36,60  L 35,60  L 35,63  L 36,63  Z  " style="fill:rgb(0, 0, 0); fill-opacity:1.000; stroke:none;" />
 <path d="  M 36,64  L 35,64  L 35,67  L 36,67  Z  " style="fill:rgb(0, 0, 0); fill-opacity:1.000; stroke:none;" />
 <path d="  M 35,81  L 36,81  L 36,79  L 35,79  Z  " style="fill:rgb(0, 0, 0); fill-opacity:1.000; stroke:none;" />
 <path d="  M 35,99  L 35,100  L 41,100  L 41,99  Z  " style="fill:rgb(0, 0, 0); fill-opacity:1.000; stroke:none;" />
 <path d="  M 36,34  L 37,34  L 37,31  L 36,31  Z  " style="fill:rgb(0, 0, 0); fill-opacity:1.000; stroke:none;" />
 <path d="  M 36,58  L 37,58  L 37,53  L 36,53  Z  " style="fill:rgb(0, 0, 0); fill-opacity:1.000; stroke:none;" />
 <path d="  M 37,81  L 36,81  L 36,82  L 37,82  Z  " style="fill:rgb(0, 0, 0); fill-opacity:1.000; stroke:none;" />
 <path d="  M 41,17  L 37,17  L 37,18  L 40,18  L 40,22  L 41,22  Z  " style="fill:rgb(0, 0, 0); fill-opacity:1.000; stroke:none;" />
 <path d="  M 37,31  L 38,31  L 38,28  L 37,28  Z  " style="fill:rgb(0, 0, 0); fill-opacity:1.000; stroke:none;" />
 <path d="  M 38,83  L 38,82  L 37,82  L 37,83  Z  " style="fill:rgb(0, 0, 0); fill-opacity:1.000; stroke:none;" />
 <path d="  M 39,25  L 38,25  L 38,28  L 39,28  Z  " style="fill:rgb(0, 0, 0); fill-opacity:1.000; stroke:none;" />
 <path d="  M 38,84  L 39,84  L 39,83  L 38,83  Z  " style="fill:rgb(0, 0, 0); fill-opacity:1.000; stroke:none;" />
 <path d="  M 40,22  L 39,22  L 39,25  L 40,25  Z  " style="fill:rgb(0, 0, 0); fill-opacity:1.000; stroke:none;" />
 <path d="  M 40,84  L 39,84  L 39,86  L 40,86  Z  " style="fill:rgb(0, 0, 0); fill-opacity:1.000; stroke:none;" />
 <path d="  M 41,87  L 41,86  L 40,86  L 40,87  Z  " style="fill:rgb(0, 0, 0); fill-opacity:1.000; stroke:none;" />
 <path d="  M 41,87  L 41,89  L 42,89  L 42,87  Z  " style="fill:rgb(0, 0, 0); fill-opacity:1.000; stroke:none;" />
 <path d="  M 42,99  L 42,98  L 41,98  L 41,99  Z  " style="fill:rgb(0, 0, 0); fill-opacity:1.000; stroke:none;" />
 <path d="  M 43,92  L 43,89  L 42,89  L 42,92  Z  " style="fill:rgb(0, 0, 0); fill-opacity:1.000; stroke:none;" />
 <path d="  M 42,98  L 43,98  L 43,97  L 42,97  Z  " style="fill:rgb(0, 0, 0); fill-opacity:1.000; stroke:none;" />
 <path d="  M 44,92  L 43,92  L 43,97  L 44,97  Z  " style="fill:rgb(0, 0, 0); fill-opacity:1.000; stroke:none;" />
 <path d="  M 4,74  L 5,74  L 5,69  L 4,69  L 4,67  L 3,67  L 3,71  L 4,71  Z  " style="fill:rgb(12, 74, 165); fill-opacity:1.000; stroke:none;" />
 <path d="  M 9,46  L 9,45  L 8,45  L 8,47  L 7,47  L 7,51  L 6,51  L 6,55  L 5,55  L 5,56  L 4,56  L 4,61  L 5,61  L 5,64  L 6,64  L 6,57  L 7,57  L 7,62  L 8,62  L 8,61  L 9,61  L 9,60  L 11,60  L 11,59  L 13,59  L 13,58  L 12,58  L 12,52  L 13,52  L 13,50  L 12,50  L 12,49  L 11,49  L 11,47  L 10,47  L 10,46  Z  " style="fill:rgb(12, 74, 165); fill-opacity:1.000; stroke:none;" />
 <path d="  M 14,35  L 13,35  L 13,34  L 12,34  L 12,31  L 11,31  L 11,30  L 10,30  L 10,28  L 9,28  L 9,26  L 8,26  L 8,24  L 7,24  L 7,23  L 6,23  L 6,21  L 5,21  L 5,24  L 6,24  L 6,25  L 7,25  L 7,27  L 8,27  L 8,30  L 9,30  L 9,32  L 10,32  L 10,35  L 11,35  L 11,37  L 12,37  L 12,39  L 13,39  L 13,41  L 14,41  Z  " style="fill:rgb(12, 74, 165); fill-opacity:1.000; stroke:none;" />
 <path d="  M 6,51  L 6,50  L 5,50  L 5,51  Z  " style="fill:rgb(12, 74, 165); fill-opacity:1.000; stroke:none;" />
 <path d="  M 7,73  L 6,73  L 6,74  L 7,74  Z  " style="fill:rgb(12, 74, 165); fill-opacity:1.000; stroke:none;" />
 <path d="  M 8,38  L 8,37  L 7,37  L 7,38  Z  " style="fill:rgb(12, 74, 165); fill-opacity:1.000; stroke:none;" />
 <path d="  M 8,43  L 9,43  L 9,41  L 10,41  L 10,39  L 8,39  Z  " style="fill:rgb(12, 74, 165); fill-opacity:1.000; stroke:none;" />
 <path d="  M 14,18  L 14,20  L 13,20  L 13,21  L 17,21  L 17,22  L 18,22  L 18,20  L 17,20  L 17,19  L 16,19  L 16,18  Z  " style="fill:rgb(12, 74, 165); fill-opacity:1.000; stroke:none;" />
 <path d="  M 14,63  L 14,64  L 18,64  L 18,63  Z  " style="fill:rgb(12, 74, 165); fill-opacity:1.000; stroke:none;" />
 <path d="  M 15,59  L 15,60  L 17,60  L 17,59  Z  " style="fill:rgb(12, 74, 165); fill-opacity:1.000; stroke:none;" />
 <path d="  M 18,14  L 17,14  L 17,15  L 18,15  Z  " style="fill:rgb(12, 74, 165); fill-opacity:1.000; stroke:none;" />
 <path d="  M 19,58  L 18,58  L 18,59  L 19,59  Z  " style="fill:rgb(12, 74, 165); fill-opacity:1.000; stroke:none;" />
 <path d="  M 19,58  L 20,58  L 20,53  L 19,53  Z  " style="fill:rgb(12, 74, 165); fill-opacity:1.000; stroke:none;" />
 <path d="  M 24,22  L 26,22  L 26,17  L 25,17  L 25,16  L 24,16  Z  " style="fill:rgb(12, 74, 165); fill-opacity:1.000; stroke:none;" />
 <path d="  M 35,32  L 34,32  L 34,29  L 33,29  L 33,28  L 32,28  L 32,26  L 31,26  L 31,25  L 30,25  L 30,24  L 28,24  L 28,22  L 27,22  L 27,24  L 24,24  L 24,25  L 26,25  L 26,26  L 28,26  L 28,27  L 29,27  L 29,28  L 30,28  L 30,30  L 31,30  L 31,32  L 32,32  L 32,37  L 35,37  Z  " style="fill:rgb(12, 74, 165); fill-opacity:1.000; stroke:none;" />
 <path d="  M 32,47  L 31,47  L 31,52  L 30,52  L 30,58  L 31,58  L 31,59  L 32,59  L 32,54  L 33,54  L 33,55  L 34,55  L 34,59  L 35,59  L 35,58  L 36,58  L 36,53  L 35,53  L 35,48  L 34,48  L 34,43  L 33,43  L 33,38  L 32,38  Z  " style="fill:rgb(12, 74, 165); fill-opacity:1.000; stroke:none;" />
 <path d="  M 35,67  L 35,64  L 34,64  L 34,63  L 32,63  L 32,64  L 31,64  L 31,67  L 32,67  L 32,68  L 34,68  L 34,67  Z  " style="fill:rgb(12, 74, 165); fill-opacity:1.000; stroke:none;" />
 <path d="  M 34,60  L 34,59  L 32,59  L 32,60  Z  " style="fill:rgb(12, 74, 165); fill-opacity:1.000; stroke:none;" />
 <path d="  M 36,29  L 35,29  L 35,32  L 36,32  L 36,31  L 37,31  L 37,28  L 38,28  L 38,25  L 37,25  L 37,27  L 36,27  Z  " style="fill:rgb(12, 74, 165); fill-opacity:1.000; stroke:none;" />
 <path d="  M 38,25  L 39,25  L 39,22  L 38,22  Z  " style="fill:rgb(12, 74, 165); fill-opacity:1.000; stroke:none;" />
 <path d="  M 40,22  L 40,20  L 39,20  L 39,22  Z  " style="fill:rgb(12, 74, 165); fill-opacity:1.000; stroke:none;" />
 <path d="  M 4,62  L 5,62  L 5,61  L 4,61  Z  " style="fill:rgb(77, 28, 119); fill-opacity:1.000; stroke:none;" />
 <path d="  M 5,65  L 6,65  L 6,64  L 5,64  Z  " style="fill:rgb(77, 28, 119); fill-opacity:1.000; stroke:none;" />
 <path d="  M 7,57  L 6,57  L 6,62  L 7,62  Z  " style="fill:rgb(77, 28, 119); fill-opacity:1.000; stroke:none;" />
 <path d="  M 8,37  L 8,36  L 7,36  L 7,37  Z  " style="fill:rgb(77, 28, 119); fill-opacity:1.000; stroke:none;" />
 <path d="  M 8,65  L 8,62  L 7,62  L 7,65  Z  " style="fill:rgb(77, 28, 119); fill-opacity:1.000; stroke:none;" />
 <path d="  M 11,61  L 11,60  L 9,60  L 9,61  Z  " style="fill:rgb(77, 28, 119); fill-opacity:1.000; stroke:none;" />
 <path d="  M 11,21  L 13,21  L 13,20  L 11,20  Z  " style="fill:rgb(77, 28, 119); fill-opacity:1.000; stroke:none;" />
 <path d="  M 11,49  L 12,49  L 12,48  L 11,48  Z  " style="fill:rgb(77, 28, 119); fill-opacity:1.000; stroke:none;" />
 <path d="  M 11,60  L 13,60  L 13,59  L 11,59  Z  " style="fill:rgb(77, 28, 119); fill-opacity:1.000; stroke:none;" />
 <path d="  M 13,49  L 12,49  L 12,50  L 13,50  Z  " style="fill:rgb(77, 28, 119); fill-opacity:1.000; stroke:none;" />
 <path d="  M 17,22  L 17,21  L 13,21  L 13,22  Z  " style="fill:rgb(77, 28, 119); fill-opacity:1.000; stroke:none;" />
 <path d="  M 13,58  L 13,59  L 14,59  L 14,58  Z  " style="fill:rgb(77, 28, 119); fill-opacity:1.000; stroke:none;" />
 <path d="  M 14,64  L 13,64  L 13,67  L 14,67  Z  " style="fill:rgb(77, 28, 119); fill-opacity:1.000; stroke:none;" />
 <path d="  M 15,59  L 14,59  L 14,60  L 15,60  Z  " style="fill:rgb(77, 28, 119); fill-opacity:1.000; stroke:none;" />
 <path d="  M 15,69  L 15,70  L 16,70  L 16,69  L 17,69  L 17,68  L 15,68  L 15,67  L 14,67  L 14,69  Z  " style="fill:rgb(77, 28, 119); fill-opacity:1.000; stroke:none;" />
 <path d="  M 18,21  L 18,22  L 17,22  L 17,23  L 19,23  L 19,24  L 20,24  L 20,22  L 19,22  L 19,21  Z  " style="fill:rgb(77, 28, 119); fill-opacity:1.000; stroke:none;" />
 <path d="  M 17,60  L 18,60  L 18,59  L 17,59  Z  " style="fill:rgb(77, 28, 119); fill-opacity:1.000; stroke:none;" />
 <path d="  M 19,38  L 18,38  L 18,39  L 19,39  Z  " style="fill:rgb(77, 28, 119); fill-opacity:1.000; stroke:none;" />
 <path d="  M 19,41  L 23,41  L 23,40  L 18,40  L 18,44  L 19,44  Z  " style="fill:rgb(77, 28, 119); fill-opacity:1.000; stroke:none;" />
 <path d="  M 19,67  L 19,64  L 18,64  L 18,67  Z  " style="fill:rgb(77, 28, 119); fill-opacity:1.000; stroke:none;" />
 <path d="  M 19,37  L 19,38  L 20,38  L 20,37  Z  " style="fill:rgb(77, 28, 119); fill-opacity:1.000; stroke:none;" />
 <path d="  M 19,49  L 20,49  L 20,48  L 19,48  Z  " style="fill:rgb(77, 28, 119); fill-opacity:1.000; stroke:none;" />
 <path d="  M 20,37  L 22,37  L 22,36  L 20,36  Z  " style="fill:rgb(77, 28, 119); fill-opacity:1.000; stroke:none;" />
 <path d="  M 24,35  L 23,35  L 23,38  L 24,38  Z  " style="fill:rgb(77, 28, 119); fill-opacity:1.000; stroke:none;" />
 <path d="  M 26,50  L 25,50  L 25,53  L 26,53  Z  " style="fill:rgb(77, 28, 119); fill-opacity:1.000; stroke:none;" />
 <path d="  M 27,69  L 27,68  L 26,68  L 26,69  Z  " style="fill:rgb(77, 28, 119); fill-opacity:1.000; stroke:none;" />
 <path d="  M 32,40  L 29,40  L 29,41  L 31,41  L 31,44  L 32,44  Z  " style="fill:rgb(77, 28, 119); fill-opacity:1.000; stroke:none;" />
 <path d="  M 30,38  L 31,38  L 31,32  L 30,32  Z  " style="fill:rgb(77, 28, 119); fill-opacity:1.000; stroke:none;" />
 <path d="  M 32,39  L 32,38  L 31,38  L 31,39  Z  " style="fill:rgb(77, 28, 119); fill-opacity:1.000; stroke:none;" />
 <path d="  M 32,46  L 31,46  L 31,47  L 32,47  Z  " style="fill:rgb(77, 28, 119); fill-opacity:1.000; stroke:none;" />
 <path d="  M 33,27  L 32,27  L 32,28  L 33,28  Z  " style="fill:rgb(77, 28, 119); fill-opacity:1.000; stroke:none;" />
 <path d="  M 34,38  L 34,37  L 32,37  L 32,38  Z  " style="fill:rgb(77, 28, 119); fill-opacity:1.000; stroke:none;" />
 <path d="  M 33,28  L 33,29  L 34,29  L 34,28  Z  " style="fill:rgb(77, 28, 119); fill-opacity:1.000; stroke:none;" />
 <path d="  M 34,32  L 35,32  L 35,29  L 34,29  Z  " style="fill:rgb(77, 28, 119); fill-opacity:1.000; stroke:none;" />
 <path d="  M 35,34  L 36,34  L 36,32  L 35,32  Z  " style="fill:rgb(77, 28, 119); fill-opacity:1.000; stroke:none;" />
 <path d="  M 4,89  L 4,90  L 5,90  L 5,89  Z  " style="fill:rgb(213, 218, 232); fill-opacity:1.000; stroke:none;" />
 <path d="  M 6,85  L 5,85  L 5,89  L 6,89  Z  " style="fill:rgb(213, 218, 232); fill-opacity:1.000; stroke:none;" />
 <path d="  M 6,83  L 7,83  L 7,82  L 6,82  Z  " style="fill:rgb(213, 218, 232); fill-opacity:1.000; stroke:none;" />
 <path d="  M 11,61  L 9,61  L 9,62  L 11,62  Z  " style="fill:rgb(213, 218, 232); fill-opacity:1.000; stroke:none;" />
 <path d="  M 13,61  L 13,60  L 11,60  L 11,61  Z  " style="fill:rgb(213, 218, 232); fill-opacity:1.000; stroke:none;" />
 <path d="  M 13,64  L 14,64  L 14,63  L 13,63  Z  " style="fill:rgb(213, 218, 232); fill-opacity:1.000; stroke:none;" />
 <path d="  M 15,35  L 16,35  L 16,32  L 15,32  Z  " style="fill:rgb(213, 218, 232); fill-opacity:1.000; stroke:none;" />
 <path d="  M 17,72  L 16,72  L 16,73  L 17,73  Z  " style="fill:rgb(213, 218, 232); fill-opacity:1.000; stroke:none;" />
 <path d="  M 17,71  L 17,72  L 19,72  L 19,74  L 21,74  L 21,72  L 20,72  L 20,71  Z  " style="fill:rgb(213, 218, 232); fill-opacity:1.000; stroke:none;" />
 <path d="  M 18,34  L 18,35  L 19,35  L 19,34  Z  " style="fill:rgb(213, 218, 232); fill-opacity:1.000; stroke:none;" />
 <path d="  M 19,33  L 20,33  L 20,32  L 19,32  Z  " style="fill:rgb(213, 218, 232); fill-opacity:1.000; stroke:none;" />
 <path d="  M 23,58  L 21,58  L 21,55  L 20,55  L 20,58  L 19,58  L 19,59  L 20,59  L 20,60  L 21,60  L 21,61  L 23,61  Z  " style="fill:rgb(213, 218, 232); fill-opacity:1.000; stroke:none;" />
 <path d="  M 21,67  L 22,67  L 22,64  L 21,64  L 21,65  L 20,65  L 20,68  L 21,68  Z  " style="fill:rgb(213, 218, 232); fill-opacity:1.000; stroke:none;" />
 <path d="  M 21,55  L 22,55  L 22,54  L 21,54  Z  " style="fill:rgb(213, 218, 232); fill-opacity:1.000; stroke:none;" />
 <path d="  M 23,41  L 22,41  L 22,42  L 23,42  Z  " style="fill:rgb(213, 218, 232); fill-opacity:1.000; stroke:none;" />
 <path d="  M 22,56  L 23,56  L 23,55  L 22,55  Z  " style="fill:rgb(213, 218, 232); fill-opacity:1.000; stroke:none;" />
 <path d="  M 22,70  L 24,70  L 24,69  L 25,69  L 25,66  L 26,66  L 26,64  L 25,64  L 25,65  L 24,65  L 24,62  L 23,62  L 23,67  L 22,67  Z  " style="fill:rgb(213, 218, 232); fill-opacity:1.000; stroke:none;" />
 <path d="  M 26,71  L 23,71  L 23,72  L 22,72  L 22,74  L 24,74  L 24,72  L 26,72  Z  " style="fill:rgb(213, 218, 232); fill-opacity:1.000; stroke:none;" />
 <path d="  M 24,55  L 24,54  L 23,54  L 23,55  Z  " style="fill:rgb(213, 218, 232); fill-opacity:1.000; stroke:none;" />
 <path d="  M 24,58  L 24,56  L 23,56  L 23,58  Z  " style="fill:rgb(213, 218, 232); fill-opacity:1.000; stroke:none;" />
 <path d="  M 24,35  L 25,35  L 25,34  L 24,34  Z  " style="fill:rgb(213, 218, 232); fill-opacity:1.000; stroke:none;" />
 <path d="  M 24,59  L 25,59  L 25,58  L 24,58  Z  " style="fill:rgb(213, 218, 232); fill-opacity:1.000; stroke:none;" />
 <path d="  M 25,54  L 25,55  L 26,55  L 26,54  Z  " style="fill:rgb(213, 218, 232); fill-opacity:1.000; stroke:none;" />
 <path d="  M 26,34  L 28,34  L 28,33  L 26,33  Z  " style="fill:rgb(213, 218, 232); fill-opacity:1.000; stroke:none;" />
 <path d="  M 26,62  L 27,62  L 27,61  L 26,61  Z  " style="fill:rgb(213, 218, 232); fill-opacity:1.000; stroke:none;" />
 <path d="  M 26,73  L 27,73  L 27,72  L 26,72  Z  " style="fill:rgb(213, 218, 232); fill-opacity:1.000; stroke:none;" />
 <path d="  M 27,75  L 26,75  L 26,76  L 27,76  L 27,77  L 28,77  L 28,74  L 27,74  Z  " style="fill:rgb(213, 218, 232); fill-opacity:1.000; stroke:none;" />
 <path d="  M 27,54  L 27,55  L 28,55  L 28,54  Z  " style="fill:rgb(213, 218, 232); fill-opacity:1.000; stroke:none;" />
 <path d="  M 28,73  L 28,74  L 31,74  L 31,73  Z  " style="fill:rgb(213, 218, 232); fill-opacity:1.000; stroke:none;" />
 <path d="  M 30,41  L 30,42  L 31,42  L 31,41  Z  " style="fill:rgb(213, 218, 232); fill-opacity:1.000; stroke:none;" />
 <path d="  M 31,76  L 32,76  L 32,74  L 31,74  Z  " style="fill:rgb(213, 218, 232); fill-opacity:1.000; stroke:none;" />
 <path d="  M 32,77  L 33,77  L 33,76  L 32,76  Z  " style="fill:rgb(213, 218, 232); fill-opacity:1.000; stroke:none;" />
 <path d="  M 35,79  L 34,79  L 34,80  L 35,80  Z  " style="fill:rgb(213, 218, 232); fill-opacity:1.000; stroke:none;" />
 <path d="  M 41,88  L 40,88  L 40,89  L 41,89  Z  " style="fill:rgb(213, 218, 232); fill-opacity:1.000; stroke:none;" />
 <path d="  M 42,89  L 41,89  L 41,90  L 42,90  Z  " style="fill:rgb(213, 218, 232); fill-opacity:1.000; stroke:none;" />
 <path d="  M 4,93  L 5,93  L 5,91  L 6,91  L 6,90  L 7,90  L 7,89  L 8,89  L 8,88  L 9,88  L 9,87  L 16,87  L 16,86  L 15,86  L 15,85  L 10,85  L 10,86  L 8,86  L 8,87  L 6,87  L 6,89  L 5,89  L 5,90  L 4,90  Z  " style="fill:rgb(17, 53, 119); fill-opacity:1.000; stroke:none;" />
 <path d="  M 5,30  L 6,30  L 6,28  L 5,28  Z  " style="fill:rgb(17, 53, 119); fill-opacity:1.000; stroke:none;" />
 <path d="  M 7,36  L 8,36  L 8,33  L 7,33  L 7,30  L 6,30  L 6,34  L 7,34  Z  " style="fill:rgb(17, 53, 119); fill-opacity:1.000; stroke:none;" />
 <path d="  M 7,82  L 7,83  L 6,83  L 6,85  L 7,85  L 7,84  L 8,84  L 8,83  L 13,83  L 13,84  L 14,84  L 14,82  L 13,82  L 13,81  L 8,81  L 8,82  Z  " style="fill:rgb(17, 53, 119); fill-opacity:1.000; stroke:none;" />
 <path d="  M 8,36  L 8,39  L 10,39  L 10,37  L 9,37  L 9,36  Z  " style="fill:rgb(17, 53, 119); fill-opacity:1.000; stroke:none;" />
 <path d="  M 9,64  L 8,64  L 8,66  L 9,66  Z  " style="fill:rgb(17, 53, 119); fill-opacity:1.000; stroke:none;" />
 <path d="  M 9,43  L 9,45  L 10,45  L 10,43  Z  " style="fill:rgb(17, 53, 119); fill-opacity:1.000; stroke:none;" />
 <path d="  M 9,66  L 9,67  L 13,67  L 13,66  Z  " style="fill:rgb(17, 53, 119); fill-opacity:1.000; stroke:none;" />
 <path d="  M 10,43  L 11,43  L 11,40  L 10,40  Z  " style="fill:rgb(17, 53, 119); fill-opacity:1.000; stroke:none;" />
 <path d="  M 14,70  L 14,69  L 10,69  L 10,70  Z  " style="fill:rgb(17, 53, 119); fill-opacity:1.000; stroke:none;" />
 <path d="  M 18,62  L 18,61  L 14,61  L 14,62  Z  " style="fill:rgb(17, 53, 119); fill-opacity:1.000; stroke:none;" />
 <path d="  M 18,44  L 18,45  L 21,45  L 21,44  Z  " style="fill:rgb(17, 53, 119); fill-opacity:1.000; stroke:none;" />
 <path d="  M 19,41  L 19,43  L 21,43  L 21,42  L 22,42  L 22,41  Z  " style="fill:rgb(17, 53, 119); fill-opacity:1.000; stroke:none;" />
 <path d="  M 25,23  L 24,23  L 24,22  L 20,22  L 20,24  L 25,24  Z  " style="fill:rgb(17, 53, 119); fill-opacity:1.000; stroke:none;" />
 <path d="  M 20,51  L 22,51  L 22,49  L 20,49  Z  " style="fill:rgb(17, 53, 119); fill-opacity:1.000; stroke:none;" />
 <path d="  M 28,54  L 28,53  L 26,53  L 26,54  Z  " style="fill:rgb(17, 53, 119); fill-opacity:1.000; stroke:none;" />
 <path d="  M 29,42  L 30,42  L 30,41  L 28,41  L 28,43  L 29,43  Z  " style="fill:rgb(17, 53, 119); fill-opacity:1.000; stroke:none;" />
 <path d="  M 28,45  L 29,45  L 29,44  L 28,44  Z  " style="fill:rgb(17, 53, 119); fill-opacity:1.000; stroke:none;" />
 <path d="  M 31,82  L 31,85  L 30,85  L 30,87  L 31,87  L 31,86  L 32,86  L 32,82  Z  " style="fill:rgb(17, 53, 119); fill-opacity:1.000; stroke:none;" />
 <path d="  M 31,89  L 32,89  L 32,88  L 31,88  Z  " style="fill:rgb(17, 53, 119); fill-opacity:1.000; stroke:none;" />
 <path d="  M 32,61  L 32,62  L 34,62  L 34,61  Z  " style="fill:rgb(17, 53, 119); fill-opacity:1.000; stroke:none;" />
 <path d="  M 36,82  L 36,81  L 32,81  L 32,82  Z  " style="fill:rgb(17, 53, 119); fill-opacity:1.000; stroke:none;" />
 <path d="  M 33,88  L 33,87  L 34,87  L 34,86  L 39,86  L 39,85  L 38,85  L 38,84  L 36,84  L 36,85  L 33,85  L 33,86  L 32,86  L 32,88  Z  " style="fill:rgb(17, 53, 119); fill-opacity:1.000; stroke:none;" />
 <path d="  M 37,82  L 36,82  L 36,83  L 37,83  Z  " style="fill:rgb(17, 53, 119); fill-opacity:1.000; stroke:none;" />
 <path d="  M 40,86  L 39,86  L 39,87  L 40,87  Z  " style="fill:rgb(17, 53, 119); fill-opacity:1.000; stroke:none;" />
 <path d="  M 41,87  L 40,87  L 40,88  L 41,88  Z  " style="fill:rgb(17, 53, 119); fill-opacity:1.000; stroke:none;" />
 <path d="  M 4,93  L 4,94  L 5,94  L 5,93  Z  " style="fill:rgb(254, 254, 254); fill-opacity:1.000; stroke:none;" />
 <path d="  M 5,93  L 6,93  L 6,91  L 5,91  Z  " style="fill:rgb(254, 254, 254); fill-opacity:1.000; stroke:none;" />
 <path d="  M 10,84  L 13,84  L 13,83  L 8,83  L 8,84  L 7,84  L 7,85  L 6,85  L 6,87  L 7,87  L 7,86  L 8,86  L 8,85  L 10,85  Z  " style="fill:rgb(254, 254, 254); fill-opacity:1.000; stroke:none;" />
 <path d="  M 7,90  L 6,90  L 6,91  L 7,91  Z  " style="fill:rgb(254, 254, 254); fill-opacity:1.000; stroke:none;" />
 <path d="  M 14,70  L 10,70  L 10,72  L 9,72  L 9,76  L 8,76  L 8,80  L 7,80  L 7,82  L 8,82  L 8,81  L 13,81  L 13,82  L 14,82  Z  " style="fill:rgb(254, 254, 254); fill-opacity:1.000; stroke:none;" />
 <path d="  M 8,89  L 7,89  L 7,90  L 8,90  Z  " style="fill:rgb(254, 254, 254); fill-opacity:1.000; stroke:none;" />
 <path d="  M 9,89  L 9,88  L 8,88  L 8,89  Z  " style="fill:rgb(254, 254, 254); fill-opacity:1.000; stroke:none;" />
 <path d="  M 13,64  L 13,62  L 12,62  L 12,63  L 10,63  L 10,64  L 9,64  L 9,66  L 11,66  L 11,65  L 12,65  L 12,64  Z  " style="fill:rgb(254, 254, 254); fill-opacity:1.000; stroke:none;" />
 <path d="  M 15,88  L 15,87  L 9,87  L 9,88  Z  " style="fill:rgb(254, 254, 254); fill-opacity:1.000; stroke:none;" />
 <path d="  M 12,66  L 13,66  L 13,65  L 12,65  Z  " style="fill:rgb(254, 254, 254); fill-opacity:1.000; stroke:none;" />
 <path d="  M 20,80  L 20,82  L 17,82  L 17,78  L 30,78  L 30,84  L 28,84  L 28,86  L 26,86  L 26,87  L 25,87  L 25,93  L 21,93  L 21,87  L 23,87  L 23,85  L 24,85  L 24,84  L 26,84  L 26,80  Z  M 14,96  L 14,98  L 34,98  L 34,97  L 33,97  L 33,96  L 32,96  L 32,94  L 31,94  L 31,90  L 30,90  L 30,87  L 29,87  L 29,85  L 31,85  L 31,82  L 32,82  L 32,81  L 35,81  L 35,80  L 34,80  L 34,78  L 33,78  L 33,77  L 32,77  L 32,76  L 31,76  L 31,74  L 28,74  L 28,77  L 26,77  L 26,76  L 25,76  L 25,75  L 22,75  L 22,74  L 21,74  L 21,75  L 17,75  L 17,74  L 16,74  L 16,73  L 15,73  L 15,85  L 16,85  L 16,86  L 17,86  L 17,93  L 16,93  L 16,95  L 15,95  L 15,96  Z  " style="fill:rgb(254, 254, 254); fill-opacity:1.000; stroke:none;" />
 <path d="  M 17,32  L 16,32  L 16,35  L 17,35  Z  " style="fill:rgb(254, 254, 254); fill-opacity:1.000; stroke:none;" />
 <path d="  M 16,72  L 17,72  L 17,71  L 20,71  L 20,72  L 21,72  L 21,70  L 16,70  Z  " style="fill:rgb(254, 254, 254); fill-opacity:1.000; stroke:none;" />
 <path d="  M 18,34  L 19,34  L 19,32  L 18,32  Z  " style="fill:rgb(254, 254, 254); fill-opacity:1.000; stroke:none;" />
 <path d="  M 20,32  L 20,35  L 23,35  L 23,32  Z  " style="fill:rgb(254, 254, 254); fill-opacity:1.000; stroke:none;" />
 <path d="  M 23,42  L 22,42  L 22,43  L 21,43  L 21,44  L 23,44  Z  " style="fill:rgb(254, 254, 254); fill-opacity:1.000; stroke:none;" />
 <path d="  M 22,72  L 23,72  L 23,71  L 26,71  L 26,70  L 22,70  Z  " style="fill:rgb(254, 254, 254); fill-opacity:1.000; stroke:none;" />
 <path d="  M 24,32  L 24,34  L 26,34  L 26,33  L 29,33  L 29,32  Z  " style="fill:rgb(254, 254, 254); fill-opacity:1.000; stroke:none;" />
 <path d="  M 26,64  L 26,61  L 27,61  L 27,58  L 28,58  L 28,55  L 27,55  L 27,54  L 26,54  L 26,55  L 25,55  L 25,59  L 24,59  L 24,65  L 25,65  L 25,64  Z  " style="fill:rgb(254, 254, 254); fill-opacity:1.000; stroke:none;" />
 <path d="  M 27,71  L 26,71  L 26,72  L 27,72  Z  " style="fill:rgb(254, 254, 254); fill-opacity:1.000; stroke:none;" />
 <path d="  M 30,44  L 31,44  L 31,42  L 30,42  Z  " style="fill:rgb(254, 254, 254); fill-opacity:1.000; stroke:none;" />
 <path d="  M 32,74  L 33,74  L 33,76  L 34,76  L 34,73  L 32,73  Z  " style="fill:rgb(254, 254, 254); fill-opacity:1.000; stroke:none;" />
 <path d="  M 33,84  L 37,84  L 37,83  L 36,83  L 36,82  L 32,82  L 32,85  L 33,85  Z  " style="fill:rgb(254, 254, 254); fill-opacity:1.000; stroke:none;" />
 <path d="  M 33,88  L 32,88  L 32,90  L 33,90  Z  " style="fill:rgb(254, 254, 254); fill-opacity:1.000; stroke:none;" />
 <path d="  M 33,88  L 34,88  L 34,87  L 33,87  Z  " style="fill:rgb(254, 254, 254); fill-opacity:1.000; stroke:none;" />
 <path d="  M 34,86  L 34,87  L 37,87  L 37,86  Z  " style="fill:rgb(254, 254, 254); fill-opacity:1.000; stroke:none;" />
 <path d="  M 16,88  L 9,88  L 9,89  L 8,89  L 8,90  L 7,90  L 7,91  L 6,91  L 6,93  L 5,93  L 5,94  L 4,94  L 4,98  L 5,98  L 5,99  L 12,99  L 12,98  L 13,98  L 13,96  L 14,96  L 14,95  L 15,95  L 15,93  L 16,93  Z  " style="fill:rgb(115, 124, 158); fill-opacity:1.000; stroke:none;" />
 <path d="  M 6,82  L 7,82  L 7,81  L 6,81  Z  " style="fill:rgb(115, 124, 158); fill-opacity:1.000; stroke:none;" />
 <path d="  M 7,80  L 8,80  L 8,78  L 7,78  Z  " style="fill:rgb(115, 124, 158); fill-opacity:1.000; stroke:none;" />
 <path d="  M 9,76  L 9,75  L 8,75  L 8,76  Z  " style="fill:rgb(115, 124, 158); fill-opacity:1.000; stroke:none;" />
 <path d="  M 11,62  L 9,62  L 9,63  L 11,63  Z  " style="fill:rgb(115, 124, 158); fill-opacity:1.000; stroke:none;" />
 <path d="  M 10,72  L 10,71  L 9,71  L 9,72  Z  " style="fill:rgb(115, 124, 158); fill-opacity:1.000; stroke:none;" />
 <path d="  M 11,61  L 11,62  L 13,62  L 13,61  Z  " style="fill:rgb(115, 124, 158); fill-opacity:1.000; stroke:none;" />
 <path d="  M 12,65  L 11,65  L 11,66  L 12,66  Z  " style="fill:rgb(115, 124, 158); fill-opacity:1.000; stroke:none;" />
 <path d="  M 13,65  L 13,64  L 12,64  L 12,65  Z  " style="fill:rgb(115, 124, 158); fill-opacity:1.000; stroke:none;" />
 <path d="  M 19,67  L 18,67  L 18,69  L 19,69  Z  " style="fill:rgb(115, 124, 158); fill-opacity:1.000; stroke:none;" />
 <path d="  M 41,89  L 40,89  L 40,87  L 39,87  L 39,86  L 37,86  L 37,87  L 34,87  L 34,88  L 33,88  L 33,90  L 32,90  L 32,94  L 33,94  L 33,96  L 34,96  L 34,97  L 35,97  L 35,99  L 41,99  L 41,98  L 42,98  L 42,97  L 43,97  L 43,92  L 42,92  L 42,90  L 41,90  Z  " style="fill:rgb(115, 124, 158); fill-opacity:1.000; stroke:none;" />
 <path d="  M 38,84  L 38,83  L 37,83  L 37,84  Z  " style="fill:rgb(115, 124, 158); fill-opacity:1.000; stroke:none;" />
 <path d="  M 39,85  L 39,84  L 38,84  L 38,85  Z  " style="fill:rgb(115, 124, 158); fill-opacity:1.000; stroke:none;" />
 <path d="  M 23,32  L 23,29  L 24,29  L 24,32  L 29,32  L 29,30  L 30,30  L 30,28  L 29,28  L 29,27  L 28,27  L 28,26  L 26,26  L 26,25  L 24,25  L 24,24  L 17,24  L 17,23  L 16,23  L 16,22  L 12,22  L 12,21  L 8,21  L 8,20  L 5,20  L 5,21  L 6,21  L 6,23  L 7,23  L 7,24  L 8,24  L 8,26  L 9,26  L 9,27  L 10,27  L 10,30  L 11,30  L 11,31  L 12,31  L 12,33  L 13,33  L 13,34  L 14,34  L 14,30  L 15,30  L 15,32  Z  M 29,30  L 28,30  L 28,29  L 29,29  Z  M 15,30  L 15,29  L 16,29  L 16,30  Z  " style="fill:rgb(73, 170, 234); fill-opacity:1.000; stroke:none;" />
 <path d="  M 8,38  L 7,38  L 7,43  L 6,43  L 6,49  L 7,49  L 7,45  L 8,45  Z  " style="fill:rgb(73, 170, 234); fill-opacity:1.000; stroke:none;" />
 <path d="  M 6,75  L 8,75  L 8,74  L 6,74  Z  " style="fill:rgb(73, 170, 234); fill-opacity:1.000; stroke:none;" />
 <path d="  M 24,19  L 24,16  L 23,16  L 23,14  L 18,14  L 18,15  L 16,15  L 16,14  L 15,14  L 15,15  L 14,15  L 14,16  L 13,16  L 13,18  L 16,18  L 16,19  L 17,19  L 17,20  L 18,20  L 18,21  L 19,21  L 19,22  L 23,22  L 23,19  Z  " style="fill:rgb(73, 170, 234); fill-opacity:1.000; stroke:none;" />
 <path d="  M 18,45  L 17,45  L 17,35  L 15,35  L 15,34  L 14,34  L 14,52  L 13,52  L 13,58  L 14,58  L 14,59  L 18,59  L 18,58  L 19,58  L 19,53  L 18,53  Z  " style="fill:rgb(73, 170, 234); fill-opacity:1.000; stroke:none;" />
 <path d="  M 15,68  L 17,68  L 17,67  L 18,67  L 18,64  L 14,64  L 14,67  L 15,67  Z  " style="fill:rgb(73, 170, 234); fill-opacity:1.000; stroke:none;" />
 <path d="  M 19,35  L 18,35  L 18,38  L 19,38  L 19,37  L 20,37  L 20,38  L 23,38  L 23,35  L 20,35  L 20,33  L 19,33  Z  M 20,37  L 20,36  L 22,36  L 22,37  Z  " style="fill:rgb(73, 170, 234); fill-opacity:1.000; stroke:none;" />
 <path d="  M 25,34  L 25,35  L 24,35  L 24,37  L 25,37  L 25,38  L 30,38  L 30,32  L 29,32  L 29,33  L 28,33  L 28,34  Z  " style="fill:rgb(73, 170, 234); fill-opacity:1.000; stroke:none;" />
 <path d="  M 28,24  L 30,24  L 30,25  L 31,25  L 31,26  L 32,26  L 32,27  L 34,27  L 34,28  L 35,28  L 35,29  L 36,29  L 36,27  L 37,27  L 37,24  L 38,24  L 38,21  L 39,21  L 39,20  L 40,20  L 40,19  L 39,19  L 39,18  L 37,18  L 37,19  L 35,19  L 35,20  L 32,20  L 32,21  L 30,21  L 30,22  L 28,22  Z  " style="fill:rgb(73, 170, 234); fill-opacity:1.000; stroke:none;" />
 <path d="  M 30,32  L 31,32  L 31,30  L 30,30  Z  " style="fill:rgb(73, 170, 234); fill-opacity:1.000; stroke:none;" />
 <path d="  M 32,32  L 31,32  L 31,37  L 32,37  Z  " style="fill:rgb(73, 170, 234); fill-opacity:1.000; stroke:none;" />
 <path d="  M 33,59  L 34,59  L 34,55  L 33,55  L 33,54  L 32,54  L 32,58  L 33,58  Z  " style="fill:rgb(73, 170, 234); fill-opacity:1.000; stroke:none;" />
 <path d="  M 9,32  L 8,32  L 8,29  L 7,29  L 7,27  L 5,27  L 5,28  L 6,28  L 6,30  L 7,30  L 7,33  L 8,33  L 8,36  L 9,36  L 9,37  L 10,37  L 10,35  L 9,35  Z  " style="fill:rgb(17, 53, 59); fill-opacity:1.000; stroke:none;" />
 <path d="  M 7,76  L 8,76  L 8,75  L 7,75  Z  " style="fill:rgb(17, 53, 59); fill-opacity:1.000; stroke:none;" />
 <path d="  M 7,87  L 8,87  L 8,86  L 7,86  Z  " style="fill:rgb(17, 53, 59); fill-opacity:1.000; stroke:none;" />
 <path d="  M 9,43  L 8,43  L 8,45  L 9,45  Z  " style="fill:rgb(17, 53, 59); fill-opacity:1.000; stroke:none;" />
 <path d="  M 8,64  L 9,64  L 9,61  L 8,61  Z  " style="fill:rgb(17, 53, 59); fill-opacity:1.000; stroke:none;" />
 <path d="  M 10,85  L 8,85  L 8,86  L 10,86  Z  " style="fill:rgb(17, 53, 59); fill-opacity:1.000; stroke:none;" />
 <path d="  M 9,41  L 9,43  L 10,43  L 10,41  Z  " style="fill:rgb(17, 53, 59); fill-opacity:1.000; stroke:none;" />
 <path d="  M 10,37  L 10,40  L 11,40  L 11,43  L 10,43  L 10,45  L 9,45  L 9,46  L 10,46  L 10,47  L 11,47  L 11,48  L 12,48  L 12,49  L 13,49  L 13,45  L 14,45  L 14,43  L 13,43  L 13,41  L 12,41  L 12,39  L 11,39  L 11,37  Z  " style="fill:rgb(17, 53, 59); fill-opacity:1.000; stroke:none;" />
 <path d="  M 16,73  L 16,70  L 15,70  L 15,69  L 14,69  L 14,84  L 10,84  L 10,85  L 15,85  L 15,73  Z  " style="fill:rgb(17, 53, 59); fill-opacity:1.000; stroke:none;" />
 <path d="  M 13,60  L 13,63  L 19,63  L 19,59  L 18,59  L 18,60  Z  M 18,61  L 18,62  L 14,62  L 14,61  Z  " style="fill:rgb(17, 53, 59); fill-opacity:1.000; stroke:none;" />
 <path d="  M 14,96  L 13,96  L 13,98  L 14,98  Z  " style="fill:rgb(17, 53, 59); fill-opacity:1.000; stroke:none;" />
 <path d="  M 15,96  L 15,95  L 14,95  L 14,96  Z  " style="fill:rgb(17, 53, 59); fill-opacity:1.000; stroke:none;" />
 <path d="  M 15,86  L 16,86  L 16,85  L 15,85  Z  " style="fill:rgb(17, 53, 59); fill-opacity:1.000; stroke:none;" />
 <path d="  M 16,87  L 15,87  L 15,88  L 16,88  L 16,93  L 17,93  L 17,86  L 16,86  Z  " style="fill:rgb(17, 53, 59); fill-opacity:1.000; stroke:none;" />
 <path d="  M 15,95  L 16,95  L 16,93  L 15,93  Z  " style="fill:rgb(17, 53, 59); fill-opacity:1.000; stroke:none;" />
 <path d="  M 17,73  L 16,73  L 16,74  L 17,74  Z  " style="fill:rgb(17, 53, 59); fill-opacity:1.000; stroke:none;" />
 <path d="  M 21,75  L 21,74  L 17,74  L 17,75  Z  " style="fill:rgb(17, 53, 59); fill-opacity:1.000; stroke:none;" />
 <path d="  M 22,54  L 22,53  L 21,53  L 21,52  L 22,52  L 22,51  L 20,51  L 20,52  L 19,52  L 19,53  L 20,53  L 20,54  Z  " style="fill:rgb(17, 53, 59); fill-opacity:1.000; stroke:none;" />
 <path d="  M 20,69  L 20,63  L 19,63  L 19,70  L 21,70  L 21,74  L 22,74  L 22,67  L 21,67  L 21,69  Z  " style="fill:rgb(17, 53, 59); fill-opacity:1.000; stroke:none;" />
 <path d="  M 21,56  L 21,58  L 23,58  L 23,56  Z  " style="fill:rgb(17, 53, 59); fill-opacity:1.000; stroke:none;" />
 <path d="  M 23,55  L 23,54  L 22,54  L 22,55  Z  " style="fill:rgb(17, 53, 59); fill-opacity:1.000; stroke:none;" />
 <path d="  M 23,62  L 22,62  L 22,67  L 23,67  Z  " style="fill:rgb(17, 53, 59); fill-opacity:1.000; stroke:none;" />
 <path d="  M 22,74  L 22,75  L 25,75  L 25,76  L 26,76  L 26,75  L 27,75  L 27,74  Z  " style="fill:rgb(17, 53, 59); fill-opacity:1.000; stroke:none;" />
 <path d="  M 25,54  L 26,54  L 26,53  L 25,53  L 25,50  L 24,50  L 24,53  L 23,53  L 23,54  L 24,54  L 24,58  L 25,58  Z  " style="fill:rgb(17, 53, 59); fill-opacity:1.000; stroke:none;" />
 <path d="  M 24,58  L 23,58  L 23,62  L 24,62  Z  " style="fill:rgb(17, 53, 59); fill-opacity:1.000; stroke:none;" />
 <path d="  M 24,23  L 25,23  L 25,24  L 27,24  L 27,22  L 24,22  Z  " style="fill:rgb(17, 53, 59); fill-opacity:1.000; stroke:none;" />
 <path d="  M 25,70  L 26,70  L 26,71  L 27,71  L 27,69  L 26,69  L 26,67  L 28,67  L 28,66  L 27,66  L 27,62  L 26,62  L 26,66  L 25,66  Z  " style="fill:rgb(17, 53, 59); fill-opacity:1.000; stroke:none;" />
 <path d="  M 27,76  L 26,76  L 26,77  L 27,77  Z  " style="fill:rgb(17, 53, 59); fill-opacity:1.000; stroke:none;" />
 <path d="  M 29,69  L 29,68  L 27,68  L 27,69  Z  " style="fill:rgb(17, 53, 59); fill-opacity:1.000; stroke:none;" />
 <path d="  M 28,71  L 27,71  L 27,74  L 28,74  Z  " style="fill:rgb(17, 53, 59); fill-opacity:1.000; stroke:none;" />
 <path d="  M 29,87  L 30,87  L 30,85  L 29,85  Z  " style="fill:rgb(17, 53, 59); fill-opacity:1.000; stroke:none;" />
 <path d="  M 31,89  L 31,88  L 32,88  L 32,86  L 31,86  L 31,87  L 30,87  L 30,90  L 31,90  L 31,94  L 32,94  L 32,89  Z  " style="fill:rgb(17, 53, 59); fill-opacity:1.000; stroke:none;" />
 <path d="  M 31,63  L 35,63  L 35,60  L 31,60  Z  M 32,61  L 34,61  L 34,62  L 32,62  Z  " style="fill:rgb(17, 53, 59); fill-opacity:1.000; stroke:none;" />
 <path d="  M 32,73  L 31,73  L 31,74  L 32,74  Z  " style="fill:rgb(17, 53, 59); fill-opacity:1.000; stroke:none;" />
 <path d="  M 32,74  L 32,76  L 33,76  L 33,74  Z  " style="fill:rgb(17, 53, 59); fill-opacity:1.000; stroke:none;" />
 <path d="  M 32,85  L 32,86  L 33,86  L 33,85  Z  " style="fill:rgb(17, 53, 59); fill-opacity:1.000; stroke:none;" />
 <path d="  M 33,94  L 32,94  L 32,96  L 33,96  Z  " style="fill:rgb(17, 53, 59); fill-opacity:1.000; stroke:none;" />
 <path d="  M 34,76  L 33,76  L 33,78  L 34,78  Z  " style="fill:rgb(17, 53, 59); fill-opacity:1.000; stroke:none;" />
 <path d="  M 33,84  L 33,85  L 36,85  L 36,84  Z  " style="fill:rgb(17, 53, 59); fill-opacity:1.000; stroke:none;" />
 <path d="  M 34,97  L 34,96  L 33,96  L 33,97  Z  " style="fill:rgb(17, 53, 59); fill-opacity:1.000; stroke:none;" />
 <path d="  M 35,98  L 35,97  L 34,97  L 34,98  Z  " style="fill:rgb(17, 53, 59); fill-opacity:1.000; stroke:none;" />
 <path d="  M 5,55  L 6,55  L 6,51  L 5,51  Z  " style="fill:rgb(55, 111, 195); fill-opacity:1.000; stroke:none;" />
 <path d="  M 6,72  L 5,72  L 5,75  L 6,75  Z  " style="fill:rgb(55, 111, 195); fill-opacity:1.000; stroke:none;" />
 <path d="  M 7,27  L 7,25  L 6,25  L 6,27  Z  " style="fill:rgb(55, 111, 195); fill-opacity:1.000; stroke:none;" />
 <path d="  M 7,43  L 7,42  L 6,42  L 6,43  Z  " style="fill:rgb(55, 111, 195); fill-opacity:1.000; stroke:none;" />
 <path d="  M 7,51  L 7,49  L 6,49  L 6,51  Z  " style="fill:rgb(55, 111, 195); fill-opacity:1.000; stroke:none;" />
 <path d="  M 8,27  L 7,27  L 7,29  L 8,29  Z  " style="fill:rgb(55, 111, 195); fill-opacity:1.000; stroke:none;" />
 <path d="  M 7,45  L 7,47  L 8,47  L 8,45  Z  " style="fill:rgb(55, 111, 195); fill-opacity:1.000; stroke:none;" />
 <path d="  M 9,20  L 8,20  L 8,21  L 9,21  Z  " style="fill:rgb(55, 111, 195); fill-opacity:1.000; stroke:none;" />
 <path d="  M 8,32  L 9,32  L 9,30  L 8,30  Z  " style="fill:rgb(55, 111, 195); fill-opacity:1.000; stroke:none;" />
 <path d="  M 10,27  L 9,27  L 9,28  L 10,28  Z  " style="fill:rgb(55, 111, 195); fill-opacity:1.000; stroke:none;" />
 <path d="  M 9,32  L 9,35  L 10,35  L 10,32  Z  " style="fill:rgb(55, 111, 195); fill-opacity:1.000; stroke:none;" />
 <path d="  M 10,37  L 11,37  L 11,35  L 10,35  Z  " style="fill:rgb(55, 111, 195); fill-opacity:1.000; stroke:none;" />
 <path d="  M 12,39  L 12,37  L 11,37  L 11,39  Z  " style="fill:rgb(55, 111, 195); fill-opacity:1.000; stroke:none;" />
 <path d="  M 14,18  L 12,18  L 12,20  L 14,20  Z  " style="fill:rgb(55, 111, 195); fill-opacity:1.000; stroke:none;" />
 <path d="  M 13,21  L 12,21  L 12,22  L 13,22  Z  " style="fill:rgb(55, 111, 195); fill-opacity:1.000; stroke:none;" />
 <path d="  M 12,33  L 12,34  L 13,34  L 13,33  Z  " style="fill:rgb(55, 111, 195); fill-opacity:1.000; stroke:none;" />
 <path d="  M 13,39  L 12,39  L 12,41  L 13,41  Z  " style="fill:rgb(55, 111, 195); fill-opacity:1.000; stroke:none;" />
 <path d="  M 12,58  L 13,58  L 13,52  L 12,52  Z  " style="fill:rgb(55, 111, 195); fill-opacity:1.000; stroke:none;" />
 <path d="  M 13,15  L 13,16  L 14,16  L 14,15  Z  " style="fill:rgb(55, 111, 195); fill-opacity:1.000; stroke:none;" />
 <path d="  M 13,34  L 13,35  L 14,35  L 14,34  Z  " style="fill:rgb(55, 111, 195); fill-opacity:1.000; stroke:none;" />
 <path d="  M 14,41  L 13,41  L 13,43  L 14,43  Z  " style="fill:rgb(55, 111, 195); fill-opacity:1.000; stroke:none;" />
 <path d="  M 14,52  L 14,45  L 13,45  L 13,52  Z  " style="fill:rgb(55, 111, 195); fill-opacity:1.000; stroke:none;" />
 <path d="  M 15,30  L 14,30  L 14,34  L 15,34  Z  " style="fill:rgb(55, 111, 195); fill-opacity:1.000; stroke:none;" />
 <path d="  M 16,30  L 16,29  L 15,29  L 15,30  Z  " style="fill:rgb(55, 111, 195); fill-opacity:1.000; stroke:none;" />
 <path d="  M 16,15  L 17,15  L 17,14  L 16,14  Z  " style="fill:rgb(55, 111, 195); fill-opacity:1.000; stroke:none;" />
 <path d="  M 17,22  L 16,22  L 16,23  L 17,23  Z  " style="fill:rgb(55, 111, 195); fill-opacity:1.000; stroke:none;" />
 <path d="  M 19,23  L 17,23  L 17,24  L 19,24  Z  " style="fill:rgb(55, 111, 195); fill-opacity:1.000; stroke:none;" />
 <path d="  M 18,32  L 17,32  L 17,45  L 18,45  L 18,40  L 19,40  L 19,39  L 18,39  Z  " style="fill:rgb(55, 111, 195); fill-opacity:1.000; stroke:none;" />
 <path d="  M 17,67  L 17,68  L 18,68  L 18,67  Z  " style="fill:rgb(55, 111, 195); fill-opacity:1.000; stroke:none;" />
 <path d="  M 19,45  L 18,45  L 18,53  L 19,53  Z  " style="fill:rgb(55, 111, 195); fill-opacity:1.000; stroke:none;" />
 <path d="  M 19,39  L 22,39  L 22,38  L 19,38  Z  " style="fill:rgb(55, 111, 195); fill-opacity:1.000; stroke:none;" />
 <path d="  M 21,43  L 19,43  L 19,44  L 21,44  Z  " style="fill:rgb(55, 111, 195); fill-opacity:1.000; stroke:none;" />
 <path d="  M 21,43  L 22,43  L 22,42  L 21,42  Z  " style="fill:rgb(55, 111, 195); fill-opacity:1.000; stroke:none;" />
 <path d="  M 24,16  L 24,15  L 23,15  L 23,16  Z  " style="fill:rgb(55, 111, 195); fill-opacity:1.000; stroke:none;" />
 <path d="  M 23,22  L 24,22  L 24,19  L 23,19  Z  " style="fill:rgb(55, 111, 195); fill-opacity:1.000; stroke:none;" />
 <path d="  M 23,29  L 23,35  L 24,35  L 24,29  Z  " style="fill:rgb(55, 111, 195); fill-opacity:1.000; stroke:none;" />
 <path d="  M 25,38  L 25,37  L 24,37  L 24,39  L 31,39  L 31,38  Z  " style="fill:rgb(55, 111, 195); fill-opacity:1.000; stroke:none;" />
 <path d="  M 27,19  L 26,19  L 26,22  L 27,22  Z  " style="fill:rgb(55, 111, 195); fill-opacity:1.000; stroke:none;" />
 <path d="  M 28,29  L 28,30  L 29,30  L 29,29  Z  " style="fill:rgb(55, 111, 195); fill-opacity:1.000; stroke:none;" />
 <path d="  M 29,42  L 29,43  L 28,43  L 28,44  L 30,44  L 30,42  Z  " style="fill:rgb(55, 111, 195); fill-opacity:1.000; stroke:none;" />
 <path d="  M 29,32  L 30,32  L 30,30  L 29,30  Z  " style="fill:rgb(55, 111, 195); fill-opacity:1.000; stroke:none;" />
 <path d="  M 31,38  L 32,38  L 32,37  L 31,37  Z  " style="fill:rgb(55, 111, 195); fill-opacity:1.000; stroke:none;" />
 <path d="  M 33,59  L 33,58  L 32,58  L 32,59  Z  " style="fill:rgb(55, 111, 195); fill-opacity:1.000; stroke:none;" />
 <path d="  M 34,27  L 33,27  L 33,28  L 34,28  Z  " style="fill:rgb(55, 111, 195); fill-opacity:1.000; stroke:none;" />
 <path d="  M 34,28  L 34,29  L 35,29  L 35,28  Z  " style="fill:rgb(55, 111, 195); fill-opacity:1.000; stroke:none;" />
 <path d="  M 38,25  L 38,24  L 37,24  L 37,25  Z  " style="fill:rgb(55, 111, 195); fill-opacity:1.000; stroke:none;" />
 <path d="  M 38,21  L 38,22  L 39,22  L 39,21  Z  " style="fill:rgb(55, 111, 195); fill-opacity:1.000; stroke:none;" />
 <path d="  M 39,19  L 40,19  L 40,18  L 39,18  Z  " style="fill:rgb(55, 111, 195); fill-opacity:1.000; stroke:none;" />
 <path d="  M 9,73  L 8,73  L 8,75  L 9,75  Z  " style="fill:rgb(161, 164, 186); fill-opacity:1.000; stroke:none;" />
 <path d="  M 10,64  L 10,63  L 9,63  L 9,64  Z  " style="fill:rgb(161, 164, 186); fill-opacity:1.000; stroke:none;" />
 <path d="  M 9,71  L 10,71  L 10,70  L 9,70  Z  " style="fill:rgb(161, 164, 186); fill-opacity:1.000; stroke:none;" />
 <path d="  M 12,63  L 12,62  L 11,62  L 11,63  Z  " style="fill:rgb(161, 164, 186); fill-opacity:1.000; stroke:none;" />
 <path d="  M 13,59  L 13,60  L 14,60  L 14,59  Z  " style="fill:rgb(161, 164, 186); fill-opacity:1.000; stroke:none;" />
 <path d="  M 19,69  L 18,69  L 18,68  L 17,68  L 17,69  L 16,69  L 16,70  L 19,70  Z  " style="fill:rgb(161, 164, 186); fill-opacity:1.000; stroke:none;" />
 <path d="  M 19,74  L 19,72  L 17,72  L 17,74  Z  " style="fill:rgb(161, 164, 186); fill-opacity:1.000; stroke:none;" />
 <path d="  M 18,64  L 19,64  L 19,63  L 18,63  Z  " style="fill:rgb(161, 164, 186); fill-opacity:1.000; stroke:none;" />
 <path d="  M 21,61  L 21,60  L 20,60  L 20,59  L 19,59  L 19,63  L 20,63  L 20,65  L 21,65  L 21,64  L 22,64  L 22,62  L 23,62  L 23,61  Z  " style="fill:rgb(161, 164, 186); fill-opacity:1.000; stroke:none;" />
 <path d="  M 21,54  L 20,54  L 20,55  L 21,55  Z  " style="fill:rgb(161, 164, 186); fill-opacity:1.000; stroke:none;" />
 <path d="  M 20,68  L 20,69  L 21,69  L 21,68  Z  " style="fill:rgb(161, 164, 186); fill-opacity:1.000; stroke:none;" />
 <path d="  M 22,55  L 21,55  L 21,56  L 22,56  Z  " style="fill:rgb(161, 164, 186); fill-opacity:1.000; stroke:none;" />
 <path d="  M 24,55  L 23,55  L 23,56  L 24,56  Z  " style="fill:rgb(161, 164, 186); fill-opacity:1.000; stroke:none;" />
 <path d="  M 24,69  L 24,70  L 25,70  L 25,69  Z  " style="fill:rgb(161, 164, 186); fill-opacity:1.000; stroke:none;" />
 <path d="  M 27,74  L 27,73  L 26,73  L 26,72  L 24,72  L 24,74  Z  " style="fill:rgb(161, 164, 186); fill-opacity:1.000; stroke:none;" />
 <path d="  M 28,66  L 28,62  L 27,62  L 27,66  Z  " style="fill:rgb(161, 164, 186); fill-opacity:1.000; stroke:none;" />
 <path d="  M 28,73  L 31,73  L 31,72  L 30,72  L 30,69  L 27,69  L 27,71  L 28,71  Z  " style="fill:rgb(161, 164, 186); fill-opacity:1.000; stroke:none;" />
 <path d="  M 10,68  L 11,68  L 11,67  L 10,67  Z  " style="fill:rgb(210, 105, 133); fill-opacity:1.000; stroke:none;" />
 <path d="  M 13,69  L 14,69  L 14,67  L 13,67  Z  " style="fill:rgb(210, 105, 133); fill-opacity:1.000; stroke:none;" />
 <path d="  M 19,50  L 19,52  L 20,52  L 20,50  Z  " style="fill:rgb(210, 105, 133); fill-opacity:1.000; stroke:none;" />
 <path d="  M 22,49  L 22,48  L 20,48  L 20,49  Z  " style="fill:rgb(210, 105, 133); fill-opacity:1.000; stroke:none;" />
 <path d="  M 22,54  L 23,54  L 23,53  L 24,53  L 24,52  L 21,52  L 21,53  L 22,53  Z  " style="fill:rgb(210, 105, 133); fill-opacity:1.000; stroke:none;" />
 <path d="  M 23,41  L 24,41  L 24,38  L 22,38  L 22,39  L 23,39  Z  " style="fill:rgb(210, 105, 133); fill-opacity:1.000; stroke:none;" />
 <path d="  M 26,49  L 22,49  L 22,50  L 26,50  Z  " style="fill:rgb(210, 105, 133); fill-opacity:1.000; stroke:none;" />
 <path d="  M 28,68  L 28,67  L 26,67  L 26,68  Z  " style="fill:rgb(210, 105, 133); fill-opacity:1.000; stroke:none;" />
 <path d="  M 30,47  L 29,47  L 29,48  L 30,48  Z  " style="fill:rgb(210, 105, 133); fill-opacity:1.000; stroke:none;" />
 <path d="  M 32,40  L 32,39  L 31,39  L 31,40  Z  " style="fill:rgb(210, 105, 133); fill-opacity:1.000; stroke:none;" />
 <path d="  M 11,67  L 11,68  L 10,68  L 10,69  L 13,69  L 13,67  Z  " style="fill:rgb(243, 161, 155); fill-opacity:1.000; stroke:none;" />
 <path d="  M 23,40  L 23,39  L 19,39  L 19,40  Z  " style="fill:rgb(243, 161, 155); fill-opacity:1.000; stroke:none;" />
 <path d="  M 19,46  L 21,46  L 21,45  L 19,45  Z  " style="fill:rgb(243, 161, 155); fill-opacity:1.000; stroke:none;" />
 <path d="  M 20,50  L 20,49  L 19,49  L 19,50  Z  " style="fill:rgb(243, 161, 155); fill-opacity:1.000; stroke:none;" />
 <path d="  M 22,50  L 22,52  L 24,52  L 24,50  Z  " style="fill:rgb(243, 161, 155); fill-opacity:1.000; stroke:none;" />
 <path d="  M 23,41  L 23,42  L 24,42  L 24,41  Z  " style="fill:rgb(243, 161, 155); fill-opacity:1.000; stroke:none;" />
 <path d="  M 24,39  L 24,40  L 28,40  L 28,41  L 29,41  L 29,40  L 31,40  L 31,39  Z  " style="fill:rgb(243, 161, 155); fill-opacity:1.000; stroke:none;" />
 <path d="  M 26,49  L 26,50  L 27,50  L 27,49  Z  " style="fill:rgb(243, 161, 155); fill-opacity:1.000; stroke:none;" />
 <path d="  M 27,49  L 29,49  L 29,48  L 27,48  Z  " style="fill:rgb(243, 161, 155); fill-opacity:1.000; stroke:none;" />
 <path d="  M 29,52  L 28,52  L 28,53  L 29,53  Z  " style="fill:rgb(243, 161, 155); fill-opacity:1.000; stroke:none;" />
 <path d="  M 32,46  L 32,45  L 30,45  L 30,46  Z  " style="fill:rgb(243, 161, 155); fill-opacity:1.000; stroke:none;" />
 <path d="  M 20,47  L 21,47  L 21,46  L 19,46  L 19,48  L 20,48  Z  " style="fill:rgb(233, 194, 198); fill-opacity:1.000; stroke:none;" />
 <path d="  M 22,44  L 21,44  L 21,45  L 22,45  Z  " style="fill:rgb(233, 194, 198); fill-opacity:1.000; stroke:none;" />
 <path d="  M 23,49  L 23,48  L 22,48  L 22,49  Z  " style="fill:rgb(233, 194, 198); fill-opacity:1.000; stroke:none;" />
 <path d="  M 26,48  L 26,47  L 23,47  L 23,48  Z  " style="fill:rgb(233, 194, 198); fill-opacity:1.000; stroke:none;" />
 <path d="  M 32,45  L 32,44  L 29,44  L 29,45  Z  " style="fill:rgb(233, 194, 198); fill-opacity:1.000; stroke:none;" />
 <path d="  M 31,46  L 30,46  L 30,47  L 31,47  Z  " style="fill:rgb(233, 194, 198); fill-opacity:1.000; stroke:none;" />
 <path d="  M 23,48  L 23,47  L 26,47  L 26,48  Z  M 20,47  L 20,48  L 23,48  L 23,49  L 27,49  L 27,48  L 29,48  L 29,47  L 30,47  L 30,45  L 28,45  L 28,40  L 24,40  L 24,42  L 23,42  L 23,44  L 22,44  L 22,45  L 21,45  L 21,47  Z  " style="fill:rgb(241, 227, 232); fill-opacity:1.000; stroke:none;" />
 <path d="  M 26,53  L 28,53  L 28,52  L 29,52  L 29,49  L 27,49  L 27,50  L 26,50  Z  " style="fill:rgb(241, 227, 232); fill-opacity:1.000; stroke:none;" />
</svg>
