<?xml version="1.0" encoding="UTF-8" standalone="no"?>
<!DOCTYPE svg PUBLIC "-//W3C//DTD SVG 1.1//EN" 
  "http://www.w3.org/Graphics/SVG/1.1/DTD/svg11.dtd">
<svg width="45" height="100"
     xmlns="http://www.w3.org/2000/svg" version="1.1">
 <path d="  M 0,0  L 0,100  L 5,100  L 5,73  L 8,73  L 8,72  L 7,72  L 7,70  L 6,70  L 6,71  L 5,71  L 5,70  L 4,70  L 4,68  L 3,68  L 3,66  L 2,66  L 2,56  L 3,56  L 3,51  L 4,51  L 4,47  L 5,47  L 5,42  L 6,42  L 6,38  L 7,38  L 7,34  L 8,34  L 8,32  L 7,32  L 7,31  L 6,31  L 6,30  L 5,30  L 5,29  L 3,29  L 3,28  L 2,28  L 2,27  L 3,27  L 3,26  L 4,26  L 4,25  L 6,25  L 6,24  L 7,24  L 7,23  L 9,23  L 9,22  L 10,22  L 10,21  L 12,21  L 12,20  L 13,20  L 13,19  L 15,19  L 15,17  L 14,17  L 14,16  L 13,16  L 13,15  L 12,15  L 12,14  L 11,14  L 11,13  L 12,13  L 12,12  L 14,12  L 14,13  L 18,13  L 18,14  L 21,14  L 21,15  L 23,15  L 23,16  L 25,16  L 25,17  L 29,17  L 29,16  L 30,16  L 30,14  L 31,14  L 31,13  L 32,13  L 32,12  L 33,12  L 33,13  L 34,13  L 34,16  L 35,16  L 35,19  L 36,19  L 36,22  L 35,22  L 35,23  L 36,23  L 36,24  L 37,24  L 37,25  L 38,25  L 38,26  L 37,26  L 37,28  L 38,28  L 38,30  L 39,30  L 39,32  L 40,32  L 40,34  L 41,34  L 41,36  L 39,36  L 39,37  L 36,37  L 36,38  L 33,38  L 33,51  L 32,51  L 32,54  L 31,54  L 31,56  L 30,56  L 30,57  L 29,57  L 29,45  L 26,45  L 26,46  L 27,46  L 27,58  L 26,58  L 26,63  L 27,63  L 27,64  L 28,64  L 28,67  L 29,67  L 29,68  L 30,68  L 30,70  L 31,70  L 31,73  L 33,73  L 33,79  L 34,79  L 34,80  L 35,80  L 35,82  L 36,82  L 36,83  L 37,83  L 37,84  L 38,84  L 38,85  L 39,85  L 39,86  L 40,86  L 40,87  L 41,87  L 41,88  L 42,88  L 42,89  L 43,89  L 43,91  L 44,91  L 44,95  L 43,95  L 43,96  L 42,96  L 42,97  L 35,97  L 35,96  L 34,96  L 34,97  L 33,97  L 33,100  L 45,100  L 45,0  Z  " style="fill:rgb(255, 255, 255); fill-opacity:0.000; stroke:none;" />
 <path d="  M 3,28  L 3,27  L 2,27  L 2,28  Z  " style="fill:rgb(0, 0, 0); fill-opacity:1.000; stroke:none;" />
 <path d="  M 2,66  L 3,66  L 3,56  L 2,56  Z  " style="fill:rgb(0, 0, 0); fill-opacity:1.000; stroke:none;" />
 <path d="  M 3,27  L 4,27  L 4,26  L 3,26  Z  " style="fill:rgb(0, 0, 0); fill-opacity:1.000; stroke:none;" />
 <path d="  M 5,29  L 5,28  L 3,28  L 3,29  Z  " style="fill:rgb(0, 0, 0); fill-opacity:1.000; stroke:none;" />
 <path d="  M 3,51  L 3,56  L 4,56  L 4,51  Z  " style="fill:rgb(0, 0, 0); fill-opacity:1.000; stroke:none;" />
 <path d="  M 4,66  L 3,66  L 3,68  L 4,68  Z  " style="fill:rgb(0, 0, 0); fill-opacity:1.000; stroke:none;" />
 <path d="  M 6,26  L 6,25  L 4,25  L 4,26  Z  " style="fill:rgb(0, 0, 0); fill-opacity:1.000; stroke:none;" />
 <path d="  M 4,51  L 5,51  L 5,47  L 4,47  Z  " style="fill:rgb(0, 0, 0); fill-opacity:1.000; stroke:none;" />
 <path d="  M 5,68  L 4,68  L 4,70  L 5,70  Z  " style="fill:rgb(0, 0, 0); fill-opacity:1.000; stroke:none;" />
 <path d="  M 5,29  L 5,30  L 6,30  L 6,29  Z  " style="fill:rgb(0, 0, 0); fill-opacity:1.000; stroke:none;" />
 <path d="  M 5,47  L 6,47  L 6,42  L 5,42  Z  " style="fill:rgb(0, 0, 0); fill-opacity:1.000; stroke:none;" />
 <path d="  M 6,71  L 6,70  L 5,70  L 5,71  Z  " style="fill:rgb(0, 0, 0); fill-opacity:1.000; stroke:none;" />
 <path d="  M 33,80  L 34,80  L 34,79  L 33,79  L 33,73  L 31,73  L 31,70  L 30,70  L 30,73  L 28,73  L 28,74  L 32,74  L 32,99  L 6,99  L 6,74  L 9,74  L 9,72  L 8,72  L 8,73  L 5,73  L 5,100  L 33,100  L 33,97  L 34,97  L 34,96  L 33,96  L 33,94  L 34,94  L 34,93  L 33,93  Z  " style="fill:rgb(0, 0, 0); fill-opacity:1.000; stroke:none;" />
 <path d="  M 7,24  L 6,24  L 6,25  L 7,25  Z  " style="fill:rgb(0, 0, 0); fill-opacity:1.000; stroke:none;" />
 <path d="  M 7,31  L 7,30  L 6,30  L 6,31  Z  " style="fill:rgb(0, 0, 0); fill-opacity:1.000; stroke:none;" />
 <path d="  M 7,38  L 6,38  L 6,42  L 7,42  Z  " style="fill:rgb(0, 0, 0); fill-opacity:1.000; stroke:none;" />
 <path d="  M 6,70  L 7,70  L 7,69  L 6,69  Z  " style="fill:rgb(0, 0, 0); fill-opacity:1.000; stroke:none;" />
 <path d="  M 9,24  L 9,23  L 7,23  L 7,24  Z  " style="fill:rgb(0, 0, 0); fill-opacity:1.000; stroke:none;" />
 <path d="  M 8,32  L 8,31  L 7,31  L 7,32  Z  " style="fill:rgb(0, 0, 0); fill-opacity:1.000; stroke:none;" />
 <path d="  M 7,38  L 8,38  L 8,34  L 7,34  Z  " style="fill:rgb(0, 0, 0); fill-opacity:1.000; stroke:none;" />
 <path d="  M 7,72  L 8,72  L 8,70  L 7,70  Z  " style="fill:rgb(0, 0, 0); fill-opacity:1.000; stroke:none;" />
 <path d="  M 9,32  L 8,32  L 8,34  L 9,34  Z  " style="fill:rgb(0, 0, 0); fill-opacity:1.000; stroke:none;" />
 <path d="  M 9,23  L 10,23  L 10,22  L 9,22  Z  " style="fill:rgb(0, 0, 0); fill-opacity:1.000; stroke:none;" />
 <path d="  M 10,21  L 10,22  L 12,22  L 12,21  Z  " style="fill:rgb(0, 0, 0); fill-opacity:1.000; stroke:none;" />
 <path d="  M 12,13  L 11,13  L 11,14  L 12,14  Z  " style="fill:rgb(0, 0, 0); fill-opacity:1.000; stroke:none;" />
 <path d="  M 12,12  L 12,13  L 14,13  L 14,12  Z  " style="fill:rgb(0, 0, 0); fill-opacity:1.000; stroke:none;" />
 <path d="  M 13,15  L 13,14  L 12,14  L 12,15  Z  " style="fill:rgb(0, 0, 0); fill-opacity:1.000; stroke:none;" />
 <path d="  M 12,21  L 13,21  L 13,20  L 12,20  Z  " style="fill:rgb(0, 0, 0); fill-opacity:1.000; stroke:none;" />
 <path d="  M 14,79  L 14,81  L 12,81  L 12,84  L 14,84  L 14,86  L 12,86  L 12,92  L 14,92  L 14,94  L 23,94  L 23,92  L 25,92  L 25,86  L 21,86  L 21,84  L 20,84  L 20,85  L 18,85  L 18,83  L 16,83  L 16,81  L 21,81  L 21,79  Z  M 14,87  L 17,87  L 17,88  L 21,88  L 21,92  L 14,92  Z  " style="fill:rgb(0, 0, 0); fill-opacity:1.000; stroke:none;" />
 <path d="  M 13,15  L 13,16  L 14,16  L 14,15  Z  " style="fill:rgb(0, 0, 0); fill-opacity:1.000; stroke:none;" />
 <path d="  M 15,19  L 13,19  L 13,20  L 15,20  Z  " style="fill:rgb(0, 0, 0); fill-opacity:1.000; stroke:none;" />
 <path d="  M 18,14  L 18,13  L 14,13  L 14,14  Z  " style="fill:rgb(0, 0, 0); fill-opacity:1.000; stroke:none;" />
 <path d="  M 14,16  L 14,17  L 15,17  L 15,16  Z  " style="fill:rgb(0, 0, 0); fill-opacity:1.000; stroke:none;" />
 <path d="  M 16,17  L 15,17  L 15,19  L 16,19  Z  " style="fill:rgb(0, 0, 0); fill-opacity:1.000; stroke:none;" />
 <path d="  M 17,73  L 17,74  L 23,74  L 23,73  Z  " style="fill:rgb(0, 0, 0); fill-opacity:1.000; stroke:none;" />
 <path d="  M 18,14  L 18,15  L 21,15  L 21,14  Z  " style="fill:rgb(0, 0, 0); fill-opacity:1.000; stroke:none;" />
 <path d="  M 23,16  L 23,15  L 21,15  L 21,16  Z  " style="fill:rgb(0, 0, 0); fill-opacity:1.000; stroke:none;" />
 <path d="  M 23,81  L 21,81  L 21,84  L 23,84  Z  " style="fill:rgb(0, 0, 0); fill-opacity:1.000; stroke:none;" />
 <path d="  M 25,17  L 25,16  L 23,16  L 23,17  Z  " style="fill:rgb(0, 0, 0); fill-opacity:1.000; stroke:none;" />
 <path d="  M 29,18  L 29,17  L 25,17  L 25,18  Z  " style="fill:rgb(0, 0, 0); fill-opacity:1.000; stroke:none;" />
 <path d="  M 26,45  L 25,45  L 25,46  L 26,46  Z  " style="fill:rgb(0, 0, 0); fill-opacity:1.000; stroke:none;" />
 <path d="  M 26,58  L 25,58  L 25,63  L 26,63  Z  " style="fill:rgb(0, 0, 0); fill-opacity:1.000; stroke:none;" />
 <path d="  M 30,44  L 26,44  L 26,45  L 29,45  L 29,57  L 30,57  L 30,56  L 31,56  L 31,54  L 30,54  Z  " style="fill:rgb(0, 0, 0); fill-opacity:1.000; stroke:none;" />
 <path d="  M 26,58  L 27,58  L 27,46  L 26,46  Z  " style="fill:rgb(0, 0, 0); fill-opacity:1.000; stroke:none;" />
 <path d="  M 26,63  L 26,64  L 27,64  L 27,63  Z  " style="fill:rgb(0, 0, 0); fill-opacity:1.000; stroke:none;" />
 <path d="  M 28,64  L 27,64  L 27,67  L 28,67  Z  " style="fill:rgb(0, 0, 0); fill-opacity:1.000; stroke:none;" />
 <path d="  M 29,67  L 28,67  L 28,68  L 29,68  Z  " style="fill:rgb(0, 0, 0); fill-opacity:1.000; stroke:none;" />
 <path d="  M 30,16  L 29,16  L 29,17  L 30,17  Z  " style="fill:rgb(0, 0, 0); fill-opacity:1.000; stroke:none;" />
 <path d="  M 30,68  L 29,68  L 29,70  L 30,70  Z  " style="fill:rgb(0, 0, 0); fill-opacity:1.000; stroke:none;" />
 <path d="  M 31,14  L 30,14  L 30,16  L 31,16  Z  " style="fill:rgb(0, 0, 0); fill-opacity:1.000; stroke:none;" />
 <path d="  M 31,14  L 32,14  L 32,13  L 31,13  Z  " style="fill:rgb(0, 0, 0); fill-opacity:1.000; stroke:none;" />
 <path d="  M 31,54  L 32,54  L 32,51  L 31,51  Z  " style="fill:rgb(0, 0, 0); fill-opacity:1.000; stroke:none;" />
 <path d="  M 32,12  L 32,13  L 33,13  L 33,12  Z  " style="fill:rgb(0, 0, 0); fill-opacity:1.000; stroke:none;" />
 <path d="  M 32,51  L 33,51  L 33,38  L 32,38  Z  " style="fill:rgb(0, 0, 0); fill-opacity:1.000; stroke:none;" />
 <path d="  M 33,16  L 34,16  L 34,13  L 33,13  Z  " style="fill:rgb(0, 0, 0); fill-opacity:1.000; stroke:none;" />
 <path d="  M 33,37  L 33,38  L 36,38  L 36,37  Z  " style="fill:rgb(0, 0, 0); fill-opacity:1.000; stroke:none;" />
 <path d="  M 35,16  L 34,16  L 34,19  L 35,19  Z  " style="fill:rgb(0, 0, 0); fill-opacity:1.000; stroke:none;" />
 <path d="  M 34,23  L 35,23  L 35,22  L 34,22  Z  " style="fill:rgb(0, 0, 0); fill-opacity:1.000; stroke:none;" />
 <path d="  M 34,82  L 35,82  L 35,80  L 34,80  Z  " style="fill:rgb(0, 0, 0); fill-opacity:1.000; stroke:none;" />
 <path d="  M 35,95  L 34,95  L 34,96  L 35,96  Z  " style="fill:rgb(0, 0, 0); fill-opacity:1.000; stroke:none;" />
 <path d="  M 36,19  L 35,19  L 35,22  L 36,22  Z  " style="fill:rgb(0, 0, 0); fill-opacity:1.000; stroke:none;" />
 <path d="  M 36,24  L 36,23  L 35,23  L 35,24  Z  " style="fill:rgb(0, 0, 0); fill-opacity:1.000; stroke:none;" />
 <path d="  M 35,25  L 35,26  L 36,26  L 36,25  Z  " style="fill:rgb(0, 0, 0); fill-opacity:1.000; stroke:none;" />
 <path d="  M 36,82  L 35,82  L 35,83  L 36,83  Z  " style="fill:rgb(0, 0, 0); fill-opacity:1.000; stroke:none;" />
 <path d="  M 42,97  L 42,96  L 35,96  L 35,97  Z  " style="fill:rgb(0, 0, 0); fill-opacity:1.000; stroke:none;" />
 <path d="  M 36,25  L 37,25  L 37,24  L 36,24  Z  " style="fill:rgb(0, 0, 0); fill-opacity:1.000; stroke:none;" />
 <path d="  M 37,26  L 36,26  L 36,28  L 37,28  Z  " style="fill:rgb(0, 0, 0); fill-opacity:1.000; stroke:none;" />
 <path d="  M 39,37  L 39,36  L 36,36  L 36,37  Z  " style="fill:rgb(0, 0, 0); fill-opacity:1.000; stroke:none;" />
 <path d="  M 37,84  L 37,83  L 36,83  L 36,84  Z  " style="fill:rgb(0, 0, 0); fill-opacity:1.000; stroke:none;" />
 <path d="  M 37,25  L 37,26  L 38,26  L 38,25  Z  " style="fill:rgb(0, 0, 0); fill-opacity:1.000; stroke:none;" />
 <path d="  M 38,30  L 38,28  L 37,28  L 37,30  Z  " style="fill:rgb(0, 0, 0); fill-opacity:1.000; stroke:none;" />
 <path d="  M 37,84  L 37,85  L 38,85  L 38,84  Z  " style="fill:rgb(0, 0, 0); fill-opacity:1.000; stroke:none;" />
 <path d="  M 38,30  L 38,32  L 39,32  L 39,30  Z  " style="fill:rgb(0, 0, 0); fill-opacity:1.000; stroke:none;" />
 <path d="  M 39,86  L 39,85  L 38,85  L 38,86  Z  " style="fill:rgb(0, 0, 0); fill-opacity:1.000; stroke:none;" />
 <path d="  M 39,34  L 40,34  L 40,32  L 39,32  Z  " style="fill:rgb(0, 0, 0); fill-opacity:1.000; stroke:none;" />
 <path d="  M 41,36  L 41,34  L 40,34  L 40,35  L 39,35  L 39,36  Z  " style="fill:rgb(0, 0, 0); fill-opacity:1.000; stroke:none;" />
 <path d="  M 40,86  L 39,86  L 39,87  L 40,87  Z  " style="fill:rgb(0, 0, 0); fill-opacity:1.000; stroke:none;" />
 <path d="  M 41,87  L 40,87  L 40,88  L 41,88  Z  " style="fill:rgb(0, 0, 0); fill-opacity:1.000; stroke:none;" />
 <path d="  M 42,89  L 42,88  L 41,88  L 41,89  Z  " style="fill:rgb(0, 0, 0); fill-opacity:1.000; stroke:none;" />
 <path d="  M 42,91  L 43,91  L 43,89  L 42,89  Z  " style="fill:rgb(0, 0, 0); fill-opacity:1.000; stroke:none;" />
 <path d="  M 42,96  L 43,96  L 43,95  L 42,95  Z  " style="fill:rgb(0, 0, 0); fill-opacity:1.000; stroke:none;" />
 <path d="  M 44,91  L 43,91  L 43,95  L 44,95  Z  " style="fill:rgb(0, 0, 0); fill-opacity:1.000; stroke:none;" />
 <path d="  M 4,27  L 3,27  L 3,28  L 4,28  Z  " style="fill:rgb(255, 255, 255); fill-opacity:1.000; stroke:none;" />
 <path d="  M 18,21  L 18,20  L 15,20  L 15,21  L 13,21  L 13,22  L 10,22  L 10,23  L 9,23  L 9,24  L 7,24  L 7,25  L 6,25  L 6,26  L 4,26  L 4,27  L 7,27  L 7,26  L 11,26  L 11,25  L 15,25  L 15,24  L 19,24  L 19,23  L 20,23  L 20,22  L 19,22  L 19,21  Z  " style="fill:rgb(255, 255, 255); fill-opacity:1.000; stroke:none;" />
 <path d="  M 12,68  L 13,68  L 13,70  L 14,70  L 14,72  L 15,72  L 15,57  L 16,57  L 16,48  L 17,48  L 17,43  L 16,43  L 16,41  L 15,41  L 15,46  L 14,46  L 14,51  L 13,51  L 13,55  L 12,55  L 12,36  L 11,36  L 11,40  L 10,40  L 10,37  L 9,37  L 9,39  L 8,39  L 8,42  L 7,42  L 7,47  L 6,47  L 6,59  L 7,59  L 7,63  L 8,63  L 8,65  L 9,65  L 9,58  L 10,58  L 10,62  L 11,62  L 11,65  L 12,65  Z  M 9,43  L 9,40  L 10,40  L 10,43  Z  M 9,58  L 8,58  L 8,55  L 9,55  Z  " style="fill:rgb(255, 255, 255); fill-opacity:1.000; stroke:none;" />
 <path d="  M 6,87  L 7,87  L 7,83  L 8,83  L 8,81  L 9,81  L 9,79  L 10,79  L 10,77  L 11,77  L 11,76  L 10,76  L 10,75  L 9,75  L 9,74  L 6,74  Z  " style="fill:rgb(255, 255, 255); fill-opacity:1.000; stroke:none;" />
 <path d="  M 11,99  L 11,98  L 9,98  L 9,97  L 8,97  L 8,96  L 7,96  L 7,94  L 6,94  L 6,99  Z  " style="fill:rgb(255, 255, 255); fill-opacity:1.000; stroke:none;" />
 <path d="  M 8,87  L 7,87  L 7,94  L 8,94  Z  " style="fill:rgb(255, 255, 255); fill-opacity:1.000; stroke:none;" />
 <path d="  M 9,83  L 8,83  L 8,87  L 9,87  Z  " style="fill:rgb(255, 255, 255); fill-opacity:1.000; stroke:none;" />
 <path d="  M 8,96  L 9,96  L 9,97  L 11,97  L 11,96  L 10,96  L 10,95  L 9,95  L 9,94  L 8,94  Z  " style="fill:rgb(255, 255, 255); fill-opacity:1.000; stroke:none;" />
 <path d="  M 9,83  L 10,83  L 10,81  L 9,81  Z  " style="fill:rgb(255, 255, 255); fill-opacity:1.000; stroke:none;" />
 <path d="  M 14,96  L 14,97  L 19,97  L 19,98  L 20,98  L 20,99  L 32,99  L 32,74  L 27,74  L 27,75  L 23,75  L 23,74  L 17,74  L 17,77  L 16,77  L 16,76  L 15,76  L 15,75  L 14,75  L 14,77  L 13,77  L 13,79  L 12,79  L 12,80  L 11,80  L 11,79  L 10,79  L 10,81  L 11,81  L 11,83  L 10,83  L 10,87  L 9,87  L 9,94  L 10,94  L 10,95  L 11,95  L 11,96  Z  M 14,94  L 14,92  L 12,92  L 12,86  L 14,86  L 14,84  L 12,84  L 12,81  L 14,81  L 14,79  L 21,79  L 21,81  L 23,81  L 23,84  L 21,84  L 21,86  L 25,86  L 25,92  L 23,92  L 23,94  Z  " style="fill:rgb(255, 255, 255); fill-opacity:1.000; stroke:none;" />
 <path d="  M 11,78  L 11,79  L 12,79  L 12,78  Z  " style="fill:rgb(255, 255, 255); fill-opacity:1.000; stroke:none;" />
 <path d="  M 11,97  L 11,98  L 13,98  L 13,99  L 19,99  L 19,98  L 14,98  L 14,97  Z  " style="fill:rgb(255, 255, 255); fill-opacity:1.000; stroke:none;" />
 <path d="  M 21,88  L 17,88  L 17,87  L 14,87  L 14,92  L 21,92  Z  " style="fill:rgb(255, 255, 255); fill-opacity:1.000; stroke:none;" />
 <path d="  M 15,73  L 16,73  L 16,72  L 15,72  Z  " style="fill:rgb(255, 255, 255); fill-opacity:1.000; stroke:none;" />
 <path d="  M 17,32  L 18,32  L 18,33  L 19,33  L 19,34  L 20,34  L 20,35  L 21,35  L 21,34  L 22,34  L 22,31  L 23,31  L 23,30  L 24,30  L 24,26  L 20,26  L 20,24  L 19,24  L 19,25  L 18,25  L 18,28  L 17,28  L 17,29  L 16,29  L 16,31  L 17,31  Z  " style="fill:rgb(255, 255, 255); fill-opacity:1.000; stroke:none;" />
 <path d="  M 16,41  L 17,41  L 17,43  L 18,43  L 18,44  L 19,44  L 19,45  L 21,45  L 21,44  L 20,44  L 20,42  L 19,42  L 19,34  L 18,34  L 18,33  L 17,33  L 17,32  L 16,32  Z  " style="fill:rgb(255, 255, 255); fill-opacity:1.000; stroke:none;" />
 <path d="  M 21,81  L 16,81  L 16,83  L 18,83  L 18,85  L 20,85  L 20,84  L 21,84  Z  " style="fill:rgb(255, 255, 255); fill-opacity:1.000; stroke:none;" />
 <path d="  M 25,23  L 22,23  L 22,24  L 25,24  Z  " style="fill:rgb(255, 255, 255); fill-opacity:1.000; stroke:none;" />
 <path d="  M 22,67  L 22,70  L 23,70  L 23,68  L 25,68  L 25,67  Z  " style="fill:rgb(255, 255, 255); fill-opacity:1.000; stroke:none;" />
 <path d="  M 24,40  L 25,40  L 25,38  L 26,38  L 26,36  L 25,36  L 25,37  L 24,37  Z  " style="fill:rgb(255, 255, 255); fill-opacity:1.000; stroke:none;" />
 <path d="  M 28,25  L 28,24  L 25,24  L 25,25  Z  " style="fill:rgb(255, 255, 255); fill-opacity:1.000; stroke:none;" />
 <path d="  M 25,31  L 26,31  L 26,32  L 28,32  L 28,27  L 26,27  L 26,28  L 25,28  Z  " style="fill:rgb(255, 255, 255); fill-opacity:1.000; stroke:none;" />
 <path d="  M 30,29  L 31,29  L 31,27  L 30,27  Z  " style="fill:rgb(255, 255, 255); fill-opacity:1.000; stroke:none;" />
 <path d="  M 31,41  L 31,39  L 30,39  L 30,41  Z  " style="fill:rgb(255, 255, 255); fill-opacity:1.000; stroke:none;" />
 <path d="  M 31,31  L 32,31  L 32,29  L 31,29  Z  " style="fill:rgb(255, 255, 255); fill-opacity:1.000; stroke:none;" />
 <path d="  M 33,31  L 32,31  L 32,34  L 33,34  Z  " style="fill:rgb(255, 255, 255); fill-opacity:1.000; stroke:none;" />
 <path d="  M 38,87  L 39,87  L 39,86  L 38,86  Z  " style="fill:rgb(255, 255, 255); fill-opacity:1.000; stroke:none;" />
 <path d="  M 39,88  L 40,88  L 40,87  L 39,87  Z  " style="fill:rgb(255, 255, 255); fill-opacity:1.000; stroke:none;" />
 <path d="  M 4,56  L 3,56  L 3,64  L 4,64  Z  " style="fill:rgb(161, 164, 186); fill-opacity:1.000; stroke:none;" />
 <path d="  M 5,55  L 5,51  L 4,51  L 4,55  Z  " style="fill:rgb(161, 164, 186); fill-opacity:1.000; stroke:none;" />
 <path d="  M 5,64  L 4,64  L 4,68  L 5,68  Z  " style="fill:rgb(161, 164, 186); fill-opacity:1.000; stroke:none;" />
 <path d="  M 7,27  L 7,28  L 5,28  L 5,29  L 6,29  L 6,30  L 8,30  L 8,31  L 10,31  L 10,32  L 12,32  L 12,33  L 14,33  L 14,34  L 16,34  L 16,29  L 17,29  L 17,27  L 18,27  L 18,25  L 16,25  L 16,26  L 11,26  L 11,27  Z  " style="fill:rgb(161, 164, 186); fill-opacity:1.000; stroke:none;" />
 <path d="  M 5,48  L 6,48  L 6,47  L 5,47  Z  " style="fill:rgb(161, 164, 186); fill-opacity:1.000; stroke:none;" />
 <path d="  M 9,68  L 10,68  L 10,70  L 9,70  Z  M 8,68  L 8,65  L 7,65  L 7,63  L 6,63  L 6,59  L 5,59  L 5,64  L 6,64  L 6,68  L 7,68  L 7,69  L 8,69  L 8,72  L 9,72  L 9,74  L 10,74  L 10,75  L 11,75  L 11,67  L 10,67  L 10,64  L 9,64  L 9,68  Z  " style="fill:rgb(161, 164, 186); fill-opacity:1.000; stroke:none;" />
 <path d="  M 7,46  L 7,42  L 6,42  L 6,46  Z  " style="fill:rgb(161, 164, 186); fill-opacity:1.000; stroke:none;" />
 <path d="  M 7,87  L 6,87  L 6,94  L 7,94  Z  " style="fill:rgb(161, 164, 186); fill-opacity:1.000; stroke:none;" />
 <path d="  M 7,40  L 8,40  L 8,38  L 7,38  Z  " style="fill:rgb(161, 164, 186); fill-opacity:1.000; stroke:none;" />
 <path d="  M 7,87  L 8,87  L 8,83  L 7,83  Z  " style="fill:rgb(161, 164, 186); fill-opacity:1.000; stroke:none;" />
 <path d="  M 8,94  L 7,94  L 7,96  L 8,96  Z  " style="fill:rgb(161, 164, 186); fill-opacity:1.000; stroke:none;" />
 <path d="  M 8,37  L 9,37  L 9,35  L 10,35  L 10,37  L 11,37  L 11,35  L 12,35  L 12,34  L 10,34  L 10,33  L 9,33  L 9,34  L 8,34  Z  " style="fill:rgb(161, 164, 186); fill-opacity:1.000; stroke:none;" />
 <path d="  M 9,81  L 8,81  L 8,83  L 9,83  Z  " style="fill:rgb(161, 164, 186); fill-opacity:1.000; stroke:none;" />
 <path d="  M 9,87  L 8,87  L 8,94  L 9,94  Z  " style="fill:rgb(161, 164, 186); fill-opacity:1.000; stroke:none;" />
 <path d="  M 8,96  L 8,97  L 9,97  L 9,96  Z  " style="fill:rgb(161, 164, 186); fill-opacity:1.000; stroke:none;" />
 <path d="  M 10,62  L 10,60  L 9,60  L 9,62  Z  " style="fill:rgb(161, 164, 186); fill-opacity:1.000; stroke:none;" />
 <path d="  M 10,79  L 9,79  L 9,81  L 10,81  Z  " style="fill:rgb(161, 164, 186); fill-opacity:1.000; stroke:none;" />
 <path d="  M 9,87  L 10,87  L 10,83  L 9,83  Z  " style="fill:rgb(161, 164, 186); fill-opacity:1.000; stroke:none;" />
 <path d="  M 10,94  L 9,94  L 9,95  L 10,95  Z  " style="fill:rgb(161, 164, 186); fill-opacity:1.000; stroke:none;" />
 <path d="  M 11,98  L 11,97  L 9,97  L 9,98  Z  " style="fill:rgb(161, 164, 186); fill-opacity:1.000; stroke:none;" />
 <path d="  M 11,64  L 11,63  L 10,63  L 10,64  Z  " style="fill:rgb(161, 164, 186); fill-opacity:1.000; stroke:none;" />
 <path d="  M 11,77  L 10,77  L 10,79  L 11,79  Z  " style="fill:rgb(161, 164, 186); fill-opacity:1.000; stroke:none;" />
 <path d="  M 11,81  L 10,81  L 10,83  L 11,83  Z  " style="fill:rgb(161, 164, 186); fill-opacity:1.000; stroke:none;" />
 <path d="  M 11,95  L 10,95  L 10,96  L 11,96  Z  " style="fill:rgb(161, 164, 186); fill-opacity:1.000; stroke:none;" />
 <path d="  M 12,80  L 12,79  L 11,79  L 11,80  Z  " style="fill:rgb(161, 164, 186); fill-opacity:1.000; stroke:none;" />
 <path d="  M 11,96  L 11,97  L 14,97  L 14,96  Z  " style="fill:rgb(161, 164, 186); fill-opacity:1.000; stroke:none;" />
 <path d="  M 13,98  L 11,98  L 11,99  L 13,99  Z  " style="fill:rgb(161, 164, 186); fill-opacity:1.000; stroke:none;" />
 <path d="  M 12,45  L 13,45  L 13,51  L 14,51  L 14,46  L 15,46  L 15,36  L 14,36  L 14,35  L 13,35  L 13,40  L 12,40  Z  " style="fill:rgb(161, 164, 186); fill-opacity:1.000; stroke:none;" />
 <path d="  M 12,69  L 12,70  L 13,70  L 13,69  Z  " style="fill:rgb(161, 164, 186); fill-opacity:1.000; stroke:none;" />
 <path d="  M 14,77  L 14,76  L 13,76  L 13,74  L 12,74  L 12,79  L 13,79  L 13,77  Z  " style="fill:rgb(161, 164, 186); fill-opacity:1.000; stroke:none;" />
 <path d="  M 13,72  L 14,72  L 14,70  L 13,70  Z  " style="fill:rgb(161, 164, 186); fill-opacity:1.000; stroke:none;" />
 <path d="  M 15,72  L 14,72  L 14,74  L 15,74  Z  " style="fill:rgb(161, 164, 186); fill-opacity:1.000; stroke:none;" />
 <path d="  M 19,98  L 19,97  L 14,97  L 14,98  Z  " style="fill:rgb(161, 164, 186); fill-opacity:1.000; stroke:none;" />
 <path d="  M 15,75  L 16,75  L 16,74  L 15,74  Z  " style="fill:rgb(161, 164, 186); fill-opacity:1.000; stroke:none;" />
 <path d="  M 17,45  L 18,45  L 18,44  L 17,44  Z  " style="fill:rgb(161, 164, 186); fill-opacity:1.000; stroke:none;" />
 <path d="  M 20,99  L 20,98  L 19,98  L 19,99  Z  " style="fill:rgb(161, 164, 186); fill-opacity:1.000; stroke:none;" />
 <path d="  M 21,36  L 21,35  L 20,35  L 20,36  Z  " style="fill:rgb(161, 164, 186); fill-opacity:1.000; stroke:none;" />
 <path d="  M 21,20  L 21,21  L 22,21  L 22,20  Z  " style="fill:rgb(161, 164, 186); fill-opacity:1.000; stroke:none;" />
 <path d="  M 22,23  L 21,23  L 21,24  L 22,24  Z  " style="fill:rgb(161, 164, 186); fill-opacity:1.000; stroke:none;" />
 <path d="  M 25,26  L 25,25  L 24,25  L 24,26  Z  " style="fill:rgb(161, 164, 186); fill-opacity:1.000; stroke:none;" />
 <path d="  M 26,26  L 26,27  L 28,27  L 28,30  L 29,30  L 29,26  Z  " style="fill:rgb(161, 164, 186); fill-opacity:1.000; stroke:none;" />
 <path d="  M 33,26  L 34,26  L 34,28  L 33,28  Z  M 34,28  L 35,28  L 35,33  L 36,33  L 36,26  L 35,26  L 35,24  L 34,24  L 34,23  L 33,23  L 33,22  L 31,22  L 31,21  L 28,21  L 28,22  L 29,22  L 29,24  L 28,24  L 28,25  L 30,25  L 30,26  L 31,26  L 31,28  L 32,28  L 32,30  L 33,30  L 33,33  L 34,33  Z  M 32,23  L 32,24  L 31,24  L 31,23  Z  M 32,24  L 33,24  L 33,26  L 32,26  Z  " style="fill:rgb(161, 164, 186); fill-opacity:1.000; stroke:none;" />
 <path d="  M 33,14  L 32,14  L 32,16  L 33,16  Z  " style="fill:rgb(161, 164, 186); fill-opacity:1.000; stroke:none;" />
 <path d="  M 34,16  L 33,16  L 33,19  L 34,19  Z  " style="fill:rgb(161, 164, 186); fill-opacity:1.000; stroke:none;" />
 <path d="  M 36,37  L 36,36  L 33,36  L 33,37  Z  " style="fill:rgb(161, 164, 186); fill-opacity:1.000; stroke:none;" />
 <path d="  M 34,22  L 35,22  L 35,19  L 34,19  Z  " style="fill:rgb(161, 164, 186); fill-opacity:1.000; stroke:none;" />
 <path d="  M 36,35  L 36,36  L 39,36  L 39,35  Z  " style="fill:rgb(161, 164, 186); fill-opacity:1.000; stroke:none;" />
 <path d="  M 38,31  L 37,31  L 37,33  L 38,33  Z  " style="fill:rgb(161, 164, 186); fill-opacity:1.000; stroke:none;" />
 <path d="  M 39,33  L 38,33  L 38,34  L 39,34  Z  " style="fill:rgb(161, 164, 186); fill-opacity:1.000; stroke:none;" />
 <path d="  M 39,34  L 39,35  L 40,35  L 40,34  Z  " style="fill:rgb(161, 164, 186); fill-opacity:1.000; stroke:none;" />
 <path d="  M 4,64  L 3,64  L 3,66  L 4,66  Z  " style="fill:rgb(115, 124, 158); fill-opacity:1.000; stroke:none;" />
 <path d="  M 5,55  L 4,55  L 4,64  L 5,64  Z  " style="fill:rgb(115, 124, 158); fill-opacity:1.000; stroke:none;" />
 <path d="  M 7,28  L 7,27  L 5,27  L 5,28  Z  " style="fill:rgb(115, 124, 158); fill-opacity:1.000; stroke:none;" />
 <path d="  M 7,69  L 7,68  L 6,68  L 6,64  L 5,64  L 5,70  L 6,70  L 6,69  Z  " style="fill:rgb(115, 124, 158); fill-opacity:1.000; stroke:none;" />
 <path d="  M 8,69  L 7,69  L 7,70  L 8,70  Z  " style="fill:rgb(115, 124, 158); fill-opacity:1.000; stroke:none;" />
 <path d="  M 11,27  L 11,26  L 8,26  L 8,27  Z  " style="fill:rgb(115, 124, 158); fill-opacity:1.000; stroke:none;" />
 <path d="  M 10,32  L 9,32  L 9,33  L 10,33  Z  " style="fill:rgb(115, 124, 158); fill-opacity:1.000; stroke:none;" />
 <path d="  M 10,64  L 10,62  L 9,62  L 9,64  Z  " style="fill:rgb(115, 124, 158); fill-opacity:1.000; stroke:none;" />
 <path d="  M 9,75  L 10,75  L 10,74  L 9,74  Z  " style="fill:rgb(115, 124, 158); fill-opacity:1.000; stroke:none;" />
 <path d="  M 12,34  L 12,33  L 10,33  L 10,34  Z  " style="fill:rgb(115, 124, 158); fill-opacity:1.000; stroke:none;" />
 <path d="  M 11,64  L 10,64  L 10,67  L 11,67  Z  " style="fill:rgb(115, 124, 158); fill-opacity:1.000; stroke:none;" />
 <path d="  M 14,74  L 14,72  L 13,72  L 13,70  L 12,70  L 12,67  L 11,67  L 11,75  L 10,75  L 10,76  L 11,76  L 11,77  L 12,77  L 12,74  L 13,74  L 13,76  L 14,76  L 14,75  L 15,75  L 15,74  Z  " style="fill:rgb(115, 124, 158); fill-opacity:1.000; stroke:none;" />
 <path d="  M 12,25  L 12,26  L 16,26  L 16,25  Z  " style="fill:rgb(115, 124, 158); fill-opacity:1.000; stroke:none;" />
 <path d="  M 12,34  L 12,35  L 14,35  L 14,34  Z  " style="fill:rgb(115, 124, 158); fill-opacity:1.000; stroke:none;" />
 <path d="  M 14,21  L 14,20  L 13,20  L 13,21  Z  " style="fill:rgb(115, 124, 158); fill-opacity:1.000; stroke:none;" />
 <path d="  M 14,36  L 16,36  L 16,35  L 14,35  Z  " style="fill:rgb(115, 124, 158); fill-opacity:1.000; stroke:none;" />
 <path d="  M 15,20  L 17,20  L 17,19  L 15,19  Z  " style="fill:rgb(115, 124, 158); fill-opacity:1.000; stroke:none;" />
 <path d="  M 16,75  L 15,75  L 15,76  L 16,76  L 16,77  L 17,77  L 17,72  L 16,72  Z  " style="fill:rgb(115, 124, 158); fill-opacity:1.000; stroke:none;" />
 <path d="  M 16,25  L 19,25  L 19,24  L 16,24  Z  " style="fill:rgb(115, 124, 158); fill-opacity:1.000; stroke:none;" />
 <path d="  M 21,36  L 20,36  L 20,43  L 21,43  Z  " style="fill:rgb(115, 124, 158); fill-opacity:1.000; stroke:none;" />
 <path d="  M 22,22  L 21,22  L 21,23  L 22,23  Z  " style="fill:rgb(115, 124, 158); fill-opacity:1.000; stroke:none;" />
 <path d="  M 22,36  L 22,34  L 21,34  L 21,36  Z  " style="fill:rgb(115, 124, 158); fill-opacity:1.000; stroke:none;" />
 <path d="  M 21,44  L 21,45  L 23,45  L 23,44  Z  " style="fill:rgb(115, 124, 158); fill-opacity:1.000; stroke:none;" />
 <path d="  M 23,32  L 22,32  L 22,33  L 23,33  Z  " style="fill:rgb(115, 124, 158); fill-opacity:1.000; stroke:none;" />
 <path d="  M 23,32  L 24,32  L 24,30  L 23,30  Z  " style="fill:rgb(115, 124, 158); fill-opacity:1.000; stroke:none;" />
 <path d="  M 25,28  L 24,28  L 24,29  L 25,29  Z  " style="fill:rgb(115, 124, 158); fill-opacity:1.000; stroke:none;" />
 <path d="  M 25,28  L 26,28  L 26,26  L 25,26  Z  " style="fill:rgb(115, 124, 158); fill-opacity:1.000; stroke:none;" />
 <path d="  M 30,20  L 28,20  L 28,21  L 30,21  Z  " style="fill:rgb(115, 124, 158); fill-opacity:1.000; stroke:none;" />
 <path d="  M 29,23  L 29,22  L 28,22  L 28,23  Z  " style="fill:rgb(115, 124, 158); fill-opacity:1.000; stroke:none;" />
 <path d="  M 29,31  L 29,30  L 28,30  L 28,31  Z  " style="fill:rgb(115, 124, 158); fill-opacity:1.000; stroke:none;" />
 <path d="  M 29,30  L 30,30  L 30,25  L 29,25  Z  " style="fill:rgb(115, 124, 158); fill-opacity:1.000; stroke:none;" />
 <path d="  M 30,32  L 31,32  L 31,30  L 30,30  Z  " style="fill:rgb(115, 124, 158); fill-opacity:1.000; stroke:none;" />
 <path d="  M 32,40  L 31,40  L 31,43  L 30,43  L 30,54  L 31,54  L 31,51  L 32,51  Z  " style="fill:rgb(115, 124, 158); fill-opacity:1.000; stroke:none;" />
 <path d="  M 31,21  L 31,22  L 33,22  L 33,21  Z  " style="fill:rgb(115, 124, 158); fill-opacity:1.000; stroke:none;" />
 <path d="  M 32,35  L 32,32  L 31,32  L 31,35  Z  " style="fill:rgb(115, 124, 158); fill-opacity:1.000; stroke:none;" />
 <path d="  M 39,35  L 39,34  L 38,34  L 38,33  L 37,33  L 37,31  L 38,31  L 38,30  L 37,30  L 37,28  L 36,28  L 36,33  L 34,33  L 34,34  L 33,34  L 33,35  L 32,35  L 32,38  L 33,38  L 33,36  L 36,36  L 36,35  Z  " style="fill:rgb(115, 124, 158); fill-opacity:1.000; stroke:none;" />
 <path d="  M 34,23  L 34,22  L 33,22  L 33,23  Z  " style="fill:rgb(115, 124, 158); fill-opacity:1.000; stroke:none;" />
 <path d="  M 38,33  L 39,33  L 39,32  L 38,32  Z  " style="fill:rgb(115, 124, 158); fill-opacity:1.000; stroke:none;" />
 <path d="  M 5,28  L 5,27  L 4,27  L 4,28  Z  " style="fill:rgb(213, 218, 232); fill-opacity:1.000; stroke:none;" />
 <path d="  M 5,59  L 6,59  L 6,48  L 5,48  Z  " style="fill:rgb(213, 218, 232); fill-opacity:1.000; stroke:none;" />
 <path d="  M 7,46  L 6,46  L 6,47  L 7,47  Z  " style="fill:rgb(213, 218, 232); fill-opacity:1.000; stroke:none;" />
 <path d="  M 6,63  L 7,63  L 7,59  L 6,59  Z  " style="fill:rgb(213, 218, 232); fill-opacity:1.000; stroke:none;" />
 <path d="  M 8,26  L 7,26  L 7,27  L 8,27  Z  " style="fill:rgb(213, 218, 232); fill-opacity:1.000; stroke:none;" />
 <path d="  M 7,30  L 7,31  L 8,31  L 8,30  Z  " style="fill:rgb(213, 218, 232); fill-opacity:1.000; stroke:none;" />
 <path d="  M 8,42  L 8,40  L 7,40  L 7,42  Z  " style="fill:rgb(213, 218, 232); fill-opacity:1.000; stroke:none;" />
 <path d="  M 8,65  L 8,63  L 7,63  L 7,65  Z  " style="fill:rgb(213, 218, 232); fill-opacity:1.000; stroke:none;" />
 <path d="  M 10,32  L 10,31  L 8,31  L 8,32  Z  " style="fill:rgb(213, 218, 232); fill-opacity:1.000; stroke:none;" />
 <path d="  M 8,39  L 9,39  L 9,37  L 8,37  Z  " style="fill:rgb(213, 218, 232); fill-opacity:1.000; stroke:none;" />
 <path d="  M 8,55  L 8,58  L 9,58  L 9,55  Z  " style="fill:rgb(213, 218, 232); fill-opacity:1.000; stroke:none;" />
 <path d="  M 8,68  L 9,68  L 9,65  L 8,65  Z  " style="fill:rgb(213, 218, 232); fill-opacity:1.000; stroke:none;" />
 <path d="  M 9,37  L 10,37  L 10,35  L 9,35  Z  " style="fill:rgb(213, 218, 232); fill-opacity:1.000; stroke:none;" />
 <path d="  M 9,40  L 9,43  L 10,43  L 10,40  Z  " style="fill:rgb(213, 218, 232); fill-opacity:1.000; stroke:none;" />
 <path d="  M 9,58  L 9,60  L 10,60  L 10,58  Z  " style="fill:rgb(213, 218, 232); fill-opacity:1.000; stroke:none;" />
 <path d="  M 9,70  L 10,70  L 10,68  L 9,68  Z  " style="fill:rgb(213, 218, 232); fill-opacity:1.000; stroke:none;" />
 <path d="  M 10,32  L 10,33  L 12,33  L 12,32  Z  " style="fill:rgb(213, 218, 232); fill-opacity:1.000; stroke:none;" />
 <path d="  M 10,37  L 10,40  L 11,40  L 11,37  Z  " style="fill:rgb(213, 218, 232); fill-opacity:1.000; stroke:none;" />
 <path d="  M 10,62  L 10,63  L 11,63  L 11,62  Z  " style="fill:rgb(213, 218, 232); fill-opacity:1.000; stroke:none;" />
 <path d="  M 12,25  L 11,25  L 11,26  L 12,26  Z  " style="fill:rgb(213, 218, 232); fill-opacity:1.000; stroke:none;" />
 <path d="  M 13,40  L 13,35  L 11,35  L 11,36  L 12,36  L 12,40  Z  " style="fill:rgb(213, 218, 232); fill-opacity:1.000; stroke:none;" />
 <path d="  M 11,67  L 12,67  L 12,65  L 11,65  Z  " style="fill:rgb(213, 218, 232); fill-opacity:1.000; stroke:none;" />
 <path d="  M 12,77  L 11,77  L 11,78  L 12,78  Z  " style="fill:rgb(213, 218, 232); fill-opacity:1.000; stroke:none;" />
 <path d="  M 13,21  L 12,21  L 12,22  L 13,22  Z  " style="fill:rgb(213, 218, 232); fill-opacity:1.000; stroke:none;" />
 <path d="  M 14,33  L 12,33  L 12,34  L 14,34  Z  " style="fill:rgb(213, 218, 232); fill-opacity:1.000; stroke:none;" />
 <path d="  M 12,45  L 12,55  L 13,55  L 13,45  Z  " style="fill:rgb(213, 218, 232); fill-opacity:1.000; stroke:none;" />
 <path d="  M 13,69  L 13,68  L 12,68  L 12,69  Z  " style="fill:rgb(213, 218, 232); fill-opacity:1.000; stroke:none;" />
 <path d="  M 15,20  L 14,20  L 14,21  L 15,21  Z  " style="fill:rgb(213, 218, 232); fill-opacity:1.000; stroke:none;" />
 <path d="  M 16,34  L 14,34  L 14,35  L 16,35  Z  " style="fill:rgb(213, 218, 232); fill-opacity:1.000; stroke:none;" />
 <path d="  M 15,14  L 15,15  L 16,15  L 16,14  Z  " style="fill:rgb(213, 218, 232); fill-opacity:1.000; stroke:none;" />
 <path d="  M 16,25  L 16,24  L 15,24  L 15,25  Z  " style="fill:rgb(213, 218, 232); fill-opacity:1.000; stroke:none;" />
 <path d="  M 16,36  L 15,36  L 15,41  L 16,41  Z  " style="fill:rgb(213, 218, 232); fill-opacity:1.000; stroke:none;" />
 <path d="  M 15,72  L 16,72  L 16,57  L 15,57  Z  " style="fill:rgb(213, 218, 232); fill-opacity:1.000; stroke:none;" />
 <path d="  M 16,73  L 15,73  L 15,74  L 16,74  Z  " style="fill:rgb(213, 218, 232); fill-opacity:1.000; stroke:none;" />
 <path d="  M 17,15  L 16,15  L 16,16  L 17,16  Z  " style="fill:rgb(213, 218, 232); fill-opacity:1.000; stroke:none;" />
 <path d="  M 16,32  L 17,32  L 17,31  L 16,31  Z  " style="fill:rgb(213, 218, 232); fill-opacity:1.000; stroke:none;" />
 <path d="  M 16,43  L 17,43  L 17,41  L 16,41  Z  " style="fill:rgb(213, 218, 232); fill-opacity:1.000; stroke:none;" />
 <path d="  M 18,17  L 18,16  L 17,16  L 17,17  Z  " style="fill:rgb(213, 218, 232); fill-opacity:1.000; stroke:none;" />
 <path d="  M 17,28  L 18,28  L 18,27  L 17,27  Z  " style="fill:rgb(213, 218, 232); fill-opacity:1.000; stroke:none;" />
 <path d="  M 18,32  L 17,32  L 17,33  L 18,33  Z  " style="fill:rgb(213, 218, 232); fill-opacity:1.000; stroke:none;" />
 <path d="  M 18,43  L 17,43  L 17,44  L 18,44  Z  " style="fill:rgb(213, 218, 232); fill-opacity:1.000; stroke:none;" />
 <path d="  M 18,17  L 18,18  L 19,18  L 19,17  Z  " style="fill:rgb(213, 218, 232); fill-opacity:1.000; stroke:none;" />
 <path d="  M 19,34  L 19,33  L 18,33  L 18,34  Z  " style="fill:rgb(213, 218, 232); fill-opacity:1.000; stroke:none;" />
 <path d="  M 19,45  L 19,44  L 18,44  L 18,45  Z  " style="fill:rgb(213, 218, 232); fill-opacity:1.000; stroke:none;" />
 <path d="  M 19,19  L 20,19  L 20,18  L 19,18  Z  " style="fill:rgb(213, 218, 232); fill-opacity:1.000; stroke:none;" />
 <path d="  M 21,24  L 21,23  L 19,23  L 19,24  Z  " style="fill:rgb(213, 218, 232); fill-opacity:1.000; stroke:none;" />
 <path d="  M 19,42  L 20,42  L 20,34  L 19,34  Z  " style="fill:rgb(213, 218, 232); fill-opacity:1.000; stroke:none;" />
 <path d="  M 19,46  L 22,46  L 22,45  L 19,45  Z  " style="fill:rgb(213, 218, 232); fill-opacity:1.000; stroke:none;" />
 <path d="  M 21,20  L 21,19  L 20,19  L 20,20  Z  " style="fill:rgb(213, 218, 232); fill-opacity:1.000; stroke:none;" />
 <path d="  M 24,26  L 24,25  L 20,25  L 20,26  Z  " style="fill:rgb(213, 218, 232); fill-opacity:1.000; stroke:none;" />
 <path d="  M 21,44  L 21,43  L 20,43  L 20,44  Z  " style="fill:rgb(213, 218, 232); fill-opacity:1.000; stroke:none;" />
 <path d="  M 23,32  L 23,31  L 22,31  L 22,32  Z  " style="fill:rgb(213, 218, 232); fill-opacity:1.000; stroke:none;" />
 <path d="  M 24,28  L 25,28  L 25,26  L 24,26  Z  " style="fill:rgb(213, 218, 232); fill-opacity:1.000; stroke:none;" />
 <path d="  M 31,27  L 31,26  L 30,26  L 30,27  Z  " style="fill:rgb(213, 218, 232); fill-opacity:1.000; stroke:none;" />
 <path d="  M 30,29  L 30,30  L 31,30  L 31,29  Z  " style="fill:rgb(213, 218, 232); fill-opacity:1.000; stroke:none;" />
 <path d="  M 31,23  L 31,24  L 32,24  L 32,23  Z  " style="fill:rgb(213, 218, 232); fill-opacity:1.000; stroke:none;" />
 <path d="  M 31,29  L 32,29  L 32,28  L 31,28  Z  " style="fill:rgb(213, 218, 232); fill-opacity:1.000; stroke:none;" />
 <path d="  M 32,31  L 31,31  L 31,32  L 32,32  Z  " style="fill:rgb(213, 218, 232); fill-opacity:1.000; stroke:none;" />
 <path d="  M 33,26  L 33,24  L 32,24  L 32,26  Z  " style="fill:rgb(213, 218, 232); fill-opacity:1.000; stroke:none;" />
 <path d="  M 32,31  L 33,31  L 33,30  L 32,30  Z  " style="fill:rgb(213, 218, 232); fill-opacity:1.000; stroke:none;" />
 <path d="  M 32,34  L 32,35  L 33,35  L 33,34  Z  " style="fill:rgb(213, 218, 232); fill-opacity:1.000; stroke:none;" />
 <path d="  M 33,28  L 34,28  L 34,26  L 33,26  Z  " style="fill:rgb(213, 218, 232); fill-opacity:1.000; stroke:none;" />
 <path d="  M 33,33  L 33,34  L 34,34  L 34,33  Z  " style="fill:rgb(213, 218, 232); fill-opacity:1.000; stroke:none;" />
 <path d="  M 34,33  L 35,33  L 35,28  L 34,28  Z  " style="fill:rgb(213, 218, 232); fill-opacity:1.000; stroke:none;" />
 <path d="  M 17,18  L 17,19  L 18,19  L 18,20  L 19,20  L 19,21  L 20,21  L 20,19  L 19,19  L 19,18  L 18,18  L 18,17  L 17,17  L 17,16  L 16,16  L 16,15  L 15,15  L 15,14  L 14,14  L 14,13  L 12,13  L 12,14  L 13,14  L 13,15  L 14,15  L 14,16  L 15,16  L 15,17  L 16,17  L 16,18  Z  " style="fill:rgb(55, 111, 195); fill-opacity:1.000; stroke:none;" />
 <path d="  M 17,15  L 17,16  L 18,16  L 18,17  L 19,17  L 19,18  L 20,18  L 20,19  L 21,19  L 21,20  L 23,20  L 23,19  L 25,19  L 25,17  L 23,17  L 23,16  L 21,16  L 21,15  L 18,15  L 18,14  L 16,14  L 16,15  Z  " style="fill:rgb(55, 111, 195); fill-opacity:1.000; stroke:none;" />
 <path d="  M 20,24  L 20,25  L 25,25  L 25,24  Z  " style="fill:rgb(55, 111, 195); fill-opacity:1.000; stroke:none;" />
 <path d="  M 29,24  L 29,23  L 28,23  L 28,21  L 27,21  L 27,19  L 26,19  L 26,20  L 24,20  L 24,21  L 23,21  L 23,22  L 22,22  L 22,23  L 25,23  L 25,24  Z  " style="fill:rgb(55, 111, 195); fill-opacity:1.000; stroke:none;" />
 <path d="  M 25,25  L 25,26  L 29,26  L 29,25  Z  " style="fill:rgb(55, 111, 195); fill-opacity:1.000; stroke:none;" />
 <path d="  M 27,19  L 29,19  L 29,18  L 27,18  Z  " style="fill:rgb(55, 111, 195); fill-opacity:1.000; stroke:none;" />
 <path d="  M 31,18  L 31,16  L 30,16  L 30,18  Z  " style="fill:rgb(55, 111, 195); fill-opacity:1.000; stroke:none;" />
 <path d="  M 31,16  L 32,16  L 32,14  L 31,14  Z  " style="fill:rgb(55, 111, 195); fill-opacity:1.000; stroke:none;" />
 <path d="  M 35,94  L 33,94  L 33,95  L 35,95  Z  " style="fill:rgb(55, 111, 195); fill-opacity:1.000; stroke:none;" />
 <path d="  M 35,93  L 35,94  L 37,94  L 37,93  L 38,93  L 38,92  L 39,92  L 39,91  L 37,91  L 37,92  L 36,92  L 36,93  Z  " style="fill:rgb(55, 111, 195); fill-opacity:1.000; stroke:none;" />
 <path d="  M 17,19  L 17,18  L 16,18  L 16,19  Z  " style="fill:rgb(17, 53, 119); fill-opacity:1.000; stroke:none;" />
 <path d="  M 17,62  L 18,62  L 18,58  L 19,58  L 19,55  L 18,55  L 18,56  L 16,56  L 16,57  L 17,57  Z  " style="fill:rgb(17, 53, 119); fill-opacity:1.000; stroke:none;" />
 <path d="  M 21,73  L 21,72  L 17,72  L 17,73  Z  " style="fill:rgb(17, 53, 119); fill-opacity:1.000; stroke:none;" />
 <path d="  M 20,58  L 19,58  L 19,59  L 20,59  Z  " style="fill:rgb(17, 53, 119); fill-opacity:1.000; stroke:none;" />
 <path d="  M 21,22  L 20,22  L 20,23  L 21,23  Z  " style="fill:rgb(17, 53, 119); fill-opacity:1.000; stroke:none;" />
 <path d="  M 20,58  L 21,58  L 21,57  L 20,57  Z  " style="fill:rgb(17, 53, 119); fill-opacity:1.000; stroke:none;" />
 <path d="  M 21,56  L 21,57  L 22,57  L 22,56  Z  " style="fill:rgb(17, 53, 119); fill-opacity:1.000; stroke:none;" />
 <path d="  M 23,22  L 23,21  L 22,21  L 22,22  Z  " style="fill:rgb(17, 53, 119); fill-opacity:1.000; stroke:none;" />
 <path d="  M 24,34  L 24,35  L 23,35  L 23,36  L 22,36  L 22,39  L 23,39  L 23,38  L 24,38  L 24,36  L 25,36  L 25,35  L 27,35  L 27,34  Z  " style="fill:rgb(17, 53, 119); fill-opacity:1.000; stroke:none;" />
 <path d="  M 25,70  L 27,70  L 27,71  L 28,71  L 28,72  L 29,72  L 29,73  L 30,73  L 30,70  L 29,70  L 29,68  L 28,68  L 28,67  L 26,67  L 26,68  L 25,68  Z  M 28,70  L 27,70  L 27,69  L 28,69  Z  " style="fill:rgb(17, 53, 119); fill-opacity:1.000; stroke:none;" />
 <path d="  M 27,19  L 27,21  L 28,21  L 28,19  Z  " style="fill:rgb(17, 53, 119); fill-opacity:1.000; stroke:none;" />
 <path d="  M 31,21  L 31,19  L 30,19  L 30,18  L 29,18  L 29,20  L 30,20  L 30,21  Z  " style="fill:rgb(17, 53, 119); fill-opacity:1.000; stroke:none;" />
 <path d="  M 30,39  L 29,39  L 29,41  L 30,41  Z  " style="fill:rgb(17, 53, 119); fill-opacity:1.000; stroke:none;" />
 <path d="  M 31,37  L 30,37  L 30,39  L 31,39  Z  " style="fill:rgb(17, 53, 119); fill-opacity:1.000; stroke:none;" />
 <path d="  M 32,36  L 31,36  L 31,37  L 32,37  Z  " style="fill:rgb(17, 53, 119); fill-opacity:1.000; stroke:none;" />
 <path d="  M 33,81  L 33,92  L 34,92  L 34,93  L 36,93  L 36,92  L 37,92  L 37,91  L 38,91  L 38,89  L 37,89  L 37,88  L 36,88  L 36,86  L 35,86  L 35,84  L 34,84  L 34,81  Z  " style="fill:rgb(17, 53, 119); fill-opacity:1.000; stroke:none;" />
 <path d="  M 40,91  L 39,91  L 39,92  L 38,92  L 38,93  L 37,93  L 37,94  L 35,94  L 35,95  L 36,95  L 36,96  L 41,96  L 41,95  L 42,95  L 42,91  L 41,91  L 41,93  L 40,93  Z  M 39,94  L 39,95  L 38,95  L 38,94  Z  M 40,94  L 39,94  L 39,93  L 40,93  Z  " style="fill:rgb(17, 53, 119); fill-opacity:1.000; stroke:none;" />
 <path d="  M 37,84  L 36,84  L 36,85  L 37,85  Z  " style="fill:rgb(17, 53, 119); fill-opacity:1.000; stroke:none;" />
 <path d="  M 37,87  L 38,87  L 38,85  L 37,85  Z  " style="fill:rgb(17, 53, 119); fill-opacity:1.000; stroke:none;" />
 <path d="  M 39,87  L 38,87  L 38,88  L 39,88  Z  " style="fill:rgb(17, 53, 119); fill-opacity:1.000; stroke:none;" />
 <path d="  M 41,89  L 40,89  L 40,91  L 41,91  Z  " style="fill:rgb(17, 53, 119); fill-opacity:1.000; stroke:none;" />
 <path d="  M 19,45  L 17,45  L 17,48  L 16,48  L 16,52  L 17,52  L 17,54  L 19,54  L 19,51  L 18,51  L 18,46  L 19,46  Z  " style="fill:rgb(210, 107, 106); fill-opacity:1.000; stroke:none;" />
 <path d="  M 16,69  L 17,69  L 17,67  L 18,67  L 18,63  L 17,63  L 17,62  L 16,62  Z  " style="fill:rgb(210, 107, 106); fill-opacity:1.000; stroke:none;" />
 <path d="  M 19,56  L 20,56  L 20,54  L 19,54  Z  " style="fill:rgb(210, 107, 106); fill-opacity:1.000; stroke:none;" />
 <path d="  M 20,58  L 20,59  L 21,59  L 21,60  L 22,60  L 22,61  L 21,61  L 21,62  L 23,62  L 23,57  L 21,57  L 21,58  Z  " style="fill:rgb(210, 107, 106); fill-opacity:1.000; stroke:none;" />
 <path d="  M 22,39  L 22,38  L 21,38  L 21,39  Z  " style="fill:rgb(210, 107, 106); fill-opacity:1.000; stroke:none;" />
 <path d="  M 21,44  L 22,44  L 22,43  L 21,43  Z  " style="fill:rgb(210, 107, 106); fill-opacity:1.000; stroke:none;" />
 <path d="  M 23,54  L 22,54  L 22,53  L 21,53  L 21,56  L 23,56  Z  " style="fill:rgb(210, 107, 106); fill-opacity:1.000; stroke:none;" />
 <path d="  M 21,70  L 21,71  L 22,71  L 22,70  Z  " style="fill:rgb(210, 107, 106); fill-opacity:1.000; stroke:none;" />
 <path d="  M 21,73  L 22,73  L 22,72  L 21,72  Z  " style="fill:rgb(210, 107, 106); fill-opacity:1.000; stroke:none;" />
 <path d="  M 23,35  L 22,35  L 22,36  L 23,36  Z  " style="fill:rgb(210, 107, 106); fill-opacity:1.000; stroke:none;" />
 <path d="  M 22,41  L 23,41  L 23,40  L 22,40  Z  " style="fill:rgb(210, 107, 106); fill-opacity:1.000; stroke:none;" />
 <path d="  M 22,46  L 23,46  L 23,45  L 22,45  Z  " style="fill:rgb(210, 107, 106); fill-opacity:1.000; stroke:none;" />
 <path d="  M 23,54  L 24,54  L 24,51  L 23,51  Z  " style="fill:rgb(210, 107, 106); fill-opacity:1.000; stroke:none;" />
 <path d="  M 23,70  L 23,71  L 26,71  L 26,70  Z  " style="fill:rgb(210, 107, 106); fill-opacity:1.000; stroke:none;" />
 <path d="  M 26,33  L 26,32  L 24,32  L 24,33  Z  " style="fill:rgb(210, 107, 106); fill-opacity:1.000; stroke:none;" />
 <path d="  M 26,43  L 24,43  L 24,44  L 26,44  Z  " style="fill:rgb(210, 107, 106); fill-opacity:1.000; stroke:none;" />
 <path d="  M 25,75  L 25,74  L 26,74  L 26,73  L 24,73  L 24,75  Z  " style="fill:rgb(210, 107, 106); fill-opacity:1.000; stroke:none;" />
 <path d="  M 26,34  L 27,34  L 27,33  L 26,33  Z  " style="fill:rgb(210, 107, 106); fill-opacity:1.000; stroke:none;" />
 <path d="  M 26,35  L 26,36  L 27,36  L 27,35  Z  " style="fill:rgb(210, 107, 106); fill-opacity:1.000; stroke:none;" />
 <path d="  M 30,44  L 30,43  L 29,43  L 29,44  Z  " style="fill:rgb(210, 107, 106); fill-opacity:1.000; stroke:none;" />
 <path d="  M 30,34  L 30,35  L 31,35  L 31,34  Z  " style="fill:rgb(210, 107, 106); fill-opacity:1.000; stroke:none;" />
 <path d="  M 17,52  L 16,52  L 16,56  L 18,56  L 18,54  L 17,54  Z  " style="fill:rgb(197, 47, 88); fill-opacity:1.000; stroke:none;" />
 <path d="  M 17,57  L 16,57  L 16,62  L 17,62  Z  " style="fill:rgb(197, 47, 88); fill-opacity:1.000; stroke:none;" />
 <path d="  M 16,72  L 18,72  L 18,67  L 17,67  L 17,69  L 16,69  Z  " style="fill:rgb(197, 47, 88); fill-opacity:1.000; stroke:none;" />
 <path d="  M 18,65  L 19,65  L 19,64  L 20,64  L 20,63  L 21,63  L 21,61  L 22,61  L 22,60  L 21,60  L 21,59  L 19,59  L 19,58  L 18,58  L 18,62  L 17,62  L 17,63  L 18,63  Z  " style="fill:rgb(197, 47, 88); fill-opacity:1.000; stroke:none;" />
 <path d="  M 19,57  L 19,58  L 20,58  L 20,57  Z  " style="fill:rgb(197, 47, 88); fill-opacity:1.000; stroke:none;" />
 <path d="  M 22,38  L 22,36  L 21,36  L 21,38  Z  " style="fill:rgb(197, 47, 88); fill-opacity:1.000; stroke:none;" />
 <path d="  M 22,35  L 23,35  L 23,33  L 22,33  Z  " style="fill:rgb(197, 47, 88); fill-opacity:1.000; stroke:none;" />
 <path d="  M 22,56  L 22,57  L 23,57  L 23,56  Z  " style="fill:rgb(197, 47, 88); fill-opacity:1.000; stroke:none;" />
 <path d="  M 24,33  L 24,32  L 23,32  L 23,33  Z  " style="fill:rgb(197, 47, 88); fill-opacity:1.000; stroke:none;" />
 <path d="  M 24,32  L 26,32  L 26,31  L 25,31  L 25,29  L 24,29  Z  " style="fill:rgb(197, 47, 88); fill-opacity:1.000; stroke:none;" />
 <path d="  M 25,67  L 26,67  L 26,63  L 25,63  Z  " style="fill:rgb(197, 47, 88); fill-opacity:1.000; stroke:none;" />
 <path d="  M 27,75  L 27,74  L 25,74  L 25,75  Z  " style="fill:rgb(197, 47, 88); fill-opacity:1.000; stroke:none;" />
 <path d="  M 27,34  L 28,34  L 28,32  L 26,32  L 26,33  L 27,33  Z  " style="fill:rgb(197, 47, 88); fill-opacity:1.000; stroke:none;" />
 <path d="  M 28,72  L 27,72  L 27,74  L 28,74  Z  " style="fill:rgb(197, 47, 88); fill-opacity:1.000; stroke:none;" />
 <path d="  M 28,31  L 28,32  L 29,32  L 29,31  Z  " style="fill:rgb(197, 47, 88); fill-opacity:1.000; stroke:none;" />
 <path d="  M 29,31  L 30,31  L 30,30  L 29,30  Z  " style="fill:rgb(197, 47, 88); fill-opacity:1.000; stroke:none;" />
 <path d="  M 30,37  L 31,37  L 31,36  L 32,36  L 32,35  L 30,35  Z  " style="fill:rgb(197, 47, 88); fill-opacity:1.000; stroke:none;" />
 <path d="  M 18,20  L 18,19  L 17,19  L 17,20  Z  " style="fill:rgb(12, 74, 165); fill-opacity:1.000; stroke:none;" />
 <path d="  M 19,21  L 19,20  L 18,20  L 18,21  Z  " style="fill:rgb(12, 74, 165); fill-opacity:1.000; stroke:none;" />
 <path d="  M 19,54  L 18,54  L 18,55  L 19,55  Z  " style="fill:rgb(12, 74, 165); fill-opacity:1.000; stroke:none;" />
 <path d="  M 18,71  L 18,72  L 21,72  L 21,71  Z  " style="fill:rgb(12, 74, 165); fill-opacity:1.000; stroke:none;" />
 <path d="  M 22,22  L 22,21  L 21,21  L 21,20  L 20,20  L 20,21  L 19,21  L 19,22  Z  " style="fill:rgb(12, 74, 165); fill-opacity:1.000; stroke:none;" />
 <path d="  M 20,53  L 19,53  L 19,54  L 20,54  Z  " style="fill:rgb(12, 74, 165); fill-opacity:1.000; stroke:none;" />
 <path d="  M 20,54  L 20,56  L 19,56  L 19,57  L 21,57  L 21,54  Z  " style="fill:rgb(12, 74, 165); fill-opacity:1.000; stroke:none;" />
 <path d="  M 27,18  L 25,18  L 25,19  L 23,19  L 23,20  L 22,20  L 22,21  L 24,21  L 24,20  L 26,20  L 26,19  L 27,19  Z  " style="fill:rgb(12, 74, 165); fill-opacity:1.000; stroke:none;" />
 <path d="  M 22,39  L 22,40  L 23,40  L 23,39  Z  " style="fill:rgb(12, 74, 165); fill-opacity:1.000; stroke:none;" />
 <path d="  M 23,39  L 24,39  L 24,38  L 23,38  Z  " style="fill:rgb(12, 74, 165); fill-opacity:1.000; stroke:none;" />
 <path d="  M 24,41  L 24,40  L 23,40  L 23,41  Z  " style="fill:rgb(12, 74, 165); fill-opacity:1.000; stroke:none;" />
 <path d="  M 25,68  L 26,68  L 26,67  L 25,67  Z  " style="fill:rgb(12, 74, 165); fill-opacity:1.000; stroke:none;" />
 <path d="  M 26,67  L 27,67  L 27,64  L 26,64  Z  " style="fill:rgb(12, 74, 165); fill-opacity:1.000; stroke:none;" />
 <path d="  M 27,70  L 26,70  L 26,71  L 27,71  Z  " style="fill:rgb(12, 74, 165); fill-opacity:1.000; stroke:none;" />
 <path d="  M 28,69  L 27,69  L 27,70  L 28,70  Z  " style="fill:rgb(12, 74, 165); fill-opacity:1.000; stroke:none;" />
 <path d="  M 28,71  L 27,71  L 27,72  L 28,72  Z  " style="fill:rgb(12, 74, 165); fill-opacity:1.000; stroke:none;" />
 <path d="  M 29,19  L 28,19  L 28,20  L 29,20  Z  " style="fill:rgb(12, 74, 165); fill-opacity:1.000; stroke:none;" />
 <path d="  M 28,73  L 29,73  L 29,72  L 28,72  Z  " style="fill:rgb(12, 74, 165); fill-opacity:1.000; stroke:none;" />
 <path d="  M 29,18  L 30,18  L 30,17  L 29,17  Z  " style="fill:rgb(12, 74, 165); fill-opacity:1.000; stroke:none;" />
 <path d="  M 33,16  L 31,16  L 31,18  L 30,18  L 30,19  L 31,19  L 31,21  L 33,21  L 33,22  L 34,22  L 34,19  L 33,19  Z  " style="fill:rgb(12, 74, 165); fill-opacity:1.000; stroke:none;" />
 <path d="  M 33,14  L 33,13  L 32,13  L 32,14  Z  " style="fill:rgb(12, 74, 165); fill-opacity:1.000; stroke:none;" />
 <path d="  M 33,81  L 34,81  L 34,80  L 33,80  Z  " style="fill:rgb(12, 74, 165); fill-opacity:1.000; stroke:none;" />
 <path d="  M 33,93  L 34,93  L 34,92  L 33,92  Z  " style="fill:rgb(12, 74, 165); fill-opacity:1.000; stroke:none;" />
 <path d="  M 33,95  L 33,96  L 34,96  L 34,95  Z  " style="fill:rgb(12, 74, 165); fill-opacity:1.000; stroke:none;" />
 <path d="  M 34,23  L 34,24  L 35,24  L 35,23  Z  " style="fill:rgb(12, 74, 165); fill-opacity:1.000; stroke:none;" />
 <path d="  M 35,86  L 36,86  L 36,88  L 37,88  L 37,89  L 38,89  L 38,91  L 40,91  L 40,88  L 38,88  L 38,87  L 37,87  L 37,85  L 36,85  L 36,83  L 35,83  L 35,82  L 34,82  L 34,84  L 35,84  Z  " style="fill:rgb(12, 74, 165); fill-opacity:1.000; stroke:none;" />
 <path d="  M 34,94  L 35,94  L 35,93  L 34,93  Z  " style="fill:rgb(12, 74, 165); fill-opacity:1.000; stroke:none;" />
 <path d="  M 35,24  L 35,25  L 36,25  L 36,24  Z  " style="fill:rgb(12, 74, 165); fill-opacity:1.000; stroke:none;" />
 <path d="  M 35,95  L 35,96  L 36,96  L 36,95  Z  " style="fill:rgb(12, 74, 165); fill-opacity:1.000; stroke:none;" />
 <path d="  M 36,25  L 36,26  L 37,26  L 37,25  Z  " style="fill:rgb(12, 74, 165); fill-opacity:1.000; stroke:none;" />
 <path d="  M 39,94  L 38,94  L 38,95  L 39,95  Z  " style="fill:rgb(12, 74, 165); fill-opacity:1.000; stroke:none;" />
 <path d="  M 39,93  L 39,94  L 40,94  L 40,93  Z  " style="fill:rgb(12, 74, 165); fill-opacity:1.000; stroke:none;" />
 <path d="  M 41,93  L 41,91  L 40,91  L 40,93  Z  " style="fill:rgb(12, 74, 165); fill-opacity:1.000; stroke:none;" />
 <path d="  M 41,96  L 42,96  L 42,95  L 41,95  Z  " style="fill:rgb(12, 74, 165); fill-opacity:1.000; stroke:none;" />
 <path d="  M 18,46  L 18,47  L 19,47  L 19,46  Z  " style="fill:rgb(237, 144, 104); fill-opacity:1.000; stroke:none;" />
 <path d="  M 19,50  L 18,50  L 18,51  L 19,51  Z  " style="fill:rgb(237, 144, 104); fill-opacity:1.000; stroke:none;" />
 <path d="  M 18,66  L 19,66  L 19,65  L 18,65  Z  " style="fill:rgb(237, 144, 104); fill-opacity:1.000; stroke:none;" />
 <path d="  M 19,71  L 19,70  L 18,70  L 18,71  Z  " style="fill:rgb(237, 144, 104); fill-opacity:1.000; stroke:none;" />
 <path d="  M 19,53  L 20,53  L 20,54  L 21,54  L 21,53  L 22,53  L 22,54  L 23,54  L 23,50  L 22,50  L 22,52  L 20,52  L 20,51  L 19,51  Z  " style="fill:rgb(237, 144, 104); fill-opacity:1.000; stroke:none;" />
 <path d="  M 22,64  L 22,65  L 23,65  L 23,62  L 21,62  L 21,63  L 20,63  L 20,64  Z  " style="fill:rgb(237, 144, 104); fill-opacity:1.000; stroke:none;" />
 <path d="  M 21,43  L 22,43  L 22,42  L 24,42  L 24,41  L 22,41  L 22,39  L 21,39  Z  " style="fill:rgb(237, 144, 104); fill-opacity:1.000; stroke:none;" />
 <path d="  M 21,65  L 21,67  L 22,67  L 22,65  Z  " style="fill:rgb(237, 144, 104); fill-opacity:1.000; stroke:none;" />
 <path d="  M 22,72  L 22,71  L 21,71  L 21,72  Z  " style="fill:rgb(237, 144, 104); fill-opacity:1.000; stroke:none;" />
 <path d="  M 22,44  L 23,44  L 23,43  L 22,43  Z  " style="fill:rgb(237, 144, 104); fill-opacity:1.000; stroke:none;" />
 <path d="  M 22,71  L 23,71  L 23,70  L 22,70  Z  " style="fill:rgb(237, 144, 104); fill-opacity:1.000; stroke:none;" />
 <path d="  M 22,73  L 23,73  L 23,72  L 22,72  Z  " style="fill:rgb(237, 144, 104); fill-opacity:1.000; stroke:none;" />
 <path d="  M 23,34  L 23,35  L 24,35  L 24,34  Z  " style="fill:rgb(237, 144, 104); fill-opacity:1.000; stroke:none;" />
 <path d="  M 25,47  L 25,46  L 23,46  L 23,47  Z  " style="fill:rgb(237, 144, 104); fill-opacity:1.000; stroke:none;" />
 <path d="  M 23,73  L 23,75  L 24,75  L 24,73  Z  " style="fill:rgb(237, 144, 104); fill-opacity:1.000; stroke:none;" />
 <path d="  M 25,65  L 24,65  L 24,67  L 25,67  Z  " style="fill:rgb(237, 144, 104); fill-opacity:1.000; stroke:none;" />
 <path d="  M 25,48  L 26,48  L 26,47  L 25,47  Z  " style="fill:rgb(237, 144, 104); fill-opacity:1.000; stroke:none;" />
 <path d="  M 25,58  L 26,58  L 26,56  L 25,56  Z  " style="fill:rgb(237, 144, 104); fill-opacity:1.000; stroke:none;" />
 <path d="  M 27,36  L 26,36  L 26,37  L 27,37  Z  " style="fill:rgb(237, 144, 104); fill-opacity:1.000; stroke:none;" />
 <path d="  M 26,74  L 27,74  L 27,72  L 26,72  Z  " style="fill:rgb(237, 144, 104); fill-opacity:1.000; stroke:none;" />
 <path d="  M 28,34  L 29,34  L 29,33  L 30,33  L 30,34  L 31,34  L 31,32  L 30,32  L 30,31  L 29,31  L 29,32  L 28,32  Z  " style="fill:rgb(237, 144, 104); fill-opacity:1.000; stroke:none;" />
 <path d="  M 29,37  L 29,39  L 30,39  L 30,37  Z  " style="fill:rgb(237, 144, 104); fill-opacity:1.000; stroke:none;" />
 <path d="  M 29,41  L 29,42  L 30,42  L 30,43  L 31,43  L 31,41  Z  " style="fill:rgb(237, 144, 104); fill-opacity:1.000; stroke:none;" />
 <path d="  M 22,67  L 24,67  L 24,65  L 25,65  L 25,56  L 26,56  L 26,48  L 25,48  L 25,47  L 23,47  L 23,46  L 19,46  L 19,47  L 18,47  L 18,50  L 19,50  L 19,51  L 20,51  L 20,52  L 22,52  L 22,50  L 23,50  L 23,51  L 24,51  L 24,54  L 23,54  L 23,65  L 22,65  Z  " style="fill:rgb(244, 187, 137); fill-opacity:1.000; stroke:none;" />
 <path d="  M 21,65  L 22,65  L 22,64  L 19,64  L 19,66  L 18,66  L 18,70  L 19,70  L 19,71  L 21,71  Z  " style="fill:rgb(244, 187, 137); fill-opacity:1.000; stroke:none;" />
 <path d="  M 29,37  L 30,37  L 30,33  L 29,33  L 29,34  L 27,34  L 27,37  L 26,37  L 26,38  L 25,38  L 25,40  L 24,40  L 24,42  L 22,42  L 22,43  L 23,43  L 23,44  L 24,44  L 24,43  L 26,43  L 26,44  L 29,44  L 29,43  L 30,43  L 30,42  L 29,42  Z  " style="fill:rgb(244, 187, 137); fill-opacity:1.000; stroke:none;" />
 <path d="  M 22,72  L 23,72  L 23,73  L 26,73  L 26,72  L 27,72  L 27,71  L 22,71  Z  " style="fill:rgb(244, 187, 137); fill-opacity:1.000; stroke:none;" />
 <path d="  M 23,33  L 23,34  L 26,34  L 26,33  Z  " style="fill:rgb(244, 187, 137); fill-opacity:1.000; stroke:none;" />
 <path d="  M 22,67  L 21,67  L 21,70  L 22,70  Z  " style="fill:rgb(157, 157, 203); fill-opacity:1.000; stroke:none;" />
 <path d="  M 23,39  L 23,40  L 24,40  L 24,39  Z  " style="fill:rgb(157, 157, 203); fill-opacity:1.000; stroke:none;" />
 <path d="  M 23,68  L 23,70  L 25,70  L 25,68  Z  " style="fill:rgb(157, 157, 203); fill-opacity:1.000; stroke:none;" />
 <path d="  M 24,37  L 25,37  L 25,36  L 24,36  Z  " style="fill:rgb(157, 157, 203); fill-opacity:1.000; stroke:none;" />
 <path d="  M 26,36  L 26,35  L 25,35  L 25,36  Z  " style="fill:rgb(157, 157, 203); fill-opacity:1.000; stroke:none;" />
 <path d="  M 32,37  L 31,37  L 31,39  L 32,39  Z  " style="fill:rgb(157, 157, 203); fill-opacity:1.000; stroke:none;" />
 <path d="  M 41,88  L 40,88  L 40,89  L 41,89  Z  " style="fill:rgb(157, 157, 203); fill-opacity:1.000; stroke:none;" />
 <path d="  M 42,89  L 41,89  L 41,91  L 42,91  Z  " style="fill:rgb(157, 157, 203); fill-opacity:1.000; stroke:none;" />
 <path d="  M 43,91  L 42,91  L 42,95  L 43,95  Z  " style="fill:rgb(157, 157, 203); fill-opacity:1.000; stroke:none;" />
 <path d="  M 25,46  L 25,45  L 26,45  L 26,44  L 23,44  L 23,46  Z  " style="fill:rgb(154, 31, 70); fill-opacity:1.000; stroke:none;" />
 <path d="  M 26,46  L 25,46  L 25,47  L 26,47  Z  " style="fill:rgb(154, 31, 70); fill-opacity:1.000; stroke:none;" />
 <path d="  M 32,40  L 32,39  L 31,39  L 31,40  Z  " style="fill:rgb(154, 31, 70); fill-opacity:1.000; stroke:none;" />
</svg>
